<svg width="190" height="180" viewBox="0 0 190 180" fill="none" xmlns="http://www.w3.org/2000/svg">
<path d="M84.3044 97.8682H53.2391C52.5515 97.8682 51.892 98.1413 51.4058 98.6275C50.9196 99.1137 50.6465 99.7731 50.6465 100.461V100.756C51.2103 111.751 52.8789 122.662 55.6269 133.323C55.7666 133.902 56.0998 134.415 56.5712 134.779C57.0426 135.143 57.6241 135.335 58.2195 135.324H84.3044C84.992 135.324 85.6514 135.051 86.1376 134.565C86.6238 134.078 86.897 133.419 86.897 132.731V100.574C86.922 99.892 86.679 99.2268 86.2201 98.7211C85.7611 98.2154 85.1225 97.9093 84.4409 97.8682H84.3044Z" fill="#F4E1D9" fill-opacity="0.3"/>
<path d="M84.3028 44.4237H58.4226C57.8262 44.4081 57.2426 44.5986 56.7703 44.9632C56.298 45.3278 55.9659 45.8441 55.83 46.425C53.0147 57.1411 51.2777 68.1117 50.6449 79.1733C50.5741 79.8534 50.7725 80.5342 51.1976 81.0698C51.6227 81.6054 52.2407 81.9532 52.9191 82.0387H84.2573C84.9449 82.0387 85.6044 81.7656 86.0906 81.2794C86.5768 80.7932 86.8499 80.1338 86.8499 79.4462V47.13C86.8439 46.4464 86.5681 45.7928 86.0826 45.3115C85.597 44.8302 84.941 44.5602 84.2573 44.5602L84.3028 44.4237Z" fill="#F4E1D9" fill-opacity="0.3"/>
<path d="M82.848 0.644705C76.2756 4.78372 69.9079 12.0156 64.6545 22.204C64.2452 22.9999 63.8358 23.8869 63.4265 24.7738C63.2546 25.0679 63.1423 25.393 63.0962 25.7306C63.05 26.0681 63.0708 26.4114 63.1574 26.7409C63.244 27.0704 63.3947 27.3795 63.6009 27.6508C63.807 27.922 64.0646 28.1499 64.3589 28.3215C64.8103 28.5916 65.336 28.7111 65.8598 28.6626H84.0533C84.7409 28.6626 85.4003 28.3895 85.8865 27.9033C86.3727 27.4171 86.6459 26.7577 86.6459 26.0701V2.91889C86.6581 2.57838 86.603 2.2388 86.4838 1.9196C86.3646 1.60039 86.1837 1.3078 85.9514 1.05857C85.719 0.809337 85.4398 0.608358 85.1298 0.467104C84.8197 0.32585 84.4848 0.24709 84.1443 0.235352C83.6844 0.25929 83.2382 0.400187 82.848 0.644705Z" fill="#F4E1D9" fill-opacity="0.3"/>
<path d="M84.3029 151.036H65.9048C65.2182 150.992 64.542 151.22 64.0227 151.672C63.5033 152.123 63.1827 152.761 63.1303 153.446C63.1051 153.954 63.2233 154.458 63.4714 154.902C63.9035 155.834 64.3811 156.744 64.8132 157.495C68.8635 166.164 75.1416 173.603 83.0066 179.054C83.4049 179.367 83.8862 179.557 84.3911 179.599C84.8959 179.642 85.4022 179.536 85.8474 179.294C86.2925 179.052 86.657 178.685 86.8959 178.238C87.1347 177.791 87.2373 177.284 87.1912 176.78V153.469C87.1852 152.786 86.9094 152.132 86.4238 151.651C85.9382 151.169 85.2823 150.899 84.5986 150.899L84.3029 151.036Z" fill="#F4E1D9" fill-opacity="0.3"/>
<path d="M28.8603 28.5495H43.1194C43.6746 28.5657 44.2209 28.4077 44.6817 28.0977C45.1425 27.7878 45.4949 27.3414 45.6893 26.8211C47.8696 21.323 50.4698 16.0009 53.467 10.9019C53.7285 10.6667 53.9399 10.3812 54.0886 10.0624C54.2372 9.7436 54.3201 9.3981 54.3321 9.04657C54.3441 8.69504 54.2851 8.3447 54.1586 8.0165C54.0321 7.6883 53.8407 7.38898 53.5958 7.13647C53.351 6.88396 53.0577 6.68342 52.7335 6.54688C52.4094 6.41034 52.061 6.3406 51.7093 6.34181C51.3575 6.34303 51.0097 6.41517 50.6865 6.55394C50.3633 6.69271 50.0714 6.89526 49.8283 7.14945C41.4624 11.6306 33.8 17.316 27.0864 24.0239C26.5504 24.4526 26.2063 25.0765 26.1295 25.7586C26.0528 26.4407 26.2497 27.1254 26.6771 27.6626C26.945 27.9724 27.2826 28.2143 27.6621 28.3684C28.0416 28.5226 28.4522 28.5847 28.8603 28.5495Z" fill="#F4E1D9" fill-opacity="0.3"/>
<path d="M2.72744 82.0388H32.2918C32.9687 82.0057 33.6091 81.7219 34.0883 81.2427C34.5675 80.7635 34.8513 80.1231 34.8844 79.4462C35.3776 68.7289 36.8082 58.0754 39.1599 47.6076C39.3356 46.9474 39.246 46.2447 38.9102 45.6497C38.5745 45.0547 38.0192 44.6146 37.3632 44.4238C37.1 44.377 36.8305 44.377 36.5673 44.4238H12.9385C12.4678 44.42 12.0054 44.5479 11.6035 44.793C11.2017 45.0381 10.8764 45.3907 10.6643 45.811C5.04682 56.0872 1.4422 67.341 0.0438997 78.9686C-0.0184695 79.3017 -0.0143471 79.6439 0.0560451 79.9754C0.126437 80.3069 0.261703 80.6211 0.454052 80.9002C0.6464 81.1792 0.892029 81.4174 1.17681 81.6011C1.46159 81.7848 1.7799 81.9104 2.1134 81.9705H2.36356L2.72744 82.0388Z" fill="#F4E1D9" fill-opacity="0.3"/>
<path d="M45.4407 152.857C45.2366 152.339 44.8788 151.896 44.4153 151.587C43.9519 151.278 43.405 151.118 42.8481 151.129H28.5208C27.9727 151.077 27.4224 151.201 26.9494 151.482C26.4765 151.764 26.1055 152.189 25.8901 152.696C25.6748 153.202 25.6264 153.764 25.7518 154.3C25.8772 154.836 26.17 155.319 26.5877 155.677C33.3403 162.487 41.0656 168.258 49.5115 172.802C50.0004 173.281 50.6576 173.549 51.3422 173.549C52.0268 173.549 52.684 173.281 53.1729 172.802C53.6576 172.316 53.9298 171.657 53.9298 170.971C53.9298 170.285 53.6576 169.626 53.1729 169.14C50.1581 163.931 47.5721 158.486 45.4407 152.857Z" fill="#F4E1D9" fill-opacity="0.3"/>
<path d="M144.366 26.821C144.564 27.3431 144.921 27.7902 145.385 28.1C145.85 28.4099 146.4 28.567 146.958 28.5494H161.331C161.671 28.5938 162.016 28.5699 162.346 28.479C162.676 28.3881 162.985 28.2322 163.254 28.0203C163.523 27.8084 163.747 27.5449 163.913 27.2452C164.078 26.9456 164.183 26.6158 164.219 26.2752C164.259 25.8468 164.193 25.4152 164.027 25.0185C163.86 24.6218 163.598 24.2723 163.264 24.0011C156.55 17.2932 148.888 11.6077 140.522 7.12663C140.019 6.67426 139.36 6.43444 138.684 6.45759C138.008 6.48073 137.367 6.76502 136.896 7.25074C136.425 7.73645 136.161 8.38578 136.158 9.06235C136.156 9.73892 136.416 10.3901 136.883 10.879C139.778 15.9955 142.28 21.3249 144.366 26.821Z" fill="#F4E1D9" fill-opacity="0.3"/>
<path d="M39.1155 131.981C36.8213 121.612 35.4063 111.068 34.8855 100.461C34.858 99.7858 34.5791 99.1457 34.1035 98.6659C33.628 98.1862 32.9903 97.9017 32.3157 97.8682H2.75131C2.39581 97.8828 2.04669 97.9674 1.72392 98.1171C1.40115 98.2668 1.11105 98.4786 0.870252 98.7406C0.62945 99.0025 0.442674 99.3093 0.320584 99.6435C0.198493 99.9777 0.143487 100.333 0.158737 100.688V100.893C1.50816 112.429 5.01855 123.609 10.5063 133.846C10.7193 134.267 11.0442 134.621 11.4454 134.87C11.8465 135.119 12.3085 135.252 12.7805 135.256H36.5002C37.1839 135.256 37.8399 134.986 38.3254 134.504C38.811 134.023 39.0868 133.37 39.0928 132.686C39.1227 132.452 39.1304 132.216 39.1155 131.981Z" fill="#F4E1D9" fill-opacity="0.3"/>
<path d="M105.567 82.038H136.632C136.972 82.038 137.308 81.9708 137.621 81.8402C137.934 81.7097 138.219 81.5184 138.458 81.2773C138.697 81.0363 138.885 80.7503 139.013 80.4359C139.141 80.1215 139.205 79.7849 139.202 79.4455V79.1498C138.631 68.0942 136.955 57.1235 134.199 46.4016C134.063 45.8206 133.731 45.3043 133.259 44.9397C132.787 44.5751 132.203 44.3846 131.607 44.4003H105.567C104.88 44.4003 104.22 44.6734 103.734 45.1596C103.248 45.6458 102.975 46.3053 102.975 46.9929V79.1725C102.91 79.8464 103.112 80.5187 103.537 81.0457C103.962 81.5726 104.577 81.9124 105.249 81.9925L105.567 82.038Z" fill="#F4E1D9" fill-opacity="0.3"/>
<path d="M150.711 47.7216C153.04 58.1933 154.471 68.8449 154.987 79.5601C154.984 79.8995 155.048 80.2361 155.176 80.5505C155.304 80.865 155.492 81.1509 155.731 81.392C155.97 81.633 156.255 81.8243 156.568 81.9549C156.881 82.0855 157.217 82.1527 157.556 82.1527H187.121C187.808 82.1527 188.468 81.8795 188.954 81.3933C189.44 80.9071 189.713 80.2477 189.713 79.5601C189.736 79.3941 189.736 79.2258 189.713 79.0598C188.4 67.4434 184.889 56.1831 179.366 45.8795C179.143 45.4431 178.8 45.0802 178.376 44.8341C177.953 44.5881 177.467 44.4694 176.978 44.4922H153.44C152.76 44.4547 152.092 44.6867 151.581 45.1378C151.071 45.5889 150.758 46.223 150.711 46.9029C150.674 47.1745 150.674 47.4499 150.711 47.7216Z" fill="#F4E1D9" fill-opacity="0.3"/>
<path d="M187.208 97.8661H157.644C156.965 97.894 156.322 98.1762 155.842 98.6564C155.361 99.1367 155.079 99.78 155.051 100.459C154.579 111.063 153.202 121.609 150.935 131.979C150.753 132.639 150.84 133.345 151.176 133.941C151.513 134.538 152.072 134.977 152.731 135.163H177.224C177.718 135.179 178.206 135.052 178.629 134.798C179.053 134.544 179.394 134.173 179.612 133.73C185.09 123.497 188.6 112.327 189.96 100.8C190.079 100.124 189.926 99.4293 189.534 98.8667C189.142 98.3041 188.542 97.9198 187.868 97.7979L187.208 97.8661Z" fill="#F4E1D9" fill-opacity="0.3"/>
<path d="M161.332 151.037H146.981C146.419 151.014 145.864 151.172 145.398 151.487C144.931 151.802 144.578 152.258 144.389 152.789C142.23 158.38 139.637 163.794 136.634 168.981C136.352 169.209 136.121 169.493 135.955 169.815C135.789 170.137 135.691 170.49 135.669 170.852C135.647 171.214 135.7 171.576 135.825 171.917C135.95 172.257 136.145 172.567 136.396 172.828C136.648 173.089 136.951 173.295 137.286 173.433C137.621 173.57 137.982 173.637 138.344 173.628C138.706 173.619 139.063 173.535 139.391 173.381C139.719 173.227 140.012 173.006 140.25 172.733C148.699 168.203 156.425 162.439 163.174 155.631C163.438 155.417 163.658 155.153 163.82 154.854C163.981 154.555 164.082 154.226 164.116 153.888C164.15 153.549 164.116 153.208 164.017 152.882C163.917 152.557 163.755 152.254 163.538 151.993C163.269 151.673 162.93 151.42 162.547 151.254C162.165 151.088 161.748 151.014 161.332 151.037Z" fill="#F4E1D9" fill-opacity="0.3"/>
<path d="M105.569 28.5491H123.762C124.428 28.6009 125.089 28.3932 125.606 27.9694C126.123 27.5457 126.456 26.9386 126.537 26.2749C126.573 25.7519 126.454 25.2298 126.195 24.774L125.058 22.1132C121.014 13.4402 114.734 5.99933 106.865 0.553931C106.599 0.342517 106.294 0.186368 105.967 0.0946601C105.64 0.00295193 105.298 -0.0224638 104.961 0.0199136C104.624 0.0622909 104.299 0.171603 104.005 0.341421C103.711 0.511239 103.454 0.738146 103.249 1.00878C102.845 1.52539 102.651 2.17469 102.703 2.82811V25.7519C102.639 26.4258 102.841 27.0981 103.266 27.625C103.691 28.1519 104.305 28.4918 104.977 28.5719C105.17 28.643 105.382 28.6348 105.569 28.5491Z" fill="#F4E1D9" fill-opacity="0.3"/>
<path d="M123.963 151.038H105.565C104.878 151.038 104.218 151.311 103.732 151.797C103.246 152.284 102.973 152.943 102.973 153.631V176.918C102.914 177.591 103.119 178.26 103.542 178.786C103.966 179.311 104.577 179.653 105.247 179.738C105.905 179.799 106.561 179.612 107.089 179.215C114.932 173.741 121.205 166.308 125.282 157.656C125.76 156.769 126.192 155.859 126.624 154.927C126.781 154.626 126.877 154.296 126.906 153.958C126.935 153.619 126.897 153.278 126.793 152.955C126.689 152.631 126.523 152.331 126.302 152.073C126.082 151.814 125.813 151.601 125.51 151.447C125.06 151.222 124.556 151.127 124.054 151.175L123.963 151.038Z" fill="#F4E1D9" fill-opacity="0.3"/>
<path d="M136.52 97.8682H105.477C104.79 97.8682 104.13 98.1413 103.644 98.6275C103.158 99.1137 102.885 99.7731 102.885 100.461V132.549C102.885 133.237 103.158 133.896 103.644 134.383C104.13 134.869 104.79 135.142 105.477 135.142H131.539C132.131 135.148 132.707 134.954 133.174 134.59C133.641 134.227 133.97 133.716 134.109 133.141C136.834 122.49 138.502 111.597 139.09 100.62C139.111 100.279 139.065 99.9378 138.955 99.615C138.844 99.2922 138.671 98.9944 138.444 98.7387C138.218 98.4831 137.944 98.2746 137.637 98.1252C137.33 97.9758 136.997 97.8884 136.656 97.8682H136.52Z" fill="#F4E1D9" fill-opacity="0.3"/>
</svg>
