<svg width="267" height="143" viewBox="0 0 267 143" fill="none" xmlns="http://www.w3.org/2000/svg">
<g clip-path="url(#clip0_26_612)">
<path d="M31.6975 123.028C30.3735 123.035 29.0638 122.77 27.8472 122.241C25.4782 121.239 23.5888 119.357 22.5654 116.996C21.5277 114.541 21.5277 111.772 22.5654 109.325C23.5817 106.949 25.4711 105.06 27.8472 104.044C29.0638 103.521 30.3735 103.257 31.6975 103.264C33.0215 103.257 34.3384 103.521 35.5551 104.044C37.924 105.06 39.8134 106.949 40.8225 109.325C42.3898 113.024 41.5525 117.303 38.7041 120.13C37.7952 121.024 36.7288 121.733 35.5551 122.226C34.3384 122.763 33.0287 123.035 31.6975 123.028ZM31.6975 117.854C32.3416 117.854 32.9858 117.733 33.5798 117.489C34.1595 117.253 34.6891 116.917 35.1471 116.488C35.6123 116.065 35.9988 115.55 36.2708 114.985C36.8075 113.826 36.8075 112.488 36.2708 111.335C35.9916 110.763 35.6123 110.248 35.1471 109.818C33.7372 108.452 31.6474 108.058 29.8368 108.802C29.2499 109.038 28.7203 109.382 28.2623 109.818C27.8185 110.255 27.4607 110.77 27.1959 111.335C26.652 112.495 26.652 113.833 27.1959 114.985C27.4535 115.55 27.8185 116.058 28.2623 116.488C28.7131 116.917 29.2499 117.26 29.8368 117.489C30.4308 117.726 31.0606 117.84 31.6975 117.84V117.854Z" fill="#CD4C1D"/>
<path d="M22.9158 102.799C22.7368 102.885 22.5293 102.885 22.3575 102.799C22.2072 102.72 22.1213 102.556 22.1357 102.391V98.1407C22.1357 97.9618 22.1929 97.7901 22.3003 97.6469C22.4005 97.5038 22.5436 97.3893 22.7082 97.3321L31.3966 94.3553C31.5755 94.3052 31.6614 94.2122 31.6614 94.0834C31.6614 93.9546 31.5755 93.8616 31.3966 93.8115L22.744 90.9492C22.5651 90.8991 22.4148 90.7846 22.3074 90.6343C22.1929 90.4697 22.1357 90.2765 22.1428 90.0762V86.6128C22.1428 86.4268 22.2001 86.2479 22.3074 86.0976C22.4148 85.9473 22.5651 85.8328 22.744 85.7827L31.461 82.9133C31.6328 82.8632 31.7187 82.7702 31.7187 82.6414C31.7187 82.5126 31.6328 82.4124 31.461 82.3408L22.701 79.3426C22.5364 79.2639 22.4005 79.1422 22.2931 78.9991C22.1786 78.8345 22.1213 78.6413 22.1285 78.441V74.2763C22.1142 74.1118 22.2001 73.9543 22.3504 73.8828C22.4935 73.8255 22.6581 73.8255 22.8084 73.8828L40.6432 80.2084C40.815 80.2728 40.9724 80.3945 41.0726 80.5448C41.1943 80.7093 41.2516 80.9025 41.2444 81.1029V84.4661C41.2516 84.6665 41.1943 84.8668 41.0726 85.0242C40.9724 85.1745 40.815 85.289 40.6432 85.3391L31.9477 88.2085C31.7759 88.2658 31.6829 88.3517 31.6829 88.4805C31.6829 88.6093 31.7759 88.7023 31.9477 88.7524L40.6432 91.6218C40.8221 91.6719 40.9724 91.7864 41.0726 91.9367C41.1943 92.1012 41.2516 92.2945 41.2444 92.4948V95.858C41.2301 96.223 40.9939 96.545 40.6432 96.6666L22.9158 102.792V102.799Z" fill="#CD4C1D"/>
<path d="M22.7373 68.6227C22.5727 68.544 22.4367 68.4223 22.3436 68.2721C22.2291 68.1075 22.1719 67.9143 22.1719 67.7139V64.086C22.1719 63.8999 22.2291 63.721 22.3436 63.5779C22.4438 63.4276 22.587 63.306 22.7516 63.2273L40.5005 55.6064C40.6651 55.542 40.8512 55.5563 41.0015 55.6422C41.1947 55.7639 41.2949 55.9785 41.2592 56.2004V60.687C41.2592 60.8874 41.2019 61.0877 41.0874 61.2451C40.9872 61.4026 40.8512 61.5314 40.6866 61.6244L39.0978 62.3257C38.9332 62.4187 38.7972 62.5475 38.697 62.7049C38.5897 62.8552 38.5324 63.0341 38.5252 63.213V68.7157C38.5252 68.9161 38.5825 69.1093 38.697 69.2739C38.79 69.4313 38.9332 69.5529 39.0978 69.6245L40.6723 70.3544C40.8369 70.4331 40.9729 70.5547 41.0731 70.705C41.1804 70.8553 41.2377 71.0342 41.2448 71.2131V75.6997C41.2448 75.7927 41.2234 75.8858 41.1876 75.9716C41.159 76.0575 41.1017 76.1362 41.0373 76.2006C40.9657 76.265 40.8727 76.3079 40.7796 76.3223C40.6508 76.3366 40.522 76.3079 40.4075 76.2364L22.7373 68.6012V68.6227ZM34.088 67.0842V64.7586C34.1023 64.6083 34.0379 64.4652 33.9162 64.3793C33.7874 64.3006 33.63 64.3006 33.5083 64.3793C33.0789 64.5511 32.5636 64.7586 31.9839 65.0091L30.3378 65.6888C30.1875 65.7532 30.1088 65.832 30.1088 65.925C30.1088 66.018 30.1875 66.0896 30.3378 66.154L33.494 67.4635C33.6228 67.5279 33.7731 67.5279 33.9019 67.4635C34.0236 67.3776 34.0952 67.2345 34.088 67.0842Z" fill="#CD4C1D"/>
<path d="M75.2245 91.0638H68.4899C68.1821 91.0638 67.9316 91.3142 67.9316 91.6219V91.6863C68.0533 94.0692 68.4183 96.4306 69.0123 98.7419C69.0767 98.9995 69.3058 99.1784 69.5706 99.1712H75.2245C75.5322 99.1712 75.7827 98.9208 75.7827 98.6131V91.6434C75.797 91.3357 75.5608 91.071 75.2531 91.0566C75.2459 91.0566 75.2316 91.0566 75.2245 91.0566V91.0638Z" fill="#CD4C1D"/>
<path d="M75.2262 79.4785H69.6152C69.3504 79.4785 69.1143 79.6503 69.057 79.9079C68.4487 82.2335 68.0694 84.6092 67.9334 87.0063C67.8976 87.314 68.1266 87.5931 68.4344 87.6217H75.2262C75.5339 87.6217 75.7844 87.3713 75.7844 87.0636V80.0581C75.7844 79.7504 75.5339 79.5 75.2262 79.5V79.4785Z" fill="#CD4C1D"/>
<path d="M74.9107 69.9895C73.4865 70.884 72.1053 72.4797 70.9816 74.6622C70.8886 74.8339 70.8027 75.0271 70.7097 75.2203C70.5522 75.4851 70.6453 75.8286 70.9101 75.986C71.0103 76.0433 71.1248 76.0719 71.2321 76.0576H75.197C75.5048 76.0576 75.7552 75.8071 75.7552 75.4994V70.4761C75.7624 70.1684 75.5191 69.9108 75.2113 69.8965C75.0968 69.8965 74.9895 69.9251 74.8964 69.9824L74.9107 69.9895Z" fill="#CD4C1D"/>
<path d="M75.2256 102.591H71.2392C70.9315 102.57 70.6595 102.806 70.638 103.114C70.6309 103.221 70.6524 103.336 70.7096 103.429C70.8027 103.629 70.9029 103.829 71.003 103.987C71.8762 105.862 73.2288 107.479 74.9321 108.659C75.1755 108.853 75.5262 108.81 75.7194 108.566C75.8053 108.452 75.8482 108.309 75.8339 108.166V103.114C75.8339 102.806 75.5834 102.556 75.2757 102.556L75.2327 102.591H75.2256Z" fill="#CD4C1D"/>
<path d="M63.1736 76.0435H66.2653C66.5158 76.0435 66.7377 75.9004 66.8236 75.6643C67.2959 74.4693 67.8541 73.31 68.5054 72.2009C68.7273 71.9862 68.7344 71.6284 68.5197 71.3995C68.305 71.1776 67.9472 71.1705 67.7182 71.3851C65.9075 72.3583 64.2471 73.5891 62.7943 75.0417C62.5509 75.2349 62.508 75.5856 62.7012 75.8289C62.8157 75.9648 62.9803 76.0435 63.1593 76.0364L63.1736 76.0435Z" fill="#CD4C1D"/>
<path d="M57.5328 87.6359H63.9239C64.2245 87.6216 64.4678 87.3783 64.4821 87.0778C64.5966 84.7665 64.9044 82.4623 65.4053 80.2011C65.4912 79.9006 65.3123 79.5929 65.0189 79.5142C64.9616 79.507 64.9044 79.507 64.8471 79.5142H59.7443C59.5296 79.5142 59.3292 79.6286 59.229 79.8147C58.0195 82.0401 57.2465 84.4802 56.9531 86.9919C56.8959 87.2996 57.0963 87.593 57.404 87.6431C57.4255 87.6431 57.4398 87.6431 57.4613 87.6502L57.54 87.6359H57.5328Z" fill="#CD4C1D"/>
<path d="M66.7943 102.985C66.7013 102.756 66.4794 102.605 66.2361 102.605H63.13C62.8223 102.57 62.5432 102.784 62.5074 103.092C62.4859 103.285 62.5646 103.471 62.7149 103.593C64.1749 105.067 65.8568 106.319 67.6889 107.3C67.9036 107.521 68.2615 107.521 68.4834 107.3C68.7052 107.085 68.7124 106.727 68.4905 106.505C68.4905 106.505 68.4905 106.505 68.4834 106.498C67.8249 105.375 67.2667 104.194 66.8015 102.978L66.7943 102.985Z" fill="#CD4C1D"/>
<path d="M88.2441 75.6639C88.3372 75.8929 88.559 76.0432 88.8024 76.0432H91.9228C92.2305 76.079 92.5096 75.8643 92.5526 75.5566C92.574 75.3634 92.4953 75.1702 92.345 75.0486C90.8922 73.5959 89.2318 72.3652 87.4211 71.392C87.1992 71.1773 86.8414 71.1845 86.6195 71.4063C86.4048 71.6281 86.412 71.9859 86.6339 72.2077C87.2565 73.3169 87.8004 74.4761 88.2441 75.6711V75.6639Z" fill="#CD4C1D"/>
<path d="M65.4281 98.4622C64.9271 96.2153 64.6265 93.9255 64.512 91.6285C64.4977 91.3279 64.2543 91.0846 63.9538 91.0703H57.5412C57.2192 91.0846 56.9687 91.3565 56.983 91.6785V91.7215C57.2764 94.2188 58.0351 96.6446 59.2303 98.8629C59.3304 99.0561 59.5308 99.1777 59.7455 99.1706H64.8698C65.1776 99.1706 65.4281 98.9201 65.4281 98.6124C65.4352 98.5624 65.4352 98.5123 65.4281 98.4622Z" fill="#CD4C1D"/>
<path d="M79.8341 87.6359H86.5687C86.8764 87.6359 87.1269 87.3855 87.1269 87.0778V87.0134C87.0052 84.6162 86.6402 82.2334 86.0391 79.9149C85.9747 79.6573 85.7456 79.4784 85.4808 79.4856H79.8341C79.5263 79.4856 79.2759 79.736 79.2759 80.0437V87.0205C79.2472 87.3282 79.4763 87.6001 79.784 87.6288H79.8341V87.6359Z" fill="#CD4C1D"/>
<path d="M89.6173 80.1938C90.1255 82.455 90.4332 84.7592 90.5406 87.0705C90.5406 87.3782 90.7911 87.6286 91.0988 87.6286H97.5256C97.8334 87.6286 98.0839 87.3782 98.0839 87.0705C98.0839 87.0347 98.0839 86.9989 98.0839 86.9631C97.7976 84.4443 97.039 82.0042 95.8366 79.7716C95.7364 79.5784 95.536 79.4639 95.3213 79.4711H90.197C89.8893 79.4496 89.6245 79.6858 89.603 79.9935C89.5959 80.0579 89.5959 80.1223 89.603 80.1867L89.6173 80.1938Z" fill="#CD4C1D"/>
<path d="M97.5328 91.0635H91.1346C90.834 91.0778 90.5907 91.3211 90.5763 91.6216C90.4761 93.9186 90.1756 96.2084 89.6817 98.4553C89.5959 98.7559 89.7748 99.0636 90.0682 99.1423C90.1255 99.1494 90.1827 99.1494 90.24 99.1423H95.3786C95.5933 99.1423 95.7937 99.0278 95.8939 98.8346C97.0819 96.6163 97.8405 94.1905 98.1411 91.6932C98.1984 91.3855 97.9908 91.0992 97.6902 91.042C97.6401 91.042 97.59 91.042 97.5399 91.0563L97.5328 91.0635Z" fill="#CD4C1D"/>
<path d="M91.9227 102.591H88.8095C88.559 102.576 88.33 102.727 88.2513 102.97C87.7861 104.187 87.2207 105.36 86.5694 106.483C86.3475 106.698 86.3404 107.056 86.5551 107.285C86.7698 107.507 87.1276 107.514 87.3567 107.299C89.1888 106.319 90.8635 105.067 92.3307 103.593C92.574 103.399 92.6098 103.042 92.4094 102.805C92.2949 102.662 92.1159 102.591 91.9299 102.605L91.9227 102.591Z" fill="#CD4C1D"/>
<path d="M79.8337 76.0439H83.7986C84.1063 76.0654 84.3783 75.8364 84.3998 75.5287C84.4069 75.4142 84.3854 75.2997 84.3282 75.2067L84.0562 74.6485C83.1831 72.7737 81.8305 71.1565 80.1271 69.9758C79.8838 69.7826 79.5331 69.8327 79.3399 70.076C79.254 70.1905 79.2111 70.3265 79.2254 70.4696V75.4428C79.1967 75.7505 79.4186 76.0224 79.7335 76.051C79.7693 76.051 79.7979 76.051 79.8337 76.051V76.0439Z" fill="#CD4C1D"/>
<path d="M83.8204 102.591H79.8341C79.5263 102.591 79.2759 102.841 79.2759 103.149V108.201C79.2472 108.509 79.4763 108.781 79.784 108.809C79.9271 108.823 80.0703 108.781 80.1776 108.695C81.8738 107.507 83.2264 105.897 84.1067 104.022C84.2069 103.829 84.3 103.636 84.4002 103.435C84.5433 103.156 84.4359 102.82 84.1568 102.677C84.0566 102.627 83.9493 102.605 83.8419 102.619L83.8276 102.591H83.8204Z" fill="#CD4C1D"/>
<path d="M86.5467 91.0635H79.8121C79.5044 91.0635 79.2539 91.3139 79.2539 91.6216V98.577C79.2539 98.8847 79.5044 99.1351 79.8121 99.1351H85.4589C85.7237 99.1351 85.9599 98.9634 86.0171 98.7058C86.6111 96.3945 86.969 94.0331 87.0978 91.6574C87.1193 91.3497 86.8831 91.0849 86.5753 91.0635H86.5467Z" fill="#CD4C1D"/>
<path d="M101.347 56H56.1158C51.6357 56 48.0072 59.628 48 64.1074V115.457C48 119.936 51.6357 123.564 56.1158 123.564H101.347C105.827 123.564 109.456 119.936 109.456 115.457V64.1074C109.456 59.628 105.827 56 101.347 56ZM78.7314 113.74C65.4985 113.74 54.7704 103.013 54.7704 89.7822C54.7704 76.5512 65.4985 65.8248 78.7314 65.8248C91.9644 65.8248 102.693 76.5512 102.693 89.7822C102.693 103.013 91.9644 113.74 78.7314 113.74Z" fill="#CD4C1D"/>
<path d="M32.1413 44.6086V39.5996C32.1413 33.095 37.4159 27.8213 43.9215 27.8213C50.1193 27.8213 55.1434 32.8446 55.1434 39.0414V52.1149C55.1434 52.7876 55.6873 53.3243 56.3529 53.3243H63.3523C64.0179 53.3243 64.5618 52.7876 64.5618 52.1221C64.5618 52.1221 64.5618 52.1149 64.5618 52.1078V39.0844C64.5618 27.6925 55.3295 18.4473 43.9287 18.4473C31.9123 18.4473 22.1719 28.1862 22.1719 40.2007V44.6014C22.1719 45.6963 23.0522 46.5836 24.1472 46.5907H30.1517C31.2467 46.5907 32.1413 45.7034 32.1413 44.6014V44.6086Z" fill="#CD4C1D"/>
<path d="M143.824 82.9996C142.5 82.9996 141.319 82.7134 140.281 82.1481C139.243 81.5828 138.435 80.8028 137.841 79.8225C137.247 78.8421 136.953 77.7187 136.953 76.4593C136.953 75.1999 137.247 74.0764 137.841 73.0961C138.435 72.1158 139.243 71.3358 140.281 70.7705C141.319 70.2052 142.5 69.9189 143.824 69.9189C145.148 69.9189 146.314 70.2052 147.338 70.7705C148.361 71.3358 149.17 72.1158 149.757 73.0961C150.344 74.0764 150.637 75.1999 150.637 76.4593C150.637 77.7187 150.344 78.8421 149.757 79.8225C149.17 80.8028 148.361 81.5828 147.338 82.1481C146.314 82.7134 145.141 82.9996 143.824 82.9996ZM143.795 78.8493C144.196 78.8493 144.554 78.7491 144.869 78.5416C145.183 78.3341 145.434 78.0478 145.613 77.6829C145.792 77.318 145.885 76.9029 145.885 76.4307C145.885 75.9584 145.792 75.572 145.613 75.2142C145.434 74.8564 145.183 74.5773 144.869 74.3698C144.554 74.1623 144.196 74.0621 143.795 74.0621C143.394 74.0621 143.036 74.1623 142.722 74.3698C142.407 74.5773 142.156 74.8564 141.977 75.2142C141.798 75.572 141.705 75.9727 141.705 76.4307C141.705 76.8886 141.798 77.318 141.977 77.6829C142.156 78.0478 142.407 78.3341 142.722 78.5416C143.036 78.7491 143.394 78.8493 143.795 78.8493Z" fill="#CD4C1D"/>
<path d="M155.898 89.0387H151.246V70.1691H155.311L155.547 71.8077C156.048 71.2138 156.65 70.7487 157.351 70.4195C158.052 70.0904 158.811 69.9258 159.634 69.9258C160.736 69.9258 161.702 70.212 162.554 70.7773C163.406 71.3426 164.071 72.1226 164.551 73.1029C165.03 74.0833 165.281 75.2067 165.281 76.4661C165.281 77.7255 165.037 78.849 164.551 79.8293C164.064 80.8096 163.398 81.5896 162.554 82.1549C161.709 82.7202 160.736 83.0064 159.634 83.0064C158.897 83.0064 158.21 82.8776 157.58 82.6129C156.95 82.3481 156.392 81.976 155.891 81.4966V89.0459L155.898 89.0387ZM158.21 78.849C158.661 78.849 159.061 78.7488 159.412 78.5413C159.763 78.3338 160.035 78.0547 160.228 77.6897C160.421 77.3248 160.521 76.9169 160.521 76.459C160.521 76.001 160.421 75.586 160.228 75.2282C160.035 74.8704 159.756 74.5842 159.412 74.3766C159.069 74.1691 158.661 74.0689 158.21 74.0689C157.787 74.0689 157.408 74.162 157.072 74.348C156.735 74.5341 156.456 74.7917 156.256 75.1137C156.055 75.4357 155.934 75.8149 155.898 76.2443V76.7094C155.934 77.1173 156.048 77.4894 156.256 77.8114C156.463 78.1334 156.735 78.391 157.072 78.5699C157.408 78.7488 157.787 78.849 158.21 78.849Z" fill="#CD4C1D"/>
<path d="M177.841 81.4247C176.273 82.4694 174.57 82.999 172.731 82.999C171.314 82.999 170.04 82.7056 168.916 82.1116C167.793 81.5177 166.898 80.7163 166.24 79.693C165.581 78.6697 165.252 77.5177 165.252 76.244C165.252 75.0346 165.545 73.9541 166.132 73.0024C166.719 72.0507 167.521 71.2993 168.53 70.7412C169.539 70.1831 170.684 69.9111 171.958 69.9111C173.232 69.9111 174.463 70.2188 175.465 70.8271C176.467 71.4353 177.254 72.2868 177.819 73.3817C178.385 74.4765 178.664 75.7359 178.664 77.1814V77.5821H170.233C170.383 77.9112 170.591 78.2046 170.863 78.4694C171.135 78.7341 171.464 78.9488 171.872 79.1062C172.28 79.2637 172.745 79.3424 173.282 79.3424C174.463 79.3424 175.586 78.9631 176.638 78.2118L177.848 81.4175L177.841 81.4247ZM170.018 75.7001H174.406C174.363 75.3066 174.241 74.9559 174.048 74.6554C173.854 74.3548 173.59 74.1187 173.268 73.947C172.946 73.7752 172.588 73.6894 172.194 73.6894C171.8 73.6894 171.443 73.7824 171.135 73.9684C170.827 74.1545 170.591 74.3978 170.398 74.6983C170.204 74.9989 170.083 75.3352 170.011 75.7073L170.018 75.7001Z" fill="#CD4C1D"/>
<path d="M192.333 82.7485H187.689V76.6876C187.689 75.8504 187.524 75.2064 187.202 74.7484C186.88 74.2904 186.422 74.0686 185.828 74.0686C185.234 74.0686 184.74 74.2976 184.404 74.7556C184.067 75.2135 183.903 75.8575 183.903 76.6876V82.7485H179.258V70.1687H182.929L183.08 72.1652C183.523 71.4281 184.103 70.87 184.819 70.4836C185.534 70.0972 186.379 69.9111 187.338 69.9111C188.898 69.9111 190.115 70.3977 191.002 71.3637C191.89 72.3298 192.326 73.6822 192.326 75.4067V82.7413L192.333 82.7485Z" fill="#CD4C1D"/>
<path d="M213.996 82.7487H208.714L207.254 76.2227L205.794 82.7487H200.512L196.426 70.1689H201.335L203.082 78.0832L205.272 70.1689H209.244L211.434 78.1333L213.18 70.1689H218.09L214.003 82.7487H213.996Z" fill="#CD4C1D"/>
<path d="M229.771 81.4247C228.203 82.4694 226.5 82.999 224.661 82.999C223.243 82.999 221.97 82.7056 220.846 82.1116C219.722 81.5177 218.828 80.7163 218.169 79.693C217.511 78.6697 217.182 77.5177 217.182 76.244C217.182 75.0346 217.475 73.9541 218.062 73.0024C218.649 72.0507 219.45 71.2993 220.459 70.7412C221.469 70.1831 222.614 69.9111 223.888 69.9111C225.162 69.9111 226.392 70.2188 227.394 70.8271C228.396 71.4353 229.184 72.2868 229.749 73.3817C230.314 74.4765 230.594 75.7359 230.594 77.1814V77.5821H222.163C222.313 77.9112 222.521 78.2046 222.793 78.4694C223.065 78.7341 223.394 78.9488 223.802 79.1062C224.21 79.2637 224.675 79.3424 225.212 79.3424C226.392 79.3424 227.516 78.9631 228.568 78.2118L229.778 81.4175L229.771 81.4247ZM221.941 75.7001H226.328C226.285 75.3066 226.163 74.9559 225.97 74.6554C225.777 74.3548 225.512 74.1187 225.19 73.947C224.868 73.7752 224.51 73.6894 224.117 73.6894C223.723 73.6894 223.365 73.7824 223.057 73.9684C222.75 74.1545 222.513 74.3978 222.32 74.6983C222.127 74.9989 222.005 75.3352 221.934 75.7073L221.941 75.7001Z" fill="#CD4C1D"/>
<path d="M235.245 82.7486H231.18V63.8789H235.824V71.4282C236.318 70.9488 236.884 70.5767 237.513 70.3119C238.143 70.0471 238.823 69.9183 239.567 69.9183C240.67 69.9183 241.636 70.2046 242.487 70.7699C243.339 71.3352 244.005 72.1151 244.484 73.0955C244.964 74.0758 245.214 75.1993 245.214 76.4587C245.214 77.7181 244.971 78.8415 244.484 79.8219C243.998 80.8022 243.332 81.5822 242.487 82.1475C241.643 82.7128 240.67 82.999 239.567 82.999C238.744 82.999 237.986 82.8344 237.284 82.5053C236.583 82.1761 235.982 81.7181 235.481 81.1314L235.252 82.7557L235.245 82.7486ZM238.143 78.8487C238.594 78.8487 238.995 78.7485 239.346 78.541C239.696 78.3335 239.968 78.0472 240.162 77.6823C240.355 77.3174 240.455 76.9023 240.455 76.43C240.455 75.9578 240.355 75.5714 240.162 75.2136C239.968 74.8558 239.689 74.5767 239.346 74.3692C239.002 74.1617 238.594 74.0615 238.143 74.0615C237.721 74.0615 237.342 74.1545 237.005 74.3406C236.669 74.5266 236.39 74.7771 236.189 75.0919C235.989 75.4068 235.867 75.7789 235.832 76.2011V76.6662C235.867 77.0955 235.982 77.4676 236.189 77.7968C236.397 78.126 236.669 78.3764 237.005 78.5625C237.342 78.7485 237.721 78.8415 238.143 78.8415V78.8487Z" fill="#CD4C1D"/>
<path d="M149.52 108.51H145.455L145.226 107.129C144.768 107.658 144.209 108.059 143.551 108.345C142.893 108.631 142.184 108.767 141.411 108.767C140.545 108.767 139.779 108.603 139.107 108.273C138.434 107.944 137.904 107.486 137.525 106.9C137.146 106.313 136.945 105.654 136.945 104.903C136.945 104.116 137.153 103.422 137.575 102.828C137.997 102.234 138.577 101.762 139.314 101.425C140.051 101.089 140.903 100.917 141.862 100.917C142.385 100.917 142.893 100.967 143.394 101.075C143.895 101.182 144.388 101.332 144.868 101.533V101.332C144.868 100.946 144.746 100.61 144.496 100.316C144.245 100.023 143.902 99.7939 143.465 99.6222C143.029 99.4504 142.52 99.3717 141.962 99.3717C141.404 99.3717 140.839 99.4576 140.309 99.6222C139.779 99.7868 139.3 100.03 138.878 100.338L137.697 96.9316C138.62 96.5237 139.536 96.2089 140.438 96.0014C141.34 95.7939 142.213 95.6865 143.043 95.6865C144.36 95.6865 145.505 95.937 146.471 96.445C147.437 96.9531 148.189 97.6687 148.718 98.5989C149.248 99.5291 149.513 100.617 149.513 101.876V108.517L149.52 108.51ZM142.492 105.375C142.871 105.375 143.243 105.29 143.608 105.125C143.973 104.96 144.274 104.746 144.51 104.481C144.746 104.216 144.861 103.959 144.861 103.687V103.672C144.56 103.493 144.224 103.357 143.852 103.264C143.479 103.171 143.114 103.121 142.742 103.121C142.213 103.121 141.798 103.222 141.49 103.415C141.182 103.608 141.032 103.88 141.032 104.223C141.032 104.438 141.096 104.638 141.218 104.817C141.34 104.996 141.519 105.132 141.74 105.225C141.962 105.318 142.213 105.368 142.492 105.368V105.375Z" fill="#CD4C1D"/>
<path d="M163.913 108.51H159.848L159.612 106.871C159.111 107.458 158.51 107.916 157.809 108.252C157.107 108.588 156.349 108.753 155.526 108.753C154.438 108.753 153.464 108.467 152.613 107.901C151.761 107.336 151.096 106.556 150.609 105.576C150.122 104.595 149.879 103.472 149.879 102.213C149.879 100.953 150.122 99.8297 150.609 98.8494C151.096 97.8691 151.761 97.0891 152.613 96.5238C153.464 95.9585 154.438 95.6722 155.526 95.6722C156.263 95.6722 156.95 95.801 157.587 96.0658C158.224 96.3306 158.789 96.7027 159.276 97.1821V89.6328H163.921V108.502L163.913 108.51ZM156.95 104.61C157.379 104.61 157.766 104.517 158.116 104.331C158.467 104.145 158.746 103.887 158.954 103.565C159.161 103.243 159.269 102.864 159.269 102.434V101.969C159.269 101.547 159.161 101.182 158.954 100.86C158.746 100.538 158.467 100.288 158.116 100.109C157.766 99.9299 157.379 99.8297 156.95 99.8297C156.52 99.8297 156.105 99.9299 155.755 100.137C155.404 100.345 155.125 100.624 154.924 100.989C154.724 101.354 154.624 101.762 154.624 102.22C154.624 102.678 154.724 103.093 154.924 103.451C155.125 103.808 155.404 104.095 155.755 104.302C156.105 104.51 156.506 104.61 156.95 104.61Z" fill="#CD4C1D"/>
<path d="M178.684 95.9297L173.653 108.509H169.158L164.127 95.9297H169.087L171.413 103.88L173.739 95.9297H178.684Z" fill="#CD4C1D"/>
<path d="M184.767 108.76C183.443 108.76 182.262 108.474 181.224 107.909C180.187 107.344 179.378 106.564 178.784 105.583C178.19 104.603 177.896 103.479 177.896 102.22C177.896 100.961 178.19 99.8372 178.784 98.8568C179.378 97.8765 180.187 97.0965 181.224 96.5312C182.262 95.9659 183.443 95.6797 184.767 95.6797C186.091 95.6797 187.258 95.9659 188.281 96.5312C189.304 97.0965 190.113 97.8765 190.7 98.8568C191.287 99.8372 191.58 100.961 191.58 102.22C191.58 103.479 191.287 104.603 190.7 105.583C190.113 106.564 189.304 107.344 188.281 107.909C187.258 108.474 186.084 108.76 184.767 108.76ZM184.746 104.61C185.146 104.61 185.504 104.51 185.819 104.302C186.134 104.095 186.384 103.809 186.563 103.444C186.742 103.079 186.835 102.664 186.835 102.191C186.835 101.719 186.742 101.333 186.563 100.975C186.384 100.617 186.134 100.338 185.819 100.131C185.504 99.923 185.146 99.8228 184.746 99.8228C184.345 99.8228 183.987 99.923 183.672 100.131C183.357 100.338 183.107 100.617 182.928 100.975C182.749 101.333 182.656 101.733 182.656 102.191C182.656 102.649 182.749 103.079 182.928 103.444C183.107 103.809 183.357 104.095 183.672 104.302C183.987 104.51 184.345 104.61 184.746 104.61Z" fill="#CD4C1D"/>
<path d="M203.798 106.385C203.183 107.122 202.417 107.701 201.494 108.123C200.57 108.546 199.547 108.76 198.409 108.76C197.092 108.76 195.918 108.474 194.881 107.909C193.843 107.344 193.034 106.564 192.44 105.583C191.846 104.603 191.553 103.479 191.553 102.22C191.553 100.961 191.846 99.8372 192.44 98.8568C193.034 97.8765 193.843 97.0965 194.881 96.5312C195.918 95.9659 197.092 95.6797 198.409 95.6797C199.533 95.6797 200.556 95.8872 201.472 96.3094C202.388 96.7316 203.154 97.2969 203.769 98.0196L201.064 100.875C200.807 100.553 200.47 100.302 200.048 100.116C199.626 99.9302 199.196 99.83 198.745 99.83C198.294 99.83 197.858 99.9302 197.486 100.131C197.114 100.331 196.827 100.61 196.62 100.968C196.412 101.326 196.305 101.733 196.305 102.191C196.305 102.649 196.412 103.079 196.62 103.444C196.827 103.809 197.121 104.095 197.486 104.302C197.851 104.51 198.273 104.61 198.745 104.61C199.218 104.61 199.633 104.517 200.055 104.324C200.477 104.131 200.807 103.88 201.064 103.565L203.791 106.385H203.798Z" fill="#CD4C1D"/>
<path d="M216.207 108.51H212.142L211.913 107.129C211.455 107.658 210.897 108.059 210.239 108.345C209.58 108.631 208.872 108.767 208.099 108.767C207.233 108.767 206.467 108.603 205.794 108.273C205.121 107.944 204.592 107.486 204.213 106.9C203.833 106.313 203.633 105.654 203.633 104.903C203.633 104.116 203.84 103.422 204.263 102.828C204.685 102.234 205.265 101.762 206.002 101.425C206.739 101.089 207.591 100.917 208.55 100.917C209.072 100.917 209.58 100.967 210.081 101.075C210.582 101.182 211.076 101.332 211.555 101.533V101.332C211.555 100.946 211.434 100.61 211.183 100.316C210.933 100.023 210.589 99.7939 210.153 99.6222C209.716 99.4504 209.208 99.3717 208.65 99.3717C208.092 99.3717 207.526 99.4576 206.997 99.6222C206.467 99.7868 205.987 100.03 205.565 100.338L204.384 96.9316C205.308 96.5237 206.224 96.2089 207.125 96.0014C208.027 95.7939 208.9 95.6865 209.73 95.6865C211.047 95.6865 212.192 95.937 213.159 96.445C214.125 96.9531 214.876 97.6687 215.406 98.5989C215.935 99.5291 216.2 100.617 216.2 101.876V108.517L216.207 108.51ZM209.179 105.375C209.559 105.375 209.931 105.29 210.296 105.125C210.661 104.96 210.961 104.746 211.198 104.481C211.434 104.216 211.548 103.959 211.548 103.687V103.672C211.248 103.493 210.911 103.357 210.539 103.264C210.167 103.171 209.802 103.121 209.43 103.121C208.9 103.121 208.485 103.222 208.177 103.415C207.87 103.608 207.719 103.88 207.719 104.223C207.719 104.438 207.784 104.638 207.905 104.817C208.027 104.996 208.206 105.132 208.428 105.225C208.65 105.318 208.9 105.368 209.179 105.368V105.375Z" fill="#CD4C1D"/>
<path d="M228.796 106.385C228.181 107.122 227.415 107.701 226.492 108.123C225.568 108.546 224.545 108.76 223.407 108.76C222.09 108.76 220.916 108.474 219.879 107.909C218.841 107.344 218.032 106.564 217.438 105.583C216.844 104.603 216.551 103.479 216.551 102.22C216.551 100.961 216.844 99.8372 217.438 98.8568C218.032 97.8765 218.841 97.0965 219.879 96.5312C220.916 95.9659 222.09 95.6797 223.407 95.6797C224.531 95.6797 225.554 95.8872 226.47 96.3094C227.386 96.7316 228.152 97.2969 228.768 98.0196L226.062 100.875C225.805 100.553 225.468 100.302 225.046 100.116C224.624 99.9302 224.194 99.83 223.743 99.83C223.293 99.83 222.856 99.9302 222.484 100.131C222.112 100.331 221.825 100.61 221.618 100.968C221.41 101.326 221.303 101.733 221.303 102.191C221.303 102.649 221.41 103.079 221.618 103.444C221.825 103.809 222.119 104.095 222.484 104.302C222.849 104.51 223.271 104.61 223.743 104.61C224.216 104.61 224.631 104.517 225.053 104.324C225.475 104.131 225.805 103.88 226.062 103.565L228.789 106.385H228.796Z" fill="#CD4C1D"/>
<path d="M237.285 114.799H232.375L234.966 108.545L228.389 95.9297H233.67L237.156 103.279L240.197 95.9297H245.107L237.285 114.799Z" fill="#CD4C1D"/>
</g>
<defs>
<clipPath id="clip0_26_612">
<rect width="267" height="143" fill="white"/>
</clipPath>
</defs>
</svg>
