<svg id="Calque_1" data-name="Calque 1" xmlns="http://www.w3.org/2000/svg" width="88.72" height="84.2" viewBox="0 0 88.72 84.2"><rect y="4" width="86.72" height="80.2" style="fill:#6d6b6a;opacity:0.43"/><rect x="2" width="86.72" height="80.2" style="fill:#cd4c1d"/><g id="Layer_2" data-name="Layer 2"><g id="Layer_1-2" data-name="Layer 1-2"><path d="M35.7,69.29a5.21,5.21,0,0,1-2.13-.44,5.44,5.44,0,0,1-2.92-7.14,5.59,5.59,0,0,1,2.92-2.92,5.49,5.49,0,0,1,4.26,0,5.51,5.51,0,0,1,2.91,2.92,5.43,5.43,0,0,1-1.17,6,5.7,5.7,0,0,1-1.74,1.16A5.38,5.38,0,0,1,35.7,69.29Zm0-2.86a2.83,2.83,0,0,0,1-.2,2.76,2.76,0,0,0,.87-.56,2.55,2.55,0,0,0,.62-.83,2.38,2.38,0,0,0,0-2,2.82,2.82,0,0,0-.62-.84,2.76,2.76,0,0,0-3.81,0,3.27,3.27,0,0,0-.59.84,2.38,2.38,0,0,0,0,2,3.06,3.06,0,0,0,.59.83,2.76,2.76,0,0,0,.87.56,2.81,2.81,0,0,0,1,.19Z" style="fill:#fff"/><path d="M30.85,58.1a.34.34,0,0,1-.31,0,.22.22,0,0,1-.12-.22V55.53a.47.47,0,0,1,.09-.28.41.41,0,0,1,.22-.17l4.81-1.65c.1,0,.14-.07.14-.15s0-.12-.14-.15l-4.79-1.58a.47.47,0,0,1-.24-.18.54.54,0,0,1-.09-.31V49.15a.49.49,0,0,1,.33-.46l4.82-1.59q.15,0,.15-.15c0-.07,0-.13-.15-.17l-4.84-1.65a.67.67,0,0,1-.22-.19.44.44,0,0,1-.09-.31v-2.3a.22.22,0,0,1,.12-.22.36.36,0,0,1,.25,0l9.86,3.5a.53.53,0,0,1,.24.18.49.49,0,0,1,.09.31V48a.49.49,0,0,1-.09.31.43.43,0,0,1-.24.18L35.84,50c-.1,0-.15.08-.15.16s.05.12.15.15l4.81,1.59a.41.41,0,0,1,.24.17.49.49,0,0,1,.09.31v1.86a.51.51,0,0,1-.33.45Z" style="fill:#fff"/><path d="M30.75,39.21a.53.53,0,0,1-.22-.2.47.47,0,0,1-.09-.31v-2a.47.47,0,0,1,.09-.28.55.55,0,0,1,.23-.2L40.57,32a.31.31,0,0,1,.28,0,.32.32,0,0,1,.14.31v2.48a.5.5,0,0,1-.1.31.56.56,0,0,1-.22.21l-.87.39a.58.58,0,0,0-.23.21.47.47,0,0,0-.09.28v3a.56.56,0,0,0,.32.51l.86.4a.6.6,0,0,1,.23.19.5.5,0,0,1,.09.29v2.48a.4.4,0,0,1,0,.15.57.57,0,0,1-.08.13.39.39,0,0,1-.15.06.28.28,0,0,1-.2,0ZM37,38.36V37.07a.25.25,0,0,0-.1-.21.22.22,0,0,0-.22,0l-.85.35-.91.38c-.08,0-.13.08-.13.13s0,.09.13.12l1.75.73a.28.28,0,0,0,.22,0A.26.26,0,0,0,37,38.36Z" style="fill:#fff"/><path d="M59.76,51.62H56a.31.31,0,0,0-.31.31v0a19.88,19.88,0,0,0,.6,3.91.29.29,0,0,0,.31.23h3.12a.31.31,0,0,0,.31-.31V51.94a.3.3,0,0,0-.29-.32Z" style="fill:#fff"/><path d="M59.76,45.21h-3.1a.32.32,0,0,0-.31.24,20.11,20.11,0,0,0-.62,3.93.31.31,0,0,0,.28.34h3.75a.31.31,0,0,0,.31-.31V45.53a.31.31,0,0,0-.31-.31Z" style="fill:#fff"/><path d="M59.59,40a6.54,6.54,0,0,0-2.17,2.59c-.05.09-.1.2-.15.31a.31.31,0,0,0,.29.46h2.19a.31.31,0,0,0,.31-.31V40.24a.3.3,0,0,0-.3-.32A.25.25,0,0,0,59.59,40Z" style="fill:#fff"/><path d="M59.76,58h-2.2a.31.31,0,0,0-.33.29.25.25,0,0,0,0,.17,2.25,2.25,0,0,0,.16.31,6.49,6.49,0,0,0,2.17,2.59.31.31,0,0,0,.43-.06.29.29,0,0,0,.07-.22V58.28a.31.31,0,0,0-.31-.31Z" style="fill:#fff"/><path d="M53.1,43.31h1.71a.33.33,0,0,0,.31-.21,13.48,13.48,0,0,1,.93-1.91.31.31,0,1,0-.43-.45h0a11.19,11.19,0,0,0-2.72,2,.3.3,0,0,0,0,.43h0A.34.34,0,0,0,53.1,43.31Z" style="fill:#fff"/><path d="M50,49.72h3.53a.33.33,0,0,0,.31-.31,22.11,22.11,0,0,1,.51-3.8.32.32,0,0,0-.21-.39H51.21a.34.34,0,0,0-.29.17,11.32,11.32,0,0,0-1.26,4,.31.31,0,0,0,.25.36H50Z" style="fill:#fff"/><path d="M55.1,58.21a.32.32,0,0,0-.31-.21H53.08a.31.31,0,0,0-.35.27.31.31,0,0,0,.12.28,11.68,11.68,0,0,0,2.74,2.05.31.31,0,0,0,.44,0h0a.31.31,0,0,0,0-.44h0A14.5,14.5,0,0,1,55.1,58.21Z" style="fill:#fff"/><path d="M67,43.1a.34.34,0,0,0,.31.21H69a.3.3,0,0,0,.34-.27.3.3,0,0,0-.11-.28,11.38,11.38,0,0,0-2.72-2,.31.31,0,1,0-.44.45h0A13.26,13.26,0,0,1,67,43.1Z" style="fill:#fff"/><path d="M54.35,55.7a21.77,21.77,0,0,1-.51-3.77.33.33,0,0,0-.31-.31H50a.32.32,0,0,0-.31.33v0a11,11,0,0,0,1.24,4,.32.32,0,0,0,.28.17H54a.31.31,0,0,0,.31-.31A.28.28,0,0,0,54.35,55.7Z" style="fill:#fff"/><path d="M62.31,49.72H66a.31.31,0,0,0,.31-.31v0a19.26,19.26,0,0,0-.6-3.92.29.29,0,0,0-.31-.24H62.31a.31.31,0,0,0-.31.31v3.86a.32.32,0,0,0,.28.34h0Z" style="fill:#fff"/><path d="M67.72,45.61a22.11,22.11,0,0,1,.51,3.8.31.31,0,0,0,.31.31H72.1a.31.31,0,0,0,.31-.31v-.06a11.2,11.2,0,0,0-1.24-4,.32.32,0,0,0-.29-.16H68.05a.31.31,0,0,0-.33.29h0Z" style="fill:#fff"/><path d="M72.1,51.62H68.56a.32.32,0,0,0-.31.31,22.75,22.75,0,0,1-.49,3.77.32.32,0,0,0,.21.39h2.94a.32.32,0,0,0,.28-.17,11,11,0,0,0,1.24-4,.31.31,0,0,0-.25-.36H72.1Z" style="fill:#fff"/><path d="M69,58H67.27a.32.32,0,0,0-.31.21A11.91,11.91,0,0,1,66,60.14a.31.31,0,0,0,0,.44.3.3,0,0,0,.44,0h0a11.46,11.46,0,0,0,2.75-2.05.31.31,0,0,0,0-.44h0A.29.29,0,0,0,69,58Z" style="fill:#fff"/><path d="M62.31,43.31h2.2a.31.31,0,0,0,.33-.29.33.33,0,0,0,0-.17l-.15-.31A6.49,6.49,0,0,0,62.48,40,.32.32,0,0,0,62,40a.27.27,0,0,0-.06.21V43a.31.31,0,0,0,.28.34Z" style="fill:#fff"/><path d="M64.52,58H62.31a.31.31,0,0,0-.31.31v2.79a.32.32,0,0,0,.28.34.29.29,0,0,0,.22-.07,6.39,6.39,0,0,0,2.17-2.58,3.18,3.18,0,0,0,.16-.32A.31.31,0,0,0,64.7,58a.28.28,0,0,0-.18,0Z" style="fill:#fff"/><path d="M66,51.62H62.3a.31.31,0,0,0-.31.31v3.84a.31.31,0,0,0,.31.31h3.12a.29.29,0,0,0,.31-.24,19.68,19.68,0,0,0,.6-3.89.31.31,0,0,0-.29-.33h0Z" style="fill:#fff"/><path d="M73.55,32h-25a4.49,4.49,0,0,0-4.48,4.49V64.86a4.49,4.49,0,0,0,4.48,4.48h25A4.49,4.49,0,0,0,78,64.86V36.47A4.49,4.49,0,0,0,73.55,32ZM61,63.91A13.25,13.25,0,1,1,74.29,50.66,13.25,13.25,0,0,1,61,63.91Z" style="fill:#fff"/></g></g><path d="M36,25.93V23.16a6.51,6.51,0,0,1,6.51-6.51h0a6.2,6.2,0,0,1,6.21,6.2v7.23a.67.67,0,0,0,.67.67H53.2a.67.67,0,0,0,.67-.67h0v-7.2a11.4,11.4,0,0,0-11.4-11.41h0a12,12,0,0,0-12,12h0v2.43A1.09,1.09,0,0,0,31.53,27h3.32a1.1,1.1,0,0,0,1.1-1.1Z" style="fill:#fff"/><path d="M24.1,11.47h0A11.41,11.41,0,0,0,12.69,22.88v.2h0S12.28,34.66,25,47.71a.78.78,0,0,0,1.34-.56l-.13-5a.79.79,0,0,0-.17-.46c-1.14-1.43-8.17-10.54-8.17-18.59v-.23a6.2,6.2,0,0,1,6.2-6.2,6.51,6.51,0,0,1,6.52,6.51v2.77a1.1,1.1,0,0,0,1.1,1.1H35a1.1,1.1,0,0,0,1.09-1.1V23.5h0A12,12,0,0,0,24.1,11.47Z" style="fill:#fff;opacity:0.57"/></svg>