<?xml version="1.0" encoding="UTF-8" standalone="no"?>
<svg
   width="212"
   height="212"
   viewBox="0 0 212 212"
   version="1.1"
   id="svg21"
   sodipodi:docname="owa-home-logo.svg"
   inkscape:version="1.3.2 (091e20ef0f, 2023-11-25)"
   xmlns:inkscape="http://www.inkscape.org/namespaces/inkscape"
   xmlns:sodipodi="http://sodipodi.sourceforge.net/DTD/sodipodi-0.dtd"
   xmlns="http://www.w3.org/2000/svg"
   xmlns:svg="http://www.w3.org/2000/svg">
  <defs
     id="defs21" />
  <sodipodi:namedview
     id="namedview21"
     pagecolor="#ffffff"
     bordercolor="#000000"
     borderopacity="0.25"
     inkscape:showpageshadow="2"
     inkscape:pageopacity="0.0"
     inkscape:pagecheckerboard="0"
     inkscape:deskcolor="#d1d1d1"
     inkscape:zoom="4.1915885"
     inkscape:cx="87.914164"
     inkscape:cy="106.165"
     inkscape:window-width="2192"
     inkscape:window-height="1088"
     inkscape:window-x="0"
     inkscape:window-y="32"
     inkscape:window-maximized="1"
     inkscape:current-layer="svg21" />
  <g
     id="Layer_2"
     data-name="Layer 2"
     transform="translate(18.281256)">
    <g
       id="Layer_1-2"
       data-name="Layer 1-2">
      <path
         d="m 20.09,212.15 a 19.2,19.2 0 0 1 -7.8,-1.59 20.3,20.3 0 0 1 -10.71,-10.64 19.94,19.94 0 0 1 0,-15.57 20.36,20.36 0 0 1 10.71,-10.71 19.36,19.36 0 0 1 7.8,-1.58 19.46,19.46 0 0 1 7.82,1.58 20.32,20.32 0 0 1 10.69,10.71 19.93,19.93 0 0 1 -4.3,21.92 20.46,20.46 0 0 1 -6.39,4.25 19.14,19.14 0 0 1 -7.82,1.63 z m 0,-10.49 a 9.82,9.82 0 0 0 3.83,-0.74 10.31,10.31 0 0 0 3.17,-2 9.76,9.76 0 0 0 2.28,-3 8.8,8.8 0 0 0 0,-7.41 10.24,10.24 0 0 0 -2.28,-3.07 10,10 0 0 0 -10.77,-2.06 9.72,9.72 0 0 0 -3.19,2.06 10.6,10.6 0 0 0 -2.13,2.98 8.66,8.66 0 0 0 0,7.41 10.08,10.08 0 0 0 2.16,3 9.95,9.95 0 0 0 7,2.74 z"
         style="fill:#cd4c1d"
         id="path1" />
      <path
         d="m 2.28,171.12 a 1.32,1.32 0 0 1 -1.13,0 0.87,0.87 0 0 1 -0.45,-0.83 v -8.63 a 1.71,1.71 0 0 1 0.33,-1 1.69,1.69 0 0 1 0.83,-0.64 l 17.63,-6 c 0.36,-0.1 0.54,-0.29 0.54,-0.56 0,-0.27 -0.18,-0.44 -0.54,-0.56 L 1.94,147.1 a 1.58,1.58 0 0 1 -0.88,-0.64 1.72,1.72 0 0 1 -0.33,-1.14 v -7 a 1.7,1.7 0 0 1 0.33,-1 1.58,1.58 0 0 1 0.88,-0.64 l 17.69,-5.83 c 0.35,-0.1 0.52,-0.28 0.52,-0.56 0,-0.28 -0.17,-0.46 -0.52,-0.61 L 1.86,123.5 A 2.4,2.4 0 0 1 1.03,122.81 1.84,1.84 0 0 1 0.7,121.67 v -8.44 a 0.82,0.82 0 0 1 0.45,-0.8 1.32,1.32 0 0 1 0.92,0 l 36.17,12.83 a 1.8,1.8 0 0 1 0.88,0.68 1.79,1.79 0 0 1 0.34,1.14 v 6.82 a 1.79,1.79 0 0 1 -0.34,1.14 1.58,1.58 0 0 1 -0.88,0.64 l -17.63,5.83 c -0.36,0.11 -0.54,0.28 -0.54,0.55 0,0.27 0.18,0.45 0.54,0.56 l 17.63,5.83 a 1.61,1.61 0 0 1 0.88,0.63 1.8,1.8 0 0 1 0.34,1.14 v 6.83 a 1.82,1.82 0 0 1 -1.22,1.64 z"
         style="fill:#cd4c1d"
         id="path2" />
      <path
         d="m 1.92,101.78 a 2,2 0 0 1 -0.8,-0.71 1.9,1.9 0 0 1 -0.34,-1.13 v -7.37 a 1.89,1.89 0 0 1 0.34,-1 A 2.13,2.13 0 0 1 2,90.82 L 38,75.37 a 1.09,1.09 0 0 1 1,0.08 1.14,1.14 0 0 1 0.53,1.14 v 9.1 a 1.86,1.86 0 0 1 -0.36,1.14 2.33,2.33 0 0 1 -0.8,0.76 L 35.12,89 a 2.22,2.22 0 0 0 -0.82,0.76 1.88,1.88 0 0 0 -0.35,1 V 102 a 2,2 0 0 0 0.35,1.14 1.79,1.79 0 0 0 0.82,0.72 l 3.18,1.48 a 2.09,2.09 0 0 1 0.82,0.71 1.79,1.79 0 0 1 0.34,1 v 9.1 a 1.55,1.55 0 0 1 -0.11,0.56 1.14,1.14 0 0 1 -0.31,0.47 1.26,1.26 0 0 1 -0.52,0.25 1.3,1.3 0 0 1 -0.75,-0.17 z m 23,-3.12 V 94 a 0.85,0.85 0 0 0 -0.34,-0.77 0.78,0.78 0 0 0 -0.83,0 C 22.87,93.58 21.84,94 20.66,94.5 l -3.35,1.38 c -0.31,0.13 -0.47,0.29 -0.47,0.48 0,0.19 0.16,0.33 0.47,0.46 l 6.41,2.65 a 0.87,0.87 0 0 0 0.83,0 0.84,0.84 0 0 0 0.45,-0.81 z"
         style="fill:#cd4c1d"
         id="path3" />
      <path
         d="M 108.38,147.31 H 94.72 a 1.14,1.14 0 0 0 -1.14,1.14 v 0.13 a 72.18,72.18 0 0 0 2.19,14.32 1.15,1.15 0 0 0 1.14,0.88 h 11.47 a 1.14,1.14 0 0 0 1.14,-1.14 V 148.5 a 1.15,1.15 0 0 0 -1.08,-1.19 z"
         style="fill:#cd4c1d"
         id="path4" />
      <path
         d="M 108.38,123.81 H 97 a 1.14,1.14 0 0 0 -1.14,0.88 73.1,73.1 0 0 0 -2.28,14.4 1.15,1.15 0 0 0 1,1.26 h 13.78 a 1.14,1.14 0 0 0 1.14,-1.14 V 125 a 1.14,1.14 0 0 0 -1.14,-1.13 z"
         style="fill:#cd4c1d"
         id="path5" />
      <path
         d="m 107.74,104.56 c -2.89,1.82 -5.69,5 -8,9.48 -0.18,0.35 -0.36,0.74 -0.54,1.13 a 1.14,1.14 0 0 0 0.41,1.56 1.09,1.09 0 0 0 0.66,0.15 h 8 a 1.14,1.14 0 0 0 1.14,-1.14 v -10.18 a 1.14,1.14 0 0 0 -1.1,-1.18 1.19,1.19 0 0 0 -0.57,0.18 z"
         style="fill:#cd4c1d"
         id="path6" />
      <path
         d="m 108.38,170.69 h -8.09 a 1.15,1.15 0 0 0 -1.22,1.06 1.19,1.19 0 0 0 0.15,0.64 c 0.19,0.41 0.4,0.81 0.59,1.14 a 23.78,23.78 0 0 0 8,9.48 1.14,1.14 0 0 0 1.84,-1 v -10.25 a 1.14,1.14 0 0 0 -1.14,-1.13 z"
         style="fill:#cd4c1d"
         id="path7" />
      <path
         d="m 84,116.83 h 6.27 a 1.17,1.17 0 0 0 1.13,-0.76 50.69,50.69 0 0 1 3.42,-7 1.15,1.15 0 1 0 -1.6,-1.65 v 0 a 42.62,42.62 0 0 0 -10,7.42 1.14,1.14 0 0 0 -0.18,1.6 v 0 a 1.14,1.14 0 0 0 0.96,0.39 z"
         style="fill:#cd4c1d"
         id="path8" />
      <path
         d="m 72.51,140.35 h 13 a 1.2,1.2 0 0 0 1.14,-1.14 80.82,80.82 0 0 1 1.88,-14 1.15,1.15 0 0 0 -0.79,-1.4 1,1 0 0 0 -0.35,0 H 77 a 1.11,1.11 0 0 0 -1,0.61 40.47,40.47 0 0 0 -4.67,14.58 1.13,1.13 0 0 0 0.91,1.32 h 0.11 z"
         style="fill:#cd4c1d"
         id="path9" />
      <path
         d="m 91.29,171.49 a 1.2,1.2 0 0 0 -1.14,-0.76 h -6.3 a 1.14,1.14 0 0 0 -0.85,2 42.65,42.65 0 0 0 10.08,7.53 1.15,1.15 0 0 0 1.61,0 v 0 a 1.14,1.14 0 0 0 0,-1.61 v 0 0 a 48.78,48.78 0 0 1 -3.4,-7.16 z"
         style="fill:#cd4c1d"
         id="path10" />
      <path
         d="m 134.79,116.07 a 1.18,1.18 0 0 0 1.14,0.76 h 6.32 a 1.13,1.13 0 0 0 1.27,-1 1.15,1.15 0 0 0 -0.42,-1 42.62,42.62 0 0 0 -10,-7.42 1.15,1.15 0 0 0 -1.6,1.65 v 0 a 50.94,50.94 0 0 1 3.29,7.01 z"
         style="fill:#cd4c1d"
         id="path11" />
      <path
         d="m 88.51,162.31 a 83,83 0 0 1 -1.86,-13.86 1.19,1.19 0 0 0 -1.13,-1.14 h -13 a 1.19,1.19 0 0 0 -1.14,1.24 v 0.09 a 40.67,40.67 0 0 0 4.55,14.49 1.13,1.13 0 0 0 1,0.62 h 10.43 a 1.14,1.14 0 0 0 1.14,-1.13 1.63,1.63 0 0 0 0.01,-0.31 z"
         style="fill:#cd4c1d"
         id="path12" />
      <path
         d="m 117.73,140.35 h 13.66 a 1.13,1.13 0 0 0 1.13,-1.14 v -0.13 a 73,73 0 0 0 -2.2,-14.4 1.14,1.14 0 0 0 -1.14,-0.88 h -11.45 a 1.14,1.14 0 0 0 -1.14,1.14 v 14.15 a 1.14,1.14 0 0 0 1,1.24 v 0 z"
         style="fill:#cd4c1d"
         id="path13" />
      <path
         d="m 137.58,125.26 a 82.82,82.82 0 0 1 1.88,14 1.13,1.13 0 0 0 1.13,1.14 h 13 a 1.14,1.14 0 0 0 1.14,-1.14 0.81,0.81 0 0 0 0,-0.22 40.52,40.52 0 0 0 -4.55,-14.59 1.12,1.12 0 0 0 -1.05,-0.61 h -10.35 a 1.14,1.14 0 0 0 -1.2,1.06 v 0 a 1.34,1.34 0 0 0 0,0.36 z"
         style="fill:#cd4c1d"
         id="path14" />
      <path
         d="m 153.63,147.31 h -13 a 1.19,1.19 0 0 0 -1.14,1.14 81.93,81.93 0 0 1 -1.81,13.86 1.14,1.14 0 0 0 0.79,1.4 h 10.77 a 1.13,1.13 0 0 0 1.05,-0.63 40.82,40.82 0 0 0 4.55,-14.48 1.14,1.14 0 0 0 -0.92,-1.32 v 0 z"
         style="fill:#cd4c1d"
         id="path15" />
      <path
         d="m 142.25,170.69 h -6.31 a 1.16,1.16 0 0 0 -1.14,0.77 50.57,50.57 0 0 1 -3.41,7.12 1.15,1.15 0 1 0 1.59,1.65 v 0 a 42.41,42.41 0 0 0 10.08,-7.52 1.13,1.13 0 0 0 0.16,-1.6 v 0 a 1.18,1.18 0 0 0 -0.97,-0.42 z"
         style="fill:#cd4c1d"
         id="path16" />
      <path
         d="m 117.73,116.83 h 8 a 1.14,1.14 0 0 0 1.22,-1 1.17,1.17 0 0 0 -0.15,-0.66 L 126.3,114 a 23.72,23.72 0 0 0 -8,-9.48 1.12,1.12 0 0 0 -1.59,0.2 1.15,1.15 0 0 0 -0.24,0.8 v 10.08 a 1.14,1.14 0 0 0 1,1.24 0.34,0.34 0 0 0 0.26,-0.01 z"
         style="fill:#cd4c1d"
         id="path17" />
      <path
         d="m 125.82,170.69 h -8.09 a 1.14,1.14 0 0 0 -1.14,1.14 v 10.24 a 1.15,1.15 0 0 0 1,1.24 1.17,1.17 0 0 0 0.81,-0.23 24.08,24.08 0 0 0 8,-9.48 c 0.21,-0.39 0.4,-0.79 0.59,-1.2 a 1.13,1.13 0 0 0 -0.49,-1.53 1.18,1.18 0 0 0 -0.64,-0.12 z"
         style="fill:#cd4c1d"
         id="path18" />
      <path
         d="m 131.34,147.31 h -13.65 a 1.14,1.14 0 0 0 -1.14,1.14 v 14.11 a 1.14,1.14 0 0 0 1.14,1.14 h 11.46 a 1.15,1.15 0 0 0 1.13,-0.88 73.58,73.58 0 0 0 2.19,-14.3 1.14,1.14 0 0 0 -1.07,-1.21 z"
         style="fill:#cd4c1d"
         id="path19" />
      <path
         d="M 159,75.28 H 67.21 A 16.46,16.46 0 0 0 50.75,91.72 v 104.17 a 16.46,16.46 0 0 0 16.46,16.44 H 159 a 16.44,16.44 0 0 0 16.44,-16.44 V 91.72 A 16.44,16.44 0 0 0 159,75.28 Z m -45.92,117.13 a 48.61,48.61 0 1 1 48.6,-48.61 48.61,48.61 0 0 1 -48.6,48.61 z"
         style="fill:#cd4c1d"
         id="path20" />
    </g>
  </g>
  <path
     d="M 83.224999,53.06 V 42.9 A 23.9,23.9 0 0 1 107.125,19 v 0 a 22.76,22.76 0 0 1 22.76,22.76 v 26.52 a 2.46,2.46 0 0 0 2.46,2.46 h 14.19 a 2.46,2.46 0 0 0 2.46,-2.44 V 41.87 A 41.86,41.86 0 0 0 107.145,0 V 0 A 44.13,44.13 0 0 0 63.004999,44.13 v 0 8.92 a 4,4 0 0 0 4,4 h 12.22 a 4,4 0 0 0 4,-4 z"
     style="fill:#cd4c1d"
     id="path21" />
</svg>
