<svg id="Calque_1" data-name="Calque 1" xmlns="http://www.w3.org/2000/svg" width="80" height="99.47" viewBox="0 0 80 99.47">
  <g>
    <path d="M76.92,0H3.08A3.08,3.08,0,0,0,0,3.08v76.6a3.08,3.08,0,0,0,3.08,3.08H32.52L37.89,98a2.24,2.24,0,0,0,4.22,0l5.37-15.22H76.92A3.08,3.08,0,0,0,80,79.68V3.08A3.08,3.08,0,0,0,76.92,0Z" style="fill: #cd4c1d"/>
    <g>
      <g id="Layer_2" data-name="Layer 2">
        <g id="Layer_1-2" data-name="Layer 1-2">
          <path d="M19.64,72a5.92,5.92,0,0,1-2.35-.48,6.14,6.14,0,0,1-3.23-3.21,6.06,6.06,0,0,1,0-4.69,6.13,6.13,0,0,1,3.23-3.22,6,6,0,0,1,4.7,0,6.11,6.11,0,0,1,3.22,3.22,6,6,0,0,1-1.3,6.6A6.12,6.12,0,0,1,22,71.55,5.93,5.93,0,0,1,19.64,72Zm0-3.16a3.06,3.06,0,0,0,1.15-.23,3.13,3.13,0,0,0,1-.61,3.1,3.1,0,0,0,.68-.92,2.64,2.64,0,0,0,0-2.23,3.28,3.28,0,0,0-.68-.93,3,3,0,0,0-4.21,0,3.18,3.18,0,0,0-.65.93,2.64,2.64,0,0,0,0,2.23,3.14,3.14,0,0,0,.65.92,3,3,0,0,0,1,.61,2.78,2.78,0,0,0,1.14.21Z" style="fill: #fff"/>
          <path d="M14.27,59.68a.4.4,0,0,1-.34,0,.26.26,0,0,1-.13-.26V56.83a.5.5,0,0,1,.1-.31.54.54,0,0,1,.25-.19l5.31-1.82c.1,0,.16-.08.16-.17s-.06-.13-.16-.16l-5.29-1.75a.52.52,0,0,1-.27-.19.6.6,0,0,1-.1-.35V49.78a.63.63,0,0,1,.1-.32.52.52,0,0,1,.27-.19l5.33-1.75a.18.18,0,0,0,.15-.17c0-.08,0-.14-.15-.19l-5.35-1.83a.64.64,0,0,1-.25-.21.52.52,0,0,1-.1-.34V42.24a.23.23,0,0,1,.13-.24.34.34,0,0,1,.28,0L25.1,45.86a.56.56,0,0,1,.27.21.52.52,0,0,1,.1.34v2.06a.52.52,0,0,1-.1.34.48.48,0,0,1-.27.19l-5.31,1.76c-.11,0-.16.08-.16.16s.05.14.16.17l5.31,1.76a.48.48,0,0,1,.27.19.52.52,0,0,1,.1.34v2.06a.54.54,0,0,1-.37.49Z" style="fill: #fff"/>
          <path d="M14.16,38.79a.61.61,0,0,1-.24-.21.6.6,0,0,1-.1-.35V36a.6.6,0,0,1,.1-.32.64.64,0,0,1,.25-.21L25,30.83a.32.32,0,0,1,.3,0,.34.34,0,0,1,.16.34v2.74a.6.6,0,0,1-.1.35.92.92,0,0,1-.25.23l-1,.42a.92.92,0,0,0-.25.23.71.71,0,0,0-.1.32v3.36a.67.67,0,0,0,.1.34.59.59,0,0,0,.25.22l1,.44a.67.67,0,0,1,.25.22.57.57,0,0,1,.1.31v2.74a.47.47,0,0,1,0,.17.33.33,0,0,1-.1.14.31.31,0,0,1-.15.08.38.38,0,0,1-.23-.06Zm6.94-.94V36.43a.25.25,0,0,0-.1-.23.23.23,0,0,0-.25,0c-.27.1-.58.23-.93.38l-1,.42c-.1,0-.14.09-.14.14s0,.1.14.14l1.93.8a.28.28,0,0,0,.25,0A.26.26,0,0,0,21.1,37.85Z" style="fill: #fff"/>
          <path d="M46.23,52.5H42.12a.35.35,0,0,0-.35.35v0a22.46,22.46,0,0,0,.66,4.31.33.33,0,0,0,.34.26h3.46a.34.34,0,0,0,.34-.34V52.86a.34.34,0,0,0-.32-.36Z" style="fill: #fff"/>
          <path d="M46.23,45.43H42.8a.33.33,0,0,0-.34.26A22.69,22.69,0,0,0,41.77,50a.35.35,0,0,0,.31.38h4.15a.35.35,0,0,0,.34-.35V45.78a.34.34,0,0,0-.34-.34Z" style="fill: #fff"/>
          <path d="M46,39.63a7.13,7.13,0,0,0-2.4,2.85l-.17.34a.34.34,0,0,0,.13.47.35.35,0,0,0,.2.05h2.42a.34.34,0,0,0,.34-.34V39.93a.35.35,0,0,0-.33-.36A.33.33,0,0,0,46,39.63Z" style="fill: #fff"/>
          <path d="M46.23,59.55H43.79a.34.34,0,0,0-.36.32.33.33,0,0,0,0,.19c.06.12.12.24.18.34a7.16,7.16,0,0,0,2.4,2.86.35.35,0,0,0,.48-.06A.36.36,0,0,0,46.6,63V59.87a.34.34,0,0,0-.34-.34Z" style="fill: #fff"/>
          <path d="M38.87,43.32h1.89a.34.34,0,0,0,.34-.22,14.82,14.82,0,0,1,1-2.12.35.35,0,0,0-.48-.5h0a12.92,12.92,0,0,0-3,2.23.36.36,0,0,0,0,.49h0A.33.33,0,0,0,38.87,43.32Z" style="fill: #fff"/>
          <path d="M35.43,50.41h3.9a.36.36,0,0,0,.34-.35,24.81,24.81,0,0,1,.57-4.2.34.34,0,0,0-.24-.42H36.78a.36.36,0,0,0-.32.18A12.19,12.19,0,0,0,35.07,50a.34.34,0,0,0,.27.4h.09Z" style="fill: #fff"/>
          <path d="M41.08,59.79a.36.36,0,0,0-.34-.23h-1.9a.34.34,0,0,0-.38.3.35.35,0,0,0,.13.31,12.67,12.67,0,0,0,3,2.26.34.34,0,0,0,.49,0h0a.34.34,0,0,0,0-.48h0A14.62,14.62,0,0,1,41.08,59.79Z" style="fill: #fff"/>
          <path d="M54.19,43.1a.34.34,0,0,0,.34.22h1.9a.35.35,0,0,0,.39-.29.39.39,0,0,0-.13-.32,12.92,12.92,0,0,0-3-2.23.35.35,0,0,0-.48.5h0A15.75,15.75,0,0,1,54.19,43.1Z" style="fill: #fff"/>
          <path d="M40.24,57a24.43,24.43,0,0,1-.55-4.17.37.37,0,0,0-.35-.35H35.43a.37.37,0,0,0-.35.38v0a12.47,12.47,0,0,0,1.37,4.36.36.36,0,0,0,.32.19H39.9a.35.35,0,0,0,.34-.35A.14.14,0,0,0,40.24,57Z" style="fill: #fff"/>
          <path d="M49.05,50.41h4.11a.35.35,0,0,0,.34-.35v0a21.89,21.89,0,0,0-.66-4.34.35.35,0,0,0-.34-.27H49.05a.35.35,0,0,0-.35.35V50a.35.35,0,0,0,.31.37h0Z" style="fill: #fff"/>
          <path d="M55,45.86a25.84,25.84,0,0,1,.56,4.2.35.35,0,0,0,.34.35h3.93a.35.35,0,0,0,.34-.35.06.06,0,0,0,0-.06,12.21,12.21,0,0,0-1.37-4.4.33.33,0,0,0-.31-.18H55.39a.34.34,0,0,0-.36.32h0A.24.24,0,0,0,55,45.86Z" style="fill: #fff"/>
          <path d="M59.86,52.5H56a.37.37,0,0,0-.34.35A25.47,25.47,0,0,1,55.06,57a.34.34,0,0,0,.24.42.2.2,0,0,0,.11,0h3.14a.33.33,0,0,0,.31-.18,12.25,12.25,0,0,0,1.37-4.37.35.35,0,0,0-.28-.4h-.09Z" style="fill: #fff"/>
          <path d="M56.43,59.55h-1.9a.33.33,0,0,0-.34.23,15,15,0,0,1-1,2.14.35.35,0,0,0,.48.5h0a12.93,12.93,0,0,0,3-2.26.36.36,0,0,0,0-.49h0A.37.37,0,0,0,56.43,59.55Z" style="fill: #fff"/>
          <path d="M49.05,43.32h2.42a.34.34,0,0,0,.37-.31.35.35,0,0,0-.05-.2l-.16-.34a7.09,7.09,0,0,0-2.4-2.86.35.35,0,0,0-.48.06.31.31,0,0,0-.07.24v3a.33.33,0,0,0,.31.37Z" style="fill: #fff"/>
          <path d="M51.48,59.55H49.05a.35.35,0,0,0-.35.34V63a.36.36,0,0,0,.31.37.37.37,0,0,0,.25-.07,7.32,7.32,0,0,0,2.4-2.86,3,3,0,0,0,.17-.36.33.33,0,0,0-.34-.49Z" style="fill: #fff"/>
          <path d="M53.15,52.5H49a.35.35,0,0,0-.34.35V57.1a.34.34,0,0,0,.34.34h3.46a.35.35,0,0,0,.34-.26,22.46,22.46,0,0,0,.66-4.31.36.36,0,0,0-.32-.37h0Z" style="fill: #fff"/>
          <path d="M61.46,30.81H33.83a5,5,0,0,0-5,4.95V67.14a5,5,0,0,0,5,5H61.46a5,5,0,0,0,5-5V35.76A5,5,0,0,0,61.46,30.81ZM47.65,66.09A14.64,14.64,0,1,1,62.29,51.45,14.64,14.64,0,0,1,47.65,66.09Z" style="fill: #fff"/>
        </g>
      </g>
      <path d="M19.91,24.12V21.05a7.19,7.19,0,0,1,7.2-7.19h0A6.86,6.86,0,0,1,34,20.71v8a.74.74,0,0,0,.74.74H39a.74.74,0,0,0,.74-.73h0v-8A12.61,12.61,0,0,0,27.12,8.13h0A13.29,13.29,0,0,0,13.82,21.42h0v2.69A1.21,1.21,0,0,0,15,25.33H18.7a1.21,1.21,0,0,0,1.21-1.21Z" style="fill: #fff"/>
    </g>
  </g>
</svg>
