<svg xmlns="http://www.w3.org/2000/svg" width="175.39" height="212.33" viewBox="0 0 175.39 212.33"><g id="Layer_2" data-name="Layer 2"><g id="Layer_1-2" data-name="Layer 1-2"><path d="M20.09,212.15a19.2,19.2,0,0,1-7.8-1.59A20.3,20.3,0,0,1,1.58,199.92a19.94,19.94,0,0,1,0-15.57,20.36,20.36,0,0,1,10.71-10.71,19.36,19.36,0,0,1,7.8-1.58,19.46,19.46,0,0,1,7.82,1.58A20.32,20.32,0,0,1,38.6,184.35a19.93,19.93,0,0,1-4.3,21.92,20.46,20.46,0,0,1-6.39,4.25A19.14,19.14,0,0,1,20.09,212.15Zm0-10.49a9.82,9.82,0,0,0,3.83-.74,10.31,10.31,0,0,0,3.17-2,9.76,9.76,0,0,0,2.28-3,8.8,8.8,0,0,0,0-7.41,10.24,10.24,0,0,0-2.28-3.07,10,10,0,0,0-10.77-2.06,9.72,9.72,0,0,0-3.19,2.06A10.6,10.6,0,0,0,11,188.42a8.66,8.66,0,0,0,0,7.41,10.08,10.08,0,0,0,2.16,3,9.95,9.95,0,0,0,7,2.74Z" style="fill:#cd4c1d"/><path d="M2.28,171.12a1.32,1.32,0,0,1-1.13,0,.87.87,0,0,1-.45-.83v-8.63a1.71,1.71,0,0,1,.33-1,1.69,1.69,0,0,1,.83-.64l17.63-6c.36-.1.54-.29.54-.56s-.18-.44-.54-.56l-17.55-5.8a1.58,1.58,0,0,1-.88-.64,1.72,1.72,0,0,1-.33-1.14v-7a1.7,1.7,0,0,1,.33-1,1.58,1.58,0,0,1,.88-.64l17.69-5.83c.35-.1.52-.28.52-.56s-.17-.46-.52-.61L1.86,123.5a2.4,2.4,0,0,1-.83-.69,1.84,1.84,0,0,1-.33-1.14v-8.44a.82.82,0,0,1,.45-.8,1.32,1.32,0,0,1,.92,0l36.17,12.83a1.8,1.8,0,0,1,.88.68,1.79,1.79,0,0,1,.34,1.14v6.82a1.79,1.79,0,0,1-.34,1.14,1.58,1.58,0,0,1-.88.64l-17.63,5.83c-.36.11-.54.28-.54.55s.18.45.54.56l17.63,5.83a1.61,1.61,0,0,1,.88.63,1.8,1.8,0,0,1,.34,1.14v6.83a1.82,1.82,0,0,1-1.22,1.64Z" style="fill:#cd4c1d"/><path d="M1.92,101.78a2,2,0,0,1-.8-.71,1.9,1.9,0,0,1-.34-1.13V92.57a1.89,1.89,0,0,1,.34-1A2.13,2.13,0,0,1,2,90.82L38,75.37a1.09,1.09,0,0,1,1,.08,1.14,1.14,0,0,1,.53,1.14v9.1a1.86,1.86,0,0,1-.36,1.14,2.33,2.33,0,0,1-.8.76L35.12,89a2.22,2.22,0,0,0-.82.76,1.88,1.88,0,0,0-.35,1V102a2,2,0,0,0,.35,1.14,1.79,1.79,0,0,0,.82.72l3.18,1.48a2.09,2.09,0,0,1,.82.71,1.79,1.79,0,0,1,.34,1v9.1a1.55,1.55,0,0,1-.11.56,1.14,1.14,0,0,1-.31.47,1.26,1.26,0,0,1-.52.25,1.3,1.3,0,0,1-.75-.17Zm23-3.12V94a.85.85,0,0,0-.34-.77.78.78,0,0,0-.83,0c-.88.35-1.91.77-3.09,1.27l-3.35,1.38c-.31.13-.47.29-.47.48s.16.33.47.46l6.41,2.65a.87.87,0,0,0,.83,0A.84.84,0,0,0,25,98.66Z" style="fill:#cd4c1d"/><path d="M108.38,147.31H94.72a1.14,1.14,0,0,0-1.14,1.14v.13a72.18,72.18,0,0,0,2.19,14.32,1.15,1.15,0,0,0,1.14.88h11.47a1.14,1.14,0,0,0,1.14-1.14V148.5a1.15,1.15,0,0,0-1.08-1.19Z" style="fill:#cd4c1d"/><path d="M108.38,123.81H97a1.14,1.14,0,0,0-1.14.88,73.1,73.1,0,0,0-2.28,14.4,1.15,1.15,0,0,0,1,1.26h13.78a1.14,1.14,0,0,0,1.14-1.14V125a1.14,1.14,0,0,0-1.14-1.13Z" style="fill:#cd4c1d"/><path d="M107.74,104.56c-2.89,1.82-5.69,5-8,9.48-.18.35-.36.74-.54,1.13a1.14,1.14,0,0,0,.41,1.56,1.09,1.09,0,0,0,.66.15h8a1.14,1.14,0,0,0,1.14-1.14V105.56a1.14,1.14,0,0,0-1.1-1.18A1.19,1.19,0,0,0,107.74,104.56Z" style="fill:#cd4c1d"/><path d="M108.38,170.69h-8.09a1.15,1.15,0,0,0-1.22,1.06,1.19,1.19,0,0,0,.15.64c.19.41.4.81.59,1.14a23.78,23.78,0,0,0,8,9.48,1.14,1.14,0,0,0,1.84-1V171.76a1.14,1.14,0,0,0-1.14-1.13Z" style="fill:#cd4c1d"/><path d="M84,116.83h6.27a1.17,1.17,0,0,0,1.13-.76,50.69,50.69,0,0,1,3.42-7,1.15,1.15,0,1,0-1.6-1.65h0a42.62,42.62,0,0,0-10,7.42,1.14,1.14,0,0,0-.18,1.6h0A1.14,1.14,0,0,0,84,116.83Z" style="fill:#cd4c1d"/><path d="M72.51,140.35h13a1.2,1.2,0,0,0,1.14-1.14,80.82,80.82,0,0,1,1.88-14,1.15,1.15,0,0,0-.79-1.4,1,1,0,0,0-.35,0H77a1.11,1.11,0,0,0-1,.61A40.47,40.47,0,0,0,71.33,139a1.13,1.13,0,0,0,.91,1.32l.11,0Z" style="fill:#cd4c1d"/><path d="M91.29,171.49a1.2,1.2,0,0,0-1.14-.76h-6.3a1.14,1.14,0,0,0-.85,2,42.65,42.65,0,0,0,10.08,7.53,1.15,1.15,0,0,0,1.61,0h0a1.14,1.14,0,0,0,0-1.61l0,0h0A48.78,48.78,0,0,1,91.29,171.49Z" style="fill:#cd4c1d"/><path d="M134.79,116.07a1.18,1.18,0,0,0,1.14.76h6.32a1.13,1.13,0,0,0,1.27-1,1.15,1.15,0,0,0-.42-1,42.62,42.62,0,0,0-10-7.42,1.15,1.15,0,0,0-1.6,1.65h0A50.94,50.94,0,0,1,134.79,116.07Z" style="fill:#cd4c1d"/><path d="M88.51,162.31a83,83,0,0,1-1.86-13.86,1.19,1.19,0,0,0-1.13-1.14h-13a1.19,1.19,0,0,0-1.14,1.24v.09a40.67,40.67,0,0,0,4.55,14.49,1.13,1.13,0,0,0,1,.62H87.36a1.14,1.14,0,0,0,1.14-1.13A1.63,1.63,0,0,0,88.51,162.31Z" style="fill:#cd4c1d"/><path d="M117.73,140.35h13.66a1.13,1.13,0,0,0,1.13-1.14v-.13a73,73,0,0,0-2.2-14.4,1.14,1.14,0,0,0-1.14-.88H117.73a1.14,1.14,0,0,0-1.14,1.14v14.15a1.14,1.14,0,0,0,1,1.24h0Z" style="fill:#cd4c1d"/><path d="M137.58,125.26a82.82,82.82,0,0,1,1.88,14,1.13,1.13,0,0,0,1.13,1.14h13a1.14,1.14,0,0,0,1.14-1.14.81.81,0,0,0,0-.22,40.52,40.52,0,0,0-4.55-14.59,1.12,1.12,0,0,0-1.05-.61H138.78a1.14,1.14,0,0,0-1.2,1.06h0A1.34,1.34,0,0,0,137.58,125.26Z" style="fill:#cd4c1d"/><path d="M153.63,147.31h-13a1.19,1.19,0,0,0-1.14,1.14,81.93,81.93,0,0,1-1.81,13.86,1.14,1.14,0,0,0,.79,1.4h10.77a1.13,1.13,0,0,0,1.05-.63,40.82,40.82,0,0,0,4.55-14.48,1.14,1.14,0,0,0-.92-1.32h0Z" style="fill:#cd4c1d"/><path d="M142.25,170.69h-6.31a1.16,1.16,0,0,0-1.14.77,50.57,50.57,0,0,1-3.41,7.12,1.15,1.15,0,1,0,1.59,1.65h0a42.41,42.41,0,0,0,10.08-7.52,1.13,1.13,0,0,0,.16-1.6h0A1.18,1.18,0,0,0,142.25,170.69Z" style="fill:#cd4c1d"/><path d="M117.73,116.83h8a1.14,1.14,0,0,0,1.22-1,1.17,1.17,0,0,0-.15-.66L126.3,114a23.72,23.72,0,0,0-8-9.48,1.12,1.12,0,0,0-1.59.2,1.15,1.15,0,0,0-.24.8v10.08a1.14,1.14,0,0,0,1,1.24A.34.34,0,0,0,117.73,116.83Z" style="fill:#cd4c1d"/><path d="M125.82,170.69h-8.09a1.14,1.14,0,0,0-1.14,1.14v10.24a1.15,1.15,0,0,0,1,1.24,1.17,1.17,0,0,0,.81-.23,24.08,24.08,0,0,0,8-9.48c.21-.39.4-.79.59-1.2a1.13,1.13,0,0,0-.49-1.53,1.18,1.18,0,0,0-.64-.12Z" style="fill:#cd4c1d"/><path d="M131.34,147.31H117.69a1.14,1.14,0,0,0-1.14,1.14v14.11a1.14,1.14,0,0,0,1.14,1.14h11.46a1.15,1.15,0,0,0,1.13-.88,73.58,73.58,0,0,0,2.19-14.3,1.14,1.14,0,0,0-1.07-1.21h-.06Z" style="fill:#cd4c1d"/><path d="M159,75.28H67.21A16.46,16.46,0,0,0,50.75,91.72V195.89a16.46,16.46,0,0,0,16.46,16.44H159a16.44,16.44,0,0,0,16.44-16.44V91.72A16.44,16.44,0,0,0,159,75.28ZM113.08,192.41a48.61,48.61,0,1,1,48.6-48.61,48.61,48.61,0,0,1-48.6,48.61Z" style="fill:#cd4c1d"/></g></g><path d="M21,53.06V42.9A23.9,23.9,0,0,1,44.9,19h0A22.76,22.76,0,0,1,67.66,41.76V68.28a2.46,2.46,0,0,0,2.46,2.46H84.31a2.46,2.46,0,0,0,2.46-2.44V41.87A41.86,41.86,0,0,0,44.92,0h0A44.13,44.13,0,0,0,.78,44.13h0v8.92a4,4,0,0,0,4,4H17a4,4,0,0,0,4-4Z" style="fill:#cd4c1d"/></svg>
