<svg id="Calque_2" data-name="Calque 2" xmlns="http://www.w3.org/2000/svg" width="195.64" height="183.64" viewBox="0 0 195.64 183.64"><polygon points="0 0 0 183.64 26.53 183.64 26.53 183.64 195.64 183.64 195.64 0 0 0" style="fill:#fff"/><rect x="33.86" y="7.27" width="154.51" height="169.1" style="fill:#cd4c1d"/><path d="M50,36.44H45.14L52,19h4.82l6.8,17.42H58.75l-1.13-3.1H51.09Zm2.6-7.11h3.61l-1.81-5Z" style="fill:#fff"/><path d="M69.15,42.25h-4.3V24.83H68.6l.22,1.51a4.86,4.86,0,0,1,3.78-1.75,4.68,4.68,0,0,1,2.69.79,5.33,5.33,0,0,1,1.85,2.15,7.53,7.53,0,0,1,0,6.21,5.33,5.33,0,0,1-1.85,2.15,4.75,4.75,0,0,1-2.69.79,5,5,0,0,1-1.9-.37,4.88,4.88,0,0,1-1.55-1Zm2.13-9.41a2.13,2.13,0,0,0,1.11-.28,1.93,1.93,0,0,0,.76-.79,2.52,2.52,0,0,0,0-2.27,1.93,1.93,0,0,0-.76-.79,2.13,2.13,0,0,0-1.11-.28,2.2,2.2,0,0,0-1,.25,2,2,0,0,0-.75.71,2.24,2.24,0,0,0-.33,1.05v.43a2.12,2.12,0,0,0,.33,1,2,2,0,0,0,.75.71A2.2,2.2,0,0,0,71.28,32.84Z" style="fill:#fff"/><path d="M83.86,42.25h-4.3V24.83h3.75l.22,1.51a5,5,0,0,1,1.67-1.29,4.94,4.94,0,0,1,2.11-.46,4.68,4.68,0,0,1,2.69.79,5.41,5.41,0,0,1,1.85,2.15,7.53,7.53,0,0,1,0,6.21A5.41,5.41,0,0,1,90,35.89a4.75,4.75,0,0,1-2.69.79,4.85,4.85,0,0,1-3.45-1.4ZM86,32.84a2.13,2.13,0,0,0,1.11-.28,2,2,0,0,0,.76-.79,2.52,2.52,0,0,0,0-2.27,2,2,0,0,0-.76-.79A2.13,2.13,0,0,0,86,28.43a2.2,2.2,0,0,0-1,.25,2,2,0,0,0-.75.71,2.24,2.24,0,0,0-.33,1.05v.43a2.12,2.12,0,0,0,.33,1,2,2,0,0,0,.75.71A2.2,2.2,0,0,0,86,32.84Z" style="fill:#fff"/><path d="M98.87,36.44h-4.6V18.55h4.6Z" style="fill:#fff"/><path d="M112.24,35.22a8.32,8.32,0,0,1-4.72,1.46,7.52,7.52,0,0,1-3.52-.82,6.4,6.4,0,0,1-2.48-2.24,5.73,5.73,0,0,1-.91-3.18,5.56,5.56,0,0,1,.81-3,5.87,5.87,0,0,1,2.22-2.09,6.46,6.46,0,0,1,3.16-.77,6.16,6.16,0,0,1,3.24.85,5.85,5.85,0,0,1,2.18,2.36,7.56,7.56,0,0,1,.78,3.51v.37h-7.79a2.72,2.72,0,0,0,.58.82,2.9,2.9,0,0,0,.93.59,3.69,3.69,0,0,0,1.3.22,5.22,5.22,0,0,0,3.1-1.05ZM105,29.94h4.06a2.19,2.19,0,0,0-.33-1,2,2,0,0,0-.72-.65,2.08,2.08,0,0,0-1-.24,1.82,1.82,0,0,0-1,.25,2,2,0,0,0-.68.68A2.69,2.69,0,0,0,105,29.94Z" style="fill:#fff"/><path d="M46.19,60.24V42.81h6.63A7.68,7.68,0,0,1,57.47,44a4,4,0,0,1,1.64,3.45,4.35,4.35,0,0,1-.56,2.21A3.94,3.94,0,0,1,57,51.21a4.3,4.3,0,0,1,2.2,1.51A4.17,4.17,0,0,1,60,55.29a4.63,4.63,0,0,1-.73,2.62,4.8,4.8,0,0,1-2.08,1.72,7.77,7.77,0,0,1-3.18.61Zm4.6-10.4h1.72a2.51,2.51,0,0,0,1.53-.4,1.35,1.35,0,0,0,.54-1.15A1.27,1.27,0,0,0,54,47.21a2.57,2.57,0,0,0-1.52-.39H50.79Zm0,6.39h2a4.41,4.41,0,0,0,1.35-.18,1.79,1.79,0,0,0,.85-.52,1.27,1.27,0,0,0,.29-.83,1.3,1.3,0,0,0-.26-.82,1.53,1.53,0,0,0-.75-.5,3.81,3.81,0,0,0-1.2-.17H50.79Z" style="fill:#fff"/><path d="M66,60.24H61.76V48.62h3.72l.13,1.82a4.23,4.23,0,0,1,1.52-1.51,4.1,4.1,0,0,1,2.12-.54,5.9,5.9,0,0,1,.83.06,6.34,6.34,0,0,1,.84.19l-.53,3.86a5,5,0,0,0-1.58-.28,2.86,2.86,0,0,0-1.47.36,2.41,2.41,0,0,0-1,1A3.28,3.28,0,0,0,66,55.09Z" style="fill:#fff"/><path d="M77.91,60.47a6.7,6.7,0,0,1-3.27-.78,5.92,5.92,0,0,1-2.26-2.15,6.31,6.31,0,0,1,0-6.22,5.84,5.84,0,0,1,2.26-2.15,6.7,6.7,0,0,1,3.27-.78,6.61,6.61,0,0,1,3.24.78,5.79,5.79,0,0,1,2.24,2.15,6.38,6.38,0,0,1,0,6.22,5.86,5.86,0,0,1-2.24,2.15A6.61,6.61,0,0,1,77.91,60.47Zm0-3.83a1.78,1.78,0,0,0,1-.29,1.88,1.88,0,0,0,.68-.79,2.52,2.52,0,0,0,.25-1.15,2.44,2.44,0,0,0-.25-1.13,2,2,0,0,0-.68-.77,1.85,1.85,0,0,0-2,0,2,2,0,0,0-.68.77A2.44,2.44,0,0,0,76,54.41a2.52,2.52,0,0,0,.25,1.15,1.88,1.88,0,0,0,.68.79A1.77,1.77,0,0,0,77.88,56.64Z" style="fill:#fff"/><path d="M101.13,60.24H96.25l-1.34-6-1.35,6H88.68L84.9,48.62h4.53l1.62,7.31,2-7.31h3.67l2,7.35,1.62-7.35h4.53Z" style="fill:#fff"/><path d="M104.91,59.25l.88-3.53a3.25,3.25,0,0,0,.94.72,6.28,6.28,0,0,0,1.35.56,4.62,4.62,0,0,0,1.35.22,1.51,1.51,0,0,0,.71-.14.44.44,0,0,0,.24-.4.59.59,0,0,0-.23-.46,2.91,2.91,0,0,0-.62-.35c-.26-.11-.56-.22-.89-.34a16.28,16.28,0,0,1-1.56-.65,4.08,4.08,0,0,1-1.39-1.07,2.75,2.75,0,0,1-.57-1.82,3.16,3.16,0,0,1,.58-1.91,3.77,3.77,0,0,1,1.67-1.25,6.45,6.45,0,0,1,2.52-.44,10.84,10.84,0,0,1,4.89,1.22l-1.19,3.26a4.61,4.61,0,0,0-1-.61,6.91,6.91,0,0,0-1.24-.48,4.1,4.1,0,0,0-1.09-.19,1,1,0,0,0-.58.14.41.41,0,0,0-.19.36.59.59,0,0,0,.23.45,2.28,2.28,0,0,0,.61.35l.86.33a17,17,0,0,1,1.6.66,4,4,0,0,1,1.4,1.07,2.75,2.75,0,0,1,.57,1.83,3.11,3.11,0,0,1-.62,1.95A3.9,3.9,0,0,1,112.41,60a7.27,7.27,0,0,1-2.68.45A10,10,0,0,1,104.91,59.25Z" style="fill:#fff"/><path d="M127.34,59a8.28,8.28,0,0,1-4.71,1.45,7.44,7.44,0,0,1-3.53-.82,6.3,6.3,0,0,1-2.47-2.24,5.72,5.72,0,0,1-.92-3.18,5.53,5.53,0,0,1,.82-3,5.92,5.92,0,0,1,2.21-2.09,6.49,6.49,0,0,1,3.17-.76,6.07,6.07,0,0,1,3.24.85,5.8,5.8,0,0,1,2.17,2.35,7.56,7.56,0,0,1,.78,3.51v.37h-7.79a2.64,2.64,0,0,0,.59.82,2.56,2.56,0,0,0,.93.59,3.44,3.44,0,0,0,1.3.22,5.3,5.3,0,0,0,3.1-1Zm-7.22-5.29h4a2.2,2.2,0,0,0-.33-1,1.91,1.91,0,0,0-.72-.66,2.07,2.07,0,0,0-1-.24,1.86,1.86,0,0,0-1,.26,2.07,2.07,0,0,0-.68.67A2.68,2.68,0,0,0,120.12,53.73Z" style="fill:#fff"/><path d="M134.13,60.24h-4.29V48.62h3.72l.14,1.82a4.08,4.08,0,0,1,3.64-2,5.76,5.76,0,0,1,.82.06,6.87,6.87,0,0,1,.85.19l-.54,3.86a4.93,4.93,0,0,0-1.58-.28,2.91,2.91,0,0,0-1.47.36,2.33,2.33,0,0,0-.95,1,3.16,3.16,0,0,0-.34,1.52Z" style="fill:#fff"/><path d="M46.19,84V66.61h6.63a7.62,7.62,0,0,1,4.65,1.22,4,4,0,0,1,1.64,3.45,4.4,4.4,0,0,1-.56,2.21A4,4,0,0,1,57,75a4.3,4.3,0,0,1,2.2,1.51A4.14,4.14,0,0,1,60,79.08a4.63,4.63,0,0,1-.73,2.62,4.74,4.74,0,0,1-2.08,1.72A7.61,7.61,0,0,1,54,84Zm4.6-10.4h1.72a2.51,2.51,0,0,0,1.53-.4,1.33,1.33,0,0,0,.54-1.14A1.24,1.24,0,0,0,54,71a2.57,2.57,0,0,0-1.52-.4H50.79Zm0,6.39h2a4.41,4.41,0,0,0,1.35-.18,1.79,1.79,0,0,0,.85-.52,1.25,1.25,0,0,0,.29-.83,1.32,1.32,0,0,0-.26-.82,1.53,1.53,0,0,0-.75-.5A3.81,3.81,0,0,0,53.1,77H50.79Z" style="fill:#fff"/><path d="M72.78,84H69l-.21-1.28a4.22,4.22,0,0,1-1.54,1.13,5,5,0,0,1-2,.39,4.83,4.83,0,0,1-2.13-.46,3.76,3.76,0,0,1-1.46-1.27,3.46,3.46,0,0,1,0-3.76,3.79,3.79,0,0,1,1.61-1.29A5.48,5.48,0,0,1,65.72,77a6.77,6.77,0,0,1,1.42.14,8.52,8.52,0,0,1,1.36.42V77.4a1.4,1.4,0,0,0-.35-.94,2.22,2.22,0,0,0-1-.64,3.79,3.79,0,0,0-1.39-.23,5,5,0,0,0-1.53.23,4.14,4.14,0,0,0-1.31.66l-1.1-3.15a14.63,14.63,0,0,1,2.54-.86,10.76,10.76,0,0,1,2.4-.29,6.86,6.86,0,0,1,3.17.7,5.09,5.09,0,0,1,2.07,2,6,6,0,0,1,.73,3Zm-6.49-2.89a2.53,2.53,0,0,0,1-.23,2.57,2.57,0,0,0,.83-.6,1.11,1.11,0,0,0,.32-.73h0a3.86,3.86,0,0,0-.93-.38,4,4,0,0,0-1-.13,2.1,2.1,0,0,0-1.15.27.86.86,0,0,0-.43.75.91.91,0,0,0,.18.55,1.09,1.09,0,0,0,.48.38A1.67,1.67,0,0,0,66.29,81.14Z" style="fill:#fff"/><path d="M87,84H82.66v-5.6a3.05,3.05,0,0,0-.45-1.79A1.48,1.48,0,0,0,80.94,76a1.53,1.53,0,0,0-1.31.63,3,3,0,0,0-.47,1.78V84H74.87V72.41h3.4l.14,1.85A4.06,4.06,0,0,1,80,72.71a4.89,4.89,0,0,1,2.33-.53,4.36,4.36,0,0,1,3.38,1.34A5.38,5.38,0,0,1,87,77.26Z" style="fill:#fff"/><g id="Layer_2" data-name="Layer 2"><g id="Layer_1-2" data-name="Layer 1-2"><path d="M153,164.51a2.64,2.64,0,0,1-1.17-.24,3,3,0,0,1,0-5.56,3,3,0,0,1,2.35,0,3,3,0,0,1,1,4.92,3.15,3.15,0,0,1-1,.64A2.8,2.8,0,0,1,153,164.51Zm0-1.58a1.43,1.43,0,0,0,.58-.11,1.52,1.52,0,0,0,.48-.31,1.41,1.41,0,0,0,.34-.46,1.27,1.27,0,0,0,0-1.11,1.45,1.45,0,0,0-.34-.47,1.51,1.51,0,0,0-1.63-.31,1.64,1.64,0,0,0-.48.31,1.7,1.7,0,0,0-.32.47,1.27,1.27,0,0,0,0,1.11,1.5,1.5,0,0,0,1.37.88Z" style="fill:#fff"/><path d="M150.31,158.32a.17.17,0,0,1-.17,0,.11.11,0,0,1-.07-.12v-1.3a.25.25,0,0,1,.05-.15.23.23,0,0,1,.12-.1l2.66-.91c.06,0,.08,0,.08-.08s0-.07-.08-.09l-2.64-.87a.24.24,0,0,1-.14-.1.34.34,0,0,1-.05-.17v-1.06a.3.3,0,0,1,.05-.16.23.23,0,0,1,.14-.09l2.66-.88c.06,0,.08-.05.08-.09s0-.07-.08-.09l-2.68-.92a.29.29,0,0,1-.12-.1.26.26,0,0,1-.05-.17v-1.28a.12.12,0,0,1,.07-.12h.14l5.45,1.94a.26.26,0,0,1,.13.1.22.22,0,0,1,0,.17v1a.22.22,0,0,1,0,.17.19.19,0,0,1-.13.1l-2.66.88s-.08,0-.08.08,0,.07.08.09l2.66.88a.21.21,0,0,1,.13.09.22.22,0,0,1,0,.17v1a.26.26,0,0,1-.18.25Z" style="fill:#fff"/><path d="M150.25,147.87a.32.32,0,0,1-.12-.11.34.34,0,0,1,0-.17v-1.11a.3.3,0,0,1,0-.16.32.32,0,0,1,.13-.1l5.43-2.34a.16.16,0,0,1,.15,0,.16.16,0,0,1,.08.17v1.37a.34.34,0,0,1,0,.17.46.46,0,0,1-.12.12l-.49.21a.34.34,0,0,0-.12.12.28.28,0,0,0-.06.15v1.69a.27.27,0,0,0,.06.17.32.32,0,0,0,.12.11l.48.22a.25.25,0,0,1,.12.11.21.21,0,0,1,0,.15V150a.22.22,0,0,1,0,.08.18.18,0,0,1-.05.07.14.14,0,0,1-.19,0Zm3.48-.47v-.71a.17.17,0,0,0,0-.12.15.15,0,0,0-.13,0l-.47.19-.5.21c-.05,0-.07.05-.07.07s0,.05.07.07l1,.4a.15.15,0,0,0,.13,0A.13.13,0,0,0,153.73,147.4Z" style="fill:#fff"/><path d="M166.31,154.73h-2.06a.17.17,0,0,0-.17.18v0a10.55,10.55,0,0,0,.33,2.16.18.18,0,0,0,.17.13h1.73a.18.18,0,0,0,.17-.17v-2.14a.18.18,0,0,0-.16-.18Z" style="fill:#fff"/><path d="M166.31,151.19h-1.72a.17.17,0,0,0-.17.13,10.65,10.65,0,0,0-.34,2.18.17.17,0,0,0,.15.18h2.08a.17.17,0,0,0,.17-.17v-2.14a.17.17,0,0,0-.17-.17Z" style="fill:#fff"/><path d="M166.21,148.29a3.59,3.59,0,0,0-1.2,1.43c0,.05,0,.11-.08.17a.17.17,0,0,0,.06.23.19.19,0,0,0,.1,0h1.21a.17.17,0,0,0,.17-.18v-1.53a.16.16,0,0,0-.16-.18A.17.17,0,0,0,166.21,148.29Z" style="fill:#fff"/><path d="M166.31,158.26h-1.22a.18.18,0,0,0-.19.16.19.19,0,0,0,0,.1l.09.17a3.54,3.54,0,0,0,1.2,1.43.17.17,0,0,0,.24,0,.18.18,0,0,0,0-.12v-1.55a.17.17,0,0,0-.17-.17Z" style="fill:#fff"/><path d="M162.62,150.14h.95a.19.19,0,0,0,.17-.12,7.43,7.43,0,0,1,.52-1.06.17.17,0,0,0-.24-.25h0a6.44,6.44,0,0,0-1.51,1.12.17.17,0,0,0,0,.24h0A.2.2,0,0,0,162.62,150.14Z" style="fill:#fff"/><path d="M160.9,153.68h1.95a.18.18,0,0,0,.18-.17,11.4,11.4,0,0,1,.28-2.1.17.17,0,0,0-.12-.21h-1.61a.17.17,0,0,0-.16.09,6.1,6.1,0,0,0-.7,2.2.17.17,0,0,0,.14.2h0Z" style="fill:#fff"/><path d="M163.73,158.38a.18.18,0,0,0-.17-.11h-.95a.17.17,0,0,0-.19.15.18.18,0,0,0,.06.15A6.46,6.46,0,0,0,164,159.7a.17.17,0,0,0,.24,0h0a.18.18,0,0,0,0-.24h0A6.69,6.69,0,0,1,163.73,158.38Z" style="fill:#fff"/><path d="M170.29,150a.19.19,0,0,0,.17.12h1a.18.18,0,0,0,.19-.15.17.17,0,0,0-.07-.16,6.6,6.6,0,0,0-1.5-1.12.18.18,0,0,0-.25,0,.17.17,0,0,0,0,.24h0A7.24,7.24,0,0,1,170.29,150Z" style="fill:#fff"/><path d="M163.31,157a13.45,13.45,0,0,1-.28-2.09.18.18,0,0,0-.17-.18h-2a.18.18,0,0,0-.17.19v0a6.23,6.23,0,0,0,.68,2.18.16.16,0,0,0,.16.09h1.57a.17.17,0,0,0,.17-.17Z" style="fill:#fff"/><path d="M167.72,153.68h2.06a.17.17,0,0,0,.17-.17v0a11.38,11.38,0,0,0-.33-2.17.17.17,0,0,0-.17-.13h-1.73a.17.17,0,0,0-.17.17v2.14a.17.17,0,0,0,.15.18h0Z" style="fill:#fff"/><path d="M170.71,151.41a12.34,12.34,0,0,1,.29,2.1.16.16,0,0,0,.17.17h2a.17.17,0,0,0,.18-.17v0a6.28,6.28,0,0,0-.69-2.2.17.17,0,0,0-.16-.09h-1.57a.17.17,0,0,0-.18.16h0Z" style="fill:#fff"/><path d="M173.13,154.73h-1.95a.19.19,0,0,0-.18.18,12.33,12.33,0,0,1-.27,2.09.18.18,0,0,0,.12.21h1.62a.18.18,0,0,0,.16-.1,6,6,0,0,0,.69-2.18.18.18,0,0,0-.14-.2h-.05Z" style="fill:#fff"/><path d="M171.42,158.26h-.95a.18.18,0,0,0-.18.12,7,7,0,0,1-.51,1.07.17.17,0,1,0,.24.25h0a6.46,6.46,0,0,0,1.52-1.13.18.18,0,0,0,0-.25h0A.18.18,0,0,0,171.42,158.26Z" style="fill:#fff"/><path d="M167.72,150.14h1.21a.18.18,0,0,0,.19-.16.19.19,0,0,0,0-.1l-.08-.17a3.55,3.55,0,0,0-1.2-1.43.18.18,0,0,0-.28.15V150a.17.17,0,0,0,.16.19Z" style="fill:#fff"/><path d="M168.94,158.26h-1.22a.17.17,0,0,0-.17.17V160a.16.16,0,0,0,.15.18.12.12,0,0,0,.12,0A3.64,3.64,0,0,0,169,158.7a1.42,1.42,0,0,0,.08-.18.17.17,0,0,0-.17-.25Z" style="fill:#fff"/><path d="M169.77,154.73h-2.06a.18.18,0,0,0-.17.18V157a.18.18,0,0,0,.17.18h1.73a.18.18,0,0,0,.17-.14,11.18,11.18,0,0,0,.33-2.15.17.17,0,0,0-.16-.19h0Z" style="fill:#fff"/><path d="M173.94,143.87H160.1a2.48,2.48,0,0,0-2.48,2.48v15.71a2.48,2.48,0,0,0,2.48,2.48h13.84a2.49,2.49,0,0,0,2.48-2.48V146.35A2.49,2.49,0,0,0,173.94,143.87ZM167,161.54a7.33,7.33,0,1,1,7.33-7.33,7.33,7.33,0,0,1-7.33,7.33Z" style="fill:#fff"/></g></g><path d="M153.13,140.52V139a3.61,3.61,0,0,1,3.61-3.61h0a3.44,3.44,0,0,1,3.43,3.44v4a.37.37,0,0,0,.37.37h2.14a.38.38,0,0,0,.37-.37h0v-4a6.32,6.32,0,0,0-6.31-6.31h0a6.66,6.66,0,0,0-6.66,6.65h0v1.34a.61.61,0,0,0,.61.61h1.83a.61.61,0,0,0,.61-.61Z" style="fill:#fff"/><path d="M37.55,26.62H30l-.92,5.23H37L40.64,37H28.2l-1.28,7.18H20.67L22,37H17.3L16,44.22H9.79L11.05,37H7.26l.8-5.19H12l.9-5.23H8.8l.84-5.19h4.17l1.71-9.65h6.23L20,21.43h4.65l1.71-9.65h6.25l-1.71,9.65H35.4ZM18.21,31.85h4.64l.93-5.23H19.14Z" style="fill:#cd4c1d"/></svg>