<?xml version="1.0" encoding="UTF-8"?><svg id="Calque_1" xmlns="http://www.w3.org/2000/svg" width="373.07" height="199.84" viewBox="0 0 373.07 199.84"><rect width="373.07" height="199.84" style="fill:#fff; opacity:0; stroke-width:0px;"/><g id="Layer_2"><g id="Layer_1-2"><path d="M44.29,171.93c-1.85.01-3.68-.36-5.38-1.1-3.31-1.4-5.95-4.03-7.38-7.33-1.45-3.43-1.45-7.3,0-10.72,1.42-3.32,4.06-5.96,7.38-7.38,1.7-.73,3.53-1.1,5.38-1.09,1.85-.01,3.69.36,5.39,1.09,3.31,1.42,5.95,4.06,7.36,7.38,2.19,5.17,1.02,11.15-2.96,15.1-1.27,1.25-2.76,2.24-4.4,2.93-1.7.75-3.53,1.13-5.39,1.12ZM44.29,164.7c.9,0,1.8-.17,2.63-.51.81-.33,1.55-.8,2.19-1.4.65-.59,1.19-1.31,1.57-2.1.75-1.62.75-3.49,0-5.1-.39-.8-.92-1.52-1.57-2.12-1.97-1.91-4.89-2.46-7.42-1.42-.82.33-1.56.81-2.2,1.42-.62.61-1.12,1.33-1.49,2.12-.76,1.62-.76,3.49,0,5.1.36.79.87,1.5,1.49,2.1.63.6,1.38,1.08,2.2,1.4.83.33,1.71.49,2.6.49v.02Z" style="fill:#cd4c1d; stroke-width:0px;"/><path d="M32.02,143.66c-.25.12-.54.12-.78,0-.21-.11-.33-.34-.31-.57v-5.94c0-.25.08-.49.23-.69.14-.2.34-.36.57-.44l12.14-4.16c.25-.07.37-.2.37-.38s-.12-.31-.37-.38l-12.09-4c-.25-.07-.46-.23-.61-.44-.16-.23-.24-.5-.23-.78v-4.84c0-.26.08-.51.23-.72.15-.21.36-.37.61-.44l12.18-4.01c.24-.07.36-.2.36-.38s-.12-.32-.36-.42l-12.24-4.19c-.23-.11-.42-.28-.57-.48-.16-.23-.24-.5-.23-.78v-5.82c-.02-.23.1-.45.31-.55.2-.08.43-.08.64,0l24.92,8.84c.24.09.46.26.6.47.17.23.25.5.24.78v4.7c.01.28-.07.56-.24.78-.14.21-.36.37-.6.44l-12.15,4.01c-.24.08-.37.2-.37.38s.13.31.37.38l12.15,4.01c.25.07.46.23.6.44.17.23.25.5.24.78v4.7c-.02.51-.35.96-.84,1.13l-24.77,8.56Z" style="fill:#cd4c1d; stroke-width:0px;"/><path d="M31.77,95.9c-.23-.11-.42-.28-.55-.49-.16-.23-.24-.5-.24-.78v-5.07c0-.26.08-.51.24-.71.14-.21.34-.38.57-.49l24.8-10.65c.23-.09.49-.07.7.05.27.17.41.47.36.78v6.27c0,.28-.08.56-.24.78-.14.22-.33.4-.56.53l-2.22.98c-.23.13-.42.31-.56.53-.15.21-.23.46-.24.71v7.69c0,.28.08.55.24.78.13.22.33.39.56.49l2.2,1.02c.23.11.42.28.56.49.15.21.23.46.24.71v6.27c0,.13-.03.26-.08.38-.04.12-.12.23-.21.32-.1.09-.23.15-.36.17-.18.02-.36-.02-.52-.12l-24.69-10.67ZM47.63,93.75v-3.25c.02-.21-.07-.41-.24-.53-.18-.11-.4-.11-.57,0-.6.24-1.32.53-2.13.88l-2.3.95c-.21.09-.32.2-.32.33s.11.23.32.32l4.41,1.83c.18.09.39.09.57,0,.17-.12.27-.32.26-.53Z" style="fill:#cd4c1d; stroke-width:0px;"/><path d="M105.11,127.26h-9.41c-.43,0-.78.35-.78.78v.09c.17,3.33.68,6.63,1.51,9.86.09.36.41.61.78.6h7.9c.43,0,.78-.35.78-.78v-9.74c.02-.43-.31-.8-.74-.82-.01,0-.03,0-.04,0Z" style="fill:#cd4c1d; stroke-width:0px;"/><path d="M105.11,111.07h-7.84c-.37,0-.7.24-.78.6-.85,3.25-1.38,6.57-1.57,9.92-.05.43.27.82.7.86,0,0,0,0,0,0h9.49c.43,0,.78-.35.78-.78v-9.79c0-.43-.35-.78-.78-.78v-.03Z" style="fill:#cd4c1d; stroke-width:0px;"/><path d="M104.67,97.81c-1.99,1.25-3.92,3.48-5.49,6.53-.13.24-.25.51-.38.78-.22.37-.09.85.28,1.07.14.08.3.12.45.1h5.54c.43,0,.78-.35.78-.78v-7.02c.01-.43-.33-.79-.76-.81-.16,0-.31.04-.44.12Z" style="fill:#cd4c1d; stroke-width:0px;"/><path d="M105.11,143.37h-5.57c-.43-.03-.81.3-.84.73-.01.15.02.31.1.44.13.28.27.56.41.78,1.22,2.62,3.11,4.88,5.49,6.53.34.27.83.21,1.1-.13.12-.16.18-.36.16-.56v-7.06c0-.43-.35-.78-.78-.78l-.06.05Z" style="fill:#cd4c1d; stroke-width:0px;"/><path d="M88.27,106.27h4.32c.35,0,.66-.2.78-.53.66-1.67,1.44-3.29,2.35-4.84.31-.3.32-.8.02-1.12-.3-.31-.8-.32-1.12-.02h0c-2.53,1.36-4.85,3.08-6.88,5.11-.34.27-.4.76-.13,1.1,0,0,0,0,0,0,.16.19.39.3.64.29Z" style="fill:#cd4c1d; stroke-width:0px;"/><path d="M80.39,122.47h8.93c.42-.02.76-.36.78-.78.16-3.23.59-6.45,1.29-9.61.12-.42-.13-.85-.54-.96-.08-.01-.16-.01-.24,0h-7.13c-.3,0-.58.16-.72.42-1.69,3.11-2.77,6.52-3.18,10.03-.08.43.2.84.63.91.03,0,.05,0,.08.01l.11-.02Z" style="fill:#cd4c1d; stroke-width:0px;"/><path d="M93.33,143.92c-.13-.32-.44-.53-.78-.53h-4.34c-.43-.05-.82.25-.87.68-.03.27.08.53.29.7,2.04,2.06,4.39,3.81,6.95,5.18.3.31.8.31,1.11,0,0,0,0,0,0,0,.31-.3.32-.8.01-1.11,0,0,0,0-.01-.01h0c-.92-1.57-1.7-3.22-2.35-4.92Z" style="fill:#cd4c1d; stroke-width:0px;"/><path d="M123.3,105.74c.13.32.44.53.78.53h4.36c.43.05.82-.25.88-.68.03-.27-.08-.54-.29-.71-2.03-2.03-4.35-3.75-6.88-5.11-.31-.3-.81-.29-1.12.02-.3.31-.29.81.02,1.12h0c.87,1.55,1.63,3.17,2.25,4.84Z" style="fill:#cd4c1d; stroke-width:0px;"/><path d="M91.42,137.6c-.7-3.14-1.12-6.34-1.28-9.55-.02-.42-.36-.76-.78-.78h-8.96c-.45.02-.8.4-.78.85v.06c.41,3.49,1.47,6.88,3.14,9.98.14.27.42.44.72.43h7.16c.43,0,.78-.35.78-.78.01-.07.01-.14,0-.21Z" style="fill:#cd4c1d; stroke-width:0px;"/><path d="M111.55,122.47h9.41c.43,0,.78-.35.78-.78v-.09c-.17-3.35-.68-6.68-1.52-9.92-.09-.36-.41-.61-.78-.6h-7.89c-.43,0-.78.35-.78.78v9.75c-.04.43.28.81.71.85,0,0,0,0,0,0h.07Z" style="fill:#cd4c1d; stroke-width:0px;"/><path d="M125.22,112.07c.71,3.16,1.14,6.38,1.29,9.61,0,.43.35.78.78.78h8.98c.43,0,.78-.35.78-.78,0-.05,0-.1,0-.15-.4-3.52-1.46-6.93-3.14-10.05-.14-.27-.42-.43-.72-.42h-7.16c-.43-.03-.8.3-.83.73,0,0,0,0,0,0-.01.09-.01.18,0,.27Z" style="fill:#cd4c1d; stroke-width:0px;"/><path d="M136.28,127.26h-8.94c-.42.02-.76.36-.78.78-.14,3.21-.56,6.41-1.25,9.55-.12.42.13.85.54.96.08.01.16.01.24,0h7.18c.3,0,.58-.16.72-.43,1.66-3.1,2.72-6.49,3.14-9.98.08-.43-.21-.83-.63-.91,0,0,0,0,0,0-.07,0-.14,0-.21.02Z" style="fill:#cd4c1d; stroke-width:0px;"/><path d="M128.44,143.37h-4.35c-.35-.02-.67.19-.78.53-.65,1.7-1.44,3.34-2.35,4.91-.31.3-.32.8-.02,1.12.3.31.8.32,1.12.02h0c2.56-1.37,4.9-3.12,6.95-5.18.34-.27.39-.77.11-1.1,0,0,0,0,0,0-.16-.2-.41-.3-.67-.28Z" style="fill:#cd4c1d; stroke-width:0px;"/><path d="M111.55,106.27h5.54c.43.03.81-.29.84-.72.01-.16-.02-.32-.1-.45l-.38-.78c-1.22-2.62-3.11-4.88-5.49-6.53-.34-.27-.83-.2-1.1.14-.12.16-.18.35-.16.55v6.95c-.04.43.27.81.71.85.05,0,.09,0,.14,0Z" style="fill:#cd4c1d; stroke-width:0px;"/><path d="M117.12,143.37h-5.57c-.43,0-.78.35-.78.78v7.06c-.04.43.28.81.71.85.2.02.4-.04.55-.16,2.37-1.66,4.26-3.91,5.49-6.53.14-.27.27-.54.41-.82.2-.39.05-.86-.34-1.06-.14-.07-.29-.1-.44-.08l-.02-.04Z" style="fill:#cd4c1d; stroke-width:0px;"/><path d="M120.93,127.26h-9.41c-.43,0-.78.35-.78.78v9.72c0,.43.35.78.78.78h7.89c.37,0,.7-.24.78-.6.83-3.23,1.33-6.53,1.51-9.85.03-.43-.3-.8-.73-.83,0,0,0,0,0,0h-.04Z" style="fill:#cd4c1d; stroke-width:0px;"/><path d="M139.94,77.64h-63.2c-6.26,0-11.33,5.07-11.34,11.33v71.76c0,6.26,5.08,11.33,11.34,11.33h63.2c6.26,0,11.33-5.07,11.33-11.33v-71.76c0-6.26-5.07-11.33-11.33-11.33ZM108.34,158.33c-18.49,0-33.48-14.99-33.48-33.48,0-18.49,14.99-33.48,33.48-33.48,18.49,0,33.48,14.99,33.48,33.48s-14.99,33.48-33.48,33.48h0Z" style="fill:#cd4c1d; stroke-width:0px;"/></g></g><path d="M44.91,62.34v-7c0-9.09,7.37-16.46,16.46-16.46h0c8.66,0,15.68,7.02,15.68,15.68v18.27c0,.94.76,1.69,1.69,1.69h9.78c.93,0,1.69-.75,1.69-1.68,0,0,0-.01,0-.02v-18.2c0-15.92-12.9-28.84-28.83-28.84,0,0,0,0,0,0h0c-16.79,0-30.4,13.61-30.4,30.4,0,0,0,0,0,0v6.15c0,1.53,1.23,2.77,2.76,2.78,0,0,0,0,0,0h8.39c1.53,0,2.78-1.24,2.78-2.78h0Z" style="fill:#cd4c1d; stroke-width:0px;"/><path d="M200.96,115.99c-1.85,0-3.5-.4-4.95-1.19s-2.58-1.88-3.41-3.25-1.24-2.94-1.24-4.7.41-3.33,1.24-4.7,1.96-2.46,3.41-3.25,3.1-1.19,4.95-1.19,3.48.4,4.91,1.19,2.56,1.88,3.38,3.25,1.23,2.94,1.23,4.7-.41,3.33-1.23,4.7-1.95,2.46-3.38,3.25-3.07,1.19-4.91,1.19ZM200.92,110.19c.56,0,1.06-.14,1.5-.43s.79-.69,1.04-1.2.38-1.09.38-1.75-.13-1.2-.38-1.7-.6-.89-1.04-1.18-.94-.43-1.5-.43-1.06.14-1.5.43-.79.68-1.04,1.18-.38,1.06-.38,1.7.13,1.24.38,1.75.6.91,1.04,1.2.94.43,1.5.43Z" style="fill:#cd4c1d; stroke-width:0px;"/><path d="M217.83,124.43h-6.5v-26.37h5.68l.33,2.29c.7-.83,1.54-1.48,2.52-1.94s2.04-.69,3.19-.69c1.54,0,2.89.4,4.08,1.19s2.12,1.88,2.79,3.25,1.02,2.94,1.02,4.7-.34,3.33-1.02,4.7-1.61,2.46-2.79,3.25-2.54,1.19-4.08,1.19c-1.03,0-1.99-.18-2.87-.55s-1.66-.89-2.36-1.56v10.55ZM221.06,110.19c.63,0,1.19-.14,1.68-.43s.87-.68,1.14-1.19.41-1.08.41-1.72-.14-1.22-.41-1.72-.66-.9-1.14-1.19-1.05-.43-1.68-.43c-.59,0-1.12.13-1.59.39s-.86.62-1.14,1.07-.45.98-.5,1.58v.65c.05.57.21,1.09.5,1.54s.67.81,1.14,1.06,1,.39,1.59.39Z" style="fill:#cd4c1d; stroke-width:0px;"/><path d="M248.49,113.79c-2.19,1.46-4.57,2.2-7.14,2.2-1.98,0-3.76-.41-5.33-1.24s-2.82-1.95-3.74-3.38-1.38-3.04-1.38-4.82c0-1.69.41-3.2,1.23-4.53s1.94-2.38,3.35-3.16,3.01-1.16,4.79-1.16,3.5.43,4.9,1.28,2.5,2.04,3.29,3.57,1.18,3.29,1.18,5.31v.56h-11.78c.21.46.5.87.88,1.24s.84.67,1.41.89,1.22.33,1.97.33c1.65,0,3.22-.53,4.69-1.58l1.69,4.48ZM237.56,105.79h6.13c-.06-.55-.23-1.04-.5-1.46s-.64-.75-1.09-.99-.95-.36-1.5-.36-1.05.13-1.48.39-.76.6-1.03,1.02-.44.89-.54,1.41Z" style="fill:#cd4c1d; stroke-width:0px;"/><path d="M268.74,115.64h-6.49v-8.47c0-1.17-.23-2.07-.68-2.71s-1.09-.95-1.92-.95-1.52.32-1.99.96-.7,1.54-.7,2.7v8.47h-6.49v-17.58h5.13l.21,2.79c.62-1.03,1.43-1.81,2.43-2.35s2.18-.8,3.52-.8c2.18,0,3.88.68,5.12,2.03s1.85,3.24,1.85,5.65v10.25Z" style="fill:#cd4c1d; stroke-width:0px;"/><path d="M299.01,115.64h-7.38l-2.04-9.12-2.04,9.12h-7.38l-5.71-17.58h6.86l2.44,11.06,3.06-11.06h5.55l3.06,11.13,2.44-11.13h6.86l-5.71,17.58Z" style="fill:#cd4c1d; stroke-width:0px;"/><path d="M321.05,113.79c-2.19,1.46-4.57,2.2-7.14,2.2-1.98,0-3.76-.41-5.33-1.24s-2.82-1.95-3.74-3.38-1.38-3.04-1.38-4.82c0-1.69.41-3.2,1.23-4.53s1.94-2.38,3.35-3.16,3.01-1.16,4.79-1.16,3.5.43,4.9,1.28,2.5,2.04,3.29,3.57,1.18,3.29,1.18,5.31v.56h-11.78c.21.46.5.87.88,1.24s.84.67,1.41.89,1.22.33,1.97.33c1.65,0,3.22-.53,4.69-1.58l1.69,4.48ZM310.11,105.79h6.13c-.06-.55-.23-1.04-.5-1.46s-.64-.75-1.09-.99-.95-.36-1.5-.36-1.05.13-1.48.39-.76.6-1.03,1.02-.44.89-.54,1.41Z" style="fill:#cd4c1d; stroke-width:0px;"/><path d="M328.7,115.64h-5.68v-26.37h6.49v10.55c.69-.67,1.48-1.19,2.36-1.56s1.83-.55,2.87-.55c1.54,0,2.89.4,4.08,1.19s2.12,1.88,2.79,3.25,1.02,2.94,1.02,4.7-.34,3.33-1.02,4.7-1.61,2.46-2.79,3.25-2.54,1.19-4.08,1.19c-1.15,0-2.21-.23-3.19-.69s-1.82-1.1-2.52-1.92l-.32,2.27ZM332.75,110.19c.63,0,1.19-.14,1.68-.43s.87-.69,1.14-1.2.41-1.09.41-1.75-.14-1.2-.41-1.7-.66-.89-1.14-1.18-1.05-.43-1.68-.43c-.59,0-1.12.13-1.59.39s-.86.61-1.14,1.05-.45.96-.5,1.55v.65c.05.6.21,1.12.5,1.58s.67.81,1.14,1.07,1,.39,1.59.39Z" style="fill:#cd4c1d; stroke-width:0px;"/><path d="M208.92,151.64h-5.68l-.32-1.93c-.64.74-1.42,1.3-2.34,1.7s-1.91.59-2.99.59c-1.21,0-2.28-.23-3.22-.69s-1.68-1.1-2.21-1.92-.81-1.74-.81-2.79c0-1.1.29-2.07.88-2.9s1.4-1.49,2.43-1.96,2.22-.71,3.56-.71c.73,0,1.44.07,2.14.22s1.39.36,2.06.64v-.28c0-.54-.17-1.01-.52-1.42s-.83-.73-1.44-.97-1.32-.35-2.1-.35-1.57.12-2.31.35-1.41.57-2,1l-1.65-4.76c1.29-.57,2.57-1.01,3.83-1.3s2.48-.44,3.64-.44c1.84,0,3.44.35,4.79,1.06s2.4,1.71,3.14,3.01,1.11,2.82,1.11,4.58v9.28ZM199.1,147.26c.53,0,1.05-.12,1.56-.35s.93-.53,1.26-.9.49-.73.49-1.11v-.02c-.42-.25-.89-.44-1.41-.57s-1.03-.2-1.55-.2c-.74,0-1.32.14-1.75.41s-.64.65-.64,1.13c0,.3.09.58.26.83s.42.44.73.57.66.2,1.05.2Z" style="fill:#cd4c1d; stroke-width:0px;"/><path d="M229.03,151.64h-5.68l-.33-2.29c-.7.82-1.54,1.46-2.52,1.93s-2.04.7-3.19.7c-1.52,0-2.88-.4-4.07-1.19s-2.12-1.88-2.8-3.25-1.02-2.94-1.02-4.7.34-3.33,1.02-4.7,1.61-2.46,2.8-3.25,2.55-1.19,4.07-1.19c1.03,0,1.99.18,2.88.55s1.68.89,2.36,1.56v-10.55h6.49v26.37ZM219.3,146.19c.6,0,1.14-.13,1.63-.39s.88-.62,1.17-1.07.44-.98.44-1.58v-.65c0-.59-.15-1.1-.44-1.55s-.68-.8-1.17-1.05-1.03-.39-1.63-.39-1.18.14-1.67.43-.88.68-1.16,1.19-.42,1.08-.42,1.72.14,1.22.42,1.72.67.9,1.16,1.19,1.05.43,1.67.43Z" style="fill:#cd4c1d; stroke-width:0px;"/><path d="M249.67,134.06l-7.03,17.58h-6.28l-7.03-17.58h6.93l3.25,11.11,3.25-11.11h6.91Z" style="fill:#cd4c1d; stroke-width:0px;"/><path d="M258.17,151.99c-1.85,0-3.5-.4-4.95-1.19s-2.58-1.88-3.41-3.25-1.24-2.94-1.24-4.7.41-3.33,1.24-4.7,1.96-2.46,3.41-3.25,3.1-1.19,4.95-1.19,3.48.4,4.91,1.19,2.56,1.88,3.38,3.25,1.23,2.94,1.23,4.7-.41,3.33-1.23,4.7-1.95,2.46-3.38,3.25-3.07,1.19-4.91,1.19ZM258.14,146.19c.56,0,1.06-.14,1.5-.43s.79-.69,1.04-1.2.38-1.09.38-1.75-.13-1.2-.38-1.7-.6-.89-1.04-1.18-.94-.43-1.5-.43-1.06.14-1.5.43-.79.68-1.04,1.18-.38,1.06-.38,1.7.13,1.24.38,1.75.6.91,1.04,1.2.94.43,1.5.43Z" style="fill:#cd4c1d; stroke-width:0px;"/><path d="M284.76,148.67c-.86,1.03-1.93,1.84-3.22,2.43s-2.72.89-4.31.89c-1.84,0-3.48-.4-4.93-1.19s-2.58-1.88-3.41-3.25-1.24-2.94-1.24-4.7.41-3.33,1.24-4.7,1.96-2.46,3.41-3.25,3.09-1.19,4.93-1.19c1.57,0,3,.29,4.28.88s2.35,1.38,3.21,2.39l-3.78,3.99c-.36-.45-.83-.8-1.42-1.06s-1.19-.4-1.82-.4-1.24.14-1.76.42-.92.67-1.21,1.17-.44,1.07-.44,1.71.15,1.24.44,1.75.7.91,1.21,1.2,1.1.43,1.76.43,1.24-.13,1.83-.4,1.05-.62,1.41-1.06l3.81,3.94Z" style="fill:#cd4c1d; stroke-width:0px;"/><path d="M302.1,151.64h-5.68l-.32-1.93c-.64.74-1.42,1.3-2.34,1.7s-1.91.59-2.99.59c-1.21,0-2.28-.23-3.22-.69s-1.68-1.1-2.21-1.92-.81-1.74-.81-2.79c0-1.1.29-2.07.88-2.9s1.4-1.49,2.43-1.96,2.22-.71,3.56-.71c.73,0,1.44.07,2.14.22s1.39.36,2.06.64v-.28c0-.54-.17-1.01-.52-1.42s-.83-.73-1.44-.97-1.32-.35-2.1-.35-1.57.12-2.31.35-1.41.57-2,1l-1.65-4.76c1.29-.57,2.57-1.01,3.83-1.3s2.48-.44,3.64-.44c1.84,0,3.44.35,4.79,1.06s2.4,1.71,3.14,3.01,1.11,2.82,1.11,4.58v9.28ZM292.28,147.26c.53,0,1.05-.12,1.56-.35s.93-.53,1.26-.9.49-.73.49-1.11v-.02c-.42-.25-.89-.44-1.41-.57s-1.03-.2-1.55-.2c-.74,0-1.32.14-1.75.41s-.64.65-.64,1.13c0,.3.09.58.26.83s.42.44.73.57.66.2,1.05.2Z" style="fill:#cd4c1d; stroke-width:0px;"/><path d="M319.69,148.67c-.86,1.03-1.93,1.84-3.22,2.43s-2.72.89-4.31.89c-1.84,0-3.48-.4-4.93-1.19s-2.58-1.88-3.41-3.25-1.24-2.94-1.24-4.7.41-3.33,1.24-4.7,1.96-2.46,3.41-3.25,3.09-1.19,4.93-1.19c1.57,0,3,.29,4.28.88s2.35,1.38,3.21,2.39l-3.78,3.99c-.36-.45-.83-.8-1.42-1.06s-1.19-.4-1.82-.4-1.24.14-1.76.42-.92.67-1.21,1.17-.44,1.07-.44,1.71.15,1.24.44,1.75.7.91,1.21,1.2,1.1.43,1.76.43,1.24-.13,1.83-.4,1.05-.62,1.41-1.06l3.81,3.94Z" style="fill:#cd4c1d; stroke-width:0px;"/><path d="M331.55,160.43h-6.86l3.62-8.74-9.19-17.63h7.38l4.87,10.27,4.25-10.27h6.86l-10.93,26.37Z" style="fill:#cd4c1d; stroke-width:0px;"/></svg>