<svg id="Calque_1" data-name="Calque 1" xmlns="http://www.w3.org/2000/svg" width="291.89" height="291.89" viewBox="0 0 291.89 291.89"><circle cx="145.94" cy="145.94" r="145.94" style="fill:#0c0c0c"/><g id="Layer_2" data-name="Layer 2"><g id="Layer_1-2" data-name="Layer 1-2"><path d="M89.73,230.77a16.7,16.7,0,0,1-6.83-1.39,17.77,17.77,0,0,1-9.38-9.32,17.45,17.45,0,0,1,0-13.64A17.85,17.85,0,0,1,82.9,197a17.64,17.64,0,0,1,13.68,0,17.81,17.81,0,0,1,9.36,9.38,17.44,17.44,0,0,1-3.77,19.2,18,18,0,0,1-5.59,3.73A16.82,16.82,0,0,1,89.73,230.77Zm0-9.19a8.82,8.82,0,0,0,6.13-2.43,8.59,8.59,0,0,0,2-2.67,7.75,7.75,0,0,0,0-6.49,9.08,9.08,0,0,0-2-2.69,8.78,8.78,0,0,0-9.44-1.8,8.62,8.62,0,0,0-2.79,1.8A9.55,9.55,0,0,0,81.74,210a7.6,7.6,0,0,0,0,6.49,8.62,8.62,0,0,0,4.68,4.46,9,9,0,0,0,3.31.61Z" style="fill:#cd4c1d"/><path d="M74.13,194.83a1.08,1.08,0,0,1-1,0,.74.74,0,0,1-.39-.73v-7.55a1.57,1.57,0,0,1,1-1.44l15.44-5.29c.31-.09.46-.25.46-.49s-.15-.39-.46-.49l-15.37-5.08a1.43,1.43,0,0,1-.78-.56,1.54,1.54,0,0,1-.29-1v-6.15a1.59,1.59,0,0,1,.29-.92,1.43,1.43,0,0,1,.78-.56l15.48-5.1c.31-.09.46-.25.46-.49s-.15-.41-.46-.54l-15.55-5.32a2,2,0,0,1-.73-.61,1.55,1.55,0,0,1-.29-1v-7.39a.71.71,0,0,1,.39-.7,1.13,1.13,0,0,1,.81,0l31.68,11.23a1.69,1.69,0,0,1,.77.6,1.56,1.56,0,0,1,.3,1v6a1.56,1.56,0,0,1-.3,1,1.39,1.39,0,0,1-.77.55L90.18,168.9c-.31.1-.47.25-.47.49s.16.38.47.48L105.63,175a1.4,1.4,0,0,1,.77.56,1.53,1.53,0,0,1,.3,1v6a1.61,1.61,0,0,1-1.07,1.44Z" style="fill:#cd4c1d"/><path d="M73.82,134.1a1.81,1.81,0,0,1-1-1.61V126a1.57,1.57,0,0,1,.3-.91,1.79,1.79,0,0,1,.73-.63L105.38,111a1,1,0,0,1,.89.07,1,1,0,0,1,.46,1v8a1.58,1.58,0,0,1-.31,1,2,2,0,0,1-.71.67l-2.82,1.25a2,2,0,0,0-.72.67,1.7,1.7,0,0,0-.3.9v9.78a1.78,1.78,0,0,0,.3,1,1.7,1.7,0,0,0,.72.63l2.79,1.29a1.82,1.82,0,0,1,.72.63,1.62,1.62,0,0,1,.3.91v8a1.64,1.64,0,0,1-.1.49,1,1,0,0,1-.27.41.9.9,0,0,1-1.12.07ZM94,131.37v-4.13a.76.76,0,0,0-.3-.67.69.69,0,0,0-.73,0c-.76.31-1.67.67-2.71,1.11l-2.93,1.21c-.27.12-.41.26-.41.42s.14.29.41.41L92.93,132a.79.79,0,0,0,.73,0A.74.74,0,0,0,94,131.37Z" style="fill:#cd4c1d"/><path d="M167.06,174h-12a1,1,0,0,0-1,1v.12A63.38,63.38,0,0,0,156,187.64a1,1,0,0,0,1,.76h10.05a1,1,0,0,0,1-1V175a1,1,0,0,0-.95-1.05Z" style="fill:#cd4c1d"/><path d="M167.06,153.4h-10a1,1,0,0,0-1,.77,63.24,63.24,0,0,0-2,12.61,1,1,0,0,0,.89,1.1h12.07a1,1,0,0,0,1-1V154.43a1,1,0,0,0-1-1Z" style="fill:#cd4c1d"/><path d="M166.5,136.53a21.13,21.13,0,0,0-7,8.31c-.16.31-.31.64-.47,1a1,1,0,0,0,.36,1.37,1,1,0,0,0,.57.13H167a1,1,0,0,0,1-1v-8.92a1,1,0,0,0-1-1A1.09,1.09,0,0,0,166.5,136.53Z" style="fill:#cd4c1d"/><path d="M167.06,194.46H160a1,1,0,0,0-1.06.93,1,1,0,0,0,.13.56c.17.36.34.71.51,1a20.81,20.81,0,0,0,7,8.3,1,1,0,0,0,1.4-.17,1.06,1.06,0,0,0,.21-.71v-9a1,1,0,0,0-1-1Z" style="fill:#cd4c1d"/><path d="M145.66,147.29h5.49a1.05,1.05,0,0,0,1-.67,43.75,43.75,0,0,1,3-6.16,1,1,0,0,0-1.4-1.44h0a37.05,37.05,0,0,0-8.74,6.49,1,1,0,0,0-.16,1.4h0A1,1,0,0,0,145.66,147.29Z" style="fill:#cd4c1d"/><path d="M135.64,167.88H147a1,1,0,0,0,1-1,72,72,0,0,1,1.65-12.22,1,1,0,0,0-.69-1.22.81.81,0,0,0-.31,0h-9.07a1,1,0,0,0-.92.54,35.56,35.56,0,0,0-4,12.75,1,1,0,0,0,.79,1.17h.1Z" style="fill:#cd4c1d"/><path d="M152.09,195.16a1.05,1.05,0,0,0-1-.67h-5.51a1,1,0,0,0-1.11.87,1,1,0,0,0,.36.9,37.46,37.46,0,0,0,8.83,6.59,1,1,0,0,0,1.41,0h0a1,1,0,0,0,0-1.41v0h0A41.3,41.3,0,0,1,152.09,195.16Z" style="fill:#cd4c1d"/><path d="M190.19,146.62a1.05,1.05,0,0,0,1,.67h5.54a1,1,0,0,0,.74-1.78,37.26,37.26,0,0,0-8.74-6.49,1,1,0,1,0-1.4,1.44h0A44.1,44.1,0,0,1,190.19,146.62Z" style="fill:#cd4c1d"/><path d="M149.66,187.12A72.14,72.14,0,0,1,148,175a1.06,1.06,0,0,0-1-1h-11.4a1,1,0,0,0-1,1.09v.08a35.75,35.75,0,0,0,4,12.69,1,1,0,0,0,.92.54h9.1a1,1,0,0,0,1-1A2.44,2.44,0,0,0,149.66,187.12Z" style="fill:#cd4c1d"/><path d="M175.25,167.88h12a1,1,0,0,0,1-1v-.11a64,64,0,0,0-1.93-12.61,1,1,0,0,0-1-.77h-10a1,1,0,0,0-1,1v12.39a1,1,0,0,0,.89,1.09h.1Z" style="fill:#cd4c1d"/><path d="M192.64,154.66a73,73,0,0,1,1.64,12.22,1,1,0,0,0,1,1H206.7a1,1,0,0,0,1-1v-.19a35.71,35.71,0,0,0-4-12.77,1,1,0,0,0-.92-.54h-9.1a1,1,0,0,0-1.05.93h0A1,1,0,0,0,192.64,154.66Z" style="fill:#cd4c1d"/><path d="M206.7,174H195.33a1.05,1.05,0,0,0-1,1,71.06,71.06,0,0,1-1.59,12.14,1,1,0,0,0,.69,1.22.81.81,0,0,0,.31,0h9.13a1,1,0,0,0,.92-.54,36,36,0,0,0,4-12.69A1,1,0,0,0,207,174h0Z" style="fill:#cd4c1d"/><path d="M196.73,194.46H191.2a1,1,0,0,0-1,.67,43.59,43.59,0,0,1-3,6.24,1,1,0,0,0,1.4,1.45h0a37.46,37.46,0,0,0,8.83-6.59,1,1,0,0,0,.14-1.4h0A1,1,0,0,0,196.73,194.46Z" style="fill:#cd4c1d"/><path d="M175.25,147.29h7.05a1,1,0,0,0,1.07-.92,1.08,1.08,0,0,0-.13-.58l-.48-1a20.77,20.77,0,0,0-7-8.31,1,1,0,0,0-1.4.18,1,1,0,0,0-.2.7v8.83a1,1,0,0,0,.89,1.09A.54.54,0,0,0,175.25,147.29Z" style="fill:#cd4c1d"/><path d="M182.34,194.46h-7.09a1,1,0,0,0-1,1v9a1,1,0,0,0,1.6.88,21,21,0,0,0,7-8.31c.18-.33.35-.68.52-1a1,1,0,0,0-1-1.45Z" style="fill:#cd4c1d"/><path d="M187.17,174h-12a1,1,0,0,0-1,1v12.36a1,1,0,0,0,1,1h10a1,1,0,0,0,1-.76A64,64,0,0,0,188.16,175a1,1,0,0,0-.93-1.06h-.06Z" style="fill:#cd4c1d"/><path d="M211.35,110.89H131a14.4,14.4,0,0,0-14.41,14.4v91.24A14.4,14.4,0,0,0,131,230.93h80.35a14.4,14.4,0,0,0,14.41-14.4V125.29A14.41,14.41,0,0,0,211.35,110.89ZM171.18,213.48a42.57,42.57,0,1,1,42.57-42.57,42.56,42.56,0,0,1-42.57,42.57Z" style="fill:#cd4c1d"/></g></g><path d="M90.53,91.43v-8.9A20.93,20.93,0,0,1,111.46,61.6h0A19.94,19.94,0,0,1,131.4,81.53v23.23a2.15,2.15,0,0,0,2.15,2.15H146a2.14,2.14,0,0,0,2.15-2.13V81.62A36.66,36.66,0,0,0,111.48,45h0A38.65,38.65,0,0,0,72.82,83.61h0v7.81A3.51,3.51,0,0,0,76.33,95H87a3.53,3.53,0,0,0,3.53-3.53Z" style="fill:#cd4c1d"/></svg>