<svg id="Calque_2" data-name="Calque 2" xmlns="http://www.w3.org/2000/svg" width="300" height="300" viewBox="0 0 300 300"><rect width="300" height="300" rx="8.55" style="fill:#cd4c1d"/><g id="Layer_2" data-name="Layer 2"><g id="Layer_1-2" data-name="Layer 1-2"><path d="M70.29,174.44a13.29,13.29,0,0,1-5.38-1.1A13.94,13.94,0,0,1,57.54,166a13.67,13.67,0,0,1,0-10.72,14,14,0,0,1,7.37-7.38,13.85,13.85,0,0,1,10.77,0A14,14,0,0,1,83,155.29a13.72,13.72,0,0,1-3,15.1,14.13,14.13,0,0,1-4.39,2.93A13.35,13.35,0,0,1,70.29,174.44Zm0-7.23a6.59,6.59,0,0,0,2.63-.51,7,7,0,0,0,2.19-1.4,6.73,6.73,0,0,0,1.57-2.1,6.08,6.08,0,0,0,0-5.11A7.22,7.22,0,0,0,75.11,156a6.88,6.88,0,0,0-7.42-1.42,6.66,6.66,0,0,0-2.2,1.42A7.28,7.28,0,0,0,64,158.09a6,6,0,0,0,0,5.11,7.23,7.23,0,0,0,1.49,2.1,6.87,6.87,0,0,0,2.2,1.4,7,7,0,0,0,2.6.49Z" style="fill:#fff"/><path d="M58,146.17a.89.89,0,0,1-.78,0,.59.59,0,0,1-.31-.57v-5.95a1.21,1.21,0,0,1,.8-1.12l12.14-4.17c.26-.07.37-.19.37-.38s-.11-.31-.37-.39l-12.08-4a1.15,1.15,0,0,1-.62-.44,1.23,1.23,0,0,1-.22-.79v-4.83a1.3,1.3,0,0,1,.22-.72,1.1,1.1,0,0,1,.62-.44l12.18-4c.24-.07.36-.19.36-.38s-.12-.32-.36-.43l-12.24-4.18a1.56,1.56,0,0,1-.57-.48,1.28,1.28,0,0,1-.23-.78v-5.82a.55.55,0,0,1,.31-.55.86.86,0,0,1,.63,0l24.92,8.84a1.24,1.24,0,0,1,.61.47,1.2,1.2,0,0,1,.23.78v4.7a1.24,1.24,0,0,1-.23.79,1.13,1.13,0,0,1-.61.44l-12.15,4c-.24.08-.37.2-.37.39s.13.3.37.38l12.15,4a1.13,1.13,0,0,1,.61.44,1.24,1.24,0,0,1,.23.79v4.7a1.25,1.25,0,0,1-.84,1.13Z" style="fill:#fff"/><path d="M57.77,98.4a1.34,1.34,0,0,1-.55-.48,1.31,1.31,0,0,1-.23-.79V92.06a1.18,1.18,0,0,1,.23-.71,1.38,1.38,0,0,1,.57-.5L82.6,80.21a.78.78,0,0,1,.7.05.82.82,0,0,1,.36.79v6.27a1.3,1.3,0,0,1-.25.78,1.64,1.64,0,0,1-.55.53l-2.22,1a1.58,1.58,0,0,0-.57.52,1.4,1.4,0,0,0-.23.72v7.69a1.35,1.35,0,0,0,.23.78,1.29,1.29,0,0,0,.57.49l2.19,1a1.45,1.45,0,0,1,.57.5,1.2,1.2,0,0,1,.23.71v6.27a1.09,1.09,0,0,1-.08.39.75.75,0,0,1-.21.32.75.75,0,0,1-.36.17.76.76,0,0,1-.51-.12Zm15.87-2.15V93a.6.6,0,0,0-.24-.53.53.53,0,0,0-.57,0l-2.13.87-2.31,1c-.21.1-.32.21-.32.33s.11.23.32.32l4.42,1.83a.64.64,0,0,0,.57,0A.61.61,0,0,0,73.64,96.25Z" style="fill:#fff"/><path d="M131.11,129.77H121.7a.78.78,0,0,0-.78.78v.1a49.8,49.8,0,0,0,1.5,9.86.79.79,0,0,0,.79.6h7.9a.78.78,0,0,0,.78-.78v-9.74a.78.78,0,0,0-.74-.82Z" style="fill:#fff"/><path d="M131.11,113.58h-7.84a.77.77,0,0,0-.78.6,49.86,49.86,0,0,0-1.57,9.93.77.77,0,0,0,.7.86h9.49a.78.78,0,0,0,.78-.78V114.4a.78.78,0,0,0-.78-.79Z" style="fill:#fff"/><path d="M130.67,100.32a16.52,16.52,0,0,0-5.49,6.53c-.12.24-.25.51-.37.78a.78.78,0,0,0,.28,1.07.81.81,0,0,0,.45.11h5.55a.78.78,0,0,0,.78-.79v-7a.78.78,0,0,0-.76-.81A.7.7,0,0,0,130.67,100.32Z" style="fill:#fff"/><path d="M131.11,145.88h-5.57a.78.78,0,0,0-.84.73.77.77,0,0,0,.1.44,8.06,8.06,0,0,0,.41.78,16.32,16.32,0,0,0,5.48,6.53.78.78,0,0,0,1.1-.13.81.81,0,0,0,.17-.56v-7a.79.79,0,0,0-.79-.79Z" style="fill:#fff"/><path d="M114.28,108.77h4.32a.81.81,0,0,0,.78-.52,36.73,36.73,0,0,1,2.35-4.85.79.79,0,0,0-1.09-1.13h0a29,29,0,0,0-6.88,5.11.78.78,0,0,0-.13,1.1h0A.73.73,0,0,0,114.28,108.77Z" style="fill:#fff"/><path d="M106.4,125h8.93a.82.82,0,0,0,.78-.78,56.51,56.51,0,0,1,1.3-9.61.8.8,0,0,0-.54-1,1,1,0,0,0-.25,0h-7.13a.79.79,0,0,0-.72.43,27.92,27.92,0,0,0-3.19,10,.78.78,0,0,0,.63.91h.08Z" style="fill:#fff"/><path d="M119.33,146.43a.83.83,0,0,0-.78-.53h-4.33a.78.78,0,0,0-.59,1.39,29.1,29.1,0,0,0,6.94,5.18.79.79,0,0,0,1.11,0h0a.79.79,0,0,0,0-1.11h0A33.18,33.18,0,0,1,119.33,146.43Z" style="fill:#fff"/><path d="M149.31,108.25a.8.8,0,0,0,.78.52h4.36a.77.77,0,0,0,.87-.68.76.76,0,0,0-.29-.71,29.44,29.44,0,0,0-6.88-5.11.79.79,0,1,0-1.09,1.13h0A36.14,36.14,0,0,1,149.31,108.25Z" style="fill:#fff"/><path d="M117.42,140.1a57.84,57.84,0,0,1-1.28-9.55.82.82,0,0,0-.78-.78h-9a.82.82,0,0,0-.78.85v.07a27.89,27.89,0,0,0,3.13,10,.79.79,0,0,0,.72.43h7.16a.78.78,0,0,0,.78-.79A.5.5,0,0,0,117.42,140.1Z" style="fill:#fff"/><path d="M137.55,125H147a.79.79,0,0,0,.79-.78v-.09a50.43,50.43,0,0,0-1.53-9.92.77.77,0,0,0-.78-.61h-7.89a.78.78,0,0,0-.78.79v9.75a.78.78,0,0,0,.71.85h.07Z" style="fill:#fff"/><path d="M151.23,114.58a57.52,57.52,0,0,1,1.29,9.61.78.78,0,0,0,.78.78h9a.78.78,0,0,0,.78-.78.38.38,0,0,0,0-.15A28,28,0,0,0,159.94,114a.81.81,0,0,0-.73-.43h-7.15a.79.79,0,0,0-.83.74h0A.66.66,0,0,0,151.23,114.58Z" style="fill:#fff"/><path d="M162.29,129.77h-8.95a.82.82,0,0,0-.78.78,56.75,56.75,0,0,1-1.25,9.55.8.8,0,0,0,.54,1,1,1,0,0,0,.25,0h7.18a.8.8,0,0,0,.72-.44,28,28,0,0,0,3.13-10,.77.77,0,0,0-.63-.9h0A.75.75,0,0,0,162.29,129.77Z" style="fill:#fff"/><path d="M154.45,145.88H150.1a.79.79,0,0,0-.79.52,34,34,0,0,1-2.35,4.91.79.79,0,0,0,1.1,1.14h0a29.1,29.1,0,0,0,6.94-5.18.79.79,0,0,0,.12-1.11h0A.77.77,0,0,0,154.45,145.88Z" style="fill:#fff"/><path d="M137.55,108.77h5.55a.78.78,0,0,0,.84-.72.79.79,0,0,0-.11-.45l-.37-.79a16.48,16.48,0,0,0-5.49-6.53.78.78,0,0,0-1.26.69v7a.78.78,0,0,0,.7.85A.33.33,0,0,0,137.55,108.77Z" style="fill:#fff"/><path d="M143.13,145.88h-5.58a.78.78,0,0,0-.78.78v7.06a.78.78,0,0,0,.71.85.76.76,0,0,0,.55-.16,16.56,16.56,0,0,0,5.49-6.53l.41-.82a.79.79,0,0,0-.34-1.06.77.77,0,0,0-.45-.08Z" style="fill:#fff"/><path d="M146.93,129.77h-9.41a.78.78,0,0,0-.78.78v9.72a.78.78,0,0,0,.78.79h7.9a.77.77,0,0,0,.78-.61,50.34,50.34,0,0,0,1.51-9.85.8.8,0,0,0-.74-.83h0Z" style="fill:#fff"/><path d="M166,80.14h-63.2A11.34,11.34,0,0,0,91.41,91.47v71.77a11.33,11.33,0,0,0,11.34,11.32H166a11.32,11.32,0,0,0,11.33-11.32V91.47A11.33,11.33,0,0,0,166,80.14Zm-31.6,80.7a33.49,33.49,0,1,1,33.48-33.49,33.49,33.49,0,0,1-33.48,33.49Z" style="fill:#fff"/></g></g><path d="M70.92,64.84v-7A16.46,16.46,0,0,1,87.38,41.38h0a15.68,15.68,0,0,1,15.68,15.68V75.32a1.7,1.7,0,0,0,1.69,1.7h9.78a1.69,1.69,0,0,0,1.69-1.68V57.13A28.82,28.82,0,0,0,87.4,28.29h0A30.4,30.4,0,0,0,57,58.69h0v6.14a2.77,2.77,0,0,0,2.76,2.78h8.39a2.78,2.78,0,0,0,2.78-2.78Z" style="fill:#fff"/><path d="M101.89,226.93a10.18,10.18,0,0,1-5-1.19,8.82,8.82,0,0,1-3.41-3.25,9.55,9.55,0,0,1,0-9.41,8.82,8.82,0,0,1,3.41-3.25,10.18,10.18,0,0,1,5-1.19,10,10,0,0,1,4.91,1.19,8.8,8.8,0,0,1,3.38,3.25,9.61,9.61,0,0,1,0,9.41,8.8,8.8,0,0,1-3.38,3.25A10,10,0,0,1,101.89,226.93Zm0-5.8a2.64,2.64,0,0,0,1.5-.44,2.88,2.88,0,0,0,1-1.19,3.92,3.92,0,0,0,.38-1.75,3.76,3.76,0,0,0-.38-1.7,3,3,0,0,0-1-1.17,2.83,2.83,0,0,0-3,0,3,3,0,0,0-1,1.17,3.76,3.76,0,0,0-.38,1.7,3.92,3.92,0,0,0,.38,1.75,2.88,2.88,0,0,0,1,1.19A2.67,2.67,0,0,0,101.85,221.13Z" style="fill:#fff"/><path d="M118.75,235.36h-6.5V209h5.68l.33,2.28a7.49,7.49,0,0,1,2.53-1.94,7.38,7.38,0,0,1,3.19-.7,7.16,7.16,0,0,1,4.07,1.19,8.16,8.16,0,0,1,2.8,3.25,11.36,11.36,0,0,1,0,9.41,8.16,8.16,0,0,1-2.8,3.25,7.16,7.16,0,0,1-4.07,1.19,7.31,7.31,0,0,1-2.87-.56,7.85,7.85,0,0,1-2.36-1.55ZM122,221.13a3.24,3.24,0,0,0,1.68-.44,3,3,0,0,0,1.14-1.18,3.83,3.83,0,0,0,0-3.45,3,3,0,0,0-1.14-1.18,3.51,3.51,0,0,0-3.27,0,3,3,0,0,0-1.14,1.07,3.47,3.47,0,0,0-.51,1.59v.65a3.31,3.31,0,0,0,.51,1.53,2.94,2.94,0,0,0,1.14,1.07A3.23,3.23,0,0,0,122,221.13Z" style="fill:#fff"/><path d="M149.42,224.73a12.62,12.62,0,0,1-7.13,2.2,11.39,11.39,0,0,1-5.34-1.24,9.73,9.73,0,0,1-3.74-3.39,8.69,8.69,0,0,1-1.38-4.81,8.46,8.46,0,0,1,1.23-4.53,8.86,8.86,0,0,1,3.35-3.16,9.81,9.81,0,0,1,4.79-1.16,9.21,9.21,0,0,1,4.9,1.29,8.74,8.74,0,0,1,3.29,3.57,11.46,11.46,0,0,1,1.17,5.3v.57H138.79a4.2,4.2,0,0,0,.88,1.24,4,4,0,0,0,1.4.88,5.18,5.18,0,0,0,2,.34,8,8,0,0,0,4.69-1.58Zm-10.93-8h6.13a3.22,3.22,0,0,0-.5-1.46,2.89,2.89,0,0,0-1.09-1,3.14,3.14,0,0,0-1.5-.36,2.86,2.86,0,0,0-1.48.38,3.24,3.24,0,0,0-1,1A4,4,0,0,0,138.49,216.73Z" style="fill:#fff"/><path d="M169.66,226.57h-6.48V218.1a4.66,4.66,0,0,0-.68-2.71,2.21,2.21,0,0,0-1.92-.94,2.31,2.31,0,0,0-2,1,4.49,4.49,0,0,0-.7,2.7v8.47H151.4V209h5.13l.21,2.79a6.39,6.39,0,0,1,2.44-2.35,7.4,7.4,0,0,1,3.52-.8,6.58,6.58,0,0,1,5.12,2,8.12,8.12,0,0,1,1.84,5.66Z" style="fill:#fff"/><path d="M199.94,226.57h-7.39l-2-9.12-2,9.12h-7.39L175.38,209h6.86l2.44,11.05L187.74,209h5.55l3.06,11.12L198.79,209h6.86Z" style="fill:#fff"/><path d="M222,224.73a12.62,12.62,0,0,1-7.13,2.2,11.42,11.42,0,0,1-5.34-1.24,9.8,9.8,0,0,1-3.74-3.39,8.69,8.69,0,0,1-1.38-4.81,8.46,8.46,0,0,1,1.23-4.53A8.86,8.86,0,0,1,209,209.8a9.84,9.84,0,0,1,4.79-1.16,9.21,9.21,0,0,1,4.9,1.29,8.74,8.74,0,0,1,3.29,3.57,11.47,11.47,0,0,1,1.18,5.3v.57H211.34a4.2,4.2,0,0,0,.88,1.24,4,4,0,0,0,1.4.88,5.21,5.21,0,0,0,2,.34,8,8,0,0,0,4.7-1.58Zm-10.93-8h6.13a3.1,3.1,0,0,0-.5-1.46,2.89,2.89,0,0,0-1.09-1,3.14,3.14,0,0,0-1.5-.36,2.88,2.88,0,0,0-1.48.38,3.11,3.11,0,0,0-1,1A3.83,3.83,0,0,0,211,216.73Z" style="fill:#fff"/><path d="M229.63,226.57H224V200.21h6.49v10.54a7.81,7.81,0,0,1,2.35-1.55,7.34,7.34,0,0,1,2.87-.56,7.21,7.21,0,0,1,4.08,1.19,8.22,8.22,0,0,1,2.79,3.25,11.36,11.36,0,0,1,0,9.41,8.22,8.22,0,0,1-2.79,3.25,7.21,7.21,0,0,1-4.08,1.19,7.45,7.45,0,0,1-5.71-2.62Zm4-5.44a3.19,3.19,0,0,0,1.68-.44,2.91,2.91,0,0,0,1.14-1.19,3.57,3.57,0,0,0,.42-1.75,3.43,3.43,0,0,0-.42-1.7,3,3,0,0,0-1.14-1.17,3.18,3.18,0,0,0-1.68-.43,3.28,3.28,0,0,0-1.59.38,3.14,3.14,0,0,0-1.14,1.06,3.27,3.27,0,0,0-.5,1.54v.65a3.47,3.47,0,0,0,.5,1.59,3.16,3.16,0,0,0,1.14,1.07A3.28,3.28,0,0,0,233.67,221.13Z" style="fill:#fff"/><path d="M109.85,262.57h-5.68l-.31-1.93a6.6,6.6,0,0,1-2.34,1.7,7.56,7.56,0,0,1-3,.59,7.23,7.23,0,0,1-3.22-.7,5.5,5.5,0,0,1-2.21-1.91,5,5,0,0,1-.81-2.79,4.88,4.88,0,0,1,.88-2.9,5.87,5.87,0,0,1,2.43-2,8.41,8.41,0,0,1,3.56-.71,10.32,10.32,0,0,1,2.15.22,10.59,10.59,0,0,1,2,.64v-.28a2.14,2.14,0,0,0-.52-1.43,3.32,3.32,0,0,0-1.44-1,5.71,5.71,0,0,0-2.1-.36,7.53,7.53,0,0,0-2.31.36,6.42,6.42,0,0,0-2,1l-1.66-4.77a22,22,0,0,1,3.84-1.3,16.2,16.2,0,0,1,3.63-.44,10.17,10.17,0,0,1,4.79,1.07,7.57,7.57,0,0,1,3.14,3,9.11,9.11,0,0,1,1.11,4.58ZM100,258.2a3.77,3.77,0,0,0,1.56-.35,4,4,0,0,0,1.26-.9,1.68,1.68,0,0,0,.49-1.11v0a5.94,5.94,0,0,0-1.41-.57,6.28,6.28,0,0,0-1.55-.2,3.22,3.22,0,0,0-1.74.41A1.3,1.3,0,0,0,98,256.6a1.34,1.34,0,0,0,.27.82A1.7,1.7,0,0,0,99,258,2.68,2.68,0,0,0,100,258.2Z" style="fill:#fff"/><path d="M130,262.57h-5.68l-.33-2.28a7.58,7.58,0,0,1-2.52,1.93,7.27,7.27,0,0,1-3.19.71,7.18,7.18,0,0,1-4.07-1.19,8.18,8.18,0,0,1-2.81-3.25,11.36,11.36,0,0,1,0-9.41,8.18,8.18,0,0,1,2.81-3.25,7.18,7.18,0,0,1,4.07-1.19,7.45,7.45,0,0,1,5.24,2.11V236.21H130Zm-9.72-5.44a3.41,3.41,0,0,0,1.63-.39,3.25,3.25,0,0,0,1.17-1.07,2.92,2.92,0,0,0,.44-1.59v-.65a2.75,2.75,0,0,0-.44-1.54,3.22,3.22,0,0,0-1.17-1.06,3.41,3.41,0,0,0-1.63-.38,3.22,3.22,0,0,0-1.67.43,3.06,3.06,0,0,0-1.16,1.18,3.75,3.75,0,0,0,0,3.45,3.06,3.06,0,0,0,1.16,1.18A3.23,3.23,0,0,0,120.23,257.13Z" style="fill:#fff"/><path d="M150.6,245l-7,17.57h-6.28l-7-17.57h6.93l3.25,11.11L143.69,245Z" style="fill:#fff"/><path d="M159.1,262.93a10.18,10.18,0,0,1-4.95-1.19,8.89,8.89,0,0,1-3.41-3.25,9.55,9.55,0,0,1,0-9.41,8.89,8.89,0,0,1,3.41-3.25,10.18,10.18,0,0,1,4.95-1.19,10,10,0,0,1,4.91,1.19,8.83,8.83,0,0,1,3.39,3.25,9.61,9.61,0,0,1,0,9.41,8.83,8.83,0,0,1-3.39,3.25A10,10,0,0,1,159.1,262.93Zm0-5.8a2.68,2.68,0,0,0,1.51-.44,2.86,2.86,0,0,0,1-1.19,3.79,3.79,0,0,0,.38-1.75,3.64,3.64,0,0,0-.38-1.7,2.93,2.93,0,0,0-1-1.17,2.85,2.85,0,0,0-3,0,3,3,0,0,0-1,1.17,3.76,3.76,0,0,0-.37,1.7,3.92,3.92,0,0,0,.37,1.75,3,3,0,0,0,1,1.19A2.67,2.67,0,0,0,159.06,257.13Z" style="fill:#fff"/><path d="M185.69,259.6a9,9,0,0,1-3.22,2.44,10.84,10.84,0,0,1-9.24-.3,8.79,8.79,0,0,1-4.65-8,9,9,0,0,1,1.24-4.71,9,9,0,0,1,3.41-3.25,10.13,10.13,0,0,1,4.93-1.19,10.27,10.27,0,0,1,4.28.88,9.13,9.13,0,0,1,3.21,2.39l-3.78,4a3.81,3.81,0,0,0-1.41-1.06,4.41,4.41,0,0,0-1.82-.39,3.63,3.63,0,0,0-1.76.42,3.09,3.09,0,0,0-1.21,1.17,3.32,3.32,0,0,0-.44,1.71,3.47,3.47,0,0,0,.44,1.75,3.08,3.08,0,0,0,1.21,1.19,3.54,3.54,0,0,0,1.76.44,4.5,4.5,0,0,0,1.83-.4,3.69,3.69,0,0,0,1.4-1.06Z" style="fill:#fff"/><path d="M203,262.57h-5.68l-.31-1.93a6.6,6.6,0,0,1-2.34,1.7,7.56,7.56,0,0,1-3,.59,7.23,7.23,0,0,1-3.22-.7,5.57,5.57,0,0,1-2.21-1.91,5,5,0,0,1-.81-2.79,4.88,4.88,0,0,1,.88-2.9,5.94,5.94,0,0,1,2.43-2,8.41,8.41,0,0,1,3.56-.71,10.32,10.32,0,0,1,2.15.22,10.59,10.59,0,0,1,2,.64v-.28a2.18,2.18,0,0,0-.51-1.43,3.42,3.42,0,0,0-1.45-1,5.71,5.71,0,0,0-2.1-.36,7.53,7.53,0,0,0-2.31.36,6.42,6.42,0,0,0-2,1l-1.66-4.77a22,22,0,0,1,3.84-1.3,16.28,16.28,0,0,1,3.64-.44,10.19,10.19,0,0,1,4.79,1.07,7.55,7.55,0,0,1,3.13,3,9.11,9.11,0,0,1,1.11,4.58Zm-9.83-4.37a3.77,3.77,0,0,0,1.56-.35A4,4,0,0,0,196,257a1.63,1.63,0,0,0,.49-1.11v0a5.94,5.94,0,0,0-1.41-.57,6.26,6.26,0,0,0-1.54-.2,3.24,3.24,0,0,0-1.75.41,1.29,1.29,0,0,0-.64,1.14,1.34,1.34,0,0,0,.26.82,1.7,1.7,0,0,0,.73.58A2.68,2.68,0,0,0,193.2,258.2Z" style="fill:#fff"/><path d="M220.62,259.6A9,9,0,0,1,217.4,262a10.21,10.21,0,0,1-4.3.89,10.1,10.1,0,0,1-4.93-1.19,8.82,8.82,0,0,1-3.41-3.25,9.55,9.55,0,0,1,0-9.41,8.82,8.82,0,0,1,3.41-3.25,10.1,10.1,0,0,1,4.93-1.19,10.3,10.3,0,0,1,4.28.88,9.18,9.18,0,0,1,3.2,2.39l-3.77,4a3.93,3.93,0,0,0-1.42-1.06,4.41,4.41,0,0,0-1.82-.39,3.63,3.63,0,0,0-1.76.42A3.09,3.09,0,0,0,210.6,252a3.32,3.32,0,0,0-.44,1.71,3.47,3.47,0,0,0,.44,1.75,3.08,3.08,0,0,0,1.21,1.19,3.54,3.54,0,0,0,1.76.44,4.5,4.5,0,0,0,1.83-.4,3.81,3.81,0,0,0,1.41-1.06Z" style="fill:#fff"/><path d="M232.48,271.36h-6.86l3.62-8.73L220.05,245h7.38l4.87,10.26L236.56,245h6.85Z" style="fill:#fff"/></svg>