<svg id="Calque_1" data-name="Calque 1" xmlns="http://www.w3.org/2000/svg" width="693.2" height="910.08" viewBox="0 0 693.2 910.08"><polygon points="440.43 60.06 440.43 61.05 692.21 61.05 692.21 909.09 0.99 909.09 0.99 61.05 252.77 61.05 252.77 60.06 0 60.06 0 910.08 693.2 910.08 693.2 60.06 440.43 60.06"/><path d="M206.77,841.33h-4.4l-1.24,7h4.43l-.27,1.61h-4.45l-1.36,7.7H197.6L199,850h-6.52l-1.35,7.7h-1.88l1.36-7.7h-4.34l.27-1.61h4.36l1.24-7h-4.38l.27-1.62h4.39l1.53-8.63h1.88l-1.53,8.63h6.51l1.53-8.63h1.88l-1.53,8.63H207Zm-14,7h6.51l1.24-7H194Z"/><path d="M212,857.68h-2.46l11-26.6h2.59l11,26.6h-2.49L228.55,850H215.14Zm4-9.77h11.74l-5.87-14.32Z"/><path d="M240.25,866.55h-2.18V839.94h2l.09,3.41a8.1,8.1,0,0,1,3.07-2.76,8.92,8.92,0,0,1,4.23-1,9.07,9.07,0,0,1,4.68,1.21,8.87,8.87,0,0,1,3.26,3.29,9.88,9.88,0,0,1,0,9.44,9,9,0,0,1-3.26,3.3,9.64,9.64,0,0,1-8.83.25,8,8,0,0,1-3-2.66ZM247.31,856a7,7,0,0,0,3.61-.93,6.59,6.59,0,0,0,2.48-2.57,7.66,7.66,0,0,0,.9-3.74,7.48,7.48,0,0,0-.91-3.72,6.66,6.66,0,0,0-2.48-2.57,6.86,6.86,0,0,0-3.6-.94,7.19,7.19,0,0,0-3.49.86,6.87,6.87,0,0,0-3.57,5.79v1.21a6.9,6.9,0,0,0,1,3.41,6.7,6.7,0,0,0,2.52,2.35A7.17,7.17,0,0,0,247.31,856Z"/><path d="M263.18,866.55H261V839.94h2l.09,3.41a8.1,8.1,0,0,1,3.07-2.76,9,9,0,0,1,4.24-1A9.06,9.06,0,0,1,275,840.8a8.8,8.8,0,0,1,3.26,3.29,9.88,9.88,0,0,1,0,9.44,8.9,8.9,0,0,1-3.26,3.3,9.64,9.64,0,0,1-8.83.25,8,8,0,0,1-3-2.66ZM270.24,856a7,7,0,0,0,3.61-.93,6.52,6.52,0,0,0,2.48-2.57,7.66,7.66,0,0,0,.9-3.74,7.48,7.48,0,0,0-.91-3.72,6.66,6.66,0,0,0-2.48-2.57,6.86,6.86,0,0,0-3.6-.94,7.12,7.12,0,0,0-3.48.86,6.85,6.85,0,0,0-3.58,5.79v1.21a6.9,6.9,0,0,0,1,3.41,6.7,6.7,0,0,0,2.52,2.35A7.17,7.17,0,0,0,270.24,856Z"/><path d="M286.22,857.68h-2.29V830.37h2.29Z"/><path d="M307.47,855.46a11.4,11.4,0,0,1-7.24,2.57,9.82,9.82,0,0,1-4.92-1.23,9,9,0,0,1-3.41-3.36,9.38,9.38,0,0,1-1.25-4.82,9.18,9.18,0,0,1,1.17-4.65,8.45,8.45,0,0,1,3.18-3.21,9,9,0,0,1,4.59-1.17,8.58,8.58,0,0,1,4.6,1.23,8.46,8.46,0,0,1,3.1,3.41,10.9,10.9,0,0,1,1.12,5v.54H293a6.84,6.84,0,0,0,1.24,3.27,7,7,0,0,0,2.61,2.18,8.07,8.07,0,0,0,3.58.78,9.45,9.45,0,0,0,6-2.16Zm-14.53-7.53h13.43a7.35,7.35,0,0,0-1.05-3.32,6.28,6.28,0,0,0-2.33-2.22,6.7,6.7,0,0,0-3.29-.8,6.93,6.93,0,0,0-3.34.8,6.29,6.29,0,0,0-2.38,2.23A7.14,7.14,0,0,0,292.94,847.93Z"/><path d="M312.84,857.68v-26.6h9.29a8.85,8.85,0,0,1,5.79,1.74,5.9,5.9,0,0,1,2.11,4.77,6.63,6.63,0,0,1-1.16,3.9,6,6,0,0,1-3.05,2.3,7,7,0,0,1,4,2.3,6.49,6.49,0,0,1,1.46,4.3,6.8,6.8,0,0,1-1.08,3.81,7.19,7.19,0,0,1-3,2.57,10.57,10.57,0,0,1-4.5.91ZM315.18,843h7a5.82,5.82,0,0,0,4-1.36,4.62,4.62,0,0,0,1.52-3.6,4.43,4.43,0,0,0-1.55-3.57,6.35,6.35,0,0,0-4.23-1.31h-6.74Zm0,12.58h7a8.11,8.11,0,0,0,3.45-.7,5.64,5.64,0,0,0,2.34-1.95,5,5,0,0,0,.86-2.87,4.72,4.72,0,0,0-.81-2.75,5.35,5.35,0,0,0-2.26-1.82,8.4,8.4,0,0,0-3.43-.64h-7.18Z"/><path d="M338.15,857.68H336V839.94h1.93l.09,3.92a6.85,6.85,0,0,1,2.63-3.16,7.48,7.48,0,0,1,4.09-1.11,8.77,8.77,0,0,1,.88,0,8.68,8.68,0,0,1,.89.14l-.26,2a9.33,9.33,0,0,0-1.74-.17,6.05,6.05,0,0,0-3.28.9A6.21,6.21,0,0,0,339,845a8,8,0,0,0-.81,3.67Z"/><path d="M357.66,858a9.33,9.33,0,0,1-4.72-1.2,9,9,0,0,1-3.3-3.29,9.88,9.88,0,0,1,0-9.44,9,9,0,0,1,3.3-3.3,9.24,9.24,0,0,1,4.72-1.21,9.07,9.07,0,0,1,4.68,1.21,9,9,0,0,1,3.28,3.3,9.79,9.79,0,0,1,0,9.43,9,9,0,0,1-3.28,3.3A9.16,9.16,0,0,1,357.66,858Zm0-2a6.71,6.71,0,0,0,3.56-1,7,7,0,0,0,2.48-2.6,8,8,0,0,0,0-7.4,6.93,6.93,0,0,0-2.48-2.59,7.08,7.08,0,0,0-7.12,0,6.84,6.84,0,0,0-2.5,2.59,8,8,0,0,0,0,7.4,6.93,6.93,0,0,0,2.5,2.6A6.71,6.71,0,0,0,357.64,856.07Z"/><path d="M389.28,857.68h-2.5l-4.52-14.54-4.53,14.54h-2.48l-5.76-17.74h2.3l4.69,15,4.75-15h2.06l4.75,15,4.7-15H395Z"/><path d="M397.17,856.14l.64-2a6.76,6.76,0,0,0,1.46,1,7.41,7.41,0,0,0,1.69.66,7.12,7.12,0,0,0,1.78.23,4.67,4.67,0,0,0,2.95-.89,2.8,2.8,0,0,0,1.13-2.3,2.41,2.41,0,0,0-.57-1.66,4.84,4.84,0,0,0-1.49-1.11q-.92-.47-1.95-.87a25.28,25.28,0,0,1-2.32-1,5.54,5.54,0,0,1-1.87-1.49,3.81,3.81,0,0,1-.74-2.43,4.26,4.26,0,0,1,.7-2.46,4.64,4.64,0,0,1,2-1.61,7,7,0,0,1,2.94-.58,10.38,10.38,0,0,1,4.71,1.17l-.67,2a7.52,7.52,0,0,0-1.24-.6,10,10,0,0,0-1.42-.4,7.69,7.69,0,0,0-1.38-.14,3.82,3.82,0,0,0-2.43.72,2.28,2.28,0,0,0-.93,1.89,2.12,2.12,0,0,0,.42,1.32,4,4,0,0,0,1.27,1,19.82,19.82,0,0,0,2.13,1,24.75,24.75,0,0,1,2.39,1.13,6.1,6.1,0,0,1,1.94,1.6,3.94,3.94,0,0,1,.77,2.54,4.75,4.75,0,0,1-.78,2.7,5.29,5.29,0,0,1-2.19,1.84,7.42,7.42,0,0,1-3.23.65A9.48,9.48,0,0,1,397.17,856.14Z"/><path d="M429.06,855.46a11.4,11.4,0,0,1-7.24,2.57,9.82,9.82,0,0,1-4.92-1.23,9,9,0,0,1-3.41-3.36,9.38,9.38,0,0,1-1.24-4.82,9.17,9.17,0,0,1,1.16-4.65,8.45,8.45,0,0,1,3.18-3.21,9,9,0,0,1,4.6-1.17,8.57,8.57,0,0,1,4.59,1.23,8.46,8.46,0,0,1,3.1,3.41,10.78,10.78,0,0,1,1.12,5v.54H414.61a6.73,6.73,0,0,0,1.23,3.27,7,7,0,0,0,2.61,2.18A8.08,8.08,0,0,0,422,856a9.45,9.45,0,0,0,6-2.16Zm-14.52-7.53H428a7.35,7.35,0,0,0-1-3.32,6.2,6.2,0,0,0-2.33-2.22,6.7,6.7,0,0,0-3.29-.8,7,7,0,0,0-3.34.8,6.29,6.29,0,0,0-2.38,2.23A7,7,0,0,0,414.54,847.93Z"/><path d="M436.62,857.68h-2.19V839.94h1.94l.09,3.92a6.85,6.85,0,0,1,2.63-3.16,7.46,7.46,0,0,1,4.09-1.11c.28,0,.57,0,.88,0a8.68,8.68,0,0,1,.89.14l-.27,2a9.14,9.14,0,0,0-1.73-.17,6,6,0,0,0-3.28.9,6.3,6.3,0,0,0-2.25,2.49,8,8,0,0,0-.8,3.67Z"/><path d="M448.32,857.68v-26.6h9.29a8.85,8.85,0,0,1,5.79,1.74,5.9,5.9,0,0,1,2.11,4.77,6.63,6.63,0,0,1-1.16,3.9,6,6,0,0,1-3.05,2.3,7,7,0,0,1,4,2.3,6.49,6.49,0,0,1,1.46,4.3,6.8,6.8,0,0,1-1.08,3.81,7.19,7.19,0,0,1-3,2.57,10.57,10.57,0,0,1-4.5.91ZM450.66,843h7a5.82,5.82,0,0,0,4-1.36,4.62,4.62,0,0,0,1.52-3.6,4.43,4.43,0,0,0-1.55-3.57,6.35,6.35,0,0,0-4.23-1.31h-6.74Zm0,12.58h7a8.11,8.11,0,0,0,3.45-.7,5.64,5.64,0,0,0,2.34-1.95,5,5,0,0,0,.86-2.87,4.72,4.72,0,0,0-.81-2.75,5.35,5.35,0,0,0-2.26-1.82,8.4,8.4,0,0,0-3.43-.64h-7.18Z"/><path d="M485.26,857.68H483.4l-.18-3a6.55,6.55,0,0,1-2.48,2.42,7.27,7.27,0,0,1-3.64.89,7.47,7.47,0,0,1-3.36-.73,6,6,0,0,1-2.33-2,5.43,5.43,0,0,1,.07-5.94,6.28,6.28,0,0,1,2.54-2.06,8.6,8.6,0,0,1,3.67-.76,11.18,11.18,0,0,1,2.86.38,9.27,9.27,0,0,1,2.53,1v-1.2a5.21,5.21,0,0,0-.71-2.77,4.59,4.59,0,0,0-1.94-1.76,6.16,6.16,0,0,0-2.79-.62,8,8,0,0,0-2.7.49,8.64,8.64,0,0,0-2.52,1.45l-.78-1.88a11.43,11.43,0,0,1,3.11-1.54,10.93,10.93,0,0,1,3.31-.52,7.68,7.68,0,0,1,3.82.9,6.38,6.38,0,0,1,2.5,2.57,8.24,8.24,0,0,1,.88,3.94Zm-7.8-1.65a5.75,5.75,0,0,0,2.79-.67,5.19,5.19,0,0,0,2-1.87,5.56,5.56,0,0,0,.81-2.8v-.6a8.21,8.21,0,0,0-5.05-1.7,6.2,6.2,0,0,0-3.74,1.08,3.35,3.35,0,0,0-.87,4.71,4.23,4.23,0,0,0,1.67,1.35A5.38,5.38,0,0,0,477.46,856Z"/><path d="M507,857.68h-2.18v-9.93a6.32,6.32,0,0,0-1.56-4.5,5.51,5.51,0,0,0-4.2-1.66,5.73,5.73,0,0,0-4.38,1.75A6.5,6.5,0,0,0,493,848v9.68h-2.19V839.94h1.94l.07,3.34a6.42,6.42,0,0,1,2.59-2.74,7.91,7.91,0,0,1,4-.95,7.32,7.32,0,0,1,5.57,2.13,8.19,8.19,0,0,1,2,5.89Z"/><path d="M86.47,211.58H76.27V121.34h10.2Z"/><path d="M130.65,212.76a31,31,0,0,1-15.7-4,29.4,29.4,0,0,1-11-10.87,32.31,32.31,0,0,1,0-31.18,29.63,29.63,0,0,1,11-10.9,32.64,32.64,0,0,1,31.35,0,29.53,29.53,0,0,1,10.9,10.9,32.52,32.52,0,0,1,0,31.18,29.31,29.31,0,0,1-10.9,10.87A30.75,30.75,0,0,1,130.65,212.76Zm-.06-8.68a19.83,19.83,0,0,0,10.61-2.87,20.63,20.63,0,0,0,7.41-7.79,22.71,22.71,0,0,0,2.73-11.2,22.43,22.43,0,0,0-2.73-11.07,20.73,20.73,0,0,0-7.41-7.8,21.08,21.08,0,0,0-21.24,0,20.65,20.65,0,0,0-7.44,7.8,22.43,22.43,0,0,0-2.73,11.07,22.71,22.71,0,0,0,2.73,11.2,20.55,20.55,0,0,0,7.44,7.79A20,20,0,0,0,130.59,204.08Z"/><path d="M226.82,153l-24.67,58.6h-9.32L168.22,153h10.37l19,48.52,19-48.52Z"/><path d="M245.34,134.46a5.48,5.48,0,0,1-4.13-1.73,5.77,5.77,0,0,1-1.68-4.19,5.63,5.63,0,0,1,1.68-4.1,5.57,5.57,0,0,1,4.13-1.7,5.75,5.75,0,0,1,4.22,1.7,5.61,5.61,0,0,1,1.7,4.1,5.75,5.75,0,0,1-1.7,4.19A5.66,5.66,0,0,1,245.34,134.46Zm4.8,77.12h-9.61V153h9.61Z"/><path d="M323.45,211.58h-9.61v-32.7q0-8.31-4.74-13.3t-12.6-5A17.38,17.38,0,0,0,283.28,166q-5.07,5.37-5.07,14.1v31.52H268.6V153H277l.35,9.5a21.77,21.77,0,0,1,8.5-7.92,26.58,26.58,0,0,1,12.42-2.75q11.67,0,18.43,7t6.77,19.28Z"/><path d="M365.35,211.58a29.54,29.54,0,0,1-15.15-3.92A28.64,28.64,0,0,1,339.63,197a32.1,32.1,0,0,1,0-30.56,28.61,28.61,0,0,1,10.57-10.66,29.56,29.56,0,0,1,15.21-3.93,30.14,30.14,0,0,1,12.48,2.55,27.94,27.94,0,0,1,9.67,7.06L388,153h8.5v57.08a35.35,35.35,0,0,1-3.87,17,26.86,26.86,0,0,1-11,11.08,37.37,37.37,0,0,1-41.25-5.36l4.22-7.74a26.21,26.21,0,0,0,19.63,8.32,23.77,23.77,0,0,0,12-2.9,19.88,19.88,0,0,0,7.85-8.17,26.36,26.36,0,0,0,2.79-12.48v-7.21a29.07,29.07,0,0,1-9.52,6.56A30,30,0,0,1,365.35,211.58Zm.82-8.49a21.05,21.05,0,0,0,10.43-2.61,20.19,20.19,0,0,0,7.5-7.15A19.12,19.12,0,0,0,386.92,183v-2.69A19,19,0,0,0,384.1,170a20.29,20.29,0,0,0-7.5-7.13,21.15,21.15,0,0,0-10.43-2.6,20.14,20.14,0,0,0-10.6,2.81,20.49,20.49,0,0,0-7.42,7.65,21.91,21.91,0,0,0-2.72,10.93,22.13,22.13,0,0,0,2.72,11,20.16,20.16,0,0,0,18,10.43Z"/><path d="M477.4,210.18a27.75,27.75,0,0,1-11.31,2.58,18.14,18.14,0,0,1-9.26-2.32,16,16,0,0,1-6.21-6.5,20.46,20.46,0,0,1-2.23-9.76V161.6H438.14V153h10.72V138.33H458V153h17.52v8.62H458v30.82a12.4,12.4,0,0,0,2.84,8.5,9.49,9.49,0,0,0,7.48,3.22,14.53,14.53,0,0,0,7.5-2.23Z"/><path d="M490.29,211.58v-87.9h9.61v38.09q6.63-10,20.51-10,11.67,0,18.2,6.94t6.53,19.37v33.46h-9.61V180.35q0-9.43-4.66-14.68t-13-5.25q-8.37,0-13.18,5.34t-4.81,14.59v31.23Z"/><path d="M613.53,204.38a38.58,38.58,0,0,1-24,8.38,32.71,32.71,0,0,1-16.4-4.11,30.35,30.35,0,0,1-15.65-27.13,30,30,0,0,1,3.87-15.26,28.19,28.19,0,0,1,10.6-10.58,30.18,30.18,0,0,1,15.3-3.87,28,28,0,0,1,26,15.94,38.3,38.3,0,0,1,3.75,17.35V187h-49a19.89,19.89,0,0,0,4.25,9,21.69,21.69,0,0,0,7.94,5.92A25.93,25.93,0,0,0,590.68,204a28.86,28.86,0,0,0,18.4-6.63Zm-46-25.61h40.32a21.47,21.47,0,0,0-3.37-9.53,19.1,19.1,0,0,0-7-6.35,20.27,20.27,0,0,0-9.69-2.29,20.76,20.76,0,0,0-9.82,2.29,19,19,0,0,0-7.09,6.35A20.82,20.82,0,0,0,567.53,178.77Z"/><path d="M149.9,401.29a80.21,80.21,0,0,1-30.2-5.56,72.66,72.66,0,0,1-24.07-15.6A70.63,70.63,0,0,1,79.8,356.59a80.29,80.29,0,0,1,0-59,70.68,70.68,0,0,1,15.83-23.55,72.63,72.63,0,0,1,24.07-15.59A80.46,80.46,0,0,1,150,252.91a79.9,79.9,0,0,1,30.16,5.57,70.87,70.87,0,0,1,39.66,39.14,80.29,80.29,0,0,1,0,59,71,71,0,0,1-39.66,39.14A80.14,80.14,0,0,1,149.9,401.29Zm0-32.81a34.41,34.41,0,0,0,14.65-3.14,35.45,35.45,0,0,0,11.74-8.8,41.71,41.71,0,0,0,7.8-13.17,48.48,48.48,0,0,0,0-32.53,41.87,41.87,0,0,0-7.8-13.18,35.42,35.42,0,0,0-11.74-8.79,35.86,35.86,0,0,0-29.35,0,35.8,35.8,0,0,0-11.84,8.79,41.43,41.43,0,0,0-7.85,13.18,48.64,48.64,0,0,0,0,32.53,41.27,41.27,0,0,0,7.85,13.17,35.83,35.83,0,0,0,11.84,8.8A34.7,34.7,0,0,0,149.9,368.48Z"/><path d="M240.64,398.44V255.76h52q18.36,0,31.82,6.14a47.26,47.26,0,0,1,20.73,17.41q7.27,11.26,7.28,26.77T345.22,333a47.46,47.46,0,0,1-20.59,17.55q-13.32,6.18-31.49,6.18H278.31v41.76Zm37.67-74.57H289q12.18,0,18.59-4.57T314,306.08q0-8.46-6.42-13T289,288.58H278.31Z"/><path d="M371.52,398.44V255.76h95.12v32.82H409.19v22.07h53.64v32.81H409.19v22.16h58.4v32.82Z"/><path d="M619,398.44H574.69l-51.36-84.65v84.65H485.66V255.76H530l51.36,84.94V255.76H619Z"/><path d="M82.28,747l2-6.46A22.33,22.33,0,0,0,89,743.81a25.52,25.52,0,0,0,5.38,2.09,22.32,22.32,0,0,0,5.69.74,14.83,14.83,0,0,0,9.39-2.83,8.9,8.9,0,0,0,3.62-7.36,7.7,7.7,0,0,0-1.81-5.29,15.21,15.21,0,0,0-4.75-3.54q-2.94-1.47-6.23-2.77c-2.52-1-5-2.09-7.41-3.31a17.91,17.91,0,0,1-6-4.79A12,12,0,0,1,84.54,709a13.68,13.68,0,0,1,2.24-7.84A14.76,14.76,0,0,1,93.06,696a22.53,22.53,0,0,1,9.36-1.84,33.14,33.14,0,0,1,15.06,3.74l-2.15,6.28a22.75,22.75,0,0,0-4-1.9,29.25,29.25,0,0,0-4.53-1.27,23.26,23.26,0,0,0-4.42-.45,12.26,12.26,0,0,0-7.75,2.29,7.28,7.28,0,0,0-2.94,6,6.8,6.8,0,0,0,1.33,4.21,12.52,12.52,0,0,0,4,3.31,65.44,65.44,0,0,0,6.8,3.23,81.64,81.64,0,0,1,7.64,3.59,19.57,19.57,0,0,1,6.19,5.13,12.65,12.65,0,0,1,2.47,8.09,15.16,15.16,0,0,1-2.52,8.63,16.79,16.79,0,0,1-7,5.86A24.12,24.12,0,0,1,100.39,753,30.15,30.15,0,0,1,82.28,747Z"/><path d="M138.87,675.44a4.39,4.39,0,0,1-3.31-1.39,4.65,4.65,0,0,1-1.33-3.36,4.52,4.52,0,0,1,1.33-3.29,4.46,4.46,0,0,1,3.31-1.35,4.74,4.74,0,0,1,3.43,1.35,4.45,4.45,0,0,1,1.38,3.29,4.57,4.57,0,0,1-1.38,3.36A4.65,4.65,0,0,1,138.87,675.44Zm3.51,76.46h-7V695.31h7Z"/><path d="M213.18,751.9h-7V720.21q0-9.06-5-14.35t-13.41-5.29q-8.73,0-14,5.57T168.58,721v30.9h-7V695.31h6.17l.23,10.63a20.66,20.66,0,0,1,8.26-8.74,25.21,25.21,0,0,1,12.68-3q11.31,0,17.77,6.79t6.45,18.79Z"/><path d="M277.07,744a28.17,28.17,0,0,1-9.59,6.65A30,30,0,0,1,255.57,753a29.42,29.42,0,0,1-15-3.85A28.27,28.27,0,0,1,230,738.66a31.49,31.49,0,0,1,0-30.14,28.44,28.44,0,0,1,10.5-10.5,29.52,29.52,0,0,1,15-3.85,30.57,30.57,0,0,1,11.88,2.32,27.54,27.54,0,0,1,9.57,6.62l-4.25,4.48a21.89,21.89,0,0,0-7.55-5.18,23.94,23.94,0,0,0-9.37-1.84,22.42,22.42,0,0,0-11.57,3,21.41,21.41,0,0,0-8,8.18,23.72,23.72,0,0,0-2.92,11.83,24,24,0,0,0,2.92,11.91,21.32,21.32,0,0,0,8,8.2,22.33,22.33,0,0,0,11.57,3,24.35,24.35,0,0,0,9.4-1.84,21.48,21.48,0,0,0,7.52-5.18Z"/><path d="M340.52,744.82A36.39,36.39,0,0,1,317.43,753a31.29,31.29,0,0,1-15.71-3.93,28.84,28.84,0,0,1-10.89-10.73,30,30,0,0,1-4-15.39,29.44,29.44,0,0,1,3.7-14.83,27.14,27.14,0,0,1,10.16-10.24,28.73,28.73,0,0,1,14.66-3.74A26.61,26.61,0,0,1,340,709a34.57,34.57,0,0,1,3.57,16v1.75H294.39a21.48,21.48,0,0,0,3.94,10.41,22.1,22.1,0,0,0,8.34,7,25.71,25.71,0,0,0,11.43,2.49,30.13,30.13,0,0,0,19.13-6.91Zm-46.35-24.05H337a23.45,23.45,0,0,0-3.34-10.58,20.2,20.2,0,0,0-7.44-7.08,21.47,21.47,0,0,0-10.5-2.54,22.22,22.22,0,0,0-10.67,2.54,20,20,0,0,0-7.58,7.11A22.63,22.63,0,0,0,294.17,720.77Z"/><path d="M408.15,751.9h-7.48V674.42l-16.29,5.89L382,674.25,401.86,667h6.29Z"/><path d="M445.27,751.9l-3.56-5a72.68,72.68,0,0,0,24.19-25.47A61,61,0,0,0,472.1,706a23.53,23.53,0,0,1-8.75,8.35,24.93,24.93,0,0,1-12.31,3,25.6,25.6,0,0,1-13-3.29,23.47,23.47,0,0,1-8.91-9,26.56,26.56,0,0,1-3.23-13.22,27,27,0,0,1,3.45-13.69,24.91,24.91,0,0,1,9.54-9.43,28,28,0,0,1,13.95-3.42,26,26,0,0,1,14.12,3.76,25,25,0,0,1,9.25,10.64,37.29,37.29,0,0,1,3.29,16.22A54.26,54.26,0,0,1,477,711.86a67.24,67.24,0,0,1-6.93,15.34,72.92,72.92,0,0,1-10.81,13.69A74.92,74.92,0,0,1,445.27,751.9Zm6.91-40.58a19.07,19.07,0,0,0,9.87-2.55,18.53,18.53,0,0,0,6.85-7,19.82,19.82,0,0,0,2.52-10,20.44,20.44,0,0,0-2.49-10.13,19,19,0,0,0-6.82-7.11,18.47,18.47,0,0,0-9.76-2.63,18.21,18.21,0,0,0-9.68,2.63,18.7,18.7,0,0,0-6.76,7.16,21.12,21.12,0,0,0-2.47,10.3,20.28,20.28,0,0,0,2.41,10,17.72,17.72,0,0,0,6.62,6.85A18.74,18.74,0,0,0,452.18,711.32Z"/><path d="M510.41,751.9l-3.56-5A72.68,72.68,0,0,0,531,721.45a61,61,0,0,0,6.2-15.45,23.53,23.53,0,0,1-8.75,8.35,24.93,24.93,0,0,1-12.31,3,25.6,25.6,0,0,1-13-3.29,23.47,23.47,0,0,1-8.91-9A26.56,26.56,0,0,1,491,691.85a27,27,0,0,1,3.45-13.69,24.91,24.91,0,0,1,9.54-9.43,28,28,0,0,1,14-3.42,26,26,0,0,1,14.12,3.76,25,25,0,0,1,9.25,10.64,37.29,37.29,0,0,1,3.28,16.22,54.24,54.24,0,0,1-2.43,15.93,67.24,67.24,0,0,1-6.93,15.34,73.33,73.33,0,0,1-10.81,13.69A74.92,74.92,0,0,1,510.41,751.9Zm6.91-40.58a19.07,19.07,0,0,0,9.87-2.55,18.53,18.53,0,0,0,6.85-7,19.82,19.82,0,0,0,2.52-10,20.44,20.44,0,0,0-2.49-10.13,19.08,19.08,0,0,0-6.82-7.11,18.47,18.47,0,0,0-9.76-2.63,18.19,18.19,0,0,0-9.68,2.63,18.8,18.8,0,0,0-6.77,7.16,21.22,21.22,0,0,0-2.46,10.3A20.17,20.17,0,0,0,501,702a17.72,17.72,0,0,0,6.62,6.85A18.74,18.74,0,0,0,517.32,711.32Z"/><path d="M583,753.6a22.93,22.93,0,0,1-15.05-5.18q-6.28-5.17-9.59-15.06t-3.31-24q0-14,3.34-23.89t9.59-15a24.42,24.42,0,0,1,30.08,0q6.22,5.18,9.56,15t3.34,23.89q0,14.08-3.31,24t-9.56,15.06A22.91,22.91,0,0,1,583,753.6Zm0-6.68q9.57,0,14.95-9.93t5.37-27.59q0-17.65-5.37-27.54T583,672q-9.56,0-14.94,9.87t-5.37,27.54q0,17.65,5.37,27.59T583,746.92Z"/><path d="M276.33,595.8H234.38l-28.94-96.67L176.38,595.8H134.44L79.26,426.21h47l29.05,97.46,29.06-97.46h42l28.94,97.23,28.95-97.23h47Z"/><path d="M343.72,595.8V426.21H456.78v39H388.49v26.23h63.77v39H388.49v26.34h69.42v39Z"/><path d="M479.39,595.8V426.21H544q29.28,0,45.23,11.87t15.94,33.58a42.45,42.45,0,0,1-5.43,21.54A39.2,39.2,0,0,1,585,508q13.8,4.53,21.37,14.7t7.58,25q0,14.7-7.13,25.49t-20.23,16.73q-13.12,5.94-31,5.94Zm44.78-101.19H540.9q9.61,0,14.87-3.9T561,479.57a12.28,12.28,0,0,0-5.31-10.51q-5.31-3.84-14.81-3.85H524.17Zm0,62.18H544A43,43,0,0,0,557.07,555a17.51,17.51,0,0,0,8.25-5.09,12.08,12.08,0,0,0,2.83-8.08,12.64,12.64,0,0,0-2.49-8,15,15,0,0,0-7.29-4.86,36.63,36.63,0,0,0-11.7-1.64h-22.5Z"/><g id="Layer_2" data-name="Layer 2"><g id="Layer_1-2" data-name="Layer 1-2"><path d="M315.6,97.28a8.67,8.67,0,0,1-3.58-.74,9.31,9.31,0,0,1-4.91-4.87,9.21,9.21,0,0,1,0-7.14A9.35,9.35,0,0,1,312,79.62a9.17,9.17,0,0,1,7.17,0,9.3,9.3,0,0,1,4.9,4.91,9.12,9.12,0,0,1-2,10,9.29,9.29,0,0,1-2.92,2A8.85,8.85,0,0,1,315.6,97.28Zm0-4.82a4.54,4.54,0,0,0,3.21-1.27,4.52,4.52,0,0,0,1.05-1.4,4,4,0,0,0,0-3.39A4.68,4.68,0,0,0,318.81,85a4.6,4.6,0,0,0-4.94-.95,4.54,4.54,0,0,0-1.46.95,4.67,4.67,0,0,0-1,1.41,4,4,0,0,0,0,3.39,4.62,4.62,0,0,0,1,1.4,4.69,4.69,0,0,0,1.46.94,4.87,4.87,0,0,0,1.73.32Z"/><path d="M307.44,78.46a.59.59,0,0,1-.52,0,.39.39,0,0,1-.21-.38v-4a.79.79,0,0,1,.15-.46.9.9,0,0,1,.38-.29l8.09-2.77c.16,0,.24-.13.24-.25s-.08-.21-.24-.26l-8.05-2.66a.8.8,0,0,1-.41-.29.81.81,0,0,1-.15-.52V63.4a.81.81,0,0,1,.15-.48.76.76,0,0,1,.41-.3L315.39,60c.16,0,.24-.13.24-.25s-.08-.22-.24-.28l-8.15-2.79a1.07,1.07,0,0,1-.38-.32.88.88,0,0,1-.15-.52V51.92a.39.39,0,0,1,.21-.37.61.61,0,0,1,.42,0l16.59,5.88a.83.83,0,0,1,.4.32.8.8,0,0,1,.15.52V61.4a.81.81,0,0,1-.15.52.77.77,0,0,1-.4.29l-8.09,2.67c-.16.06-.25.13-.25.26s.09.2.25.25l8.09,2.68a.72.72,0,0,1,.4.29.8.8,0,0,1,.15.52V72a.82.82,0,0,1-.55.75Z"/><path d="M307.27,46.67a.82.82,0,0,1-.36-.33.8.8,0,0,1-.16-.52V42.45a.77.77,0,0,1,.16-.48.94.94,0,0,1,.38-.33l16.51-7.08a.51.51,0,0,1,.7.56v4.17a.87.87,0,0,1-.16.52,1,1,0,0,1-.37.35l-1.48.65a1.27,1.27,0,0,0-.38.35.91.91,0,0,0-.15.48v5.12a1,1,0,0,0,.15.52.93.93,0,0,0,.38.33l1.46.68a1,1,0,0,1,.38.32.83.83,0,0,1,.15.48v4.17a.75.75,0,0,1-.05.26.6.6,0,0,1-.14.21.55.55,0,0,1-.24.12.57.57,0,0,1-.34-.08Zm10.56-1.43V43.08a.42.42,0,0,0-.16-.36.37.37,0,0,0-.38,0l-1.42.59-1.53.63c-.14.06-.21.13-.21.22s.07.15.21.21l2.94,1.22a.42.42,0,0,0,.38,0A.38.38,0,0,0,317.83,45.24Z"/><path d="M356.08,67.54h-6.26a.52.52,0,0,0-.52.53v.06a33.14,33.14,0,0,0,1,6.56.52.52,0,0,0,.52.4h5.26a.52.52,0,0,0,.52-.52V68.09a.5.5,0,0,0-.49-.54Z"/><path d="M356.08,56.77h-5.21a.53.53,0,0,0-.53.4,32.86,32.86,0,0,0-1,6.61.52.52,0,0,0,.46.57h6.32a.52.52,0,0,0,.52-.52V57.31a.52.52,0,0,0-.52-.52Z"/><path d="M355.79,47.94a11.06,11.06,0,0,0-3.65,4.35c-.09.16-.17.34-.25.52a.51.51,0,0,0,.19.71.45.45,0,0,0,.3.07h3.69a.52.52,0,0,0,.52-.52V48.4a.53.53,0,0,0-.51-.54A.6.6,0,0,0,355.79,47.94Z"/><path d="M356.08,78.27h-3.71a.51.51,0,0,0-.55.48.48.48,0,0,0,.06.29c.09.19.19.37.27.53a10.92,10.92,0,0,0,3.66,4.34.52.52,0,0,0,.73-.09.53.53,0,0,0,.11-.37V78.76a.52.52,0,0,0-.53-.52Z"/><path d="M344.88,53.57h2.88a.54.54,0,0,0,.52-.35A23.89,23.89,0,0,1,349.84,50a.53.53,0,1,0-.73-.76h0a19.49,19.49,0,0,0-4.57,3.4.53.53,0,0,0-.09.74h0A.52.52,0,0,0,344.88,53.57Z"/><path d="M339.64,64.35h5.94a.54.54,0,0,0,.52-.52,37.43,37.43,0,0,1,.86-6.4.52.52,0,0,0-.36-.64h-4.91a.51.51,0,0,0-.48.28,18.72,18.72,0,0,0-2.12,6.68.53.53,0,0,0,.42.61h.05Z"/><path d="M348.25,78.63a.58.58,0,0,0-.53-.35h-2.88a.52.52,0,0,0-.58.46.53.53,0,0,0,.19.47,19.76,19.76,0,0,0,4.62,3.45.53.53,0,0,0,.74,0h0a.52.52,0,0,0,0-.74h0A21.89,21.89,0,0,1,348.25,78.63Z"/><path d="M368.19,53.22a.55.55,0,0,0,.53.35h2.9a.52.52,0,0,0,.58-.45.53.53,0,0,0-.2-.48,19.49,19.49,0,0,0-4.57-3.4.53.53,0,1,0-.73.76h0A22.37,22.37,0,0,1,368.19,53.22Z"/><path d="M347,74.42a38.91,38.91,0,0,1-.85-6.35.55.55,0,0,0-.52-.53h-6a.56.56,0,0,0-.53.57v0a18.79,18.79,0,0,0,2.09,6.65.51.51,0,0,0,.48.28h4.77a.52.52,0,0,0,.52-.52A.65.65,0,0,0,347,74.42Z"/><path d="M360.37,64.35h6.26a.52.52,0,0,0,.53-.52v-.06a33.45,33.45,0,0,0-1-6.6.53.53,0,0,0-.52-.41h-5.25a.52.52,0,0,0-.52.53v6.49a.52.52,0,0,0,.47.57h.05Z"/><path d="M369.47,57.43a37.43,37.43,0,0,1,.86,6.4.52.52,0,0,0,.52.52h6a.52.52,0,0,0,.53-.52v-.1A18.79,18.79,0,0,0,375.27,57a.51.51,0,0,0-.48-.28H370a.52.52,0,0,0-.55.49h0A.54.54,0,0,0,369.47,57.43Z"/><path d="M376.83,67.54h-5.95a.55.55,0,0,0-.52.53,37.82,37.82,0,0,1-.83,6.35.51.51,0,0,0,.36.64h4.94a.51.51,0,0,0,.48-.28,19,19,0,0,0,2.09-6.65.52.52,0,0,0-.42-.6h-.15Z"/><path d="M371.62,78.27h-2.9a.52.52,0,0,0-.52.35,22.74,22.74,0,0,1-1.57,3.26.53.53,0,0,0,0,.75.52.52,0,0,0,.74,0h0A19.34,19.34,0,0,0,372,79.19a.52.52,0,0,0,.07-.73h0A.5.5,0,0,0,371.62,78.27Z"/><path d="M360.37,53.57h3.69a.52.52,0,0,0,.56-.48.53.53,0,0,0-.07-.3l-.25-.52a10.86,10.86,0,0,0-3.65-4.35.52.52,0,0,0-.84.46V53a.52.52,0,0,0,.47.57Z"/><path d="M364.08,78.27h-3.71a.52.52,0,0,0-.52.52v4.69a.52.52,0,0,0,.47.57.5.5,0,0,0,.37-.11,10.89,10.89,0,0,0,3.65-4.34,5.6,5.6,0,0,0,.27-.55.51.51,0,0,0-.22-.7.52.52,0,0,0-.3-.06Z"/><path d="M366.61,67.54h-6.26a.52.52,0,0,0-.52.53v6.47a.52.52,0,0,0,.52.52h5.26a.53.53,0,0,0,.52-.4,33.89,33.89,0,0,0,1-6.56.53.53,0,0,0-.49-.56h0Z"/><path d="M379.27,34.52H337.2a7.54,7.54,0,0,0-7.54,7.54V89.82a7.55,7.55,0,0,0,7.54,7.54h42.07a7.55,7.55,0,0,0,7.54-7.54V42.06A7.54,7.54,0,0,0,379.27,34.52Zm-21,53.7a22.29,22.29,0,1,1,22.28-22.28,22.28,22.28,0,0,1-22.28,22.28Z"/></g></g><path d="M316,24.33V19.67a11,11,0,0,1,11-11h0a10.44,10.44,0,0,1,10.43,10.44V31.31a1.13,1.13,0,0,0,1.13,1.12h6.51a1.1,1.1,0,0,0,1.12-1.11h0V19.2A19.18,19.18,0,0,0,327,0h0a20.23,20.23,0,0,0-20.23,20.23h0v4.09a1.85,1.85,0,0,0,1.84,1.85h5.58A1.85,1.85,0,0,0,316,24.33Z"/><rect x="72.84" y="634.19" width="547.53" height="2"/><rect x="72.84" y="784.72" width="547.53" height="10.39"/></svg>