<svg xmlns="http://www.w3.org/2000/svg" width="750" height="1200" viewBox="0 0 750 1200"><g id="Calque_2" data-name="Calque 2"><rect width="750" height="1200" style="fill:#fff;opacity:0"/></g><g id="Calque_1" data-name="Calque 1"><path d="M187.45,418.89l-14.07,4.5-39.8-124.58,14.08-4.5Z" style="fill:#cd4c1d"/><path d="M238.62,407.3a45.1,45.1,0,0,1-23.47-.79,42.62,42.62,0,0,1-18.91-12,46.75,46.75,0,0,1-9.63-44.14,42.9,42.9,0,0,1,12.19-18.83,44.8,44.8,0,0,1,21-10.53,44.25,44.25,0,0,1,23.39.85A42.7,42.7,0,0,1,262,333.92a47.07,47.07,0,0,1,9.63,44.15,42.29,42.29,0,0,1-12.08,18.75A44.53,44.53,0,0,1,238.62,407.3ZM235.86,395A28.79,28.79,0,0,0,250,387.69a30,30,0,0,0,8.09-13.32,32.93,32.93,0,0,0,.4-16.69,32.58,32.58,0,0,0-7.28-14.84,30.11,30.11,0,0,0-12.9-8.75,30.54,30.54,0,0,0-30.08,6.57A30,30,0,0,0,200.09,354a32.63,32.63,0,0,0-.44,16.52,33,33,0,0,0,7.32,15,30,30,0,0,0,12.94,8.74A29.14,29.14,0,0,0,235.86,395Z" style="fill:#cd4c1d"/><path d="M352.12,305.2,324,393l-13.45,1.2-43.06-81.43,15-1.33L316.15,379l21.25-72.49Z" style="fill:#cd4c1d"/><path d="M369.52,279.28a8,8,0,0,1-6-2.41,8.41,8.41,0,0,1-2.52-6,8.33,8.33,0,0,1,8.27-8.54,8.32,8.32,0,0,1,6.15,2.36,8.13,8.13,0,0,1,2.56,5.91,8.37,8.37,0,0,1-2.36,6.11A8.23,8.23,0,0,1,369.52,279.28Zm8.78,111.63-13.93.23L363,306.23l13.92-.23Z" style="fill:#cd4c1d"/><path d="M472.47,397.17l-13.88-1.24,4.21-47.2q1.08-12-5.14-19.81t-17.54-8.81q-11.76-1-19.77,6t-9.13,19.69l-4.06,45.5-13.87-1.23,7.54-84.59,12.1,1.08-.71,13.75A31.49,31.49,0,0,1,425.5,310a38.27,38.27,0,0,1,18.29-2.37q16.83,1.5,25.69,12.52t7.29,28.7Z" style="fill:#cd4c1d"/><path d="M519.13,407.44a42.64,42.64,0,0,1-20-10.63,41.47,41.47,0,0,1-11.32-18.63,46.53,46.53,0,0,1,10.28-43.08,41.55,41.55,0,0,1,18.49-11.48,42.83,42.83,0,0,1,22.76-.42A43.77,43.77,0,0,1,556.05,331a40.58,40.58,0,0,1,11.25,13.2l3.5-11.74,12,2.86-19.19,80.46q-3.32,13.88-11.17,22.7a39,39,0,0,1-19.26,11.9q-11.38,3.09-25.26-.21A51,51,0,0,1,476.81,429l8.55-9.49a38,38,0,0,0,24.87,18.33,34.52,34.52,0,0,0,18,0A28.89,28.89,0,0,0,542,428.87a38.23,38.23,0,0,0,8.12-16.66l2.42-10.16a42.11,42.11,0,0,1-15.63,6.05A43.43,43.43,0,0,1,519.13,407.44Zm4-11.7a30.57,30.57,0,0,0,15.59-.18,29.27,29.27,0,0,0,13-7.55,27.71,27.71,0,0,0,7.42-13.55l.91-3.8a27.7,27.7,0,0,0-.5-15.49,29.54,29.54,0,0,0-8.18-12.56,30.59,30.59,0,0,0-13.83-7.18,29.26,29.26,0,0,0-15.89.4,29.65,29.65,0,0,0-13,8.29,31.66,31.66,0,0,0-7.52,14.49,32,32,0,0,0,.16,16.36,29.29,29.29,0,0,0,7.88,13.28A29.6,29.6,0,0,0,523.14,395.74Z" style="fill:#cd4c1d"/><path d="M175.39,649.66q-18.06,0-32.16-7.71a57.52,57.52,0,0,1-22.17-21.14q-8.06-13.42-8-30.56t8-30.57a57.42,57.42,0,0,1,22.17-21.13q14.1-7.72,32.16-7.72t31.93,7.72a57.3,57.3,0,0,1,22,21.13q8,13.43,8,30.57t-8,30.56a57.4,57.4,0,0,1-22,21.14Q193.33,649.66,175.39,649.66ZM175.16,612a17.43,17.43,0,0,0,9.77-2.8,19.15,19.15,0,0,0,6.74-7.76A25.34,25.34,0,0,0,194.13,590a24.06,24.06,0,0,0-2.46-11,19.3,19.3,0,0,0-6.74-7.65,18.45,18.45,0,0,0-19.54,0,19.37,19.37,0,0,0-6.74,7.65,24.06,24.06,0,0,0-2.46,11,25.34,25.34,0,0,0,2.46,11.37,19.23,19.23,0,0,0,6.74,7.76A17.43,17.43,0,0,0,175.16,612Z" style="fill:#cd4c1d"/><path d="M291.49,704.5H249.21V533.12h36.91L288.29,548a47.84,47.84,0,0,1,37.13-17.14,46.55,46.55,0,0,1,26.51,7.72,53,53,0,0,1,18.16,21.13q6.63,13.43,6.63,30.57t-6.63,30.56A53.14,53.14,0,0,1,351.93,642a46.62,46.62,0,0,1-26.51,7.71,47.58,47.58,0,0,1-18.62-3.6A49.29,49.29,0,0,1,291.49,636Zm21-92.55a21,21,0,0,0,10.91-2.8,19.75,19.75,0,0,0,7.43-7.71,24.72,24.72,0,0,0,0-22.39,19.75,19.75,0,0,0-7.43-7.71,21,21,0,0,0-10.91-2.8,21.35,21.35,0,0,0-10.34,2.51,19.82,19.82,0,0,0-7.43,7,22.19,22.19,0,0,0-3.25,10.28v4.23a21.49,21.49,0,0,0,3.25,10,19.9,19.9,0,0,0,7.43,6.91A21.24,21.24,0,0,0,312.51,612Z" style="fill:#cd4c1d"/><path d="M497.25,635.38a81.86,81.86,0,0,1-46.39,14.28q-19.31,0-34.68-8.06a63.26,63.26,0,0,1-24.33-22,56.61,56.61,0,0,1-9-31.31,54.86,54.86,0,0,1,8-29.42,57.57,57.57,0,0,1,21.76-20.51,63.83,63.83,0,0,1,31.14-7.54q18.17,0,31.87,8.34A57.2,57.2,0,0,1,497,562.37q7.65,14.85,7.66,34.5v3.66H428.12a27.44,27.44,0,0,0,5.72,8.05,26.76,26.76,0,0,0,9.14,5.77,34.54,34.54,0,0,0,12.79,2.17q16.11,0,30.51-10.28Zm-71.07-52h39.88a21.26,21.26,0,0,0-3.26-9.48,18.89,18.89,0,0,0-7.08-6.46,20.5,20.5,0,0,0-9.77-2.34,18.08,18.08,0,0,0-9.6,2.51,20.26,20.26,0,0,0-6.68,6.63A25.66,25.66,0,0,0,426.18,583.39Z" style="fill:#cd4c1d"/><path d="M635.24,647.37H593.08V592.3q0-11.41-4.4-17.59t-12.51-6.17q-8.34,0-12.91,6.22t-4.57,17.54v55.07H516.53V533.12h33.36l1.37,18.17A40.48,40.48,0,0,1,567.08,536q9.78-5.19,22.91-5.2,21.25,0,33.25,13.2t12,36.73Z" style="fill:#cd4c1d"/><path d="M305.83,852h-48l-13.25-59.3L231.33,852h-48L146.21,737.77h44.56l15.88,71.87,19.88-71.87h36.11l19.88,72.32,15.88-72.32H343Z" style="fill:#cd4c1d"/><path d="M454.21,840a81.8,81.8,0,0,1-46.38,14.28q-19.32,0-34.68-8a63.14,63.14,0,0,1-24.33-22,56.5,56.5,0,0,1-9-31.3,54.89,54.89,0,0,1,8-29.42A57.51,57.51,0,0,1,369.61,743a63.71,63.71,0,0,1,31.13-7.54q18.18,0,31.88,8.34A57.24,57.24,0,0,1,454,767q7.65,14.85,7.65,34.51v3.65H385.09A26.58,26.58,0,0,0,400,819a34.75,34.75,0,0,0,12.79,2.17q16.11,0,30.51-10.29Zm-71.06-52H423a21.13,21.13,0,0,0-3.25-9.48,19.09,19.09,0,0,0-7.09-6.46,20.44,20.44,0,0,0-9.77-2.34,18,18,0,0,0-9.59,2.52,20.25,20.25,0,0,0-6.69,6.62A25.91,25.91,0,0,0,383.15,788Z" style="fill:#cd4c1d"/><path d="M510.39,852h-36.9V680.64h42.16V749.2A49.23,49.23,0,0,1,531,739.09a47.58,47.58,0,0,1,18.62-3.6,46.6,46.6,0,0,1,26.51,7.71,53.1,53.1,0,0,1,18.17,21.14q6.63,13.42,6.63,30.56t-6.63,30.56a53.1,53.1,0,0,1-18.17,21.14,46.6,46.6,0,0,1-26.51,7.71,47.84,47.84,0,0,1-20.73-4.51,49,49,0,0,1-16.4-12.51Zm26.28-35.42a21,21,0,0,0,10.91-2.8A19.71,19.71,0,0,0,555,806a23.52,23.52,0,0,0,2.69-11.37,22.44,22.44,0,0,0-2.69-11,19.93,19.93,0,0,0-7.43-7.65,21,21,0,0,0-10.91-2.8,21.38,21.38,0,0,0-10.34,2.51,20.15,20.15,0,0,0-7.42,6.86,21.29,21.29,0,0,0-3.26,10.05v4.23a22.16,22.16,0,0,0,3.26,10.28,19.71,19.71,0,0,0,7.42,7A21.27,21.27,0,0,0,536.67,816.61Z" style="fill:#cd4c1d"/><path d="M344.75,485.13a15.94,15.94,0,0,1-6.85,1.63,10.82,10.82,0,0,1-5.57-1.4,9.69,9.69,0,0,1-3.7-4,12.56,12.56,0,0,1-1.33-5.93V452.21h-6.66V448h6.85v-9.5H332V448h11.64v4.22H332v22.43a8.44,8.44,0,0,0,1.9,5.74,6.36,6.36,0,0,0,5,2.16,9.93,9.93,0,0,0,5-1.44Z" style="fill:#cd4c1d"/><path d="M350.77,486V429h4.68v25.81q4.1-7.56,13.91-7.56,7.56,0,11.8,4.52t4.24,12.66V486h-4.68V465.36q0-6.57-3.3-10.24t-9.2-3.67q-5.94,0-9.35,3.72t-3.42,10.19V486Z" style="fill:#cd4c1d"/><path d="M428.16,481.25a24.41,24.41,0,0,1-15.5,5.51,21,21,0,0,1-10.55-2.64,19.32,19.32,0,0,1-7.32-7.2,20.08,20.08,0,0,1-2.66-10.34,19.74,19.74,0,0,1,2.49-10,18.17,18.17,0,0,1,6.82-6.88,19.32,19.32,0,0,1,9.85-2.51,17.84,17.84,0,0,1,16.49,9.94,23.2,23.2,0,0,1,2.4,10.78v1.17h-33a14.55,14.55,0,0,0,2.64,7,15,15,0,0,0,5.61,4.68,17.32,17.32,0,0,0,7.68,1.67A20.25,20.25,0,0,0,426,477.83ZM397,465.1h28.78a15.62,15.62,0,0,0-2.25-7.11,13.45,13.45,0,0,0-5-4.75,14.28,14.28,0,0,0-7.06-1.72,14.72,14.72,0,0,0-7.16,1.72,13.33,13.33,0,0,0-5.09,4.77A15.13,15.13,0,0,0,397,465.1Z" style="fill:#cd4c1d"/><path d="M182.9,973.26l1.54-4.85a16.79,16.79,0,0,0,3.51,2.47,19.11,19.11,0,0,0,4,1.57,16.76,16.76,0,0,0,4.28.56,11.17,11.17,0,0,0,7.07-2.13,6.73,6.73,0,0,0,2.72-5.54,5.83,5.83,0,0,0-1.36-4,11.66,11.66,0,0,0-3.58-2.66q-2.2-1.11-4.68-2.08-2.85-1.11-5.58-2.49a13.56,13.56,0,0,1-4.49-3.6,9.06,9.06,0,0,1-1.76-5.83,10.3,10.3,0,0,1,1.68-5.9,11,11,0,0,1,4.72-3.87,16.92,16.92,0,0,1,7.05-1.39,25,25,0,0,1,11.32,2.81l-1.62,4.73a16.83,16.83,0,0,0-3-1.43,22,22,0,0,0-3.4-1,18,18,0,0,0-3.32-.34,9.21,9.21,0,0,0-5.83,1.73,5.46,5.46,0,0,0-2.22,4.53,5.19,5.19,0,0,0,1,3.17,9.41,9.41,0,0,0,3.05,2.49,48,48,0,0,0,5.1,2.43,59,59,0,0,1,5.75,2.7,14.82,14.82,0,0,1,4.66,3.86,9.48,9.48,0,0,1,1.85,6.08,11.4,11.4,0,0,1-1.89,6.49,12.57,12.57,0,0,1-5.24,4.41,18,18,0,0,1-7.76,1.58A22.69,22.69,0,0,1,182.9,973.26Z" style="fill:#cd4c1d"/><path d="M221.87,919.45a3.3,3.3,0,0,1-2.49-1,3.5,3.5,0,0,1-1-2.53,3.45,3.45,0,0,1,3.49-3.49,3.56,3.56,0,0,1,2.58,1,3.34,3.34,0,0,1,1,2.47,3.46,3.46,0,0,1-1,2.53A3.5,3.5,0,0,1,221.87,919.45ZM224.51,977h-5.23V934.39h5.23Z" style="fill:#cd4c1d"/><path d="M274.6,977h-5.23V953.13q0-6.81-3.75-10.8a13.21,13.21,0,0,0-10.09-4,13.75,13.75,0,0,0-10.51,4.2q-4,4.19-4,11.17V977h-5.24V934.39h4.64l.17,8a15.58,15.58,0,0,1,6.22-6.58,18.91,18.91,0,0,1,9.53-2.28q8.52,0,13.37,5.11t4.85,14.14Z" style="fill:#cd4c1d"/><path d="M320.26,971.05a21.52,21.52,0,0,1-7.22,5,22.6,22.6,0,0,1-9,1.77,22.13,22.13,0,0,1-11.3-2.9,21.22,21.22,0,0,1-7.9-7.92,23.65,23.65,0,0,1,0-22.66,21.24,21.24,0,0,1,7.9-7.9,22.13,22.13,0,0,1,11.3-2.9,23,23,0,0,1,8.94,1.75,20.46,20.46,0,0,1,7.19,5L317,943.63a16.58,16.58,0,0,0-5.68-3.89,18.09,18.09,0,0,0-7-1.39,16.87,16.87,0,0,0-8.7,2.24,16.11,16.11,0,0,0-6,6.15,17.83,17.83,0,0,0-2.2,8.9,18,18,0,0,0,2.2,9,16.1,16.1,0,0,0,6,6.17,16.87,16.87,0,0,0,8.7,2.24,18,18,0,0,0,7.07-1.39,16.12,16.12,0,0,0,5.66-3.89Z" style="fill:#cd4c1d"/><path d="M363.67,971.64a27.37,27.37,0,0,1-17.37,6.18,23.53,23.53,0,0,1-11.81-3,21.69,21.69,0,0,1-8.2-8.07,22.59,22.59,0,0,1-3-11.58,22.11,22.11,0,0,1,2.79-11.15,20.56,20.56,0,0,1,7.64-7.71,21.65,21.65,0,0,1,11-2.81,20,20,0,0,1,18.48,11.14,26.07,26.07,0,0,1,2.68,12.06v1.32H329a16.2,16.2,0,0,0,2.95,7.84,16.83,16.83,0,0,0,6.28,5.23,19.32,19.32,0,0,0,8.6,1.88,22.68,22.68,0,0,0,14.39-5.2Zm-34.86-18.09H361a17.51,17.51,0,0,0-2.51-8,15.19,15.19,0,0,0-5.6-5.32,16,16,0,0,0-7.89-1.92,16.63,16.63,0,0,0-8,1.92,15.07,15.07,0,0,0-5.7,5.34A17,17,0,0,0,328.81,953.55Z" style="fill:#cd4c1d"/><path d="M421.79,984.23h-5.62V926l-12.26,4.43-1.79-4.56,14.95-5.45h4.72Z" style="fill:#cd4c1d"/><path d="M444.6,984.23l-2.68-3.75A53.61,53.61,0,0,0,452.27,972a54.38,54.38,0,0,0,7.85-10.62,45.88,45.88,0,0,0,4.66-11.62,17.65,17.65,0,0,1-6.57,6.27,18.77,18.77,0,0,1-9.26,2.28,19.28,19.28,0,0,1-9.82-2.47,17.69,17.69,0,0,1-6.7-6.79,19.92,19.92,0,0,1-2.43-9.94,20.29,20.29,0,0,1,2.6-10.3,18.71,18.71,0,0,1,7.17-7.09,21.11,21.11,0,0,1,10.5-2.57,19.5,19.5,0,0,1,10.62,2.83,18.79,18.79,0,0,1,7,8,28.17,28.17,0,0,1,2.47,12.2,40.76,40.76,0,0,1-1.83,12,50.5,50.5,0,0,1-5.22,11.54,54.91,54.91,0,0,1-8.13,10.3A56.61,56.61,0,0,1,444.6,984.23Zm5.2-30.52a14.38,14.38,0,0,0,7.43-1.92,14.12,14.12,0,0,0,5.15-5.23,15,15,0,0,0,1.89-7.54,15.37,15.37,0,0,0-1.87-7.62,14.29,14.29,0,0,0-5.13-5.34,13.85,13.85,0,0,0-7.34-2,13.64,13.64,0,0,0-7.28,2,14,14,0,0,0-5.09,5.38,16,16,0,0,0-1.85,7.75,15.18,15.18,0,0,0,1.81,7.49,13.19,13.19,0,0,0,5,5.15A14,14,0,0,0,449.8,953.71Z" style="fill:#cd4c1d"/><path d="M490.61,984.23l-2.68-3.75A53.61,53.61,0,0,0,498.28,972a54.38,54.38,0,0,0,7.85-10.62,45.88,45.88,0,0,0,4.66-11.62,17.65,17.65,0,0,1-6.57,6.27,18.77,18.77,0,0,1-9.26,2.28,19.28,19.28,0,0,1-9.82-2.47,17.69,17.69,0,0,1-6.7-6.79,19.92,19.92,0,0,1-2.43-9.94,20.29,20.29,0,0,1,2.6-10.3,18.71,18.71,0,0,1,7.17-7.09,21.11,21.11,0,0,1,10.5-2.57,19.5,19.5,0,0,1,10.62,2.83,18.79,18.79,0,0,1,7,8,28.17,28.17,0,0,1,2.47,12.2,40.76,40.76,0,0,1-1.83,12,50.5,50.5,0,0,1-5.22,11.54,54.91,54.91,0,0,1-8.13,10.3A56.61,56.61,0,0,1,490.61,984.23Zm5.2-30.52a14.35,14.35,0,0,0,7.43-1.92,14.12,14.12,0,0,0,5.15-5.23,15,15,0,0,0,1.89-7.54,15.37,15.37,0,0,0-1.87-7.62,14.29,14.29,0,0,0-5.13-5.34,13.85,13.85,0,0,0-7.34-2,13.64,13.64,0,0,0-7.28,2,14,14,0,0,0-5.09,5.38,16,16,0,0,0-1.85,7.75,15.18,15.18,0,0,0,1.81,7.49,13.19,13.19,0,0,0,5,5.15A14,14,0,0,0,495.81,953.71Z" style="fill:#cd4c1d"/><path d="M543.36,985.51a17.21,17.21,0,0,1-11.32-3.9q-4.72-3.9-7.22-11.32a57.16,57.16,0,0,1-2.49-18,56.37,56.37,0,0,1,2.51-18q2.52-7.41,7.22-11.31a18.39,18.39,0,0,1,22.62,0q4.7,3.9,7.2,11.31a56.37,56.37,0,0,1,2.51,18,57.16,57.16,0,0,1-2.49,18q-2.49,7.43-7.2,11.32A17.17,17.17,0,0,1,543.36,985.51Zm0-5q7.2,0,11.24-7.47t4-20.75q0-13.28-4-20.71t-11.24-7.43q-7.2,0-11.24,7.43t-4,20.71q0,13.28,4,20.75T543.36,980.48Z" style="fill:#cd4c1d"/><rect x="110.87" y="938.9" width="27.61" height="27.61" style="fill:#cd4c1d"/><rect x="611.51" y="938.9" width="27.61" height="27.61" style="fill:#cd4c1d"/><g id="Layer_2" data-name="Layer 2"><g id="Layer_1-2" data-name="Layer 1-2"><path d="M309.15,191.75a11.51,11.51,0,0,1-4.66-1,12.13,12.13,0,0,1-6.39-6.35,11.89,11.89,0,0,1,0-9.29,12.17,12.17,0,0,1,6.39-6.39,11.93,11.93,0,0,1,9.33,0,12.12,12.12,0,0,1,6.38,6.39,11.88,11.88,0,0,1-2.57,13.08,12.22,12.22,0,0,1-3.81,2.54A11.54,11.54,0,0,1,309.15,191.75Zm0-6.27a5.8,5.8,0,0,0,2.29-.44,6.17,6.17,0,0,0,1.89-1.21,6,6,0,0,0,1.36-1.83,5.25,5.25,0,0,0,0-4.42,6.19,6.19,0,0,0-7.79-3.06,5.71,5.71,0,0,0-1.9,1.23,6.14,6.14,0,0,0-1.29,1.83,5.18,5.18,0,0,0,0,4.42,6,6,0,0,0,1.29,1.83,5.92,5.92,0,0,0,1.9,1.21,5.8,5.8,0,0,0,2.25.42Z" style="fill:#cd4c1d"/><path d="M298.52,167.25a.74.74,0,0,1-.68,0,.51.51,0,0,1-.26-.5v-5.14a1,1,0,0,1,.2-.6,1,1,0,0,1,.49-.38L308.79,157c.22-.06.32-.17.32-.33s-.1-.27-.32-.34l-10.47-3.46a1,1,0,0,1-.53-.38,1.11,1.11,0,0,1-.2-.68v-4.19a1.12,1.12,0,0,1,.2-.63,1,1,0,0,1,.53-.38l10.55-3.47c.22-.06.32-.17.32-.34s-.1-.28-.32-.36l-10.6-3.63a1.33,1.33,0,0,1-.49-.42,1.06,1.06,0,0,1-.2-.67v-5a.49.49,0,0,1,.26-.48.75.75,0,0,1,.55,0l21.6,7.66a1.08,1.08,0,0,1,.52.4,1,1,0,0,1,.2.68V145a1,1,0,0,1-.2.68,1,1,0,0,1-.52.38l-10.53,3.48c-.21.06-.32.17-.32.33s.11.26.32.33L320,153.72a1,1,0,0,1,.52.38,1,1,0,0,1,.2.68v4.07a1.06,1.06,0,0,1-.72,1Z" style="fill:#cd4c1d"/><path d="M298.31,125.86a1.15,1.15,0,0,1-.48-.42,1.11,1.11,0,0,1-.2-.68v-4.39a1,1,0,0,1,.2-.62,1.1,1.1,0,0,1,.5-.43l21.49-9.22a.67.67,0,0,1,.6,0,.69.69,0,0,1,.32.68v5.44a1.13,1.13,0,0,1-.22.68,1.38,1.38,0,0,1-.48.45l-1.92.85a1.27,1.27,0,0,0-.49.46,1,1,0,0,0-.2.61V126a1.11,1.11,0,0,0,.2.68,1.18,1.18,0,0,0,.49.42l1.9.89a1.13,1.13,0,0,1,.49.43,1,1,0,0,1,.2.61v5.44a1,1,0,0,1-.06.33.67.67,0,0,1-.19.28.6.6,0,0,1-.31.15.79.79,0,0,1-.45-.1ZM312.05,124v-2.81a.51.51,0,0,0-.2-.46.45.45,0,0,0-.5,0c-.52.21-1.14.46-1.84.76l-2,.82c-.18.08-.28.18-.28.28s.1.2.28.28l3.82,1.59a.55.55,0,0,0,.5,0A.5.5,0,0,0,312.05,124Z" style="fill:#cd4c1d"/><path d="M361.85,153H353.7a.68.68,0,0,0-.68.68v.08a43.33,43.33,0,0,0,1.31,8.55.67.67,0,0,0,.68.52h6.84a.68.68,0,0,0,.68-.68v-8.44a.68.68,0,0,0-.64-.71Z" style="fill:#cd4c1d"/><path d="M361.85,139h-6.79a.68.68,0,0,0-.68.53,43,43,0,0,0-1.36,8.6.67.67,0,0,0,.61.74h8.22a.67.67,0,0,0,.68-.68v-8.48a.67.67,0,0,0-.68-.68Z" style="fill:#cd4c1d"/><path d="M361.47,127.52a14.41,14.41,0,0,0-4.75,5.66c-.11.21-.22.44-.33.68a.68.68,0,0,0,.25.93.75.75,0,0,0,.39.09h4.8a.68.68,0,0,0,.68-.68v-6.08a.67.67,0,0,0-.66-.7A.66.66,0,0,0,361.47,127.52Z" style="fill:#cd4c1d"/><path d="M361.85,167H357a.67.67,0,0,0-.72.63.71.71,0,0,0,.08.38c.12.25.24.48.36.68a14.1,14.1,0,0,0,4.75,5.66.67.67,0,0,0,.95-.12.69.69,0,0,0,.15-.48v-6.11a.68.68,0,0,0-.68-.68Z" style="fill:#cd4c1d"/><path d="M347.27,134.85H351a.73.73,0,0,0,.68-.46,29.48,29.48,0,0,1,2-4.19.69.69,0,0,0-1-1h0a25.11,25.11,0,0,0-6,4.43.68.68,0,0,0-.11,1h0A.7.7,0,0,0,347.27,134.85Z" style="fill:#cd4c1d"/><path d="M340.44,148.88h7.74a.71.71,0,0,0,.68-.68,48.52,48.52,0,0,1,1.12-8.32.68.68,0,0,0-.47-.84h-6.39a.67.67,0,0,0-.63.37,24.36,24.36,0,0,0-2.76,8.69.69.69,0,0,0,.55.79h.07Z" style="fill:#cd4c1d"/><path d="M351.65,167.47A.72.72,0,0,0,351,167h-3.76a.67.67,0,0,0-.75.59.68.68,0,0,0,.24.61,25.41,25.41,0,0,0,6,4.49.68.68,0,0,0,1,0h0a.68.68,0,0,0,0-1h0A27.87,27.87,0,0,1,351.65,167.47Z" style="fill:#cd4c1d"/><path d="M377.62,134.39a.73.73,0,0,0,.68.46h3.77a.68.68,0,0,0,.76-.59.67.67,0,0,0-.25-.62,25.6,25.6,0,0,0-6-4.43.69.69,0,1,0-.95,1h0A29.51,29.51,0,0,1,377.62,134.39Z" style="fill:#cd4c1d"/><path d="M350,162a50.12,50.12,0,0,1-1.11-8.27.71.71,0,0,0-.67-.68h-7.77a.72.72,0,0,0-.68.74v.05a24.35,24.35,0,0,0,2.72,8.65.69.69,0,0,0,.62.38h6.21a.69.69,0,0,0,.68-.68A.61.61,0,0,0,350,162Z" style="fill:#cd4c1d"/><path d="M367.44,148.88h8.15a.68.68,0,0,0,.68-.68v-.07a43.1,43.1,0,0,0-1.32-8.6.68.68,0,0,0-.68-.52h-6.83a.67.67,0,0,0-.68.67v8.46a.68.68,0,0,0,.61.74h.07Z" style="fill:#cd4c1d"/><path d="M379.28,139.88a48.52,48.52,0,0,1,1.12,8.32.68.68,0,0,0,.68.68h7.79a.68.68,0,0,0,.68-.68v-.13a24.27,24.27,0,0,0-2.72-8.7.66.66,0,0,0-.63-.37H380a.69.69,0,0,0-.72.64h0A1,1,0,0,0,379.28,139.88Z" style="fill:#cd4c1d"/><path d="M388.87,153h-7.75a.71.71,0,0,0-.68.68,50.07,50.07,0,0,1-1.08,8.27.68.68,0,0,0,.47.84h6.43a.66.66,0,0,0,.62-.38,24.37,24.37,0,0,0,2.72-8.64.68.68,0,0,0-.55-.79h0Z" style="fill:#cd4c1d"/><path d="M382.07,167H378.3a.67.67,0,0,0-.67.45,30.28,30.28,0,0,1-2,4.26.68.68,0,1,0,1,1h0a25.21,25.21,0,0,0,6-4.49.67.67,0,0,0,.09-.95h0A.66.66,0,0,0,382.07,167Z" style="fill:#cd4c1d"/><path d="M367.44,134.85h4.8a.68.68,0,0,0,.64-1l-.33-.68a14.18,14.18,0,0,0-4.75-5.66.68.68,0,0,0-1,.12.75.75,0,0,0-.14.48v6a.69.69,0,0,0,.61.74A.29.29,0,0,0,367.44,134.85Z" style="fill:#cd4c1d"/><path d="M372.27,167h-4.83a.67.67,0,0,0-.68.68v6.11a.67.67,0,0,0,.61.74.65.65,0,0,0,.48-.14,14.44,14.44,0,0,0,4.76-5.66c.12-.23.23-.47.35-.71a.68.68,0,0,0-.3-.92.7.7,0,0,0-.38-.07Z" style="fill:#cd4c1d"/><path d="M375.56,153h-8.15a.67.67,0,0,0-.68.68v8.42a.67.67,0,0,0,.68.68h6.84a.69.69,0,0,0,.68-.52,44.08,44.08,0,0,0,1.3-8.54.67.67,0,0,0-.63-.72h0Z" style="fill:#cd4c1d"/><path d="M392,110H337.28a9.83,9.83,0,0,0-9.83,9.82V182a9.82,9.82,0,0,0,9.83,9.81H392a9.82,9.82,0,0,0,9.82-9.81V119.86A9.82,9.82,0,0,0,392,110ZM364.66,180a29,29,0,1,1,29-29,29,29,0,0,1-29,29Z" style="fill:#cd4c1d"/></g></g><path d="M309.7,96.78V90.72A14.26,14.26,0,0,1,324,76.45h0A13.58,13.58,0,0,1,337.55,90v15.82a1.46,1.46,0,0,0,1.46,1.47h8.48a1.46,1.46,0,0,0,1.46-1.45V90.1a25,25,0,0,0-25-25h0a26.34,26.34,0,0,0-26.34,26.34h0v5.32A2.39,2.39,0,0,0,300,99.19h7.27a2.41,2.41,0,0,0,2.41-2.41Z" style="fill:#cd4c1d"/><path d="M236.07,1109.19h-4.41l-1.21,6.79h4.48l-.34,2.13h-4.51l-1.35,7.63h-2.49l1.34-7.63h-6.26l-1.34,7.63h-2.51l1.36-7.63h-4.27l.35-2.13h4.3l1.19-6.79h-4.34l.35-2.12h4.37l1.54-8.79h2.51l-1.56,8.79h6.26l1.56-8.79h2.49l-1.56,8.79h4.4ZM221.7,1116H228l1.19-6.79h-6.26Z" style="fill:#cd4c1d"/><path d="M239.54,1125.74h-3.38l11.27-27.46h3.5l11.26,27.46H258.8l-3-7.41H242.53Zm4.12-10.27h11l-5.51-13.71Z" style="fill:#cd4c1d"/><path d="M268,1134.89h-3v-27.45h2.67l.15,2.67a9.49,9.49,0,0,1,3.09-2.23,9.67,9.67,0,0,1,4-.81,9.38,9.38,0,0,1,4.82,1.24,9.24,9.24,0,0,1,3.37,3.4,10.28,10.28,0,0,1,0,9.75,9.16,9.16,0,0,1-3.37,3.4,9.38,9.38,0,0,1-4.82,1.25,9.74,9.74,0,0,1-3.84-.75,9.16,9.16,0,0,1-3.05-2.09Zm6.65-11.53a6.59,6.59,0,0,0,3.4-.87,6.11,6.11,0,0,0,2.32-2.41,7.28,7.28,0,0,0,.83-3.51,7.19,7.19,0,0,0-.84-3.52,6.25,6.25,0,0,0-2.32-2.41,6.39,6.39,0,0,0-3.37-.88,6.61,6.61,0,0,0-3.27.81,6.44,6.44,0,0,0-2.35,2.2A6.9,6.9,0,0,0,268,1116v1.24a6.92,6.92,0,0,0,1,3.19,6.16,6.16,0,0,0,2.33,2.17A6.75,6.75,0,0,0,274.61,1123.36Z" style="fill:#cd4c1d"/><path d="M290.83,1134.89h-3v-27.45h2.67l.15,2.67a9.39,9.39,0,0,1,3.09-2.23,9.67,9.67,0,0,1,4-.81,9.38,9.38,0,0,1,4.82,1.24,9.24,9.24,0,0,1,3.37,3.4,10.28,10.28,0,0,1,0,9.75,9.16,9.16,0,0,1-3.37,3.4,9.38,9.38,0,0,1-4.82,1.25,9.74,9.74,0,0,1-3.84-.75,9.16,9.16,0,0,1-3.05-2.09Zm6.65-11.53a6.59,6.59,0,0,0,3.4-.87,6.11,6.11,0,0,0,2.32-2.41,7.28,7.28,0,0,0,.83-3.51,7.19,7.19,0,0,0-.84-3.52,6.25,6.25,0,0,0-2.32-2.41,6.39,6.39,0,0,0-3.37-.88,6.61,6.61,0,0,0-3.27.81,6.36,6.36,0,0,0-2.35,2.2,6.9,6.9,0,0,0-1.05,3.2v1.24a6.92,6.92,0,0,0,1,3.19,6.16,6.16,0,0,0,2.33,2.17A6.75,6.75,0,0,0,297.48,1123.36Z" style="fill:#cd4c1d"/><path d="M313.87,1125.74h-3.19v-28.19h3.19Z" style="fill:#cd4c1d"/><path d="M334.93,1123.49a12.09,12.09,0,0,1-7.51,2.62,10.33,10.33,0,0,1-5.13-1.28,9.51,9.51,0,0,1-4.88-8.48,9.35,9.35,0,0,1,1.21-4.77,8.74,8.74,0,0,1,3.31-3.3,9.36,9.36,0,0,1,4.78-1.21,8.89,8.89,0,0,1,4.84,1.32,9,9,0,0,1,3.27,3.66,12,12,0,0,1,1.17,5.42v.58H320.67a6.22,6.22,0,0,0,1.32,2.8,6.74,6.74,0,0,0,2.48,1.85,8.1,8.1,0,0,0,3.32.66,9,9,0,0,0,5.74-2.07Zm-14.37-8h12.59a6.68,6.68,0,0,0-1-3,6,6,0,0,0-2.2-2,6.33,6.33,0,0,0-3-.71,6.49,6.49,0,0,0-3.07.71,6,6,0,0,0-2.21,2A6.42,6.42,0,0,0,320.56,1115.49Z" style="fill:#cd4c1d"/><path d="M339.78,1125.74v-27.46h9.74a9.61,9.61,0,0,1,6.19,1.82,6,6,0,0,1,2.25,5,6.87,6.87,0,0,1-1.12,3.93,6.34,6.34,0,0,1-3,2.43,7.08,7.08,0,0,1,3.94,2.39,6.61,6.61,0,0,1,1.44,4.32,7.12,7.12,0,0,1-1.13,4,7.48,7.48,0,0,1-3.14,2.66,11,11,0,0,1-4.7,1ZM343,1110.4h6.45a5.66,5.66,0,0,0,3.87-1.28,4.28,4.28,0,0,0,1.45-3.39,4.15,4.15,0,0,0-1.48-3.36,6.16,6.16,0,0,0-4.05-1.23H343Zm0,12.49h6.57a8.09,8.09,0,0,0,3.34-.65,5.38,5.38,0,0,0,2.23-1.82,4.56,4.56,0,0,0,.8-2.68,4.39,4.39,0,0,0-.76-2.58,4.8,4.8,0,0,0-2.14-1.69,8.09,8.09,0,0,0-3.25-.6H343Z" style="fill:#cd4c1d"/><path d="M366.11,1125.74h-3v-18.3h2.64l.13,3.62a7,7,0,0,1,2.68-2.94,7.51,7.51,0,0,1,4-1c.33,0,.66,0,1,0s.68.1,1,.17l-.37,2.71a8.52,8.52,0,0,0-2-.24,5.76,5.76,0,0,0-3.18.88,6,6,0,0,0-2.15,2.42,7.8,7.8,0,0,0-.77,3.53Z" style="fill:#cd4c1d"/><path d="M384.7,1126.11a9.72,9.72,0,0,1-4.91-1.25,9.15,9.15,0,0,1-3.43-3.39,10,10,0,0,1,0-9.74,9.2,9.2,0,0,1,3.43-3.41,9.72,9.72,0,0,1,4.91-1.25,9.58,9.58,0,0,1,4.88,1.25,9.22,9.22,0,0,1,3.41,3.41,10.18,10.18,0,0,1,0,9.74,9.17,9.17,0,0,1-3.41,3.39A9.58,9.58,0,0,1,384.7,1126.11Zm0-2.71a6.18,6.18,0,0,0,3.31-.9,6.52,6.52,0,0,0,2.32-2.43,7.19,7.19,0,0,0,.85-3.5,7.12,7.12,0,0,0-.85-3.46,6.45,6.45,0,0,0-2.32-2.43,6.56,6.56,0,0,0-6.63,0,6.4,6.4,0,0,0-2.33,2.43,7,7,0,0,0-.85,3.46,7.09,7.09,0,0,0,.85,3.5,6.47,6.47,0,0,0,2.33,2.43A6.24,6.24,0,0,0,384.68,1123.4Z" style="fill:#cd4c1d"/><path d="M416.37,1125.74H412.9l-4.14-14-4.14,14h-3.48l-5.84-18.3h3.19l4.37,14.64,4.49-14.64h2.82l4.48,14.64,4.4-14.64h3.18Z" style="fill:#cd4c1d"/><path d="M423.54,1124.15l.79-2.82a7.55,7.55,0,0,0,1.5,1.08,7.85,7.85,0,0,0,1.78.7,7.09,7.09,0,0,0,1.88.25,4.61,4.61,0,0,0,2.75-.75,2.32,2.32,0,0,0,1-2,2,2,0,0,0-.54-1.45,4.55,4.55,0,0,0-1.42-1c-.58-.28-1.21-.55-1.88-.81a24.87,24.87,0,0,1-2.44-1.08,5.93,5.93,0,0,1-2-1.59,4,4,0,0,1-.8-2.6,4.68,4.68,0,0,1,.77-2.67,5,5,0,0,1,2.15-1.76,7.74,7.74,0,0,1,3.18-.62,11.48,11.48,0,0,1,5.32,1.35l-.89,2.71a7.84,7.84,0,0,0-1.36-.68,9.75,9.75,0,0,0-1.57-.47,7.64,7.64,0,0,0-1.52-.16,3.52,3.52,0,0,0-2.16.61,1.94,1.94,0,0,0-.83,1.64,1.89,1.89,0,0,0,.34,1.07,3.75,3.75,0,0,0,1.15,1,17.11,17.11,0,0,0,2.23,1.06c.84.34,1.67.73,2.49,1.16a6.45,6.45,0,0,1,2,1.67,4.12,4.12,0,0,1,.82,2.64,4.87,4.87,0,0,1-.86,2.85,5.6,5.6,0,0,1-2.36,1.93,8.13,8.13,0,0,1-3.48.7A10.6,10.6,0,0,1,423.54,1124.15Z" style="fill:#cd4c1d"/><path d="M456,1123.49a12.07,12.07,0,0,1-7.51,2.62,10.27,10.27,0,0,1-5.12-1.28,9.5,9.5,0,0,1-4.89-8.48,9.35,9.35,0,0,1,1.21-4.77,8.74,8.74,0,0,1,3.31-3.3,9.38,9.38,0,0,1,4.78-1.21,8.74,8.74,0,0,1,8.11,5,12,12,0,0,1,1.17,5.42v.58H441.75a6.13,6.13,0,0,0,1.33,2.8,6.66,6.66,0,0,0,2.48,1.85,8,8,0,0,0,3.31.66,9,9,0,0,0,5.75-2.07Zm-14.37-8h12.59a6.56,6.56,0,0,0-1.05-3,6,6,0,0,0-2.2-2,6.28,6.28,0,0,0-3-.71,6.45,6.45,0,0,0-3.06.71,6,6,0,0,0-2.22,2A6.54,6.54,0,0,0,441.64,1115.49Z" style="fill:#cd4c1d"/><path d="M463.58,1125.74h-3v-18.3h2.63l.13,3.62a7.07,7.07,0,0,1,2.68-2.94,7.51,7.51,0,0,1,4-1c.33,0,.67,0,1,0s.68.1,1,.17l-.36,2.71a8.61,8.61,0,0,0-2-.24,5.75,5.75,0,0,0-3.17.88,6,6,0,0,0-2.15,2.42,7.67,7.67,0,0,0-.77,3.53Z" style="fill:#cd4c1d"/><path d="M474.54,1125.74v-27.46h9.74a9.59,9.59,0,0,1,6.19,1.82,6,6,0,0,1,2.25,5,6.87,6.87,0,0,1-1.12,3.93,6.29,6.29,0,0,1-3,2.43,7.11,7.11,0,0,1,3.95,2.39,6.65,6.65,0,0,1,1.43,4.32,7.11,7.11,0,0,1-1.12,4,7.54,7.54,0,0,1-3.14,2.66,11,11,0,0,1-4.71,1Zm3.23-15.34h6.44a5.66,5.66,0,0,0,3.87-1.28,4.29,4.29,0,0,0,1.46-3.39,4.16,4.16,0,0,0-1.49-3.36,6.13,6.13,0,0,0-4-1.23h-6.24Zm0,12.49h6.57a8,8,0,0,0,3.33-.65,5.38,5.38,0,0,0,2.23-1.82,4.56,4.56,0,0,0,.81-2.68,4.46,4.46,0,0,0-.76-2.58,4.85,4.85,0,0,0-2.14-1.69,8.16,8.16,0,0,0-3.25-.6h-6.79Z" style="fill:#cd4c1d"/><path d="M512.37,1125.74h-2.58l-.2-2.42a7.11,7.11,0,0,1-2.57,2,8,8,0,0,1-3.47.74,7.81,7.81,0,0,1-3.54-.78,6.18,6.18,0,0,1-2.44-2.13,5.53,5.53,0,0,1-.89-3.08,5.44,5.44,0,0,1,1-3.19,6.52,6.52,0,0,1,2.62-2.17A8.58,8.58,0,0,1,504,1114a11.84,11.84,0,0,1,2.8.34,11.24,11.24,0,0,1,2.55.92v-.76a4.2,4.2,0,0,0-.74-2.5,4.81,4.81,0,0,0-1.95-1.6,6.53,6.53,0,0,0-2.71-.55,7.91,7.91,0,0,0-2.62.46,8.63,8.63,0,0,0-2.56,1.44l-1-2.58a12.87,12.87,0,0,1,3.35-1.55,12.09,12.09,0,0,1,3.48-.52,8.31,8.31,0,0,1,4.1,1,6.67,6.67,0,0,1,2.69,2.73,8.74,8.74,0,0,1,.95,4.18Zm-8.29-2.38a5.68,5.68,0,0,0,2.58-.58,4.86,4.86,0,0,0,1.9-1.7,5.1,5.1,0,0,0,.81-2.62v-.32a7.68,7.68,0,0,0-2.26-1.21,7.77,7.77,0,0,0-2.56-.43,5.62,5.62,0,0,0-3.39,1,3,3,0,0,0-1.37,2.5,2.86,2.86,0,0,0,.56,1.72,3.65,3.65,0,0,0,1.53,1.21A5.18,5.18,0,0,0,504.08,1123.36Z" style="fill:#cd4c1d"/><path d="M534,1125.74h-3v-10.21a5.77,5.77,0,0,0-1.48-4.16,5.17,5.17,0,0,0-3.94-1.55,5.43,5.43,0,0,0-4.13,1.67,6.16,6.16,0,0,0-1.58,4.4v9.85h-3v-18.3h2.62l.11,3a6.76,6.76,0,0,1,2.65-2.47,8.32,8.32,0,0,1,3.88-.86,7.6,7.6,0,0,1,5.76,2.2,8.31,8.31,0,0,1,2.11,6Z" style="fill:#cd4c1d"/></g></svg>