<svg id="Calque_2" data-name="Calque 2" xmlns="http://www.w3.org/2000/svg" width="864.17" height="369.17" viewBox="0 0 864.17 369.17">
  <defs>
    <style>
      .cls-1 {
        fill: #cd4c1d;
      }
    </style>
  </defs>
  <g>
    <path d="M239.38,294.47l-23.8,10.85-6.89-12.51a31.06,31.06,0,0,1-6.28,16A37.94,37.94,0,0,1,187.71,320q-15.15,6.92-28,1.36T139.2,299.09l-21.66-47.51,30.07-13.71,17.91,39.28q3.72,8.14,8.86,11.12a11.32,11.32,0,0,0,10.93.33A11.8,11.8,0,0,0,192.5,280q1.23-5.93-2.44-14l-17.91-39.29L202.22,213Z"/>
    <path d="M340.36,248.44l-30.08,13.71-17.91-39.29q-3.71-8.15-8.86-11.12a11.32,11.32,0,0,0-10.93-.33,11.82,11.82,0,0,0-7.18,8.64q-1.23,5.92,2.44,14l17.91,39.28L255.68,287l-37.16-81.5,23.8-10.85,6.89,12.51a31.74,31.74,0,0,1,6.32-16A37.78,37.78,0,0,1,270.18,180q15.17-6.92,28-1.4t20.51,22.3Z"/>
    <path d="M387.3,227,355,241.75,297.81,116.23l32.27-14.71Z"/>
    <path d="M444.77,202.8a51.62,51.62,0,0,1-25.45,5,45,45,0,0,1-22.68-7.87,48.58,48.58,0,0,1-19.88-43.6A45.14,45.14,0,0,1,385.69,134a51.82,51.82,0,0,1,20.44-16,50.92,50.92,0,0,1,25.29-4.88A44.86,44.86,0,0,1,454,121.08a48.89,48.89,0,0,1,19.88,43.61A44.79,44.79,0,0,1,465,186.92,50.91,50.91,0,0,1,444.77,202.8ZM432.35,176a13.68,13.68,0,0,0,6.06-5.17,15.07,15.07,0,0,0,2.28-7.74,19.81,19.81,0,0,0-1.95-8.9,18.79,18.79,0,0,0-5.33-7.07,15.21,15.21,0,0,0-7.3-3.27,14.47,14.47,0,0,0-13.94,6.35,15.31,15.31,0,0,0-2.32,7.66,19,19,0,0,0,1.83,8.66,20,20,0,0,0,5.45,7.31,15.06,15.06,0,0,0,7.34,3.35A13.63,13.63,0,0,0,432.35,176Z"/>
    <path d="M569.38,127.39a45.88,45.88,0,0,1-9.77,18.09,52,52,0,0,1-18.09,13.22,51.5,51.5,0,0,1-25.37,4.92,45,45,0,0,1-22.69-7.87,45.62,45.62,0,0,1-15.68-19.18,45.62,45.62,0,0,1-4.2-24.42,45.06,45.06,0,0,1,8.94-22.29A55.32,55.32,0,0,1,524.58,69a46.31,46.31,0,0,1,19.92,4.31l-9.08,26.49a19.48,19.48,0,0,0-8.81-1.94,22,22,0,0,0-9.27,2,18.37,18.37,0,0,0-7.26,5.67,15.87,15.87,0,0,0-3.16,8,17,17,0,0,0,1.59,8.88,17.61,17.61,0,0,0,5.73,7.18,15.92,15.92,0,0,0,8.15,3,18.07,18.07,0,0,0,9.06-1.72,22.36,22.36,0,0,0,7.64-5.7,18.7,18.7,0,0,0,4.28-7.9Z"/>
    <path d="M617.14,122.25,587.07,136,531.33,13.71,561.41,0l31,67.89,4.06-15,8.1-23.28L642.17,12.4l-18.46,53,58.88,27-38.72,17.65L611.23,92.66l-4.38,7Z"/>
  </g>
  <g>
    <path class="cls-1" d="M618.92,251.48l-35.67,16.27-30-39.59,10.24,48.57L527.87,293l-66.33-72.35,33.12-15.1,36.17,48-9.58-60.16,26.84-12.24,39.29,47-12.7-59.15L607.8,154Z"/>
    <path class="cls-1" d="M730,190.06a66.83,66.83,0,0,1-29.64,26.33,60,60,0,0,1-28.51,5.77,51.7,51.7,0,0,1-25.55-8.1,46.38,46.38,0,0,1-17.28-20.24,44.94,44.94,0,0,1-4-24.58,46.94,46.94,0,0,1,9.23-22.62,52,52,0,0,1,20.59-16.16q13.5-6.17,26.52-4.61a46.8,46.8,0,0,1,23.75,10q10.73,8.44,17.38,23l1.24,2.72-56.91,26a22.54,22.54,0,0,0,7,4,22.08,22.08,0,0,0,8.75,1.19,28.25,28.25,0,0,0,10.25-2.72q12-5.46,19.19-18Zm-70.45-14.57L689.23,162a17.45,17.45,0,0,0-5.64-5.95,15.4,15.4,0,0,0-7.45-2.39,16.61,16.61,0,0,0-8.06,1.57,14.61,14.61,0,0,0-6.28,5.12,16.56,16.56,0,0,0-2.73,7.19A21.16,21.16,0,0,0,659.58,175.49Z"/>
    <path class="cls-1" d="M779.8,178.14l-27.44,12.51L694.28,63.24,725.62,49l23.23,51a40.24,40.24,0,0,1,8-12.7,38.84,38.84,0,0,1,12.62-9A38.13,38.13,0,0,1,791.75,75a43.3,43.3,0,0,1,20.67,9.56A55.6,55.6,0,0,1,827.71,105a55.76,55.76,0,0,1,5.43,25,43.4,43.4,0,0,1-6.34,21.87,38.11,38.11,0,0,1-17.09,14.72,39.14,39.14,0,0,1-17,3.67,40,40,0,0,1-16.43-3.74Zm7.53-35.24a17.16,17.16,0,0,0,7.16-5.78,16.07,16.07,0,0,0,2.89-8.29,19.15,19.15,0,0,0-1.86-9.36,18.24,18.24,0,0,0-5.73-7.29,16.3,16.3,0,0,0-8.12-3.17,17.12,17.12,0,0,0-9.06,1.62,17.36,17.36,0,0,0-6.83,5.37,16.41,16.41,0,0,0-3.2,7.61,17.36,17.36,0,0,0,1,8.58l1.43,3.14a18.16,18.16,0,0,0,5.91,6.55,16.19,16.19,0,0,0,7.88,2.66A17.43,17.43,0,0,0,787.33,142.9Z"/>
  </g>
  <g>
    <path d="M403.52,294.14a18.57,18.57,0,0,1-5.45,3.91,12.52,12.52,0,0,1-6.12,1.21,10.35,10.35,0,0,1-5.38-1.93,11.67,11.67,0,0,1-3.8-4.77l-3.06-6.71-4.31,2-3.69-8.11,4.8-2.19-2.81-6.15,8.6-3.92,2.81,6.15,6.48-3,3.69,8.1-6.48,3,2.31,5.05a4.06,4.06,0,0,0,2.37,2.39,4,4,0,0,0,2.93-.16,5.39,5.39,0,0,0,2.38-2.22Z"/>
    <path d="M407,293.37l-16.84-37,9.09-4.14L406,267a11,11,0,0,1,14-6.39q3.81,1.69,6.13,6.77l6.55,14.37-9.09,4.14L418.13,274a7.08,7.08,0,0,0-2.68-3.36,3.44,3.44,0,0,0-3.31-.11,3.58,3.58,0,0,0-2.17,2.62,6.93,6.93,0,0,0,.74,4.23l5.41,11.87Z"/>
    <path d="M459.32,266.41a19.48,19.48,0,0,1-8.6,7.64,17.53,17.53,0,0,1-8.27,1.67,15,15,0,0,1-7.41-2.35,13.32,13.32,0,0,1-5-5.87,13,13,0,0,1-1.17-7.13,13.55,13.55,0,0,1,2.68-6.56,15,15,0,0,1,6-4.69,14.23,14.23,0,0,1,7.69-1.33,13.48,13.48,0,0,1,6.89,2.9,17.65,17.65,0,0,1,5,6.68l.36.79L441,265.69a6.69,6.69,0,0,0,2,1.17,6.32,6.32,0,0,0,2.54.35,8.23,8.23,0,0,0,3-.79,12.33,12.33,0,0,0,5.57-5.22Zm-20.44-4.23,8.6-3.92a5,5,0,0,0-1.64-1.72,4.42,4.42,0,0,0-2.16-.7,4.84,4.84,0,0,0-2.33.46,4.31,4.31,0,0,0-1.83,1.48,4.93,4.93,0,0,0-.79,2.09A6,6,0,0,0,438.88,262.18Z"/>
  </g>
  <g>
    <g id="Layer_2" data-name="Layer 2">
      <g id="Layer_1-2" data-name="Layer 1-2">
        <path class="cls-1" d="M79.93,239a16.83,16.83,0,0,1-6.8,1.57A17.77,17.77,0,0,1,60.73,236a17.49,17.49,0,0,1-5.66-12.41,17.86,17.86,0,0,1,4.65-12.42,17.55,17.55,0,0,1,12.45-5.68,17.79,17.79,0,0,1,12.41,4.65,17.45,17.45,0,0,1,4.53,19,17.88,17.88,0,0,1-3.54,5.71A16.83,16.83,0,0,1,79.93,239Zm-3.81-8.36a8.67,8.67,0,0,0,2.78-2,9,9,0,0,0,1.79-2.78,8.62,8.62,0,0,0,.7-3.25,7.71,7.71,0,0,0-2.69-5.91,9,9,0,0,0-2.93-1.62,8.8,8.8,0,0,0-9.34,2.27,8.7,8.7,0,0,0-1.79,2.8,9.21,9.21,0,0,0-.6,3.24,7.61,7.61,0,0,0,2.69,5.9A8.84,8.84,0,0,0,69.56,231a8.67,8.67,0,0,0,3.28.46,8.56,8.56,0,0,0,3.26-.81Z"/>
        <path class="cls-1" d="M50.83,212.79a1.13,1.13,0,0,1-.91.41.76.76,0,0,1-.66-.5l-3.13-6.87a1.46,1.46,0,0,1-.1-.92,1.43,1.43,0,0,1,.43-.81l11.85-11.22c.26-.21.33-.42.23-.64s-.3-.29-.63-.25l-16.1,1.75a1.44,1.44,0,0,1-.93-.18,1.59,1.59,0,0,1-.68-.79l-2.55-5.6a1.56,1.56,0,0,1-.12-.95,1.41,1.41,0,0,1,.48-.83l12-11.07c.25-.21.32-.42.22-.64a.59.59,0,0,0-.64-.29L33.19,175a2,2,0,0,1-.91-.26,1.57,1.57,0,0,1-.68-.78l-3.07-6.73a.71.71,0,0,1,.07-.8,1.06,1.06,0,0,1,.73-.33l33.49-2.93a1.68,1.68,0,0,1,1,.23,1.59,1.59,0,0,1,.69.78l2.48,5.44a1.63,1.63,0,0,1,.14,1,1.4,1.4,0,0,1-.47.82L54.67,182.53c-.24.22-.32.43-.22.64s.3.29.63.25l16.17-1.76a1.39,1.39,0,0,1,.93.19,1.53,1.53,0,0,1,.68.78l2.49,5.44a1.61,1.61,0,0,1-.38,1.75Z"/>
        <path class="cls-1" d="M25.34,157.66a1.69,1.69,0,0,1-.89-.27,1.62,1.62,0,0,1-.68-.78l-2.68-5.87a1.55,1.55,0,0,1-.1-1,1.78,1.78,0,0,1,.4-.87l23.08-25.4a1,1,0,0,1,1.67.41l3.3,7.26a1.6,1.6,0,0,1,.14,1,1.94,1.94,0,0,1-.37.9l-2.05,2.31a2,2,0,0,0-.38.9,1.72,1.72,0,0,0,.11.95l4,8.9a1.8,1.8,0,0,0,.69.78,1.57,1.57,0,0,0,.91.27l3.08,0a1.73,1.73,0,0,1,.91.27,1.57,1.57,0,0,1,.65.7l3.31,7.26a1.3,1.3,0,0,1,.11.48,1,1,0,0,1-.07.49.93.93,0,0,1-1,.52Zm17.23-10.85-1.71-3.76a.79.79,0,0,0-.56-.49.69.69,0,0,0-.66.3c-.57.6-1.24,1.31-2,2.14l-2.17,2.32c-.19.22-.26.4-.2.55s.25.2.54.2l6.07-.22a.76.76,0,0,0,.67-.3A.73.73,0,0,0,42.57,146.81Z"/>
        <path class="cls-1" d="M126.73,155.27l-10.88,5a1,1,0,0,0-.5,1.32l.05.11a63.63,63.63,0,0,0,6.95,10.62,1,1,0,0,0,1.22.28l9.14-4.17a1,1,0,0,0,.5-1.32l-5.14-11.26a1,1,0,0,0-1.29-.56Z"/>
        <path class="cls-1" d="M118.19,136.54l-9.07,4.14a1,1,0,0,0-.59,1.11A64,64,0,0,0,112,154.1a1,1,0,0,0,1.27.63h0l11-5a1,1,0,0,0,.49-1.32l-5.16-11.33a1,1,0,0,0-1.32-.49Z"/>
        <path class="cls-1" d="M110.69,121.43a21.06,21.06,0,0,0-2.91,10.45c0,.34,0,.72,0,1.1a1,1,0,0,0,.9,1.09.94.94,0,0,0,.57-.12l6.42-2.92a1,1,0,0,0,.49-1.32l-3.7-8.12a1,1,0,0,0-1.3-.53A.91.91,0,0,0,110.69,121.43Z"/>
        <path class="cls-1" d="M135.23,173.91l-6.45,2.94a1,1,0,0,0-.59,1.28,1.05,1.05,0,0,0,.35.46c.3.25.61.5.89.69a20.78,20.78,0,0,0,9.79,4.66,1,1,0,0,0,1.2-.73,1.06,1.06,0,0,0-.1-.74l-3.73-8.16a1,1,0,0,0-1.32-.49Z"/>
        <path class="cls-1" d="M96.19,139.86l5-2.28a1,1,0,0,0,.63-1,44.79,44.79,0,0,1,.17-6.85,1,1,0,1,0-1.87-.73h0a37,37,0,0,0-5.26,9.54,1,1,0,0,0,.43,1.34h0A1,1,0,0,0,96.19,139.86Z"/>
        <path class="cls-1" d="M95.61,162.75,105.94,158a1,1,0,0,0,.5-1.32,72.32,72.32,0,0,1-3.58-11.8,1,1,0,0,0-1.13-.83,1,1,0,0,0-.28.13L93.2,148a1,1,0,0,0-.62.87,35.83,35.83,0,0,0,1.61,13.29,1,1,0,0,0,1.21.73l.1,0Z"/>
        <path class="cls-1" d="M121.89,180.75a1,1,0,0,0-1.18-.19l-5,2.28a1,1,0,0,0,.06,1.92,37.12,37.12,0,0,0,10.76,2.33,1,1,0,0,0,1.29-.58h0a1,1,0,0,0-.57-1.29h0A42.75,42.75,0,0,1,121.89,180.75Z"/>
        <path class="cls-1" d="M136.43,120.78a1.05,1.05,0,0,0,1.18.19l5-2.3a1,1,0,0,0,.65-1.25,1,1,0,0,0-.72-.67,37.06,37.06,0,0,0-10.65-2.28,1,1,0,0,0-.67,1.89h0A43.45,43.45,0,0,1,136.43,120.78Z"/>
        <path class="cls-1" d="M116.34,174.44a72.44,72.44,0,0,1-6.51-10.37,1,1,0,0,0-1.32-.49L98.14,168.3a1,1,0,0,0-.45,1.4l0,.08a35.73,35.73,0,0,0,8.89,9.89,1,1,0,0,0,1.06.12L116,176a1,1,0,0,0,.5-1.32A1.12,1.12,0,0,0,116.34,174.44Z"/>
        <path class="cls-1" d="M131.65,146.32l10.89-5A1,1,0,0,0,143,140l0-.1a64,64,0,0,0-7-10.68,1,1,0,0,0-1.22-.29l-9.13,4.16a1,1,0,0,0-.49,1.32l5.14,11.29a1,1,0,0,0,1.27.61h0Z"/>
        <path class="cls-1" d="M142,127.08a72,72,0,0,1,6.56,10.44,1,1,0,0,0,1.32.49l10.4-4.73a1,1,0,0,0,.49-1.32,1.42,1.42,0,0,0-.08-.18,35.6,35.6,0,0,0-8.93-10,1,1,0,0,0-1.05-.11l-8.28,3.78a1,1,0,0,0-.58,1.28h0A1.11,1.11,0,0,0,142,127.08Z"/>
        <path class="cls-1" d="M162.8,138.83l-10.35,4.71a1,1,0,0,0-.49,1.32,72.64,72.64,0,0,1,3.59,11.71,1,1,0,0,0,1.13.83,1.08,1.08,0,0,0,.29-.13l8.3-3.79a1,1,0,0,0,.61-.88,35.8,35.8,0,0,0-1.64-13.2,1,1,0,0,0-1.21-.71h0A.79.79,0,0,0,162.8,138.83Z"/>
        <path class="cls-1" d="M162.23,161.6l-5,2.29a1,1,0,0,0-.63,1,43.21,43.21,0,0,1-.13,6.92,1,1,0,0,0,1.87.74h0a37.27,37.27,0,0,0,5.3-9.66,1,1,0,0,0-.45-1.34h0A1,1,0,0,0,162.23,161.6Z"/>
        <path class="cls-1" d="M123.11,127.58l6.41-2.92a1,1,0,0,0,.6-1.28,1,1,0,0,0-.36-.47l-.85-.71a20.87,20.87,0,0,0-9.79-4.66,1,1,0,0,0-1.21.74,1,1,0,0,0,.11.73l3.66,8a1,1,0,0,0,1.27.62A.48.48,0,0,0,123.11,127.58Z"/>
        <path class="cls-1" d="M149.13,167.57l-6.45,2.94a1,1,0,0,0-.49,1.32l3.72,8.16a1,1,0,0,0,1.27.61.93.93,0,0,0,.55-.48,21,21,0,0,0,2.91-10.45c0-.38,0-.77,0-1.16a1,1,0,0,0-1.5-.9Z"/>
        <path class="cls-1" d="M145,146.93l-10.88,5a1,1,0,0,0-.5,1.32l5.13,11.24a1,1,0,0,0,1.32.5l9.13-4.17a1,1,0,0,0,.59-1.11,63.69,63.69,0,0,0-3.45-12.19,1,1,0,0,0-1.29-.58h0Z"/>
        <path class="cls-1" d="M140.86,79.49,67.75,112.82a14.4,14.4,0,0,0-7.14,19.08l37.84,83a14.41,14.41,0,0,0,19.09,7.13l73.12-33.33a14.4,14.4,0,0,0,7.13-19.08l-37.85-83A14.4,14.4,0,0,0,140.86,79.49Zm6,110a42.57,42.57,0,1,1,21.08-56.39,42.56,42.56,0,0,1-21.08,56.39Z"/>
      </g>
    </g>
    <path class="cls-1" d="M22.85,111.9l-3.69-8.1A20.93,20.93,0,0,1,29.52,76.08h0A19.93,19.93,0,0,1,55.93,86l9.64,21.13a2.14,2.14,0,0,0,2.85,1.06L79.73,103a2.15,2.15,0,0,0,1.07-2.84h0l-9.59-21A36.67,36.67,0,0,0,22.64,60.92h0a38.65,38.65,0,0,0-19.14,51.2h0l3.24,7.11A3.51,3.51,0,0,0,11.39,121h0l9.71-4.42a3.53,3.53,0,0,0,1.74-4.68Z"/>
  </g>
  <g>
    <path d="M489.21,366.54a10.25,10.25,0,0,1-5,1,8.76,8.76,0,0,1-4.45-1.55,9.51,9.51,0,0,1-3.9-8.55,8.79,8.79,0,0,1,1.75-4.37,10.82,10.82,0,0,1,9-4.1A8.89,8.89,0,0,1,491,350.5a9.6,9.6,0,0,1,3.9,8.56,8.76,8.76,0,0,1-1.73,4.36A10.07,10.07,0,0,1,489.21,366.54Zm-2.44-5.27a2.69,2.69,0,0,0,1.19-1,2.91,2.91,0,0,0,.44-1.52A3.91,3.91,0,0,0,488,357a3.71,3.71,0,0,0-1-1.39,3,3,0,0,0-1.43-.64,2.88,2.88,0,0,0-2.73,1.25,2.94,2.94,0,0,0-.46,1.5,3.75,3.75,0,0,0,.36,1.7,3.88,3.88,0,0,0,1.07,1.44,2.85,2.85,0,0,0,1.44.65A2.63,2.63,0,0,0,486.77,361.27Z"/>
    <path d="M509.69,366.47l-5.92,2.7-10.93-24,5.16-2.36,1.25,1.94a7.62,7.62,0,0,1,1.49-2.81,7.37,7.37,0,0,1,2.62-2,7.2,7.2,0,0,1,4.2-.61,8.16,8.16,0,0,1,3.89,1.8,11.35,11.35,0,0,1,3.9,8.56,8.12,8.12,0,0,1-1.19,4.12,7.18,7.18,0,0,1-3.22,2.77,7.29,7.29,0,0,1-2.84.68,7.54,7.54,0,0,1-2.78-.44Zm-3-14.3a3.25,3.25,0,0,0,1.35-1.09,3,3,0,0,0,.54-1.55,3.74,3.74,0,0,0-1.42-3.13,3,3,0,0,0-1.54-.61,3.44,3.44,0,0,0-3,1.32,3.16,3.16,0,0,0-.6,1.45,3.38,3.38,0,0,0,.21,1.64l.27.6a3.3,3.3,0,0,0,1.09,1.19,3.1,3.1,0,0,0,1.48.49A3.18,3.18,0,0,0,506.73,352.17Z"/>
    <path d="M534.82,343.33a12.62,12.62,0,0,1-5.58,5,11.3,11.3,0,0,1-5.37,1.08,9.83,9.83,0,0,1-4.81-1.52,8.72,8.72,0,0,1-3.25-3.81,8.41,8.41,0,0,1-.76-4.63,8.76,8.76,0,0,1,1.74-4.26,9.78,9.78,0,0,1,3.87-3,9.24,9.24,0,0,1,5-.86,8.78,8.78,0,0,1,4.47,1.88,11.35,11.35,0,0,1,3.27,4.34l.24.51-10.72,4.89a4.18,4.18,0,0,0,3,1,5.31,5.31,0,0,0,1.93-.52,7.91,7.91,0,0,0,3.62-3.38Zm-13.26-2.75,5.58-2.54a3.27,3.27,0,0,0-1.06-1.12,2.93,2.93,0,0,0-1.41-.45,3.23,3.23,0,0,0-1.51.29,2.82,2.82,0,0,0-1.19,1,3.13,3.13,0,0,0-.51,1.35A4,4,0,0,0,521.56,340.58Z"/>
    <path d="M555.65,335.86l-5.91,2.69-3.51-7.71a4.69,4.69,0,0,0-1.74-2.18,2.24,2.24,0,0,0-2.15-.07,2.36,2.36,0,0,0-1.41,1.7,4.52,4.52,0,0,0,.48,2.75l3.52,7.71-5.9,2.69-7.29-16,4.67-2.13,1.35,2.46a6.21,6.21,0,0,1,1.24-3.15,7.44,7.44,0,0,1,2.87-2.19,6.59,6.59,0,0,1,5.5-.27,8.08,8.08,0,0,1,4,4.38Z"/>
    <path d="M568.69,323l-12.79,5.83-2-4.48,12.79-5.83Z"/>
    <path d="M595.42,317.73l-6.71,3.06-5.64-7.46,1.92,9.15-6.71,3.06-12.49-13.62,6.23-2.84,6.81,9L577,306.79l5.05-2.3,7.41,8.85-2.4-11.13,6.24-2.85Z"/>
    <path d="M616.35,306.16a12.65,12.65,0,0,1-5.59,5,11.42,11.42,0,0,1-5.36,1.09,9.77,9.77,0,0,1-4.82-1.53,8.78,8.78,0,0,1-3.25-3.81,8.5,8.5,0,0,1-.76-4.63,9,9,0,0,1,1.74-4.26,9.79,9.79,0,0,1,3.88-3,9.21,9.21,0,0,1,5-.87,8.86,8.86,0,0,1,4.48,1.88,11.51,11.51,0,0,1,3.27,4.35l.23.51-10.72,4.88a4.24,4.24,0,0,0,1.32.77,4.16,4.16,0,0,0,1.65.22,5.34,5.34,0,0,0,1.93-.51,8,8,0,0,0,3.61-3.39Zm-13.27-2.74,5.58-2.55a3.26,3.26,0,0,0-1.06-1.12,2.9,2.9,0,0,0-1.4-.45,3.16,3.16,0,0,0-1.52.3,2.7,2.7,0,0,0-1.18,1,3,3,0,0,0-.51,1.36A3.83,3.83,0,0,0,603.08,303.42Z"/>
    <path d="M625.72,303.92l-5.17,2.35-10.94-24,5.9-2.69,4.38,9.6a7.48,7.48,0,0,1,1.5-2.4,7.35,7.35,0,0,1,2.37-1.69,7.15,7.15,0,0,1,4.21-.61,8.2,8.2,0,0,1,3.89,1.8,11.31,11.31,0,0,1,3.9,8.55,8.16,8.16,0,0,1-1.19,4.12,7.26,7.26,0,0,1-3.22,2.78,7.41,7.41,0,0,1-6.29,0Zm1.42-6.64a3.16,3.16,0,0,0,1.34-1.09,3,3,0,0,0,.55-1.56,3.61,3.61,0,0,0-.35-1.76,3.39,3.39,0,0,0-1.08-1.37,3.09,3.09,0,0,0-1.53-.6,3.28,3.28,0,0,0-1.71.3,3.31,3.31,0,0,0-1.28,1,3,3,0,0,0-.6,1.44,3.23,3.23,0,0,0,.18,1.61l.27.6a3.49,3.49,0,0,0,1.11,1.23,3.15,3.15,0,0,0,1.49.5A3.31,3.31,0,0,0,627.14,297.28Z"/>
    <path d="M651,285.46l-12.79,5.83-2-4.48L648.91,281Z"/>
    <path d="M672,282.83l-5.17,2.36-1.09-1.63a6.45,6.45,0,0,1-1.42,2.52,7.66,7.66,0,0,1-2.48,1.77,7.07,7.07,0,0,1-3.21.7,5.44,5.44,0,0,1-2.81-.82,5.24,5.24,0,0,1-2.3-5.2,6,6,0,0,1,1.4-2.8,8.45,8.45,0,0,1,3-2.12,10.66,10.66,0,0,1,2-.69,10.9,10.9,0,0,1,2.14-.27l-.12-.26a2.15,2.15,0,0,0-1.06-1.08,3.47,3.47,0,0,0-1.71-.28,5.92,5.92,0,0,0-2.06.55,7.62,7.62,0,0,0-2,1.28,6.79,6.79,0,0,0-1.4,1.74L650.22,275a21.16,21.16,0,0,1,2.95-2.77,16,16,0,0,1,3.13-1.91,10.25,10.25,0,0,1,4.8-1,7.57,7.57,0,0,1,4.1,1.43,9.15,9.15,0,0,1,2.91,3.71Zm-10.76.1a3.69,3.69,0,0,0,1.27-1,3.78,3.78,0,0,0,.77-1.33,1.62,1.62,0,0,0,0-1.21v0a5.53,5.53,0,0,0-1.51.06,6,6,0,0,0-1.49.46,3.23,3.23,0,0,0-1.43,1.1,1.3,1.3,0,0,0-.11,1.3,1.39,1.39,0,0,0,.58.64,1.69,1.69,0,0,0,.9.22A2.68,2.68,0,0,0,661.2,282.93Z"/>
    <path d="M691.89,273.75l-5.17,2.36-1.25-1.94A7.73,7.73,0,0,1,684,277a7.26,7.26,0,0,1-2.62,2,7.07,7.07,0,0,1-4.19.61,8.08,8.08,0,0,1-3.9-1.79,11.35,11.35,0,0,1-3.9-8.56,8.07,8.07,0,0,1,1.2-4.12,7.09,7.09,0,0,1,3.21-2.77,7.36,7.36,0,0,1,2.85-.69,7.11,7.11,0,0,1,2.79.44l-4.37-9.6,5.9-2.69Zm-11.11-.93a3.45,3.45,0,0,0,1.32-1,3.17,3.17,0,0,0,.62-1.46,2.81,2.81,0,0,0-.26-1.62l-.27-.6a2.72,2.72,0,0,0-1-1.22,3.13,3.13,0,0,0-1.5-.48,3.42,3.42,0,0,0-1.64.33,3.2,3.2,0,0,0-1.34,1.08,3,3,0,0,0-.56,1.56,3.38,3.38,0,0,0,.33,1.74,3.49,3.49,0,0,0,1.09,1.4,3,3,0,0,0,1.55.59A3.19,3.19,0,0,0,680.78,272.82Z"/>
    <path d="M705,248.44l.89,18.92L700.2,270l-13.69-13.08,6.31-2.87,7.56,8.76-1.65-11.46Z"/>
    <path d="M721.83,260.49a10.23,10.23,0,0,1-5,1A9.05,9.05,0,0,1,710.24,247a10.85,10.85,0,0,1,9-4.09,8.92,8.92,0,0,1,4.43,1.56,9.6,9.6,0,0,1,3.9,8.55,8.85,8.85,0,0,1-1.73,4.37A10.17,10.17,0,0,1,721.83,260.49Zm-2.44-5.27a2.69,2.69,0,0,0,1.19-1,3,3,0,0,0,.45-1.52,3.91,3.91,0,0,0-.38-1.75,3.84,3.84,0,0,0-1-1.39,3.08,3.08,0,0,0-1.43-.64,2.71,2.71,0,0,0-1.55.23,2.77,2.77,0,0,0-1.19,1,2.94,2.94,0,0,0-.45,1.5,3.51,3.51,0,0,0,.36,1.7,3.78,3.78,0,0,0,1.07,1.44,3,3,0,0,0,1.43.65A2.63,2.63,0,0,0,719.39,255.22Z"/>
    <path d="M746.28,245.69a9.12,9.12,0,0,1-1.91,3.55,10.39,10.39,0,0,1-3.55,2.59,10.17,10.17,0,0,1-5,1,8.79,8.79,0,0,1-7.53-5.31,9,9,0,0,1-.83-4.8,8.84,8.84,0,0,1,1.76-4.37,10.87,10.87,0,0,1,8.25-4.1,9.12,9.12,0,0,1,3.91.84l-1.78,5.2a3.92,3.92,0,0,0-1.73-.38,4.24,4.24,0,0,0-1.82.4,3.53,3.53,0,0,0-1.42,1.11A3,3,0,0,0,734,243a3.3,3.3,0,0,0,.31,1.74,3.45,3.45,0,0,0,1.12,1.41,3.17,3.17,0,0,0,1.6.58,3.55,3.55,0,0,0,1.78-.33,4.47,4.47,0,0,0,1.5-1.12,3.82,3.82,0,0,0,.84-1.55Z"/>
    <path d="M764.93,240.45l-5.16,2.35-1.09-1.62a6.43,6.43,0,0,1-1.43,2.51,7.33,7.33,0,0,1-2.47,1.77,7.24,7.24,0,0,1-3.22.71,5.6,5.6,0,0,1-2.81-.83,5.21,5.21,0,0,1-2.29-5.2,5.87,5.87,0,0,1,1.4-2.79,8.52,8.52,0,0,1,2.94-2.13,10.87,10.87,0,0,1,4.18-1l-.11-.25a2.18,2.18,0,0,0-1.06-1.08,3.49,3.49,0,0,0-1.72-.29,6,6,0,0,0-2.06.56,7.71,7.71,0,0,0-1.95,1.27,6.92,6.92,0,0,0-1.4,1.74l-3.48-3.65a21.2,21.2,0,0,1,2.95-2.77,16,16,0,0,1,3.12-1.91,10.3,10.3,0,0,1,4.8-1,7.52,7.52,0,0,1,4.1,1.44,9.05,9.05,0,0,1,2.91,3.7Zm-10.75.09a3.78,3.78,0,0,0,1.27-1,4,4,0,0,0,.77-1.34,1.67,1.67,0,0,0,0-1.21v0a5.24,5.24,0,0,0-1.52.07,6.27,6.27,0,0,0-1.49.45,3.33,3.33,0,0,0-1.42,1.1,1.28,1.28,0,0,0-.11,1.3,1.41,1.41,0,0,0,.58.65,1.67,1.67,0,0,0,.9.21A2.55,2.55,0,0,0,754.18,240.54Z"/>
    <path d="M781.34,229.7a8.88,8.88,0,0,1-1.92,3.55,10.77,10.77,0,0,1-8.52,3.56,8.88,8.88,0,0,1-4.46-1.54,9.6,9.6,0,0,1-3.9-8.56,8.84,8.84,0,0,1,1.76-4.37,10.78,10.78,0,0,1,8.25-4.1,9.12,9.12,0,0,1,3.91.84l-1.78,5.2a3.79,3.79,0,0,0-1.73-.38,4.38,4.38,0,0,0-1.82.39,3.64,3.64,0,0,0-1.42,1.12,3,3,0,0,0-.62,1.56,3.32,3.32,0,0,0,.31,1.75,3.49,3.49,0,0,0,1.12,1.4,3.09,3.09,0,0,0,1.6.59,3.56,3.56,0,0,0,1.78-.34,4.22,4.22,0,0,0,1.5-1.12,3.76,3.76,0,0,0,.84-1.55Z"/>
    <path d="M798.65,234.74l-6.24,2.84-.33-9.45L776.4,215.9l6.72-3.06,8.69,7.32-.39-11.11,6.24-2.84Z"/>
    <path d="M808.3,221.07a2.66,2.66,0,0,1-3.73-1.4,2.81,2.81,0,1,1,5.26-.15A2.8,2.8,0,0,1,808.3,221.07Z"/>
    <path d="M821.35,215.12a10.25,10.25,0,0,1-5,1,8.76,8.76,0,0,1-4.45-1.55A9.51,9.51,0,0,1,808,206a8.82,8.82,0,0,1,1.75-4.38,10.85,10.85,0,0,1,9-4.09,8.92,8.92,0,0,1,4.43,1.56,9.6,9.6,0,0,1,3.9,8.56,8.87,8.87,0,0,1-1.74,4.36A10.07,10.07,0,0,1,821.35,215.12Zm-2.44-5.27a2.69,2.69,0,0,0,1.19-1,3,3,0,0,0,.45-1.52,3.92,3.92,0,0,0-.39-1.75,3.8,3.8,0,0,0-1-1.39,3.11,3.11,0,0,0-1.44-.64,2.68,2.68,0,0,0-1.54.23,2.77,2.77,0,0,0-1.19,1,3,3,0,0,0-.46,1.5,3.75,3.75,0,0,0,.36,1.7,4,4,0,0,0,1.07,1.44,2.94,2.94,0,0,0,1.44.65A2.63,2.63,0,0,0,818.91,209.85Z"/>
    <path d="M838.17,207.06l-5.9,2.69-7.29-16,5.12-2.34,1.33,2.43a6.41,6.41,0,0,1,1.13-3,6.33,6.33,0,0,1,2.59-2.08,8.54,8.54,0,0,1,1.17-.43,12.79,12.79,0,0,1,1.29-.27l1.69,5.65a7.56,7.56,0,0,0-2.35.61,4.31,4.31,0,0,0-1.8,1.41,3.57,3.57,0,0,0-.7,2,4.88,4.88,0,0,0,.49,2.3Z"/>
    <path d="M852.94,200.71a7.11,7.11,0,0,1-4.2.61,8.08,8.08,0,0,1-3.9-1.79,11.35,11.35,0,0,1-3.9-8.57,8.16,8.16,0,0,1,1.2-4.11,7.26,7.26,0,0,1,3.21-2.77,7.38,7.38,0,0,1,3.21-.69,7.47,7.47,0,0,1,3.11.73L851,181.9l5.16-2.36,7.08,15.53a9.38,9.38,0,0,1,.87,5.17,9.17,9.17,0,0,1-2,4.65,12.52,12.52,0,0,1-4.66,3.44,14,14,0,0,1-8.57,1l.11-5.9a7.29,7.29,0,0,0,5.59-.15,5.59,5.59,0,0,0,2.05-1.52,4.15,4.15,0,0,0,.94-2,3.76,3.76,0,0,0-.32-2.2l-.4-.88a7.34,7.34,0,0,1-1.49,2.39A7.24,7.24,0,0,1,852.94,200.71Zm-.59-6.1a3.51,3.51,0,0,0,1.33-1,3,3,0,0,0,.61-1.45,2.82,2.82,0,0,0-.26-1.6l-.29-.66a2.75,2.75,0,0,0-1-1.21,3.12,3.12,0,0,0-1.5-.47,3.49,3.49,0,0,0-1.62.33,3.35,3.35,0,0,0-1.34,1.08,3.14,3.14,0,0,0-.56,1.56,3.44,3.44,0,0,0,.33,1.75,3.48,3.48,0,0,0,1.1,1.39,3.12,3.12,0,0,0,1.55.6A3.38,3.38,0,0,0,852.35,194.61Z"/>
  </g>
</svg>
