<svg id="Calque_1" data-name="Calque 1" xmlns="http://www.w3.org/2000/svg" width="911.74" height="332.22" viewBox="0 0 911.74 332.22"><rect width="911.74" height="332.22" rx="9.06" style="fill:#fff;opacity:0"/><path d="M313.51,149.31a9.91,9.91,0,0,0-3.2-.45h-6.14v8h5.4a11.77,11.77,0,0,0,3.59-.48,4.74,4.74,0,0,0,2.25-1.39,3.25,3.25,0,0,0,.77-2.21,3.44,3.44,0,0,0-.67-2.17A4.13,4.13,0,0,0,313.51,149.31Z" style="fill:#cd4c1d"/><path d="M313.51,212.58a9.93,9.93,0,0,0-3.2-.44h-6.14v8h5.4a11.77,11.77,0,0,0,3.59-.48,4.74,4.74,0,0,0,2.25-1.39,3.27,3.27,0,0,0,.77-2.21,3.49,3.49,0,0,0-.67-2.18A4.2,4.2,0,0,0,313.51,212.58Z" style="fill:#cd4c1d"/><path d="M312.8,138.83a3.55,3.55,0,0,0,1.44-3,3.37,3.37,0,0,0-1.45-2.87,6.82,6.82,0,0,0-4.05-1h-4.57v8h4.57A6.72,6.72,0,0,0,312.8,138.83Z" style="fill:#cd4c1d"/><path d="M346,217.6a5.64,5.64,0,0,0-3.07.73,2.24,2.24,0,0,0-1.13,2,2.46,2.46,0,0,0,.46,1.46,3.07,3.07,0,0,0,1.28,1,4.54,4.54,0,0,0,1.84.35,6.53,6.53,0,0,0,2.74-.61,6.91,6.91,0,0,0,2.21-1.58,2.94,2.94,0,0,0,.86-1.95v0a9.91,9.91,0,0,0-2.47-1A10.59,10.59,0,0,0,346,217.6Z" style="fill:#cd4c1d"/><path d="M355.87,94a5.83,5.83,0,0,0,2.8.68,5.66,5.66,0,0,0,2.95-.76,5.43,5.43,0,0,0,2-2.08,6.74,6.74,0,0,0,0-6.06,5.53,5.53,0,0,0-2-2.09,6.14,6.14,0,0,0-5.75-.07,5.41,5.41,0,0,0-2,1.88A6.08,6.08,0,0,0,353,88.3v1.15a5.84,5.84,0,0,0,.88,2.7A5.47,5.47,0,0,0,355.87,94Z" style="fill:#cd4c1d"/><path d="M312.8,202.11a3.56,3.56,0,0,0,1.44-3,3.38,3.38,0,0,0-1.45-2.88,6.82,6.82,0,0,0-4.05-1.05h-4.57v8h4.57A6.72,6.72,0,0,0,312.8,202.11Z" style="fill:#cd4c1d"/><polygon points="313.65 72.14 308.86 85.37 318.47 85.37 313.65 72.14" style="fill:#cd4c1d"/><path d="M395,94a5.76,5.76,0,0,0,2.79.68,5.64,5.64,0,0,0,3-.76,5.29,5.29,0,0,0,2-2.08,6.65,6.65,0,0,0,0-6.06,5.38,5.38,0,0,0-2-2.09,5.73,5.73,0,0,0-3-.75,5.65,5.65,0,0,0-2.79.68,5.27,5.27,0,0,0-2,1.88,6,6,0,0,0-.88,2.78v1.15a5.72,5.72,0,0,0,.88,2.7A5.32,5.32,0,0,0,395,94Z" style="fill:#cd4c1d"/><path d="M253.53,21.54h-55.9l-15.28,86.27H140.77l15.28-86.27H100.34L85.06,107.81H47.73l-7.54,46.42H76.74L68.62,201h-35l-7.16,46.42H60.3L49.08,311.67h55.71l11.41-64.21h41.59l-11.41,64.21h55.9l11.41-64.21h39.55v64.21H734.79V21.54ZM165.91,201H124.33l8.31-46.81h41.59Zm87.33,0H221.81l8.32-46.81h23.11Zm0-93.23h-15l15-84.63ZM438.81,80.35a15.57,15.57,0,0,1,5.89-5.55,17.23,17.23,0,0,1,8.42-2A16.21,16.21,0,0,1,461.74,75a15.44,15.44,0,0,1,5.78,6.27,20.23,20.23,0,0,1,2.07,9.33v1H448.88a7.63,7.63,0,0,0,1.55,2.18,7.25,7.25,0,0,0,2.47,1.56,9.4,9.4,0,0,0,3.46.58,13.89,13.89,0,0,0,8.25-2.78l3,7.88A22.1,22.1,0,0,1,455,104.89a19.88,19.88,0,0,1-9.37-2.17,17.14,17.14,0,0,1-6.58-6,15.3,15.3,0,0,1-2.43-8.47A14.84,14.84,0,0,1,438.81,80.35Zm-19-23.65H432v47.58H419.78ZM380.67,73.38h10l.58,4A13.11,13.11,0,0,1,395.67,74a13,13,0,0,1,5.6-1.22,12.61,12.61,0,0,1,7.17,2.09,14.29,14.29,0,0,1,4.91,5.71,19.88,19.88,0,0,1,0,16.53,14.32,14.32,0,0,1-4.91,5.72,12.6,12.6,0,0,1-7.17,2.08,12.81,12.81,0,0,1-5-1,13.31,13.31,0,0,1-4.14-2.73v18.53H380.67Zm-39.12,0h10l.59,4a12.89,12.89,0,0,1,10-4.64,12.61,12.61,0,0,1,7.17,2.09,14.37,14.37,0,0,1,4.91,5.71,20,20,0,0,1,0,16.53,14.4,14.4,0,0,1-4.91,5.72,12.6,12.6,0,0,1-7.17,2.08,12.9,12.9,0,0,1-5-1,13.55,13.55,0,0,1-4.14-2.73v18.53H341.55Zm16.16,63.34L356.29,147a13.43,13.43,0,0,0-4.2-.75,7.73,7.73,0,0,0-3.91,1,6.42,6.42,0,0,0-2.55,2.64,8.53,8.53,0,0,0-.9,4.05v13.68h-11.4V136.66h9.89l.37,4.85a11.2,11.2,0,0,1,4-4,11.09,11.09,0,0,1,5.65-1.43,13.64,13.64,0,0,1,2.19.17A15.6,15.6,0,0,1,357.71,136.72ZM307.26,57.93h12.82l18.07,46.35H325.33l-3-8.25H305l-3,8.25H289.15Zm19.49,166.7a12.76,12.76,0,0,1-5.53,4.58,20.4,20.4,0,0,1-8.46,1.62H291.93V184.48h17.64q8,0,12.36,3.25a10.75,10.75,0,0,1,4.36,9.17,11.59,11.59,0,0,1-1.49,5.89,10.63,10.63,0,0,1-4,4,11.52,11.52,0,0,1,5.84,4,11.11,11.11,0,0,1,2.07,6.83A12.32,12.32,0,0,1,326.75,224.63Zm0-63.27a12.74,12.74,0,0,1-5.53,4.57,20.4,20.4,0,0,1-8.46,1.62H291.93V121.21h17.64q8,0,12.36,3.24a10.75,10.75,0,0,1,4.36,9.18,11.58,11.58,0,0,1-1.49,5.88,10.66,10.66,0,0,1-4,4,11.5,11.5,0,0,1,5.84,4,11.13,11.13,0,0,1,2.07,6.83A12.36,12.36,0,0,1,326.75,161.36Zm35.9,69.47h-10l-.55-3.4a11.39,11.39,0,0,1-4.11,3,13.19,13.19,0,0,1-5.25,1,12.66,12.66,0,0,1-5.66-1.22,9.77,9.77,0,0,1-3.89-3.37,9.19,9.19,0,0,1,.12-10,10.37,10.37,0,0,1,4.28-3.44,14.79,14.79,0,0,1,6.26-1.25,19,19,0,0,1,3.77.38,20.13,20.13,0,0,1,3.61,1.13v-.49a3.77,3.77,0,0,0-.91-2.51,6.14,6.14,0,0,0-2.53-1.7,10.39,10.39,0,0,0-3.69-.61,13.51,13.51,0,0,0-4.07.61,11.77,11.77,0,0,0-3.5,1.77l-2.91-8.38a36.69,36.69,0,0,1,6.74-2.28,28,28,0,0,1,6.39-.78,18,18,0,0,1,8.42,1.87,13.35,13.35,0,0,1,5.52,5.29,16,16,0,0,1,1.94,8Zm-1.06-70.46a15.93,15.93,0,0,1,6-22.25,17.82,17.82,0,0,1,8.7-2.08,17.58,17.58,0,0,1,8.63,2.08,15.44,15.44,0,0,1,5.95,5.72,16.89,16.89,0,0,1,0,16.53,15.41,15.41,0,0,1-5.95,5.71,17.58,17.58,0,0,1-8.63,2.09,17.83,17.83,0,0,1-8.7-2.09A15.52,15.52,0,0,1,361.59,160.37Zm38.73,70.46H388.91V215.94a8.14,8.14,0,0,0-1.18-4.76,3.94,3.94,0,0,0-3.39-1.67,4.08,4.08,0,0,0-3.49,1.68,8,8,0,0,0-1.23,4.75v14.89H368.21v-30.9h9l.37,4.91a10.91,10.91,0,0,1,4.28-4.12,12.94,12.94,0,0,1,6.19-1.41q5.75,0,9,3.57t3.25,9.94Zm24.74-63.28-3.58-16-3.58,16h-13l-10-30.89h12.05l4.29,19.43,5.38-19.43h9.76l5.38,19.55L436,136.66h12.05l-10,30.89Zm35.86-20.47a6.06,6.06,0,0,0,1.64.93c.69.28,1.44.57,2.27.88a40.85,40.85,0,0,1,4.26,1.75,10.86,10.86,0,0,1,3.72,2.84,7.29,7.29,0,0,1,1.53,4.87,8.45,8.45,0,0,1-1.65,5.2A10.64,10.64,0,0,1,468,167a19.25,19.25,0,0,1-7.13,1.2,26.45,26.45,0,0,1-12.82-3.24l2.35-9.4a9,9,0,0,0,2.49,1.92,17,17,0,0,0,3.6,1.5,12.77,12.77,0,0,0,3.58.57,3.81,3.81,0,0,0,1.88-.37,1.15,1.15,0,0,0,.65-1.05,1.52,1.52,0,0,0-.61-1.22,6.54,6.54,0,0,0-1.66-.94c-.69-.29-1.48-.59-2.36-.9-1.32-.47-2.7-1.06-4.16-1.75a10.75,10.75,0,0,1-3.69-2.84,7.27,7.27,0,0,1-1.51-4.83,8.45,8.45,0,0,1,1.56-5.09,10,10,0,0,1,4.42-3.32,17.63,17.63,0,0,1,6.72-1.17,29.11,29.11,0,0,1,13,3.24L471.16,148a11.58,11.58,0,0,0-2.59-1.63,21.67,21.67,0,0,0-3.29-1.27,10.62,10.62,0,0,0-2.92-.49,2.66,2.66,0,0,0-1.53.35,1.12,1.12,0,0,0-.51,1A1.51,1.51,0,0,0,460.92,147.08Zm48.83,7.8h-20.7a7.31,7.31,0,0,0,1.55,2.18,7.15,7.15,0,0,0,2.47,1.56,9.39,9.39,0,0,0,3.46.59,14,14,0,0,0,8.25-2.78l3,7.88a22.15,22.15,0,0,1-12.54,3.86,19.93,19.93,0,0,1-9.38-2.18,17.05,17.05,0,0,1-6.58-6,15.26,15.26,0,0,1-2.42-8.46,14.87,14.87,0,0,1,2.16-8,15.59,15.59,0,0,1,5.88-5.54,17.26,17.26,0,0,1,8.42-2,16.27,16.27,0,0,1,8.62,2.25,15.46,15.46,0,0,1,5.78,6.28,20,20,0,0,1,2.07,9.33Zm27.59-7.9a13.33,13.33,0,0,0-4.2-.75,7.76,7.76,0,0,0-3.91,1,6.42,6.42,0,0,0-2.55,2.64,8.65,8.65,0,0,0-.89,4.05v13.68h-11.4V136.66h9.88l.37,4.85a10.8,10.8,0,0,1,9.67-5.47,13.76,13.76,0,0,1,2.2.17,15.77,15.77,0,0,1,2.25.51Z" style="fill:#cd4c1d"/><path d="M380.68,155.12a6.91,6.91,0,0,0,.67-3.08,6.57,6.57,0,0,0-.67-3,5.31,5.31,0,0,0-1.82-2.07,4.75,4.75,0,0,0-2.64-.76,4.8,4.8,0,0,0-2.65.76,5.31,5.31,0,0,0-1.82,2.07,6.56,6.56,0,0,0-.66,3,6.9,6.9,0,0,0,.66,3.08,5.26,5.26,0,0,0,1.82,2.1,4.8,4.8,0,0,0,2.65.75,4.74,4.74,0,0,0,2.64-.75A5.26,5.26,0,0,0,380.68,155.12Z" style="fill:#cd4c1d"/><path d="M496.51,145.94a5.53,5.53,0,0,0-2.64-.63,4.79,4.79,0,0,0-2.59.68,5.34,5.34,0,0,0-1.81,1.79,6.71,6.71,0,0,0-.94,2.47h10.78a5.83,5.83,0,0,0-.88-2.56A5.13,5.13,0,0,0,496.51,145.94Z" style="fill:#cd4c1d"/><path d="M458.26,84.41a5.19,5.19,0,0,0-1.91-1.75A5.6,5.6,0,0,0,453.7,82a4.9,4.9,0,0,0-2.59.68,5.53,5.53,0,0,0-1.81,1.79,7,7,0,0,0-.94,2.47h10.78A5.63,5.63,0,0,0,458.26,84.41Z" style="fill:#cd4c1d"/><g id="Layer_2" data-name="Layer 2"><g id="Layer_1-2" data-name="Layer 1-2"><path d="M771.35,311.53a14.73,14.73,0,0,1-6-1.23,15.66,15.66,0,0,1-8.27-8.21,15.5,15.5,0,0,1,0-12,15.77,15.77,0,0,1,8.27-8.27,15.54,15.54,0,0,1,12.07,0,15.7,15.7,0,0,1,8.25,8.27A15.39,15.39,0,0,1,782.32,307a15.89,15.89,0,0,1-4.93,3.29A14.92,14.92,0,0,1,771.35,311.53Zm0-8.1a7.45,7.45,0,0,0,2.95-.57,8.06,8.06,0,0,0,2.46-1.57,7.64,7.64,0,0,0,1.75-2.36,6.73,6.73,0,0,0,0-5.72,7.85,7.85,0,0,0-1.75-2.37,7.75,7.75,0,0,0-8.33-1.59,7.49,7.49,0,0,0-2.46,1.59,8.21,8.21,0,0,0-1.67,2.37,6.73,6.73,0,0,0,0,5.72,8.16,8.16,0,0,0,1.67,2.36,7.76,7.76,0,0,0,2.46,1.57,7.89,7.89,0,0,0,2.92.55Z" style="fill:#cd4c1d"/><path d="M757.6,279.84a1,1,0,0,1-.88,0,.64.64,0,0,1-.34-.64v-6.66a1.19,1.19,0,0,1,.25-.77,1.29,1.29,0,0,1,.64-.49l13.62-4.67c.28-.08.41-.22.41-.43s-.13-.34-.41-.43l-13.56-4.48a1.26,1.26,0,0,1-.68-.5,1.31,1.31,0,0,1-.26-.88v-5.42a1.39,1.39,0,0,1,.26-.81,1.29,1.29,0,0,1,.68-.49l13.66-4.5c.27-.08.4-.22.4-.43s-.13-.36-.4-.47l-13.72-4.7a1.72,1.72,0,0,1-.64-.53,1.39,1.39,0,0,1-.25-.88v-6.52a.62.62,0,0,1,.34-.62,1,1,0,0,1,.71,0l27.94,9.91a1.43,1.43,0,0,1,.94,1.4v5.28a1.42,1.42,0,0,1-.26.87,1.3,1.3,0,0,1-.68.5L771.75,257c-.28.08-.42.22-.42.43s.14.34.42.43l13.62,4.5a1.28,1.28,0,0,1,.68.49,1.43,1.43,0,0,1,.26.88V269a1.42,1.42,0,0,1-.94,1.27Z" style="fill:#cd4c1d"/><path d="M757.32,226.3a1.59,1.59,0,0,1-.88-1.43v-5.68a1.34,1.34,0,0,1,.26-.8,1.65,1.65,0,0,1,.64-.56l27.81-11.93a.87.87,0,0,1,1.19.94v7a1.49,1.49,0,0,1-.28.88,1.75,1.75,0,0,1-.62.59l-2.49,1.1a1.76,1.76,0,0,0-.63.58,1.39,1.39,0,0,0-.26.8v8.63a1.6,1.6,0,0,0,.89,1.43l2.46,1.14a1.71,1.71,0,0,1,.64.55,1.55,1.55,0,0,1,.26.8v7a1.12,1.12,0,0,1-.09.44,1,1,0,0,1-.24.36.93.93,0,0,1-.4.19,1,1,0,0,1-.58-.13Zm17.78-2.41v-3.64a.69.69,0,0,0-.26-.6.61.61,0,0,0-.64,0c-.68.28-1.48.6-2.39,1l-2.59,1.06c-.23.11-.36.23-.36.37s.13.25.36.36l4.95,2a.72.72,0,0,0,.64,0A.64.64,0,0,0,775.1,223.89Z" style="fill:#cd4c1d"/><path d="M839.53,261.46H829a.87.87,0,0,0-.87.88v.1a55.79,55.79,0,0,0,1.68,11.06.9.9,0,0,0,.88.68h8.86a.88.88,0,0,0,.88-.88V262.38a.88.88,0,0,0-.83-.92Z" style="fill:#cd4c1d"/><path d="M839.53,243.31h-8.79a.89.89,0,0,0-.88.68,56.6,56.6,0,0,0-1.75,11.12.87.87,0,0,0,.78,1h10.64a.87.87,0,0,0,.88-.88v-11a.87.87,0,0,0-.88-.87Z" style="fill:#cd4c1d"/><path d="M839,228.44a18.5,18.5,0,0,0-6.15,7.32c-.14.27-.28.57-.43.88a.88.88,0,0,0,.32,1.2.92.92,0,0,0,.51.12h6.21a.87.87,0,0,0,.88-.88v-7.87a.88.88,0,0,0-1.34-.77Z" style="fill:#cd4c1d"/><path d="M839.53,279.52h-6.25a.88.88,0,0,0-.94.81.86.86,0,0,0,.12.5c.15.31.3.62.45.88a18.36,18.36,0,0,0,6.15,7.32.9.9,0,0,0,1.24-.15.94.94,0,0,0,.18-.63v-7.91a.87.87,0,0,0-.88-.87Z" style="fill:#cd4c1d"/><path d="M820.66,237.92h4.84a.91.91,0,0,0,.88-.59A39.43,39.43,0,0,1,829,231.9a.88.88,0,0,0-1.23-1.27h0a32.56,32.56,0,0,0-7.71,5.73.87.87,0,0,0-.14,1.23h0A.87.87,0,0,0,820.66,237.92Z" style="fill:#cd4c1d"/><path d="M811.83,256.08h10a.92.92,0,0,0,.88-.88,63,63,0,0,1,1.45-10.77.87.87,0,0,0-.61-1.08.62.62,0,0,0-.27,0h-8a.88.88,0,0,0-.81.47,31.24,31.24,0,0,0-3.56,11.25.86.86,0,0,0,.7,1l.09,0Z" style="fill:#cd4c1d"/><path d="M826.33,280.13a.94.94,0,0,0-.88-.59h-4.86a.89.89,0,0,0-1,.77.91.91,0,0,0,.32.79,32.84,32.84,0,0,0,7.79,5.81.87.87,0,0,0,1.24,0h0a.88.88,0,0,0,0-1.24v0h0A37.28,37.28,0,0,1,826.33,280.13Z" style="fill:#cd4c1d"/><path d="M859.93,237.33a.91.91,0,0,0,.88.59h4.88a.87.87,0,0,0,1-.76.85.85,0,0,0-.33-.8,32.71,32.71,0,0,0-7.7-5.73.9.9,0,0,0-1.26,0,.88.88,0,0,0,0,1.25h0A39.29,39.29,0,0,1,859.93,237.33Z" style="fill:#cd4c1d"/><path d="M824.19,273a64.3,64.3,0,0,1-1.44-10.7.92.92,0,0,0-.88-.88h-10a.92.92,0,0,0-.88,1v.07a31.28,31.28,0,0,0,3.52,11.18.86.86,0,0,0,.8.49h8a.89.89,0,0,0,.88-.88A1.93,1.93,0,0,0,824.19,273Z" style="fill:#cd4c1d"/><path d="M846.75,256.08H857.3a.87.87,0,0,0,.88-.88v-.1A55.81,55.81,0,0,0,856.47,244a.87.87,0,0,0-.87-.68h-8.85a.88.88,0,0,0-.87.88v10.93a.87.87,0,0,0,.79,1h.08Z" style="fill:#cd4c1d"/><path d="M862.08,244.43a63,63,0,0,1,1.45,10.77.87.87,0,0,0,.88.88h10.07a.87.87,0,0,0,.88-.88.48.48,0,0,0,0-.17,31.47,31.47,0,0,0-3.51-11.26.89.89,0,0,0-.81-.48h-8a.88.88,0,0,0-.93.83h0A1.6,1.6,0,0,0,862.08,244.43Z" style="fill:#cd4c1d"/><path d="M874.48,261.46h-10a.91.91,0,0,0-.87.88,64.24,64.24,0,0,1-1.4,10.7.87.87,0,0,0,.6,1.08.66.66,0,0,0,.28,0h8.05a.89.89,0,0,0,.81-.48,31.52,31.52,0,0,0,3.51-11.19.87.87,0,0,0-.71-1h0Z" style="fill:#cd4c1d"/><path d="M865.69,279.52h-4.87a.88.88,0,0,0-.88.59,39.7,39.7,0,0,1-2.64,5.5.88.88,0,0,0,1.23,1.27h0a32.31,32.31,0,0,0,7.79-5.81.87.87,0,0,0,.12-1.23h0A.88.88,0,0,0,865.69,279.52Z" style="fill:#cd4c1d"/><path d="M846.75,237.92H853a.87.87,0,0,0,.94-.81.88.88,0,0,0-.12-.5l-.42-.88a18.21,18.21,0,0,0-6.15-7.32.87.87,0,0,0-1.41.77V237a.86.86,0,0,0,.79.95A.38.38,0,0,0,846.75,237.92Z" style="fill:#cd4c1d"/><path d="M853,279.52h-6.25a.87.87,0,0,0-.87.88v7.91a.88.88,0,0,0,1.41.77,18.43,18.43,0,0,0,6.15-7.32c.16-.3.31-.61.46-.92a.89.89,0,0,0-.38-1.19,1,1,0,0,0-.5-.09Z" style="fill:#cd4c1d"/><path d="M857.27,261.46H846.72a.87.87,0,0,0-.88.88v10.89a.87.87,0,0,0,.88.88h8.85a.88.88,0,0,0,.88-.67,57.32,57.32,0,0,0,1.69-11.05.88.88,0,0,0-.83-.93h0Z" style="fill:#cd4c1d"/><path d="M878.59,205.83H807.73a12.7,12.7,0,0,0-12.7,12.7V299a12.7,12.7,0,0,0,12.7,12.69h70.86A12.69,12.69,0,0,0,891.28,299V218.53A12.69,12.69,0,0,0,878.59,205.83Zm-35.43,90.46a37.54,37.54,0,1,1,37.54-37.54,37.54,37.54,0,0,1-37.54,37.54Z" style="fill:#cd4c1d"/></g></g><path d="M772.05,188.67v-7.84a18.46,18.46,0,0,1,18.46-18.46h0A17.58,17.58,0,0,1,808.09,180v20.47a1.9,1.9,0,0,0,1.89,1.9h11a1.88,1.88,0,0,0,1.9-1.88V180a32.32,32.32,0,0,0-32.31-32.34h0a34.08,34.08,0,0,0-34.08,34.08h0v6.89a3.09,3.09,0,0,0,3.09,3.11h9.41a3.11,3.11,0,0,0,3.11-3.11Z" style="fill:#cd4c1d"/></svg>