<svg id="Calque_1" data-name="Calque 1" xmlns="http://www.w3.org/2000/svg" width="384.92" height="384.92" viewBox="0 0 384.92 384.92"><circle cx="192.46" cy="192.46" r="192.46" style="fill:#cd4c1d"/><g id="Layer_2" data-name="Layer 2"><g id="Layer_1-2" data-name="Layer 1-2"><path d="M174.48,304.85a17.45,17.45,0,0,1-7.12-1.45,18.55,18.55,0,0,1-9.76-9.7,18.29,18.29,0,0,1,0-14.19,18.62,18.62,0,0,1,9.76-9.76,17.77,17.77,0,0,1,7.12-1.44,18,18,0,0,1,7.13,1.44,18.5,18.5,0,0,1,9.73,9.76,18.14,18.14,0,0,1-3.92,20,18.67,18.67,0,0,1-5.81,3.88A17.52,17.52,0,0,1,174.48,304.85Zm0-9.56a9,9,0,0,0,3.48-.67,9.41,9.41,0,0,0,2.9-1.86,9,9,0,0,0,2.07-2.78,8,8,0,0,0,0-6.75A9.42,9.42,0,0,0,171,278.55a9,9,0,0,0-2.91,1.88,9.52,9.52,0,0,0-2,2.8,8,8,0,0,0,0,6.75,9.38,9.38,0,0,0,2,2.78,9.09,9.09,0,0,0,6.35,2.5Z" transform="translate(-19.94 -20.01)" style="fill:#fff"/><path d="M158.25,267.45a1.19,1.19,0,0,1-1,0,.79.79,0,0,1-.4-.76v-7.86a1.42,1.42,0,0,1,.3-.91,1.54,1.54,0,0,1,.75-.58l16.07-5.51c.33-.09.49-.26.49-.51s-.16-.4-.49-.5l-16-5.29a1.46,1.46,0,0,1-.81-.59,1.53,1.53,0,0,1-.3-1v-6.4a1.65,1.65,0,0,1,.3-1,1.49,1.49,0,0,1,.81-.58l16.11-5.31c.33-.09.48-.26.48-.51s-.15-.42-.48-.56l-16.19-5.53a2,2,0,0,1-.75-.64,1.64,1.64,0,0,1-.3-1v-7.7a.74.74,0,0,1,.4-.73,1.21,1.21,0,0,1,.84,0l33,11.69a1.66,1.66,0,0,1,.8.63,1.59,1.59,0,0,1,.31,1v6.23a1.59,1.59,0,0,1-.31,1,1.42,1.42,0,0,1-.8.58L175,240.46c-.33.11-.49.26-.49.51s.16.41.49.51L191,246.79a1.47,1.47,0,0,1,.8.58,1.62,1.62,0,0,1,.31,1v6.22a1.67,1.67,0,0,1-1.11,1.5Z" transform="translate(-19.94 -20.01)" style="fill:#fff"/><path d="M157.92,204.26a1.83,1.83,0,0,1-.73-.65,1.71,1.71,0,0,1-.31-1v-6.71a1.63,1.63,0,0,1,.31-1,1.84,1.84,0,0,1,.76-.65l32.81-14.09a1.05,1.05,0,0,1,.93.08,1,1,0,0,1,.47,1v8.3a1.69,1.69,0,0,1-.32,1,2,2,0,0,1-.73.69l-2.94,1.3a2.16,2.16,0,0,0-.75.69,1.79,1.79,0,0,0-.31.95v10.17a1.92,1.92,0,0,0,.31,1,1.63,1.63,0,0,0,.75.65l2.9,1.35a1.82,1.82,0,0,1,.75.65,1.63,1.63,0,0,1,.31.95v8.3a1.44,1.44,0,0,1-.1.5,1,1,0,0,1-.28.43.93.93,0,0,1-1.16.07Zm21-2.85v-4.29a.81.81,0,0,0-.31-.7.7.7,0,0,0-.76,0c-.8.32-1.74.7-2.82,1.16L172,198.83c-.28.13-.43.27-.43.44s.15.3.43.42l5.84,2.42a.85.85,0,0,0,.76,0A.77.77,0,0,0,178.91,201.41Z" transform="translate(-19.94 -20.01)" style="fill:#fff"/><path d="M254.94,245.75H242.5a1,1,0,0,0-1,1v.13a66.1,66.1,0,0,0,2,13,1,1,0,0,0,1,.8h10.45a1,1,0,0,0,1-1V246.84a1,1,0,0,0-1-1.09Z" transform="translate(-19.94 -20.01)" style="fill:#fff"/><path d="M254.94,224.34H244.57a1,1,0,0,0-1,.79,66.36,66.36,0,0,0-2.07,13.14,1,1,0,0,0,.92,1.14h12.56a1,1,0,0,0,1-1v-13a1,1,0,0,0-1-1Z" transform="translate(-19.94 -20.01)" style="fill:#fff"/><path d="M254.36,206.79a21.91,21.91,0,0,0-7.26,8.64l-.5,1a1,1,0,0,0,.38,1.42,1,1,0,0,0,.6.14h7.33a1,1,0,0,0,1-1V207.7a1,1,0,0,0-1.59-.91Z" transform="translate(-19.94 -20.01)" style="fill:#fff"/><path d="M254.94,267.07h-7.37a1,1,0,0,0-1.11,1,1.06,1.06,0,0,0,.13.58c.18.38.37.74.54,1a21.74,21.74,0,0,0,7.26,8.64,1,1,0,0,0,1.46-.18,1,1,0,0,0,.21-.73V268a1,1,0,0,0-1-1Z" transform="translate(-19.94 -20.01)" style="fill:#fff"/><path d="M232.68,218h5.71a1.09,1.09,0,0,0,1-.7,46.76,46.76,0,0,1,3.11-6.41,1,1,0,1,0-1.45-1.5h0a38.39,38.39,0,0,0-9.1,6.76,1,1,0,0,0-.17,1.46h0A1,1,0,0,0,232.68,218Z" transform="translate(-19.94 -20.01)" style="fill:#fff"/><path d="M222.25,239.41h11.82a1.09,1.09,0,0,0,1-1,75.81,75.81,0,0,1,1.71-12.72,1,1,0,0,0-.71-1.27.86.86,0,0,0-.32,0h-9.44a1,1,0,0,0-1,.56,37,37,0,0,0-4.21,13.27,1,1,0,0,0,.83,1.21l.11,0Z" transform="translate(-19.94 -20.01)" style="fill:#fff"/><path d="M239.37,267.79a1.1,1.1,0,0,0-1-.69h-5.74a1,1,0,0,0-.78,1.83,38.73,38.73,0,0,0,9.19,6.86,1,1,0,0,0,1.47,0h0a1,1,0,0,0,0-1.47h0A42.8,42.8,0,0,1,239.37,267.79Z" transform="translate(-19.94 -20.01)" style="fill:#fff"/><path d="M279,217.28a1.08,1.08,0,0,0,1,.7h5.77a1,1,0,0,0,1.16-.9,1.06,1.06,0,0,0-.39-1,38.87,38.87,0,0,0-9.1-6.76,1,1,0,0,0-1.48,0,1,1,0,0,0,0,1.47h0A46,46,0,0,1,279,217.28Z" transform="translate(-19.94 -20.01)" style="fill:#fff"/><path d="M236.83,259.42a75.62,75.62,0,0,1-1.69-12.63,1.09,1.09,0,0,0-1-1H222.25a1.1,1.1,0,0,0-1,1.13V247a37.22,37.22,0,0,0,4.15,13.2,1,1,0,0,0,1,.57h9.47a1,1,0,0,0,1-1A.87.87,0,0,0,236.83,259.42Z" transform="translate(-19.94 -20.01)" style="fill:#fff"/><path d="M263.47,239.41h12.45a1,1,0,0,0,1-1v-.12a66.28,66.28,0,0,0-2-13.13,1,1,0,0,0-1-.79H263.47a1,1,0,0,0-1,1v12.91a1,1,0,0,0,.94,1.13h.1Z" transform="translate(-19.94 -20.01)" style="fill:#fff"/><path d="M281.56,225.65a75.81,75.81,0,0,1,1.71,12.72,1,1,0,0,0,1,1h11.88a1,1,0,0,0,1-1v-.2a37.07,37.07,0,0,0-4.15-13.29,1,1,0,0,0-.95-.56h-9.47a1,1,0,0,0-1.1,1h0A1.09,1.09,0,0,0,281.56,225.65Z" transform="translate(-19.94 -20.01)" style="fill:#fff"/><path d="M296.19,245.75H284.36a1.1,1.1,0,0,0-1,1,74.54,74.54,0,0,1-1.65,12.63,1,1,0,0,0,.72,1.28h9.82a1,1,0,0,0,1-.57,37,37,0,0,0,4.15-13.2,1,1,0,0,0-.84-1.21h0A1.33,1.33,0,0,0,296.19,245.75Z" transform="translate(-19.94 -20.01)" style="fill:#fff"/><path d="M285.82,267.07h-5.76a1,1,0,0,0-1,.69,46.71,46.71,0,0,1-3.11,6.5,1,1,0,0,0,0,1.47,1,1,0,0,0,1.48,0h0a39,39,0,0,0,9.19-6.86,1,1,0,0,0,.14-1.46h0A1,1,0,0,0,285.82,267.07Z" transform="translate(-19.94 -20.01)" style="fill:#fff"/><path d="M263.47,218h7.33a1,1,0,0,0,1-1.56l-.5-1a21.52,21.52,0,0,0-7.26-8.64,1,1,0,0,0-1.46.18,1.05,1.05,0,0,0-.21.73v9.19a1,1,0,0,0,.93,1.13A.61.61,0,0,0,263.47,218Z" transform="translate(-19.94 -20.01)" style="fill:#fff"/><path d="M270.84,267.07h-7.37a1,1,0,0,0-1,1v9.34a1,1,0,0,0,.94,1.13,1.07,1.07,0,0,0,.73-.22,21.74,21.74,0,0,0,7.26-8.64c.19-.35.37-.71.54-1.09a1,1,0,0,0-.45-1.39,1,1,0,0,0-.59-.11Z" transform="translate(-19.94 -20.01)" style="fill:#fff"/><path d="M275.87,245.75H263.43a1,1,0,0,0-1,1v12.86a1,1,0,0,0,1,1h10.44a1,1,0,0,0,1-.8,66.85,66.85,0,0,0,2-13,1,1,0,0,0-1-1.1h-.06Z" transform="translate(-19.94 -20.01)" style="fill:#fff"/><path d="M301,180.1H217.42a15,15,0,0,0-15,15V290a15,15,0,0,0,15,15H301a15,15,0,0,0,15-15V195.09A15,15,0,0,0,301,180.1ZM259.23,286.86a44.3,44.3,0,1,1,44.3-44.3,44.3,44.3,0,0,1-44.3,44.3Z" transform="translate(-19.94 -20.01)" style="fill:#fff"/></g></g><path d="M175.31,159.85v-9.26a21.78,21.78,0,0,1,21.78-21.78h0a20.74,20.74,0,0,1,20.74,20.75v24.16a2.24,2.24,0,0,0,2.24,2.24H233a2.23,2.23,0,0,0,2.24-2.22V149.65a38.16,38.16,0,0,0-38.14-38.16h0a40.22,40.22,0,0,0-40.22,40.22h0v8.13a3.66,3.66,0,0,0,3.65,3.68h11.11a3.67,3.67,0,0,0,3.67-3.68Z" transform="translate(-19.94 -20.01)" style="fill:#fff"/><path d="M135.89,346.22a6.83,6.83,0,0,1,2.53,2.44,6.37,6.37,0,0,1,.9,3.23,6.67,6.67,0,0,1-.92,3.38,6.57,6.57,0,0,1-2.43,2.5,6.35,6.35,0,0,1-3.24.87,7,7,0,0,1-5.91-3.37,6.42,6.42,0,0,1-.89-3.22,7.09,7.09,0,0,1,3.35-5.88,6.42,6.42,0,0,1,3.23-.88A6.81,6.81,0,0,1,135.89,346.22Zm-.93,1.64a4.38,4.38,0,0,0-2.3-.6,4.51,4.51,0,0,0-2.24.68,5,5,0,0,0-1.72,1.81,4.91,4.91,0,0,0-.67,2.39,4.44,4.44,0,0,0,.56,2.26,4.57,4.57,0,0,0,4,2.28,4.37,4.37,0,0,0,2.24-.67,4.83,4.83,0,0,0,1.71-1.79,5,5,0,0,0,.69-2.4,4.45,4.45,0,0,0-.57-2.27A4.38,4.38,0,0,0,135,347.86Z" transform="translate(-19.94 -20.01)" style="fill:#fff"/><path d="M129.92,335.42l1.7,1.21-11.05,15.55-1.51-1.07,1-1.57a6.57,6.57,0,0,1-2.65,0,6.73,6.73,0,0,1-2.58-1.14,6.62,6.62,0,0,1-2.23-2.64,6.37,6.37,0,0,1-.54-3.28A7.15,7.15,0,0,1,116,337a6.41,6.41,0,0,1,3.28-.57,6.48,6.48,0,0,1,3.23,1.23,6.72,6.72,0,0,1,1.87,2,6.35,6.35,0,0,1,.89,2.41Zm-8.41,3.86a4.5,4.5,0,0,0-2.27-.87,4.18,4.18,0,0,0-2.28.43,5.1,5.1,0,0,0-1.89,1.65,4.94,4.94,0,0,0-.94,2.34,4.37,4.37,0,0,0,.34,2.29A4.47,4.47,0,0,0,116,347a4.74,4.74,0,0,0,2.18.86,4.57,4.57,0,0,0,2.22-.31,4.64,4.64,0,0,0,1.87-1.39l.5-.7a4.77,4.77,0,0,0,.7-2.22,4.3,4.3,0,0,0-.44-2.17A4.74,4.74,0,0,0,121.51,339.28Z" transform="translate(-19.94 -20.01)" style="fill:#fff"/><path d="M105.65,326.29a8.35,8.35,0,0,1,5.13,2,7.24,7.24,0,0,1,2.1,3,6.69,6.69,0,0,1,.28,3.46,7,7,0,0,1-4.4,5.16,6.26,6.26,0,0,1-3.24.22,6.58,6.58,0,0,1-3-1.55,6.19,6.19,0,0,1-1.94-2.9,6.26,6.26,0,0,1,0-3.41,8.21,8.21,0,0,1,1.86-3.37l.26-.31,8,7a4.2,4.2,0,0,0,.58-2.07,4.71,4.71,0,0,0-.45-2.1,5.7,5.7,0,0,0-1.44-1.86,6.26,6.26,0,0,0-4-1.54ZM109.53,337l-6.6-5.74a4.43,4.43,0,0,0-.8,2,4.17,4.17,0,0,0,.24,2,4.43,4.43,0,0,0,1.26,1.76,4.58,4.58,0,0,0,1.93,1,4,4,0,0,0,2.07,0A4.59,4.59,0,0,0,109.53,337Z" transform="translate(-19.94 -20.01)" style="fill:#fff"/><path d="M96.17,314.25l1.44,1.51-5.15,4.88a4,4,0,0,0-1.39,2.73,3.59,3.59,0,0,0,1.09,2.73A3.72,3.72,0,0,0,95,327.38a4.26,4.26,0,0,0,3-1.3l5-4.7,1.44,1.51-9.24,8.74-1.25-1.32,1.45-1.47a4.69,4.69,0,0,1-2.52-.16,5.73,5.73,0,0,1-2.28-1.54,5.34,5.34,0,0,1-1.65-4,5.83,5.83,0,0,1,2-3.94Z" transform="translate(-19.94 -20.01)" style="fill:#fff"/><path d="M82.55,296.08l1.38,2L77.57,306l9.63-3.16,1.37,2-8.15,10.58-1.25-1.82,6.63-8.29-10.14,3.22-1.11-1.6,6.59-8.36L71,301.79,69.78,300Z" transform="translate(-19.94 -20.01)" style="fill:#fff"/><path d="M72.76,282a8.33,8.33,0,0,1,4.09,3.71,7.1,7.1,0,0,1,.92,3.55,6.61,6.61,0,0,1-3.55,5.8,6.5,6.5,0,0,1-3.31.84,6.17,6.17,0,0,1-3.12-.92,6.51,6.51,0,0,1-2.32-2.52,6.18,6.18,0,0,1-.81-3.39,6.35,6.35,0,0,1,1.15-3.21,8.42,8.42,0,0,1,2.92-2.51l.36-.2,5.08,9.35a4.22,4.22,0,0,0,1.27-1.74,4.57,4.57,0,0,0,.31-2.12,5.51,5.51,0,0,0-.7-2.24,6.28,6.28,0,0,0-3.17-2.83Zm-.11,11.42-4.18-7.68A4.6,4.6,0,0,0,67,287.39a4.13,4.13,0,0,0-.48,2,4.35,4.35,0,0,0,.57,2.09,4.54,4.54,0,0,0,1.45,1.64,4.24,4.24,0,0,0,1.95.69A4.65,4.65,0,0,0,72.65,293.45Z" transform="translate(-19.94 -20.01)" style="fill:#fff"/><path d="M72,276.69l.73,1.71-17.57,7.44-.81-1.92,7.43-3.15a6.09,6.09,0,0,1-2.15-1.38,6.58,6.58,0,0,1-1.52-2.24,6.49,6.49,0,0,1-.51-3.43,6.25,6.25,0,0,1,1.26-3.07A7.1,7.1,0,0,1,65.08,268a6.35,6.35,0,0,1,3.09,1.23A6.44,6.44,0,0,1,70.28,272a6.64,6.64,0,0,1,.55,2.76,6.41,6.41,0,0,1-.59,2.57Zm-3.38-3.8a4.44,4.44,0,0,0-3.67-2.77,4.76,4.76,0,0,0-2.46.38,4.91,4.91,0,0,0-2,1.51,4.47,4.47,0,0,0-.58,4.57,4.4,4.4,0,0,0,1.41,1.86,4.47,4.47,0,0,0,2.07.89,4.88,4.88,0,0,0,2.35-.23l.64-.27a5,5,0,0,0,1.8-1.52A4.52,4.52,0,0,0,69,275.2,4.47,4.47,0,0,0,68.61,272.89Z" transform="translate(-19.94 -20.01)" style="fill:#fff"/><path d="M62.08,247.9l.47,1.73L61,250.2a4.86,4.86,0,0,1,1.84,1.35,5.5,5.5,0,0,1,1.13,2.19,5.4,5.4,0,0,1,.12,2.51,4.16,4.16,0,0,1-1,2,3.84,3.84,0,0,1-1.9,1.16,3.78,3.78,0,0,1-2.31-.06A4.5,4.5,0,0,1,56.94,258a6,6,0,0,1-1.22-2.38,8.11,8.11,0,0,1-.28-1.94,7,7,0,0,1,.15-1.87l-.52.14a2.94,2.94,0,0,0-1.54.95,3.33,3.33,0,0,0-.71,1.6,4.36,4.36,0,0,0,.13,1.92,5.19,5.19,0,0,0,.79,1.67,6,6,0,0,0,1.43,1.45l-1.55,1.14a9.1,9.1,0,0,1-1.65-2,8.32,8.32,0,0,1-1-2.23,5.77,5.77,0,0,1-.1-2.93,4.61,4.61,0,0,1,1.34-2.3,6.1,6.1,0,0,1,2.62-1.4Zm-.08,6a4,4,0,0,0-.86-1.62,3.33,3.33,0,0,0-1.48-1,3.61,3.61,0,0,0-1.91-.06l-.21.06a5.49,5.49,0,0,0-.22,3.52,3.86,3.86,0,0,0,1.28,2.1,2.09,2.09,0,0,0,1.93.46,2,2,0,0,0,1-.69,2.57,2.57,0,0,0,.53-1.25A3.62,3.62,0,0,0,62,253.89Z" transform="translate(-19.94 -20.01)" style="fill:#fff"/><path d="M59.22,232.51l.32,1.83-1.81.43a6.22,6.22,0,0,1,1.88,1.84,6.53,6.53,0,0,1,1,2.61,6.63,6.63,0,0,1-.28,3.47,6.3,6.3,0,0,1-1.93,2.71,7.11,7.11,0,0,1-6.67,1.15A6.32,6.32,0,0,1,49,244.64a7,7,0,0,1-1.36-5.88,6.09,6.09,0,0,1,1.07-2.32l-8,1.37-.36-2.05Zm-.47,6.85a4.53,4.53,0,0,0-2.85-3.54,4.37,4.37,0,0,0-2.39-.21l-.43.07a4.45,4.45,0,0,0-2.18,1,4.74,4.74,0,0,0-.47,6.51,4.56,4.56,0,0,0,2,1.34,4.94,4.94,0,0,0,2.49.18,4.84,4.84,0,0,0,2.28-1,4.46,4.46,0,0,0,1.39-1.91A4.55,4.55,0,0,0,58.75,239.36Z" transform="translate(-19.94 -20.01)" style="fill:#fff"/><path d="M45.29,218.31l13.08,4.41.15,2L46.23,231l-.17-2.25,10.2-4.88-10.81-3.35Z" transform="translate(-19.94 -20.01)" style="fill:#fff"/><path d="M58.3,209.6a6.77,6.77,0,0,1-.92,3.39,6.41,6.41,0,0,1-2.4,2.34,6.7,6.7,0,0,1-3.41.81,6.56,6.56,0,0,1-3.36-.93,6.45,6.45,0,0,1-2.32-2.43,6.76,6.76,0,0,1-.81-3.42A6.58,6.58,0,0,1,46,206a6.39,6.39,0,0,1,2.41-2.32,7,7,0,0,1,6.76.12,6.32,6.32,0,0,1,2.32,2.41A6.57,6.57,0,0,1,58.3,209.6Zm-1.88,0a4.33,4.33,0,0,0-.58-2.32,4.58,4.58,0,0,0-1.66-1.64,5.06,5.06,0,0,0-2.42-.63,4.73,4.73,0,0,0-2.41.55,4.49,4.49,0,0,0-1.81,6.18,4.56,4.56,0,0,0,1.67,1.65,4.76,4.76,0,0,0,2.39.63,4.92,4.92,0,0,0,2.44-.54,4.54,4.54,0,0,0,1.72-1.59A4.35,4.35,0,0,0,56.42,209.58Z" transform="translate(-19.94 -20.01)" style="fill:#fff"/><path d="M57.74,189.75a6.35,6.35,0,0,1,1.3,2.36,7.14,7.14,0,0,1-1,6.06,6.33,6.33,0,0,1-2.61,2.11,7.06,7.06,0,0,1-6.73-.74,6.45,6.45,0,0,1-2.09-2.62,6.84,6.84,0,0,1-.49-3.48A6.92,6.92,0,0,1,47,190.8a6.26,6.26,0,0,1,1.77-2l1.17,1.38a4.43,4.43,0,0,0-1.27,1.48,5.06,5.06,0,0,0-.59,1.92,4.66,4.66,0,0,0,.34,2.43,4.3,4.3,0,0,0,1.48,1.79,4.82,4.82,0,0,0,2.34.86,4.94,4.94,0,0,0,2.5-.33,4.24,4.24,0,0,0,1.83-1.43,4.52,4.52,0,0,0,.86-2.29,5.08,5.08,0,0,0-.17-2,4.53,4.53,0,0,0-.9-1.71Z" transform="translate(-19.94 -20.01)" style="fill:#fff"/><path d="M62,177.41l-.35,1.76L60,179a4.93,4.93,0,0,1,1,2,5.4,5.4,0,0,1,0,2.47,5.35,5.35,0,0,1-1,2.3,4.26,4.26,0,0,1-1.79,1.38,4,4,0,0,1-4.26-.9,4.52,4.52,0,0,1-1.12-2.08,6,6,0,0,1,0-2.67,8.43,8.43,0,0,1,.61-1.86,7.81,7.81,0,0,1,1-1.61l-.52-.1a2.92,2.92,0,0,0-1.8.16,3.24,3.24,0,0,0-1.35,1.12A4.34,4.34,0,0,0,50,181a5.38,5.38,0,0,0,0,1.84,6.46,6.46,0,0,0,.64,2l-1.89.32a8.89,8.89,0,0,1-.61-2.49,8.57,8.57,0,0,1,.12-2.44,5.78,5.78,0,0,1,1.21-2.67A4.59,4.59,0,0,1,51.64,176a6.06,6.06,0,0,1,3-.08Zm-2.74,5.32a4,4,0,0,0-.05-1.83,3.32,3.32,0,0,0-.9-1.53,3.6,3.6,0,0,0-1.68-.9l-.21-.05a5.52,5.52,0,0,0-1.78,3.06,3.92,3.92,0,0,0,.22,2.45,2.05,2.05,0,0,0,2.77,1.12,2.6,2.6,0,0,0,1-.88A3.75,3.75,0,0,0,59.24,182.73Z" transform="translate(-19.94 -20.01)" style="fill:#fff"/><path d="M64,163.53a6.3,6.3,0,0,1,.87,2.54,7,7,0,0,1-.25,2.78,6.61,6.61,0,0,1-1.78,3,6.3,6.3,0,0,1-2.93,1.62,7,7,0,0,1-6.5-1.88,6.44,6.44,0,0,1-1.61-3,6.74,6.74,0,0,1,.12-3.5,7,7,0,0,1,1.28-2.47A6.21,6.21,0,0,1,55.27,161l.91,1.56a4.57,4.57,0,0,0-1.5,1.24,5.16,5.16,0,0,0-.92,1.79,4.56,4.56,0,0,0-.08,2.45,4.26,4.26,0,0,0,1.14,2,5.28,5.28,0,0,0,4.67,1.36,4.29,4.29,0,0,0,2.06-1.09,4.67,4.67,0,0,0,1.25-2.11,5.32,5.32,0,0,0,.18-2,4.81,4.81,0,0,0-.6-1.84Z" transform="translate(-19.94 -20.01)" style="fill:#fff"/><path d="M74.08,159.86,73.25,162l-5-4.83-14,1.08.84-2.14,11.25-.75-8-7.64.82-2.11Z" transform="translate(-19.94 -20.01)" style="fill:#fff"/><path d="M78.82,113.86l-1.7,2.54,3.45,3.33,1.73-2.59,1.09,1-1.74,2.6,3.88,3.74-1,1.43-3.89-3.72-2.42,3.61,3.89,3.72-1,1.45-3.88-3.73-1.65,2.46-1.09-1,1.66-2.49-3.46-3.31-1.68,2.5-1.09-1,1.7-2.52-4.48-4.29,1-1.45,4.47,4.3,2.42-3.61-4.47-4.3,1-1.44,4.46,4.3,1.7-2.53Zm-1.64,10.92,2.43-3.61-3.46-3.32-2.42,3.61Z" transform="translate(-19.94 -20.01)" style="fill:#fff"/><path d="M90.58,117.41l-1.53,1.79-9.44-18.33L81.19,99l19.59,6.41-1.53,1.79L94,105.46l-6,7ZM87,110.6l5-5.82-9.73-3.27Z" transform="translate(-19.94 -20.01)" style="fill:#fff"/><path d="M108.18,107.27l-1.52,1.43-13-13.93L95,93.5l1.34,1.29a6.42,6.42,0,0,1,.52-2.6,6.65,6.65,0,0,1,1.63-2.3,6.55,6.55,0,0,1,3-1.66,6.34,6.34,0,0,1,3.32.13,7.09,7.09,0,0,1,4.63,4.94,6.27,6.27,0,0,1-.09,3.33,6.58,6.58,0,0,1-1.86,2.92,6.84,6.84,0,0,1-2.3,1.44,6.5,6.5,0,0,1-2.53.39Zm-2.1-9a4.56,4.56,0,0,0,1.31-2.06,4.16,4.16,0,0,0,0-2.32,5.07,5.07,0,0,0-1.24-2.18,5,5,0,0,0-2.1-1.38,4.36,4.36,0,0,0-2.32-.12,4.48,4.48,0,0,0-2.13,1.15,4.61,4.61,0,0,0-1.27,2,4.49,4.49,0,0,0-.15,2.24,4.76,4.76,0,0,0,1,2.11l.59.63a4.78,4.78,0,0,0,2,1.13,4.29,4.29,0,0,0,2.22,0A4.68,4.68,0,0,0,106.08,98.27Z" transform="translate(-19.94 -20.01)" style="fill:#fff"/><path d="M119.51,97.16l-1.66,1.26L106.32,83.23l1.48-1.13,1.2,1.42a6.48,6.48,0,0,1,.78-2.53,6.75,6.75,0,0,1,1.85-2.12,6.51,6.51,0,0,1,3.2-1.33,6.25,6.25,0,0,1,3.28.46,7.09,7.09,0,0,1,4.1,5.39,6.39,6.39,0,0,1-.43,3.3,6.6,6.6,0,0,1-2.15,2.72,6.68,6.68,0,0,1-2.44,1.19,6.34,6.34,0,0,1-2.56.13ZM118.35,88a4.57,4.57,0,0,0,1.51-1.91,4.14,4.14,0,0,0,.27-2.31,5.41,5.41,0,0,0-3-3.89,4.32,4.32,0,0,0-2.29-.36,4.56,4.56,0,0,0-2.24.93,4.73,4.73,0,0,0-1.47,1.82,4.54,4.54,0,0,0-.37,2.21,4.76,4.76,0,0,0,.76,2.21l.53.69a4.81,4.81,0,0,0,1.9,1.33,4.36,4.36,0,0,0,2.21.22A4.83,4.83,0,0,0,118.35,88Z" transform="translate(-19.94 -20.01)" style="fill:#fff"/><path d="M128.81,82.7,127,83.91,116.25,67.52l1.85-1.21Z" transform="translate(-19.94 -20.01)" style="fill:#fff"/><path d="M140.8,73.86A8.37,8.37,0,0,1,137.15,78a7.16,7.16,0,0,1-3.54,1,6.58,6.58,0,0,1-5.85-3.46,6.5,6.5,0,0,1-.89-3.3,6.09,6.09,0,0,1,.88-3.13,6.49,6.49,0,0,1,2.48-2.36,6.07,6.07,0,0,1,6.6.25,8.3,8.3,0,0,1,2.56,2.88l.2.36-9.28,5.22a4.36,4.36,0,0,0,1.76,1.24,4.62,4.62,0,0,0,2.13.27,5.52,5.52,0,0,0,2.23-.73A6.24,6.24,0,0,0,139.21,73Zm-11.43,0L137,69.62a4.68,4.68,0,0,0-1.65-1.44,4.16,4.16,0,0,0-2-.45,4.25,4.25,0,0,0-2.08.6,4.5,4.5,0,0,0-1.61,1.47,4.06,4.06,0,0,0-.66,2A4.47,4.47,0,0,0,129.37,73.91Z" transform="translate(-19.94 -20.01)" style="fill:#fff"/><path d="M144.45,73.75l-7.68-17.46L143,53.57A6.63,6.63,0,0,1,147.4,53a4.2,4.2,0,0,1,2.82,2.53,4.82,4.82,0,0,1,.39,2.81,4.37,4.37,0,0,1-1.22,2.38,4.92,4.92,0,0,1,3.18.42,4.6,4.6,0,0,1,2.13,2.35,4.9,4.9,0,0,1,.39,2.84,5,5,0,0,1-1.25,2.57,7.61,7.61,0,0,1-2.72,1.93Zm-2.24-10.66,4.09-1.8a3.9,3.9,0,0,0,2.11-1.9,3,3,0,0,0,0-2.56,2.86,2.86,0,0,0-1.88-1.72,4.24,4.24,0,0,0-2.92.35l-4,1.74ZM145.7,71l4.18-1.84a5.49,5.49,0,0,0,1.93-1.34,3.68,3.68,0,0,0,.92-1.78,3.26,3.26,0,0,0-.24-1.93,3.11,3.11,0,0,0-1.21-1.43,3.35,3.35,0,0,0-1.83-.47,5.6,5.6,0,0,0-2.24.53l-4.31,1.9Z" transform="translate(-19.94 -20.01)" style="fill:#fff"/><path d="M161.34,66.82l-2,.67-4.13-12,1.73-.6.9,2.36a5,5,0,0,1,1.1-2.54,5.22,5.22,0,0,1,2.38-1.59,6.75,6.75,0,0,1,.68-.19,5.54,5.54,0,0,1,.71-.12l.37,1.86a6.06,6.06,0,0,0-1.37.29A4,4,0,0,0,159,58.31a5.33,5.33,0,0,0,.29,2.49Z" transform="translate(-19.94 -20.01)" style="fill:#fff"/><path d="M174.13,63.21a6.85,6.85,0,0,1-3.51,0,6.35,6.35,0,0,1-2.9-1.69A7,7,0,0,1,166,55a6.48,6.48,0,0,1,1.72-2.89,6.72,6.72,0,0,1,3.09-1.69,6.5,6.5,0,0,1,3.5,0,6.31,6.31,0,0,1,2.88,1.7,7,7,0,0,1,1.69,6.55,6.26,6.26,0,0,1-1.71,2.87A6.69,6.69,0,0,1,174.13,63.21Zm-.48-1.82a4.4,4.4,0,0,0,3.21-3.22,4.93,4.93,0,0,0,0-2.5,4.85,4.85,0,0,0-1.17-2.18,4.59,4.59,0,0,0-2-1.24,4.58,4.58,0,0,0-4.47,1.15,4.58,4.58,0,0,0-1.14,2,4.86,4.86,0,0,0,0,2.48,4.74,4.74,0,0,0,1.18,2.2,4.38,4.38,0,0,0,4.37,1.27Z" transform="translate(-19.94 -20.01)" style="fill:#fff"/><path d="M196.09,58.88l-2.39.34L189.49,50,188,60l-2.39.34-5.8-12L182,48l4.44,9.65,1.65-10.51,1.94-.28,4.51,9.64,1.6-10.5,2.19-.31Z" transform="translate(-19.94 -20.01)" style="fill:#fff"/><path d="M200.94,57.35l.45-2a4.66,4.66,0,0,0,1.08.7,5.46,5.46,0,0,0,1.25.44,5.36,5.36,0,0,0,1.32.11,3.22,3.22,0,0,0,1.88-.61,1.58,1.58,0,0,0,.66-1.39,1.45,1.45,0,0,0-.42-1,3.18,3.18,0,0,0-1-.64,13.68,13.68,0,0,0-1.33-.5c-.58-.2-1.15-.42-1.72-.67a4.17,4.17,0,0,1-1.45-1.05A2.8,2.8,0,0,1,201,49a3.25,3.25,0,0,1,.45-1.88,3.49,3.49,0,0,1,1.44-1.29,5.11,5.11,0,0,1,2.18-.53,8,8,0,0,1,3.74.77L208.28,48a4.73,4.73,0,0,0-1-.44,6.91,6.91,0,0,0-1.11-.27,5.6,5.6,0,0,0-1.06-.07,2.5,2.5,0,0,0-1.48.5,1.34,1.34,0,0,0-.51,1.16,1.27,1.27,0,0,0,.26.73,2.53,2.53,0,0,0,.83.63,11.32,11.32,0,0,0,1.58.67,16.91,16.91,0,0,1,1.77.73,4.34,4.34,0,0,1,1.47,1.09,2.91,2.91,0,0,1,.65,1.81,3.49,3.49,0,0,1-.5,2,4,4,0,0,1-1.58,1.41,5.63,5.63,0,0,1-2.4.6A7.27,7.27,0,0,1,200.94,57.35Z" transform="translate(-19.94 -20.01)" style="fill:#fff"/><path d="M223.76,56.83a8.33,8.33,0,0,1-5.28,1.63,7.06,7.06,0,0,1-3.53-1,6.54,6.54,0,0,1-2.39-2.51,6.74,6.74,0,0,1-.79-3.5,6.6,6.6,0,0,1,1-3.28A6.1,6.1,0,0,1,215.11,46a6.65,6.65,0,0,1,3.35-.72,6.06,6.06,0,0,1,5.5,3.66,8.23,8.23,0,0,1,.68,3.79v.41L214,52.7a4.37,4.37,0,0,0,.85,2A4.65,4.65,0,0,0,216.52,56a5.55,5.55,0,0,0,2.28.54,6.27,6.27,0,0,0,4-1.29ZM214,50.92l8.74.32a4.59,4.59,0,0,0-.65-2.09,4.16,4.16,0,0,0-1.48-1.44,4.76,4.76,0,0,0-4.23-.15,4.24,4.24,0,0,0-1.59,1.32A4.6,4.6,0,0,0,214,50.92Z" transform="translate(-19.94 -20.01)" style="fill:#fff"/><path d="M229,59,227,58.75l1.46-12.63,1.82.21L230,48.84A5,5,0,0,1,232.13,47a5.33,5.33,0,0,1,2.83-.41l.69.12a6.13,6.13,0,0,1,.7.2l-.47,1.84a6.1,6.1,0,0,0-1.36-.32,4,4,0,0,0-2.26.35,4.1,4.1,0,0,0-1.68,1.5,5.34,5.34,0,0,0-.81,2.37Z" transform="translate(-19.94 -20.01)" style="fill:#fff"/><path d="M236.64,59.88l3.78-18.7,6.63,1.34a6.63,6.63,0,0,1,4,2.09,4.19,4.19,0,0,1,.85,3.7,4.85,4.85,0,0,1-1.3,2.52,4.4,4.4,0,0,1-2.37,1.24,4.92,4.92,0,0,1,2.36,2.17,4.59,4.59,0,0,1,.38,3.15,4.81,4.81,0,0,1-1.31,2.55,5.24,5.24,0,0,1-2.51,1.38,7.47,7.47,0,0,1-3.33,0Zm2.59-1.5,4.47.9a5.53,5.53,0,0,0,2.36,0,3.6,3.6,0,0,0,1.77-.93,3.18,3.18,0,0,0,.92-1.71,3.06,3.06,0,0,0-.17-1.86,3.32,3.32,0,0,0-1.22-1.45,5.88,5.88,0,0,0-2.13-.86l-4.63-.93Zm1.71-8.5,4.39.88a3.86,3.86,0,0,0,2.81-.34,3,3,0,0,0,1.46-2.1,2.85,2.85,0,0,0-.55-2.49,4.22,4.22,0,0,0-2.58-1.4l-4.25-.86Z" transform="translate(-19.94 -20.01)" style="fill:#fff"/><path d="M262.22,66.29l-1.71-.52.35-1.65a4.88,4.88,0,0,1-2.12.84,5.51,5.51,0,0,1-2.46-.21,5.58,5.58,0,0,1-2.19-1.23,4.31,4.31,0,0,1-1.19-1.91,4,4,0,0,1,1.32-4.15,4.51,4.51,0,0,1,2.18-.92,6.17,6.17,0,0,1,2.66.24,9.06,9.06,0,0,1,1.79.79,7.84,7.84,0,0,1,1.5,1.13l.16-.51a3,3,0,0,0,0-1.81,3.35,3.35,0,0,0-1-1.45,4.53,4.53,0,0,0-1.69-.92,5.48,5.48,0,0,0-1.83-.22,6.36,6.36,0,0,0-2,.43l-.13-1.91a9.21,9.21,0,0,1,2.54-.35,8.74,8.74,0,0,1,2.42.36,5.79,5.79,0,0,1,2.53,1.47,4.58,4.58,0,0,1,1.23,2.35,6.17,6.17,0,0,1-.21,3Zm-5-3.26a4,4,0,0,0,1.84.14,3.46,3.46,0,0,0,1.6-.74,3.56,3.56,0,0,0,1.07-1.59l.06-.2a5.41,5.41,0,0,0-2.86-2.07,3.84,3.84,0,0,0-2.46,0A2.05,2.05,0,0,0,255,59.93a2,2,0,0,0,0,1.25,2.6,2.6,0,0,0,.77,1.12A3.67,3.67,0,0,0,257.19,63Z" transform="translate(-19.94 -20.01)" style="fill:#fff"/><path d="M276.33,71.87l-1.93-.79,2.68-6.57a4,4,0,0,0,.14-3.06,3.61,3.61,0,0,0-2.13-2,3.78,3.78,0,0,0-3.09,0,4.33,4.33,0,0,0-2.18,2.42l-2.58,6.33-1.93-.79,4.8-11.77,1.69.69-.71,1.94a4.66,4.66,0,0,1,2.36-.9,5.78,5.78,0,0,1,2.72.47,5.27,5.27,0,0,1,3.12,2.93,5.77,5.77,0,0,1-.22,4.42Z" transform="translate(-19.94 -20.01)" style="fill:#fff"/></svg>