<?xml version="1.0" encoding="utf-8"?>
<!-- Generator: Adobe Illustrator 26.0.1, SVG Export Plug-In . SVG Version: 6.00 Build 0)  -->
<svg version="1.1" id="Calque_3" xmlns="http://www.w3.org/2000/svg" xmlns:xlink="http://www.w3.org/1999/xlink" x="0px" y="0px"
	 viewBox="0 0 297 281.1" style="enable-background:new 0 0 297 281.1;" xml:space="preserve">
<style type="text/css">
	.st0{fill:#FFFFFF;}
	.st1{fill:#CD4C1D;}
</style>
<rect class="st0" width="297" height="281.1"/>
<path class="st1" d="M285.5,12.7v255.8H51.9V12.7H285.5 M286,12.1H51.3V269h234.7L286,12.1L286,12.1z"/>
<path class="st1" d="M75.8,56.4h-7.3l10.3-26.5h7.3l10.3,26.5h-7.3l-1.7-4.7h-9.9L75.8,56.4z M79.7,45.6h5.5l-2.7-7.5L79.7,45.6z"/>
<path class="st1" d="M104.9,65.2h-6.5V38.8h5.7l0.3,2.3c0.7-0.8,1.6-1.5,2.5-2c1-0.5,2.1-0.7,3.2-0.7c1.5,0,2.9,0.4,4.1,1.2
	c1.2,0.8,2.2,1.9,2.8,3.3c1.4,3,1.4,6.4,0,9.4c-0.6,1.3-1.6,2.5-2.8,3.3c-2.1,1.3-4.7,1.6-7,0.6c-0.9-0.3-1.7-0.8-2.3-1.5V65.2z
	 M108.2,50.9c0.6,0,1.2-0.1,1.7-0.4c0.5-0.3,0.9-0.7,1.2-1.2c0.5-1.1,0.5-2.4,0-3.5c-0.3-0.5-0.7-0.9-1.2-1.2c-1-0.5-2.3-0.5-3.3,0
	c-0.4,0.2-0.8,0.6-1.1,1c-0.3,0.5-0.5,1-0.5,1.6v0.7c0,0.6,0.2,1.1,0.5,1.5c0.3,0.4,0.7,0.8,1.2,1.1
	C107.1,50.8,107.6,50.9,108.2,50.9z"/>
<path class="st1" d="M127.3,65.2h-6.5V38.8h5.7l0.3,2.3c0.7-0.8,1.5-1.5,2.5-2c1-0.5,2.1-0.7,3.2-0.7c1.5,0,2.9,0.4,4.1,1.2
	c1.2,0.8,2.2,1.9,2.8,3.3c1.4,3,1.4,6.4,0,9.4c-0.6,1.3-1.6,2.5-2.8,3.3c-2.1,1.3-4.7,1.6-7,0.6c-0.9-0.3-1.7-0.8-2.4-1.5V65.2z
	 M130.5,50.9c0.6,0,1.2-0.1,1.7-0.4c0.5-0.3,0.9-0.7,1.1-1.2c0.6-1.1,0.6-2.4,0-3.5c-0.3-0.5-0.6-0.9-1.1-1.2
	c-0.5-0.3-1.1-0.4-1.7-0.4c-0.6,0-1.1,0.1-1.6,0.4c-0.5,0.2-0.9,0.6-1.1,1c-0.3,0.5-0.5,1-0.5,1.6v0.7c0,0.6,0.2,1.1,0.5,1.5
	c0.3,0.4,0.7,0.8,1.1,1.1C129.4,50.8,129.9,50.9,130.5,50.9z"/>
<path class="st1" d="M150.1,56.4h-7V29.2h7V56.4z"/>
<path class="st1" d="M170.4,54.6c-2.1,1.4-4.6,2.2-7.2,2.2c-1.9,0-3.7-0.4-5.4-1.2c-1.5-0.8-2.8-2-3.8-3.4c-0.9-1.4-1.4-3.1-1.4-4.8
	c0-1.6,0.4-3.2,1.2-4.5c0.8-1.3,2-2.4,3.4-3.2c1.5-0.8,3.1-1.2,4.8-1.2c1.7,0,3.4,0.4,4.9,1.3c1.4,0.9,2.6,2.1,3.3,3.6
	c0.8,1.7,1.2,3.5,1.2,5.3v0.6h-11.8c0.2,0.5,0.5,0.9,0.9,1.2c0.4,0.4,0.9,0.7,1.4,0.9c0.6,0.2,1.3,0.3,2,0.3c1.7,0,3.3-0.6,4.7-1.6
	L170.4,54.6z M159.4,46.6h6.2c-0.1-0.5-0.2-1-0.5-1.5c-0.3-0.4-0.7-0.8-1.1-1c-0.5-0.3-1-0.4-1.5-0.4c-0.5,0-1,0.1-1.5,0.4
	c-0.4,0.3-0.7,0.6-1,1C159.7,45.5,159.5,46,159.4,46.6L159.4,46.6z"/>
<path class="st1" d="M70,92.6V66.1h10.1c3,0,5.4,0.6,7.1,1.8c1.7,1.2,2.6,3.2,2.5,5.2c0,1.2-0.3,2.3-0.8,3.4c-0.5,1-1.3,1.8-2.3,2.3
	c1.3,0.4,2.5,1.2,3.3,2.3c0.8,1.1,1.2,2.5,1.2,3.9c0,1.4-0.3,2.8-1.1,4c-0.8,1.2-1.9,2.1-3.2,2.6c-1.5,0.7-3.2,1-4.8,0.9L70,92.6z
	 M77,76.8h2.6c0.8,0.1,1.6-0.2,2.3-0.6c0.6-0.4,0.9-1.1,0.8-1.7c0-0.7-0.3-1.3-0.8-1.6c-0.7-0.4-1.5-0.6-2.3-0.6H77L77,76.8z
	 M77,86.5h3.1c0.7,0,1.4-0.1,2-0.3c0.5-0.1,1-0.4,1.3-0.8c0.3-0.4,0.5-0.8,0.4-1.3c0-0.5-0.2-0.9-0.4-1.2c-0.3-0.4-0.7-0.6-1.1-0.8
	c-0.6-0.2-1.2-0.3-1.8-0.2H77L77,86.5z"/>
<path class="st1" d="M100.2,92.6h-6.5V74.9h5.7l0.2,2.8c1.1-2,3.3-3.2,5.5-3.1c0.4,0,0.8,0,1.2,0.1c0.4,0.1,0.9,0.2,1.3,0.3
	l-0.8,5.9c-0.8-0.3-1.6-0.4-2.4-0.4c-0.8,0-1.6,0.2-2.2,0.5c-0.6,0.4-1.1,0.9-1.4,1.5c-0.4,0.7-0.5,1.5-0.5,2.3L100.2,92.6z"/>
<path class="st1" d="M118.2,92.9c-1.7,0-3.5-0.4-5-1.2c-1.4-0.8-2.6-1.9-3.4-3.3c-2.6-4.3-1.2-9.9,3-12.5c0.1-0.1,0.3-0.2,0.4-0.2
	c1.5-0.8,3.3-1.2,5-1.2c1.7,0,3.4,0.4,4.9,1.2c1.4,0.8,2.6,1.9,3.4,3.3c1.6,2.9,1.6,6.5,0,9.4c-0.8,1.4-2,2.5-3.4,3.3
	C121.6,92.5,119.9,92.9,118.2,92.9z M118.2,87.1c0.5,0,1.1-0.1,1.5-0.4c0.4-0.3,0.8-0.7,1-1.2c0.3-0.5,0.4-1.1,0.4-1.8
	c0-0.6-0.1-1.2-0.4-1.7c-0.2-0.5-0.6-0.9-1-1.2c-0.9-0.6-2.1-0.6-3,0c-0.4,0.3-0.8,0.7-1,1.2c-0.3,0.5-0.4,1.1-0.4,1.7
	c0,0.6,0.1,1.2,0.4,1.8c0.2,0.5,0.6,0.9,1,1.2C117.2,86.9,117.7,87.1,118.2,87.1L118.2,87.1z"/>
<path class="st1" d="M153.5,92.6h-7.4l-2-9.2l-2.1,9.2h-7.4l-5.7-17.7h6.9l2.4,11.1l3.1-11.1h5.6l3.1,11.2l2.4-11.2h6.9L153.5,92.6z
	"/>
<path class="st1" d="M159.3,91.1l1.3-5.4c0.4,0.4,0.9,0.8,1.4,1.1c0.7,0.4,1.3,0.6,2.1,0.8c0.7,0.2,1.4,0.3,2.1,0.3
	c0.4,0,0.7-0.1,1.1-0.2c0.2-0.1,0.4-0.3,0.4-0.6c0-0.3-0.1-0.5-0.4-0.7c-0.3-0.2-0.6-0.4-0.9-0.5l-1.4-0.5c-0.8-0.3-1.6-0.6-2.4-1
	c-0.8-0.4-1.5-0.9-2.1-1.6c-0.6-0.8-0.9-1.8-0.9-2.8c0-1,0.3-2.1,0.9-2.9c0.6-0.9,1.5-1.5,2.5-1.9c1.2-0.5,2.5-0.7,3.8-0.7
	c2.6,0,5.1,0.7,7.4,1.9l-1.8,5c-0.4-0.4-0.9-0.7-1.5-0.9c-0.6-0.3-1.3-0.6-1.9-0.8c-0.5-0.2-1.1-0.3-1.7-0.3c-0.3,0-0.6,0-0.9,0.2
	c-0.2,0.1-0.3,0.3-0.3,0.6c0,0.3,0.1,0.5,0.3,0.7c0.3,0.2,0.6,0.4,0.9,0.5l1.3,0.5c0.8,0.3,1.6,0.6,2.4,1c0.8,0.4,1.5,0.9,2.1,1.6
	c0.6,0.8,0.9,1.8,0.9,2.8c0,1.1-0.3,2.1-0.9,3c-0.7,0.9-1.6,1.6-2.7,2c-1.3,0.5-2.7,0.7-4.1,0.7C164,93,161.5,92.3,159.3,91.1z"/>
<path class="st1" d="M193.3,90.7c-2.1,1.4-4.6,2.2-7.2,2.2c-1.9,0-3.7-0.4-5.4-1.2c-1.5-0.8-2.8-2-3.8-3.4c-0.9-1.4-1.4-3.1-1.4-4.8
	c0-1.6,0.4-3.2,1.2-4.5c0.8-1.3,2-2.4,3.4-3.2c1.5-0.8,3.1-1.2,4.8-1.2c1.7,0,3.4,0.4,4.9,1.3c1.4,0.9,2.6,2.1,3.3,3.6
	c0.8,1.7,1.2,3.5,1.2,5.3v0.6h-11.8c0.4,1,1.3,1.8,2.3,2.1c0.6,0.2,1.3,0.3,2,0.3c1.7,0,3.3-0.6,4.7-1.6L193.3,90.7z M182.3,82.7
	h6.2c0-0.5-0.2-1-0.5-1.5c-0.3-0.4-0.6-0.8-1.1-1c-0.5-0.2-1-0.4-1.5-0.4c-0.5,0-1,0.1-1.5,0.4c-0.4,0.3-0.7,0.6-1,1
	C182.6,81.7,182.4,82.2,182.3,82.7L182.3,82.7z"/>
<path class="st1" d="M203.6,92.6h-6.5V74.9h5.6l0.2,2.8c1.1-2,3.2-3.2,5.5-3.1c0.4,0,0.8,0,1.2,0.1c0.4,0.1,0.9,0.2,1.3,0.3
	l-0.8,5.9c-0.8-0.3-1.6-0.4-2.4-0.4c-0.8,0-1.5,0.2-2.2,0.5c-0.6,0.4-1.1,0.9-1.4,1.5c-0.4,0.7-0.5,1.5-0.5,2.3V92.6z"/>
<path class="st1" d="M70,128.7v-26.4h10.1c3,0,5.4,0.6,7.1,1.8c1.7,1.2,2.6,3.2,2.5,5.2c0,1.2-0.3,2.3-0.8,3.4
	c-0.5,1-1.3,1.8-2.3,2.3c1.3,0.4,2.5,1.2,3.3,2.3c0.8,1.1,1.2,2.5,1.2,3.9c0,1.4-0.3,2.8-1.1,4c-0.8,1.2-1.9,2.1-3.2,2.6
	c-1.5,0.7-3.2,1-4.8,0.9L70,128.7z M77,112.9h2.6c0.8,0.1,1.6-0.2,2.3-0.6c0.6-0.4,0.9-1.1,0.8-1.7c0-0.7-0.3-1.3-0.8-1.6
	c-0.7-0.4-1.5-0.6-2.3-0.6H77L77,112.9z M77,122.6h3.1c0.7,0,1.4-0.1,2-0.3c0.5-0.1,0.9-0.4,1.3-0.8c0.3-0.4,0.5-0.8,0.4-1.3
	c0-0.4-0.1-0.9-0.4-1.2c-0.3-0.4-0.7-0.6-1.1-0.8c-0.6-0.2-1.2-0.3-1.8-0.3H77L77,122.6z"/>
<path class="st1" d="M110.5,128.7h-5.7l-0.3-1.9c-0.6,0.7-1.4,1.3-2.3,1.7c-0.9,0.4-2,0.6-3,0.6c-1.1,0-2.2-0.2-3.2-0.7
	c-0.9-0.4-1.7-1.1-2.2-1.9c-1.1-1.8-1.1-4,0.1-5.7c0.6-0.9,1.5-1.6,2.4-2c1.1-0.5,2.3-0.7,3.6-0.7c0.7,0,1.4,0.1,2.2,0.2
	c0.7,0.1,1.4,0.4,2.1,0.6v-0.2c0-0.5-0.2-1-0.5-1.4c-0.4-0.5-0.9-0.8-1.4-1c-0.7-0.2-1.4-0.4-2.1-0.3c-0.8,0-1.6,0.1-2.3,0.3
	c-0.7,0.2-1.4,0.6-2,1l-1.7-4.8c1.2-0.6,2.5-1,3.8-1.3c1.2-0.3,2.4-0.4,3.7-0.4c1.7,0,3.3,0.3,4.8,1.1c1.3,0.7,2.4,1.7,3.2,3
	c0.8,1.4,1.2,3,1.1,4.6L110.5,128.7z M100.6,124.3c1.1,0,2.1-0.5,2.8-1.2c0.3-0.3,0.5-0.7,0.5-1.1l0,0c-0.4-0.3-0.9-0.4-1.4-0.6
	c-0.5-0.1-1-0.2-1.6-0.2c-0.6,0-1.2,0.1-1.8,0.4c-0.4,0.2-0.7,0.7-0.6,1.1c0,0.3,0.1,0.6,0.3,0.8c0.2,0.3,0.4,0.4,0.7,0.6
	C99.9,124.2,100.2,124.3,100.6,124.3L100.6,124.3z"/>
<path class="st1" d="M132,128.7h-6.5v-8.5c0.1-1-0.2-1.9-0.7-2.7c-0.4-0.6-1.2-1-1.9-1c-0.8,0-1.5,0.3-2,1c-0.5,0.8-0.8,1.8-0.7,2.7
	v8.5h-6.5v-17.6h5.2l0.2,2.8c0.6-1,1.4-1.8,2.4-2.3c1.1-0.6,2.3-0.8,3.5-0.8c1.9-0.1,3.8,0.6,5.1,2c1.3,1.6,2,3.6,1.9,5.7L132,128.7
	z"/>
<g id="Layer_2">
	<g id="Layer_1-2">
		<path class="st1" d="M232.3,251c-0.6,0-1.2-0.1-1.8-0.4c-1.1-0.5-2-1.3-2.5-2.4c-1-2.3,0.1-5,2.5-6c0.6-0.2,1.2-0.4,1.8-0.4
			c0.6,0,1.2,0.1,1.8,0.4c1.1,0.5,2,1.3,2.4,2.4c0.7,1.7,0.3,3.7-1,5c-0.4,0.4-0.9,0.8-1.5,1C233.5,250.9,232.9,251,232.3,251z
			 M232.3,248.6c0.3,0,0.6-0.1,0.9-0.2c0.3-0.1,0.5-0.3,0.7-0.5c0.2-0.2,0.4-0.4,0.5-0.7c0.3-0.5,0.3-1.2,0-1.7
			c-0.1-0.3-0.3-0.5-0.5-0.7c-0.7-0.6-1.6-0.8-2.5-0.5c-0.3,0.1-0.5,0.3-0.7,0.5c-0.2,0.2-0.4,0.4-0.5,0.7c-0.3,0.5-0.3,1.2,0,1.7
			c0.1,0.3,0.3,0.5,0.5,0.7c0.2,0.2,0.5,0.4,0.7,0.5C231.7,248.5,232,248.6,232.3,248.6L232.3,248.6z"/>
		<path class="st1" d="M228.2,241.6c-0.1,0-0.2,0-0.3,0c-0.1,0-0.1-0.1-0.1-0.2v-2c0-0.1,0-0.2,0.1-0.2c0-0.1,0.1-0.1,0.2-0.1l4-1.4
			c0.1,0,0.1-0.1,0.1-0.1s0-0.1-0.1-0.1l-4-1.3c-0.1,0-0.1-0.1-0.2-0.1c-0.1-0.1-0.1-0.2-0.1-0.3V234c0-0.1,0-0.2,0.1-0.2
			c0-0.1,0.1-0.1,0.2-0.1l4.1-1.3c0.1,0,0.1-0.1,0.1-0.1s0-0.1-0.1-0.1l-4.1-1.4c-0.1,0-0.1-0.1-0.2-0.2c-0.1-0.1-0.1-0.2-0.1-0.3
			v-1.9c0-0.1,0-0.1,0.1-0.2c0.1,0,0.1,0,0.2,0l8.3,2.9c0.1,0,0.2,0.1,0.2,0.2c0.1,0.1,0.1,0.2,0.1,0.3v1.6c0,0.2-0.1,0.3-0.3,0.4
			l-4,1.3c-0.1,0-0.1,0.1-0.1,0.1s0,0.1,0.1,0.1l4,1.3c0.1,0,0.2,0.1,0.2,0.1c0.1,0.1,0.1,0.2,0.1,0.3v1.6c0,0.2-0.1,0.3-0.3,0.4
			L228.2,241.6z"/>
		<path class="st1" d="M228.1,225.7c-0.1,0-0.1-0.1-0.2-0.2c-0.1-0.1-0.1-0.2-0.1-0.3v-1.7c0-0.1,0-0.2,0.1-0.2
			c0-0.1,0.1-0.1,0.2-0.2l8.2-3.5c0.1,0,0.2,0,0.2,0c0.1,0.1,0.1,0.2,0.1,0.3v2.1c0,0.1,0,0.2-0.1,0.3c0,0.1-0.1,0.1-0.2,0.2
			l-0.7,0.3c-0.1,0-0.1,0.1-0.2,0.2c-0.1,0.1-0.1,0.2-0.1,0.2v2.6c0,0.1,0,0.2,0.1,0.3c0,0.1,0.1,0.1,0.2,0.2l0.7,0.3
			c0.1,0,0.1,0.1,0.2,0.2c0.1,0.1,0.1,0.2,0.1,0.2v2.1c0,0,0,0.1,0,0.1c0,0,0,0.1-0.1,0.1l-0.1,0.1c-0.1,0-0.1,0-0.2,0L228.1,225.7z
			 M233.4,225v-1.1c0-0.1,0-0.1-0.1-0.2c-0.1,0-0.1,0-0.2,0l-0.7,0.3l-0.8,0.3c-0.1,0-0.1,0.1-0.1,0.1s0,0.1,0.1,0.1l1.5,0.6
			c0.1,0,0.1,0,0.2,0C233.4,225.1,233.5,225.1,233.4,225L233.4,225z"/>
		<path class="st1" d="M252.5,236.1h-3.1c-0.1,0-0.3,0.1-0.3,0.3l0,0c0.1,1.1,0.2,2.2,0.5,3.3c0,0.1,0.1,0.2,0.3,0.2h2.6
			c0.1,0,0.3-0.1,0.3-0.3v-3.2C252.8,236.2,252.7,236.1,252.5,236.1C252.6,236.1,252.6,236.1,252.5,236.1L252.5,236.1z"/>
		<path class="st1" d="M252.5,230.7h-2.6c-0.1,0-0.2,0.1-0.3,0.2c-0.3,1.1-0.5,2.2-0.5,3.3c0,0.1,0.1,0.3,0.2,0.3h3.2
			c0.1,0,0.3-0.1,0.3-0.3V231C252.8,230.9,252.7,230.8,252.5,230.7L252.5,230.7z"/>
		<path class="st1" d="M252.4,226.3c-0.8,0.5-1.4,1.3-1.8,2.2l-0.1,0.3c-0.1,0.1,0,0.3,0.1,0.4c0,0,0,0,0,0c0,0,0.1,0,0.1,0h1.8
			c0.1,0,0.3-0.1,0.3-0.2c0,0,0,0,0,0v-2.3c0-0.1-0.1-0.3-0.2-0.3c0,0,0,0,0,0C252.5,226.3,252.4,226.3,252.4,226.3z"/>
		<path class="st1" d="M252.5,241.5h-1.9c-0.1,0-0.3,0.1-0.3,0.2c0,0,0,0,0,0c0,0,0,0.1,0,0.1c0,0.1,0.1,0.2,0.1,0.3
			c0.4,0.9,1,1.6,1.8,2.2c0.1,0.1,0.3,0.1,0.4,0c0-0.1,0.1-0.1,0.1-0.2v-2.3C252.8,241.6,252.7,241.5,252.5,241.5
			C252.5,241.5,252.5,241.5,252.5,241.5L252.5,241.5z"/>
		<path class="st1" d="M246.9,229.1h1.4c0.1,0,0.2-0.1,0.3-0.2c0.2-0.6,0.5-1.1,0.8-1.6c0.1-0.1,0.1-0.3,0-0.4
			c-0.1-0.1-0.3-0.1-0.4,0l0,0c-0.8,0.5-1.6,1-2.3,1.7c-0.1,0.1-0.1,0.3,0,0.4l0,0C246.8,229.1,246.9,229.1,246.9,229.1z"/>
		<path class="st1" d="M244.3,234.5h3c0.1,0,0.3-0.1,0.3-0.3c0.1-1.1,0.2-2.1,0.4-3.2c0-0.1,0-0.3-0.2-0.3h-2.4
			c-0.1,0-0.2,0.1-0.2,0.1c-0.6,1-0.9,2.2-1.1,3.3C244,234.4,244.1,234.5,244.3,234.5L244.3,234.5L244.3,234.5z"/>
		<path class="st1" d="M248.6,241.7c0-0.1-0.2-0.2-0.3-0.2h-1.4c-0.1,0-0.3,0.1-0.3,0.2c0,0,0,0,0,0c0,0.1,0,0.2,0.1,0.2
			c0.7,0.7,1.5,1.3,2.3,1.7c0.1,0.1,0.3,0.1,0.4,0l0,0c0.1-0.1,0.1-0.3,0-0.4l0,0C249.1,242.8,248.8,242.2,248.6,241.7z"/>
		<path class="st1" d="M258.6,229c0,0.1,0.1,0.2,0.3,0.2h1.5c0.1,0,0.3-0.1,0.3-0.2c0,0,0,0,0,0c0-0.1,0-0.2-0.1-0.2
			c-0.7-0.7-1.4-1.2-2.3-1.7c-0.1-0.1-0.3-0.1-0.4,0c-0.1,0.1-0.1,0.3,0,0.4l0,0C258.1,227.9,258.4,228.4,258.6,229z"/>
		<path class="st1" d="M248,239.6c-0.2-1-0.4-2.1-0.4-3.2c0-0.1-0.1-0.3-0.3-0.3h-3c-0.2,0-0.3,0.1-0.3,0.3l0,0
			c0.1,1.2,0.5,2.3,1,3.3c0,0.1,0.1,0.1,0.2,0.1h2.4C247.8,239.9,247.9,239.8,248,239.6L248,239.6z"/>
		<path class="st1" d="M254.7,234.5h3.1c0.1,0,0.3-0.1,0.3-0.3l0,0c-0.1-1.1-0.2-2.2-0.5-3.3c0-0.1-0.1-0.2-0.3-0.2h-2.6
			c-0.1,0-0.3,0.1-0.3,0.2c0,0,0,0,0,0v3.2C254.4,234.4,254.5,234.5,254.7,234.5L254.7,234.5L254.7,234.5z"/>
		<path class="st1" d="M259.2,231.1c0.2,1.1,0.4,2.1,0.4,3.2c0,0.1,0.1,0.3,0.3,0.3l0,0h3c0.1,0,0.3-0.1,0.3-0.3l0,0l0,0
			c-0.1-1.2-0.5-2.3-1-3.3c0-0.1-0.1-0.1-0.2-0.1h-2.5C259.3,230.8,259.2,230.9,259.2,231.1L259.2,231.1L259.2,231.1z"/>
		<path class="st1" d="M262.9,236.1h-3c-0.1,0-0.3,0.1-0.3,0.3c0,1.1-0.2,2.1-0.4,3.2c0,0.1,0,0.3,0.2,0.3h2.5
			c0.1,0,0.2-0.1,0.2-0.1c0.5-1,0.9-2.2,1-3.3C263.1,236.3,263.1,236.2,262.9,236.1C262.9,236.1,262.9,236.1,262.9,236.1
			L262.9,236.1L262.9,236.1z"/>
		<path class="st1" d="M260.3,241.5h-1.4c-0.1,0-0.2,0.1-0.3,0.2c-0.2,0.6-0.5,1.1-0.8,1.6c-0.1,0.1-0.1,0.3,0,0.4
			c0.1,0.1,0.3,0.1,0.4,0c0,0,0,0,0,0l0,0c0.9-0.5,1.6-1,2.3-1.7c0.1-0.1,0.1-0.3,0-0.4l0,0C260.4,241.5,260.4,241.5,260.3,241.5z"
			/>
		<path class="st1" d="M254.7,229.1h1.8c0.1,0,0.3-0.1,0.3-0.2c0,0,0-0.1,0-0.1l-0.1-0.3c-0.4-0.9-1-1.6-1.8-2.2
			c-0.1-0.1-0.3-0.1-0.4,0c0,0.1-0.1,0.1-0.1,0.2v2.3C254.4,229,254.5,229.1,254.7,229.1L254.7,229.1z"/>
		<path class="st1" d="M256.5,241.5h-1.8c-0.1,0-0.3,0.1-0.3,0.3v2.4c0,0.1,0.1,0.3,0.2,0.3c0.1,0,0.1,0,0.2,0
			c0.8-0.6,1.4-1.3,1.8-2.2c0-0.1,0.1-0.2,0.1-0.3c0.1-0.1,0-0.3-0.1-0.4C256.6,241.6,256.6,241.6,256.5,241.5L256.5,241.5z"/>
		<path class="st1" d="M257.8,236.1h-3.1c-0.1,0-0.3,0.1-0.3,0.3v3.3c0,0.1,0.1,0.3,0.3,0.3h2.6c0.1,0,0.2-0.1,0.3-0.2
			c0.3-1.1,0.4-2.2,0.5-3.3C258.1,236.3,258,236.2,257.8,236.1L257.8,236.1L257.8,236.1z"/>
		<path class="st1" d="M264.1,219.7h-21c-2.1,0-3.8,1.7-3.8,3.8c0,0,0,0,0,0v23.9c0,2.1,1.7,3.8,3.8,3.8c0,0,0,0,0,0h21
			c2.1,0,3.8-1.7,3.8-3.8c0,0,0,0,0,0v-23.9C267.9,221.3,266.2,219.7,264.1,219.7z M253.6,246.5c-6.2,0-11.1-5-11.1-11.1
			s5-11.1,11.1-11.1c6.2,0,11.1,5,11.1,11.1l0,0C264.8,241.5,259.8,246.5,253.6,246.5z"/>
	</g>
</g>
<path class="st1" d="M232.5,214.5v-2.3c0-3,2.4-5.5,5.5-5.5c0,0,0,0,0,0l0,0c2.9,0,5.2,2.3,5.2,5.2v0v6.1c0,0.3,0.3,0.6,0.6,0.6
	c0,0,0,0,0,0h3.2c0.3,0,0.6-0.3,0.6-0.6l0,0V212c0-5.3-4.3-9.6-9.6-9.6l0,0c-5.6,0-10.1,4.5-10.1,10.1l0,0l0,0v2
	c0,0.5,0.4,0.9,0.9,0.9h2.8C232.1,215.4,232.5,215,232.5,214.5L232.5,214.5z"/>
<path class="st1" d="M51.3,41.5h-5.8l-1.4,8h7.2v7.9h-8.6l-1.9,10.9h-9.5l1.9-10.9h-7.1l-1.9,10.9h-9.5l1.9-10.9h-5.8l1.2-7.9h6
	l1.4-7.9h-6.2l1.2-7.9h6.3l2.7-14.6h9.5l-2.6,14.6h7.1L40,18.9h9.5l-2.6,14.7h4.4V41.5z M27.5,49.4h7.1l1.4-8h-7.1L27.5,49.4z"/>
</svg>
