<svg id="Calque_2" data-name="Calque 2" xmlns="http://www.w3.org/2000/svg" width="298.01" height="279.73" viewBox="0 0 298.01 279.73"><polygon points="0 0 0 279.73 40.41 279.73 40.41 279.73 298.01 279.73 298.01 0 0 0" style="fill:#fff"/><path d="M82.72,117.56a5.72,5.72,0,0,0-1.83-.26H77.37v4.6h3.1a6.84,6.84,0,0,0,2-.27,2.8,2.8,0,0,0,1.29-.8,1.92,1.92,0,0,0,.44-1.26,2,2,0,0,0-.39-1.25A2.32,2.32,0,0,0,82.72,117.56Z" style="fill:#cd4c1d"/><path d="M82.31,75.31a2,2,0,0,0,.83-1.74,1.93,1.93,0,0,0-.83-1.65,3.92,3.92,0,0,0-2.32-.6H77.37v4.6H80A3.79,3.79,0,0,0,82.31,75.31Z" style="fill:#cd4c1d"/><path d="M82.31,111.56a2.05,2.05,0,0,0,.83-1.75,1.93,1.93,0,0,0-.83-1.64,3.92,3.92,0,0,0-2.32-.6H77.37v4.6H80A3.86,3.86,0,0,0,82.31,111.56Z" style="fill:#cd4c1d"/><path d="M82.72,81.31a5.72,5.72,0,0,0-1.83-.26H77.37v4.6h3.1a6.84,6.84,0,0,0,2-.27,2.72,2.72,0,0,0,1.29-.8,1.9,1.9,0,0,0,.44-1.26,2,2,0,0,0-.39-1.25A2.32,2.32,0,0,0,82.72,81.31Z" style="fill:#cd4c1d"/><path d="M165.64,44.13a3,3,0,0,0-1.1-1,3.18,3.18,0,0,0-1.51-.36,2.81,2.81,0,0,0-1.49.39,3.07,3.07,0,0,0-1,1A3.77,3.77,0,0,0,160,45.6h6.17A3.3,3.3,0,0,0,165.64,44.13Z" style="fill:#cd4c1d"/><path d="M101.33,120.43a3.2,3.2,0,0,0-1.76.42,1.3,1.3,0,0,0-.65,1.14,1.37,1.37,0,0,0,.27.83,1.77,1.77,0,0,0,.73.58,2.78,2.78,0,0,0,1.06.2,4,4,0,0,0,2.83-1.26,1.65,1.65,0,0,0,.5-1.11v0a5.41,5.41,0,0,0-1.42-.57A6,6,0,0,0,101.33,120.43Z" style="fill:#cd4c1d"/><path d="M107,49.64a3.47,3.47,0,0,0,3.29,0,3,3,0,0,0,1.15-1.19,3.88,3.88,0,0,0,0-3.47,3.06,3.06,0,0,0-1.15-1.19,3.47,3.47,0,0,0-3.29-.05,3,3,0,0,0-1.15,1.08,3.47,3.47,0,0,0-.51,1.59V47a3.39,3.39,0,0,0,.51,1.55A3,3,0,0,0,107,49.64Z" style="fill:#cd4c1d"/><polygon points="82.8 37.11 80.06 44.68 85.56 44.68 82.8 37.11" style="fill:#cd4c1d"/><path d="M129.39,49.64A3.3,3.3,0,0,0,131,50a3.25,3.25,0,0,0,1.69-.44,2.93,2.93,0,0,0,1.15-1.19,3.79,3.79,0,0,0,0-3.47,3,3,0,0,0-1.15-1.19A3.25,3.25,0,0,0,131,43.3a3.3,3.3,0,0,0-1.6.39,3.06,3.06,0,0,0-1.15,1.08,3.35,3.35,0,0,0-.5,1.59V47a3.27,3.27,0,0,0,.5,1.55A3.11,3.11,0,0,0,129.39,49.64Z" style="fill:#cd4c1d"/><path d="M51.58,11.07V32.64H47.14L49.74,18H40.22l-2.6,14.69H30.53L33.13,18H23.65L21,32.64H14.69L13.4,40.55h6.23l-1.39,8h-6l-1.22,7.91h5.77L14.92,67.36H24.4l2-10.93h7.08L31.49,67.36H41L43,56.43h8.63V268.66H287V11.07ZM34.81,48.52H27.73l1.42-8h7.08ZM154.5,41.81a8.89,8.89,0,0,1,3.37-3.18,9.85,9.85,0,0,1,4.82-1.17,9.33,9.33,0,0,1,4.94,1.29,8.86,8.86,0,0,1,3.31,3.6,11.48,11.48,0,0,1,1.19,5.34v.57H160.27a4.24,4.24,0,0,0,.88,1.25,4.14,4.14,0,0,0,1.42.89,5.43,5.43,0,0,0,2,.34,8,8,0,0,0,4.73-1.6l1.7,4.52a12.74,12.74,0,0,1-7.19,2.21,11.4,11.4,0,0,1-5.37-1.25,9.72,9.72,0,0,1-3.77-3.41,8.73,8.73,0,0,1-1.39-4.85A8.47,8.47,0,0,1,154.5,41.81ZM143.6,28.26h7V55.51h-7Zm-22.41,9.56h5.72l.33,2.3A7.4,7.4,0,0,1,133,37.46a7.19,7.19,0,0,1,4.11,1.2,8.11,8.11,0,0,1,2.81,3.27,11.4,11.4,0,0,1,0,9.47,8.11,8.11,0,0,1-2.81,3.27,7.19,7.19,0,0,1-4.11,1.2,7.4,7.4,0,0,1-5.25-2.13V64.36h-6.55Zm-22.41,0h5.72l.34,2.3a7.39,7.39,0,0,1,2.54-2,7.47,7.47,0,0,1,3.21-.7,7.18,7.18,0,0,1,4.1,1.2,8.13,8.13,0,0,1,2.82,3.27,11.5,11.5,0,0,1,0,9.47,8.13,8.13,0,0,1-2.82,3.27,7.18,7.18,0,0,1-4.1,1.2,7.44,7.44,0,0,1-2.89-.56,7.6,7.6,0,0,1-2.37-1.57V64.36H98.78ZM108,74.1,107.23,80a7.89,7.89,0,0,0-2.41-.42,4.45,4.45,0,0,0-2.24.54,3.66,3.66,0,0,0-1.46,1.51,4.93,4.93,0,0,0-.51,2.32v7.84H94.08V74.06h5.66l.21,2.78a6.45,6.45,0,0,1,2.3-2.31,6.34,6.34,0,0,1,3.24-.82,7.82,7.82,0,0,1,1.26.1A9.13,9.13,0,0,1,108,74.1ZM44.34,48.52l1.41-8h5.83v8ZM79.14,29h7.34L96.84,55.51H89.49l-1.72-4.72H77.83l-1.72,4.72H68.77Zm11.17,95.49a7.3,7.3,0,0,1-3.17,2.62,11.69,11.69,0,0,1-4.85.93H70.36V101.46H80.47q4.57,0,7.07,1.86a6.15,6.15,0,0,1,2.5,5.25,6.63,6.63,0,0,1-.85,3.38,6.22,6.22,0,0,1-2.3,2.31,6.51,6.51,0,0,1,3.34,2.3,6.35,6.35,0,0,1,1.19,3.91A7.12,7.12,0,0,1,90.31,124.46Zm0-36.25a7.3,7.3,0,0,1-3.17,2.62,11.69,11.69,0,0,1-4.85.93H70.36V65.21H80.47q4.57,0,7.07,1.86A6.16,6.16,0,0,1,90,72.33a6.62,6.62,0,0,1-.85,3.37A6.22,6.22,0,0,1,86.89,78a6.57,6.57,0,0,1,3.34,2.3,6.38,6.38,0,0,1,1.19,3.91A7.07,7.07,0,0,1,90.31,88.21ZM110.87,128h-5.72l-.31-1.95a6.61,6.61,0,0,1-2.36,1.71,7.62,7.62,0,0,1-3,.59,7.21,7.21,0,0,1-3.24-.7A5.59,5.59,0,0,1,94,125.73a5.24,5.24,0,0,1,.08-5.72,5.91,5.91,0,0,1,2.45-2,8.63,8.63,0,0,1,3.58-.71,10.42,10.42,0,0,1,2.16.22,11.53,11.53,0,0,1,2.07.64v-.28a2.14,2.14,0,0,0-.52-1.43,3.54,3.54,0,0,0-1.45-1,6.08,6.08,0,0,0-2.12-.35,7.92,7.92,0,0,0-2.33.35,7.1,7.1,0,0,0-2,1l-1.67-4.79a20.94,20.94,0,0,1,3.86-1.31,16,16,0,0,1,3.66-.44A10.21,10.21,0,0,1,106.6,111a7.67,7.67,0,0,1,3.16,3,9.2,9.2,0,0,1,1.11,4.61Zm-.61-40.36a9.59,9.59,0,0,1,0-9.47,8.94,8.94,0,0,1,3.43-3.28,10.31,10.31,0,0,1,5-1.19,10.11,10.11,0,0,1,4.94,1.19A8.89,8.89,0,0,1,127,78.18a9.14,9.14,0,0,1-3.41,12.74,10,10,0,0,1-4.94,1.19,10.2,10.2,0,0,1-5-1.19A9,9,0,0,1,110.26,87.65ZM132.45,128h-6.54v-8.53a4.63,4.63,0,0,0-.68-2.73,2.22,2.22,0,0,0-1.93-1,2.33,2.33,0,0,0-2,1,4.47,4.47,0,0,0-.71,2.72V128h-6.53v-17.7h5.16l.22,2.81a6.23,6.23,0,0,1,2.45-2.36,7.41,7.41,0,0,1,3.55-.8,6.62,6.62,0,0,1,5.15,2,8.14,8.14,0,0,1,1.86,5.69Zm14.17-36.25-2.05-9.18-2,9.18h-7.44l-5.75-17.7h6.9l2.46,11.13,3.08-11.13h5.6l3.07,11.21,2.47-11.21h6.9l-5.75,17.7ZM167.16,80a3.53,3.53,0,0,0,.94.53c.39.16.83.32,1.3.5a25.17,25.17,0,0,1,2.44,1A6.25,6.25,0,0,1,174,83.7a4.15,4.15,0,0,1,.88,2.79,4.78,4.78,0,0,1-.95,3,6,6,0,0,1-2.67,2,11,11,0,0,1-4.08.69,15.07,15.07,0,0,1-7.34-1.85l1.34-5.38A5.28,5.28,0,0,0,162.58,86a9.71,9.71,0,0,0,2.06.86,7.27,7.27,0,0,0,2.05.33,2.25,2.25,0,0,0,1.08-.21.66.66,0,0,0,.37-.6.85.85,0,0,0-.35-.7,3.49,3.49,0,0,0-.95-.54c-.39-.17-.84-.34-1.35-.52a24,24,0,0,1-2.38-1A6.06,6.06,0,0,1,161,82a4.2,4.2,0,0,1-.86-2.76,4.8,4.8,0,0,1,.89-2.92,5.76,5.76,0,0,1,2.53-1.9,10,10,0,0,1,3.85-.67,16.64,16.64,0,0,1,7.45,1.86l-1.82,5a7,7,0,0,0-1.49-.94,13,13,0,0,0-1.88-.72,6.1,6.1,0,0,0-1.68-.29,1.47,1.47,0,0,0-.87.21.62.62,0,0,0-.29.55A.89.89,0,0,0,167.16,80Zm28,4.46H183.28a4.12,4.12,0,0,0,.88,1.25,4.32,4.32,0,0,0,1.42.9,5.4,5.4,0,0,0,2,.33,8,8,0,0,0,4.72-1.59L194,89.9a12.61,12.61,0,0,1-7.18,2.21,11.37,11.37,0,0,1-5.37-1.24,9.72,9.72,0,0,1-3.77-3.41,8.75,8.75,0,0,1-1.39-4.85,8.48,8.48,0,0,1,1.24-4.56,8.87,8.87,0,0,1,3.37-3.17,9.85,9.85,0,0,1,4.82-1.17A9.33,9.33,0,0,1,190.64,75,8.9,8.9,0,0,1,194,78.59a11.55,11.55,0,0,1,1.18,5.35ZM210.94,80a7.84,7.84,0,0,0-2.41-.42,4.45,4.45,0,0,0-2.24.54,3.66,3.66,0,0,0-1.46,1.51,4.93,4.93,0,0,0-.51,2.32v7.84h-6.53V74.06h5.66l.21,2.78A6.39,6.39,0,0,1,206,74.53a6.28,6.28,0,0,1,3.23-.82,7.64,7.64,0,0,1,1.26.1,8.54,8.54,0,0,1,1.29.29Z" style="fill:#cd4c1d"/><path d="M187.55,79.38A3.18,3.18,0,0,0,186,79a2.78,2.78,0,0,0-1.49.39,3.27,3.27,0,0,0-1,1,4.27,4.27,0,0,0-.54,1.42h6.18a3.43,3.43,0,0,0-.5-1.47A3,3,0,0,0,187.55,79.38Z" style="fill:#cd4c1d"/><path d="M121.2,84.64a4,4,0,0,0,.38-1.76,3.77,3.77,0,0,0-.38-1.71,3,3,0,0,0-1-1.19,2.87,2.87,0,0,0-3,0,3.12,3.12,0,0,0-1,1.19,3.77,3.77,0,0,0-.38,1.71,4,4,0,0,0,.38,1.76,3.07,3.07,0,0,0,1,1.2,2.87,2.87,0,0,0,3,0A3,3,0,0,0,121.2,84.64Z" style="fill:#cd4c1d"/><g id="Layer_2" data-name="Layer 2"><g id="Layer_1-2" data-name="Layer 1-2"><path d="M234.66,258.61a5.2,5.2,0,0,1-2.13-.43,5.59,5.59,0,0,1-2.92-2.9,5.5,5.5,0,0,1,0-4.25,5.63,5.63,0,0,1,2.92-2.92,5.49,5.49,0,0,1,4.26,0A5.51,5.51,0,0,1,239.7,251a5.43,5.43,0,0,1-1.17,6,5.7,5.7,0,0,1-1.74,1.16A5.38,5.38,0,0,1,234.66,258.61Zm0-2.86a2.83,2.83,0,0,0,1-.2,2.76,2.76,0,0,0,.87-.56,2.55,2.55,0,0,0,.62-.83,2.38,2.38,0,0,0,0-2,2.66,2.66,0,0,0-.62-.83,2.73,2.73,0,0,0-2.94-.57,2.63,2.63,0,0,0-.87.57,3.06,3.06,0,0,0-.59.83,2.38,2.38,0,0,0,0,2,3.06,3.06,0,0,0,.59.83,2.76,2.76,0,0,0,.87.56,2.81,2.81,0,0,0,1,.19Z" style="fill:#fff"/><path d="M229.81,247.43a.42.42,0,0,1-.31,0,.23.23,0,0,1-.12-.23v-2.35a.37.37,0,0,1,.09-.27.39.39,0,0,1,.22-.18l4.81-1.65c.1,0,.14-.07.14-.15s0-.12-.14-.15l-4.79-1.58a.51.51,0,0,1-.24-.17.49.49,0,0,1-.09-.31v-1.92a.49.49,0,0,1,.33-.46l4.82-1.59q.15,0,.15-.15c0-.07-.05-.12-.15-.17l-4.84-1.65a.59.59,0,0,1-.22-.19.44.44,0,0,1-.09-.31v-2.3a.22.22,0,0,1,.12-.22.36.36,0,0,1,.25,0l9.86,3.5a.53.53,0,0,1,.24.18.56.56,0,0,1,.09.31v1.86a.56.56,0,0,1-.09.31.47.47,0,0,1-.24.18l-4.81,1.59c-.1,0-.15.07-.15.15s0,.12.15.15l4.81,1.59a.51.51,0,0,1,.24.17.56.56,0,0,1,.09.31v1.86a.51.51,0,0,1-.33.45Z" style="fill:#fff"/><path d="M229.71,228.53a.51.51,0,0,1-.22-.19.49.49,0,0,1-.09-.31v-2a.47.47,0,0,1,.09-.28.5.5,0,0,1,.23-.2l9.81-4.21a.31.31,0,0,1,.28,0,.32.32,0,0,1,.14.31v2.48a.5.5,0,0,1-.1.31.56.56,0,0,1-.22.21l-.88.39a.63.63,0,0,0-.22.21.47.47,0,0,0-.09.28v3a.56.56,0,0,0,.09.31.53.53,0,0,0,.22.2l.87.4a.6.6,0,0,1,.23.19.52.52,0,0,1,.09.29v2.48a.4.4,0,0,1,0,.15.38.38,0,0,1-.09.13.37.37,0,0,1-.14.07.35.35,0,0,1-.2-.05Zm6.27-.85v-1.29a.22.22,0,0,0-.09-.21.22.22,0,0,0-.22,0l-.85.35-.91.38c-.08,0-.13.08-.13.13s.05.09.13.12l1.75.73a.28.28,0,0,0,.22,0A.23.23,0,0,0,236,227.68Z" style="fill:#fff"/><path d="M258.72,240.94H255a.31.31,0,0,0-.31.31v0a19.88,19.88,0,0,0,.6,3.91.31.31,0,0,0,.31.24h3.12a.31.31,0,0,0,.31-.32v-3.85a.3.3,0,0,0-.29-.32Z" style="fill:#fff"/><path d="M258.72,234.53h-3.1a.31.31,0,0,0-.31.24,19.38,19.38,0,0,0-.62,3.93.31.31,0,0,0,.28.34h3.75a.31.31,0,0,0,.31-.31v-3.87a.31.31,0,0,0-.31-.32Z" style="fill:#fff"/><path d="M258.55,229.28a6.54,6.54,0,0,0-2.17,2.59c-.05.09-.1.2-.15.31a.31.31,0,0,0,.29.46h2.19a.31.31,0,0,0,.31-.31v-2.77a.31.31,0,0,0-.3-.32A.33.33,0,0,0,258.55,229.28Z" style="fill:#fff"/><path d="M258.72,247.31h-2.2a.31.31,0,0,0-.33.29.25.25,0,0,0,0,.17,2.25,2.25,0,0,0,.16.31,6.49,6.49,0,0,0,2.17,2.59.31.31,0,0,0,.43-.06.34.34,0,0,0,.07-.22V247.6a.31.31,0,0,0-.31-.31Z" style="fill:#fff"/><path d="M252.06,232.63h1.71a.33.33,0,0,0,.31-.21,13.48,13.48,0,0,1,.93-1.91.31.31,0,1,0-.43-.45h0a11.19,11.19,0,0,0-2.72,2,.3.3,0,0,0-.05.43h0A.31.31,0,0,0,252.06,232.63Z" style="fill:#fff"/><path d="M249,239h3.53a.33.33,0,0,0,.31-.31,22.11,22.11,0,0,1,.51-3.8.32.32,0,0,0-.21-.39h-2.92a.34.34,0,0,0-.29.17,11.32,11.32,0,0,0-1.26,4,.31.31,0,0,0,.25.36H249Z" style="fill:#fff"/><path d="M254.06,247.53a.33.33,0,0,0-.31-.21H252a.31.31,0,0,0-.35.27.31.31,0,0,0,.12.28,11.22,11.22,0,0,0,2.74,2,.31.31,0,0,0,.44,0h0a.31.31,0,0,0,0-.44h0A14.5,14.5,0,0,1,254.06,247.53Z" style="fill:#fff"/><path d="M265.92,232.42a.33.33,0,0,0,.31.21H268a.3.3,0,0,0,.34-.27.3.3,0,0,0-.11-.28,11.66,11.66,0,0,0-2.72-2,.31.31,0,1,0-.44.45h0A13.26,13.26,0,0,1,265.92,232.42Z" style="fill:#fff"/><path d="M253.31,245a22,22,0,0,1-.51-3.78.33.33,0,0,0-.31-.31H249a.32.32,0,0,0-.31.34v0a11,11,0,0,0,1.24,3.95.3.3,0,0,0,.28.17H253a.31.31,0,0,0,.31-.31A.25.25,0,0,0,253.31,245Z" style="fill:#fff"/><path d="M261.27,239H265a.31.31,0,0,0,.31-.31v0a19.26,19.26,0,0,0-.6-3.92.31.31,0,0,0-.31-.24h-3.12a.31.31,0,0,0-.31.31v3.86a.32.32,0,0,0,.28.34h0Z" style="fill:#fff"/><path d="M266.68,234.93a22.11,22.11,0,0,1,.51,3.8.31.31,0,0,0,.31.31h3.56a.31.31,0,0,0,.31-.31v-.06a11.2,11.2,0,0,0-1.24-4,.32.32,0,0,0-.29-.16H267a.31.31,0,0,0-.33.29h0Z" style="fill:#fff"/><path d="M271.06,240.94h-3.54a.33.33,0,0,0-.31.31,23,23,0,0,1-.49,3.78.3.3,0,0,0,.21.38h2.94a.32.32,0,0,0,.28-.17,11,11,0,0,0,1.24-4,.31.31,0,0,0-.25-.36h-.08Z" style="fill:#fff"/><path d="M268,247.31h-1.73a.32.32,0,0,0-.31.21,12.79,12.79,0,0,1-.93,1.94.31.31,0,0,0,0,.44.3.3,0,0,0,.44,0h0a11.46,11.46,0,0,0,2.75-2,.31.31,0,0,0,0-.44h0A.3.3,0,0,0,268,247.31Z" style="fill:#fff"/><path d="M261.27,232.63h2.19a.31.31,0,0,0,.34-.28.34.34,0,0,0,0-.18l-.15-.31a6.49,6.49,0,0,0-2.17-2.59.32.32,0,0,0-.44.06.29.29,0,0,0-.06.22v2.74a.31.31,0,0,0,.28.34Z" style="fill:#fff"/><path d="M263.48,247.31h-2.21a.31.31,0,0,0-.31.31v2.79a.32.32,0,0,0,.28.34.33.33,0,0,0,.22-.06,6.49,6.49,0,0,0,2.17-2.59,3.18,3.18,0,0,0,.16-.32.31.31,0,0,0-.13-.42.29.29,0,0,0-.18,0Z" style="fill:#fff"/><path d="M265,240.94h-3.72a.31.31,0,0,0-.31.31v3.84a.31.31,0,0,0,.31.31h3.12a.29.29,0,0,0,.31-.24,19.68,19.68,0,0,0,.6-3.89.31.31,0,0,0-.29-.33h0Z" style="fill:#fff"/><path d="M272.51,221.3h-25a4.49,4.49,0,0,0-4.48,4.49v28.39a4.49,4.49,0,0,0,4.48,4.48h25a4.49,4.49,0,0,0,4.48-4.48V225.79A4.49,4.49,0,0,0,272.51,221.3ZM260,253.23A13.25,13.25,0,1,1,273.25,240,13.25,13.25,0,0,1,260,253.23Z" style="fill:#fff"/></g></g><path d="M234.91,215.25v-2.77a6.5,6.5,0,0,1,6.51-6.51h0a6.19,6.19,0,0,1,6.2,6.2v7.23a.67.67,0,0,0,.67.67h3.87a.67.67,0,0,0,.67-.67h0v-7.2a11.4,11.4,0,0,0-11.4-11.41h0a12,12,0,0,0-12,12h0v2.43a1.09,1.09,0,0,0,1.09,1.1h3.32a1.1,1.1,0,0,0,1.1-1.1Z" style="fill:#fff"/></svg>