<svg id="Calque_1" data-name="Calque 1" xmlns="http://www.w3.org/2000/svg" width="366.51" height="276.54" viewBox="0 0 366.51 276.54"><rect width="366.51" height="276.54" rx="9.85" style="fill:#cd4c1d"/><g style="opacity:0.32"><g id="Layer_2" data-name="Layer 2"><g id="Layer_1-2" data-name="Layer 1-2"><path d="M303.71,260.56a6.2,6.2,0,0,1-5.7-3.77,6.13,6.13,0,0,1,0-4.79,6.23,6.23,0,0,1,3.29-3.29,6.15,6.15,0,0,1,4.81,0A6.23,6.23,0,0,1,309.4,252a6.12,6.12,0,0,1-3.29,8.05A5.88,5.88,0,0,1,303.71,260.56Zm0-3.23a3.13,3.13,0,0,0,1.17-.23,3.16,3.16,0,0,0,1-.63,3,3,0,0,0,.7-.94,2.68,2.68,0,0,0,0-2.28,3.21,3.21,0,0,0-.7-.94,3.1,3.1,0,0,0-3.32-.64,3.32,3.32,0,0,0-1,.64,3.26,3.26,0,0,0-.66.94,2.68,2.68,0,0,0,0,2.28,3,3,0,0,0,1.64,1.57,3.12,3.12,0,0,0,1.17.22Z" style="fill:#fff"/><path d="M298.23,247.93a.43.43,0,0,1-.35,0,.26.26,0,0,1-.14-.26V245a.5.5,0,0,1,.1-.31.52.52,0,0,1,.26-.2l5.42-1.86c.11,0,.17-.08.17-.17s-.06-.13-.17-.17l-5.4-1.79a.48.48,0,0,1-.27-.19.5.5,0,0,1-.1-.35v-2.16a.51.51,0,0,1,.1-.32.45.45,0,0,1,.27-.2l5.44-1.79c.11,0,.16-.09.16-.18s-.05-.14-.16-.18l-5.46-1.87a.78.78,0,0,1-.26-.22.53.53,0,0,1-.1-.35v-2.6a.23.23,0,0,1,.14-.24.34.34,0,0,1,.28,0l11.13,3.95a.51.51,0,0,1,.27.21.54.54,0,0,1,.11.35v2.1a.56.56,0,0,1-.11.35.48.48,0,0,1-.27.19l-5.43,1.8c-.1,0-.16.08-.16.17s.06.13.16.17l5.43,1.79a.45.45,0,0,1,.27.2.54.54,0,0,1,.11.35v2.1a.55.55,0,0,1-.38.5Z" style="fill:#fff"/><path d="M298.11,226.59a.56.56,0,0,1-.24-.22.61.61,0,0,1-.11-.35v-2.26a.52.52,0,0,1,.11-.32.59.59,0,0,1,.25-.22l11.08-4.76a.35.35,0,0,1,.48.38v2.8a.63.63,0,0,1-.11.35.61.61,0,0,1-.25.23l-1,.44a.72.72,0,0,0-.25.24.51.51,0,0,0-.11.31v3.44a.61.61,0,0,0,.11.35.54.54,0,0,0,.25.22l1,.46a.66.66,0,0,1,.36.54V231a.53.53,0,0,1,0,.17.42.42,0,0,1-.09.14.35.35,0,0,1-.16.08.4.4,0,0,1-.24,0Zm7.09-1v-1.45a.28.28,0,0,0-.1-.24.24.24,0,0,0-.26,0l-.95.4-1,.42c-.1,0-.14.09-.14.15s0,.1.14.14l2,.82a.3.3,0,0,0,.26,0A.29.29,0,0,0,305.2,225.63Z" style="fill:#fff"/><path d="M330.87,240.6h-4.2a.35.35,0,0,0-.35.35v0a22.6,22.6,0,0,0,.67,4.41.36.36,0,0,0,.35.27h3.53a.35.35,0,0,0,.35-.35V241a.35.35,0,0,0-.33-.37Z" style="fill:#fff"/><path d="M330.87,233.37h-3.5a.36.36,0,0,0-.35.27,23,23,0,0,0-.7,4.43.35.35,0,0,0,.31.39h4.24a.35.35,0,0,0,.35-.35v-4.38a.35.35,0,0,0-.35-.35Z" style="fill:#fff"/><path d="M330.68,227.45a7.36,7.36,0,0,0-2.45,2.91,3.78,3.78,0,0,0-.17.35.35.35,0,0,0,.12.48.41.41,0,0,0,.21.05h2.47a.35.35,0,0,0,.35-.35v-3.14a.35.35,0,0,0-.34-.36A.35.35,0,0,0,330.68,227.45Z" style="fill:#fff"/><path d="M330.87,247.8h-2.49a.34.34,0,0,0-.37.32.45.45,0,0,0,0,.2,3.69,3.69,0,0,0,.19.35,7.3,7.3,0,0,0,2.45,2.92.35.35,0,0,0,.49-.06.37.37,0,0,0,.07-.25v-3.15a.34.34,0,0,0-.35-.35Z" style="fill:#fff"/><path d="M323.36,231.22h1.92a.37.37,0,0,0,.36-.23,15,15,0,0,1,1.05-2.17.35.35,0,0,0-.49-.5h0a12.75,12.75,0,0,0-3.08,2.28.35.35,0,0,0-.05.49h0A.32.32,0,0,0,323.36,231.22Z" style="fill:#fff"/><path d="M319.84,238.46h4a.36.36,0,0,0,.35-.35,25.73,25.73,0,0,1,.58-4.29.36.36,0,0,0-.24-.44h-3.29a.37.37,0,0,0-.33.19,12.68,12.68,0,0,0-1.42,4.49.34.34,0,0,0,.28.4h.09Z" style="fill:#fff"/><path d="M325.61,248a.36.36,0,0,0-.35-.23h-1.93a.35.35,0,0,0-.39.3.35.35,0,0,0,.12.32,13,13,0,0,0,3.11,2.31.35.35,0,0,0,.49,0h0a.34.34,0,0,0,0-.49h0A15.86,15.86,0,0,1,325.61,248Z" style="fill:#fff"/><path d="M339,231a.37.37,0,0,0,.35.23h1.95a.34.34,0,0,0,.39-.3.34.34,0,0,0-.13-.32,12.9,12.9,0,0,0-3.07-2.28.35.35,0,0,0-.5,0,.34.34,0,0,0,0,.49h0A15.77,15.77,0,0,1,339,231Z" style="fill:#fff"/><path d="M324.76,245.22a25.62,25.62,0,0,1-.57-4.27.37.37,0,0,0-.35-.35h-4a.36.36,0,0,0-.35.38v0a12.36,12.36,0,0,0,1.4,4.46.33.33,0,0,0,.32.19h3.2a.35.35,0,0,0,.35-.35Z" style="fill:#fff"/><path d="M333.75,238.46H338a.35.35,0,0,0,.35-.35v0a22.06,22.06,0,0,0-.67-4.43.35.35,0,0,0-.35-.27h-3.53a.35.35,0,0,0-.35.35v4.35a.34.34,0,0,0,.32.38h0Z" style="fill:#fff"/><path d="M339.86,233.82a25.73,25.73,0,0,1,.58,4.29.35.35,0,0,0,.35.35h4a.35.35,0,0,0,.35-.35V238a12.51,12.51,0,0,0-1.4-4.49.36.36,0,0,0-.32-.19h-3.2a.35.35,0,0,0-.37.33h0A.28.28,0,0,0,339.86,233.82Z" style="fill:#fff"/><path d="M344.8,240.6h-4a.38.38,0,0,0-.36.35,25.59,25.59,0,0,1-.55,4.27.35.35,0,0,0,.24.43h3.32a.36.36,0,0,0,.32-.19,12.76,12.76,0,0,0,1.4-4.46.36.36,0,0,0-.28-.41h-.1Z" style="fill:#fff"/><path d="M341.3,247.8h-1.94a.35.35,0,0,0-.35.23,15.79,15.79,0,0,1-1.06,2.19.35.35,0,0,0,0,.5.34.34,0,0,0,.49,0h0a13,13,0,0,0,3.11-2.31.35.35,0,0,0,.05-.49h0A.39.39,0,0,0,341.3,247.8Z" style="fill:#fff"/><path d="M333.75,231.22h2.48a.34.34,0,0,0,.37-.32.34.34,0,0,0,0-.2l-.17-.35a7.39,7.39,0,0,0-2.45-2.92.35.35,0,0,0-.49.06.38.38,0,0,0-.08.25v3.1a.36.36,0,0,0,.32.38Z" style="fill:#fff"/><path d="M336.24,247.8h-2.49a.35.35,0,0,0-.35.35v3.15a.36.36,0,0,0,.32.38.37.37,0,0,0,.25-.07,7.47,7.47,0,0,0,2.45-2.92l.18-.37a.35.35,0,0,0-.15-.47.34.34,0,0,0-.2,0Z" style="fill:#fff"/><path d="M337.94,240.6h-4.2a.35.35,0,0,0-.35.35v4.34a.34.34,0,0,0,.35.35h3.52a.33.33,0,0,0,.35-.27,22.51,22.51,0,0,0,.68-4.4.35.35,0,0,0-.33-.37h0Z" style="fill:#fff"/><path d="M346.44,218.43H318.2a5.07,5.07,0,0,0-5.06,5.07v32.05a5.06,5.06,0,0,0,5.06,5.06h28.24a5.06,5.06,0,0,0,5.06-5.06V223.5A5.07,5.07,0,0,0,346.44,218.43Zm-14.12,36a15,15,0,1,1,15-15,15,15,0,0,1-15,15Z" style="fill:#fff"/></g></g><path d="M304,211.6v-3.13a7.35,7.35,0,0,1,7.35-7.35h0a7,7,0,0,1,7,7v8.16a.76.76,0,0,0,.76.76h4.37a.76.76,0,0,0,.75-.75h0v-8.13a12.87,12.87,0,0,0-12.87-12.88h0a13.58,13.58,0,0,0-13.58,13.58h0v2.75a1.24,1.24,0,0,0,1.24,1.24h3.75A1.25,1.25,0,0,0,304,211.6Z" style="fill:#fff"/></g><path d="M233,120.35l7.78-49.1H198.67L211.29,0H152.16L139.54,71.25h-44L108.17,0H49.25L36.63,71.25H0v49.1H27.83l-8.6,49.52H0V219H10.44L.38,276.54h59L69.57,219h44l-10.23,57.57h59.12L172.69,219h45.62l7.78-49.1H181.28l8.8-49.52ZM122.15,169.87h-44L87,120.35h44Z" style="fill:#fff;opacity:0.1"/><path d="M46.84,77.12H35.13L51.66,34.78H63.38L79.89,77.12H68.17l-2.73-7.54H49.58Zm6.29-17.27h8.78l-4.4-12.08Z"/><path d="M93.43,91.23H83V48.9h9.12l.53,3.66a12,12,0,0,1,4-3.11,11.74,11.74,0,0,1,5.13-1.12,11.5,11.5,0,0,1,6.54,1.91,13.1,13.1,0,0,1,4.49,5.22,18.2,18.2,0,0,1,0,15.1,13.1,13.1,0,0,1-4.49,5.22,11.49,11.49,0,0,1-6.54,1.9,11.61,11.61,0,0,1-4.6-.89,12.22,12.22,0,0,1-3.79-2.49Zm5.2-22.86a5.2,5.2,0,0,0,2.69-.69,5,5,0,0,0,1.84-1.91,6.12,6.12,0,0,0,0-5.53,4.94,4.94,0,0,0-1.84-1.9,5.11,5.11,0,0,0-2.69-.7,5.25,5.25,0,0,0-2.56.63A4.8,4.8,0,0,0,94.24,60a5.56,5.56,0,0,0-.81,2.54v1A5.4,5.4,0,0,0,94.24,66a4.93,4.93,0,0,0,1.83,1.71A5.35,5.35,0,0,0,98.63,68.37Z"/><path d="M129.16,91.23H118.72V48.9h9.12l.53,3.66a12,12,0,0,1,4-3.11,11.74,11.74,0,0,1,5.13-1.12,11.5,11.5,0,0,1,6.54,1.91,13.1,13.1,0,0,1,4.49,5.22,18.2,18.2,0,0,1,0,15.1,13.1,13.1,0,0,1-4.49,5.22,11.49,11.49,0,0,1-6.54,1.9,11.61,11.61,0,0,1-4.6-.89,12.22,12.22,0,0,1-3.79-2.49Zm5.2-22.86a5.2,5.2,0,0,0,2.69-.69,4.9,4.9,0,0,0,1.84-1.91,6.12,6.12,0,0,0,0-5.53,4.87,4.87,0,0,0-1.84-1.9,5.11,5.11,0,0,0-2.69-.7,5.25,5.25,0,0,0-2.56.63A4.8,4.8,0,0,0,130,60a5.56,5.56,0,0,0-.81,2.54v1A5.4,5.4,0,0,0,130,66a4.93,4.93,0,0,0,1.83,1.71A5.35,5.35,0,0,0,134.36,68.37Z"/><path d="M165.63,77.12H154.45V33.65h11.18Z"/><path d="M198.11,74.15a20.16,20.16,0,0,1-11.46,3.53,18.1,18.1,0,0,1-8.56-2,15.48,15.48,0,0,1-6-5.43,14,14,0,0,1-2.22-7.73,13.56,13.56,0,0,1,2-7.27,14.24,14.24,0,0,1,5.37-5.07,15.77,15.77,0,0,1,7.69-1.86,14.89,14.89,0,0,1,7.88,2.06,14.07,14.07,0,0,1,5.28,5.73A18.38,18.38,0,0,1,200,64.64v.91H181a7,7,0,0,0,1.41,2A6.66,6.66,0,0,0,184.71,69a8.46,8.46,0,0,0,3.16.54A12.76,12.76,0,0,0,195.4,67ZM180.56,61.31h9.85A5.23,5.23,0,0,0,189.6,59a4.55,4.55,0,0,0-1.75-1.59,5,5,0,0,0-2.41-.58,4.41,4.41,0,0,0-2.37.62,4.88,4.88,0,0,0-1.65,1.64A6.38,6.38,0,0,0,180.56,61.31Z"/><path d="M37.67,130.1V87.77H53.78q7.3,0,11.29,3a9.85,9.85,0,0,1,4,8.38,10.61,10.61,0,0,1-1.35,5.38A9.82,9.82,0,0,1,64,108.17a10.58,10.58,0,0,1,5.33,3.67,10.15,10.15,0,0,1,1.89,6.24,11.24,11.24,0,0,1-1.78,6.36,11.58,11.58,0,0,1-5,4.18,18.57,18.57,0,0,1-7.73,1.48Zm11.17-25.26H53a6.11,6.11,0,0,0,3.71-1A3.25,3.25,0,0,0,58,101.09a3.08,3.08,0,0,0-1.32-2.63,6.23,6.23,0,0,0-3.7-1H48.84Zm0,15.52h4.94a10.87,10.87,0,0,0,3.28-.43,4.43,4.43,0,0,0,2.06-1.27,3,3,0,0,0,.7-2,3.19,3.19,0,0,0-.62-2,3.68,3.68,0,0,0-1.82-1.21,8.9,8.9,0,0,0-2.92-.41H48.84Z"/><path d="M85.9,130.1H75.48V101.88h9l.33,4.43a10.27,10.27,0,0,1,3.67-3.68,10.07,10.07,0,0,1,5.17-1.32,13.7,13.7,0,0,1,2,.16,14.19,14.19,0,0,1,2.06.47l-1.3,9.37a12.06,12.06,0,0,0-3.83-.68,7,7,0,0,0-3.57.86,5.82,5.82,0,0,0-2.33,2.41,7.8,7.8,0,0,0-.82,3.7Z"/><path d="M114.71,130.67a16.28,16.28,0,0,1-7.94-1.91,14.26,14.26,0,0,1-5.48-5.22,15.32,15.32,0,0,1,0-15.1,14.26,14.26,0,0,1,5.48-5.22,16.28,16.28,0,0,1,7.94-1.91,16.05,16.05,0,0,1,7.89,1.91,14.15,14.15,0,0,1,5.44,5.22,15.45,15.45,0,0,1,0,15.1,14.15,14.15,0,0,1-5.44,5.22A16.05,16.05,0,0,1,114.71,130.67Zm0-9.32a4.3,4.3,0,0,0,2.41-.69,4.75,4.75,0,0,0,1.67-1.92,6.31,6.31,0,0,0,.6-2.81,6,6,0,0,0-.6-2.72,4.8,4.8,0,0,0-1.67-1.89,4.57,4.57,0,0,0-4.83,0,4.77,4.77,0,0,0-1.66,1.89,5.89,5.89,0,0,0-.61,2.72,6.18,6.18,0,0,0,.61,2.81,4.73,4.73,0,0,0,1.66,1.92A4.34,4.34,0,0,0,114.66,121.35Z"/><path d="M171.13,130.1H159.28L156,115.45l-3.27,14.65H140.88l-9.18-28.22h11l3.92,17.75,4.92-17.75h8.91l4.91,17.86,3.93-17.86h11Z"/><path d="M180.3,127.7l2.15-8.58a7.93,7.93,0,0,0,2.27,1.75,15.59,15.59,0,0,0,3.29,1.37,11.6,11.6,0,0,0,3.27.52,3.57,3.57,0,0,0,1.72-.33,1.06,1.06,0,0,0,.6-1,1.4,1.4,0,0,0-.57-1.12,5.84,5.84,0,0,0-1.51-.86c-.63-.26-1.35-.54-2.16-.82a40.78,40.78,0,0,1-3.79-1.59,9.82,9.82,0,0,1-3.37-2.6,6.61,6.61,0,0,1-1.39-4.42,7.7,7.7,0,0,1,1.43-4.64,9,9,0,0,1,4-3,16,16,0,0,1,6.14-1.08,26.55,26.55,0,0,1,11.88,3l-2.9,7.93a10.77,10.77,0,0,0-2.37-1.5,19.62,19.62,0,0,0-3-1.15,9.4,9.4,0,0,0-2.67-.46,2.4,2.4,0,0,0-1.39.33,1,1,0,0,0-.47.89,1.37,1.37,0,0,0,.55,1.08,5.49,5.49,0,0,0,1.5.85l2.07.81a38.15,38.15,0,0,1,3.9,1.59,10,10,0,0,1,3.4,2.6,6.65,6.65,0,0,1,1.39,4.44,7.71,7.71,0,0,1-1.51,4.76,9.64,9.64,0,0,1-4.26,3.12,17.51,17.51,0,0,1-6.5,1.1A24.13,24.13,0,0,1,180.3,127.7Z"/><path d="M234.8,127.14a20.24,20.24,0,0,1-11.46,3.53,18.22,18.22,0,0,1-8.56-2,15.58,15.58,0,0,1-6-5.44,13.94,13.94,0,0,1-2.22-7.73,13.56,13.56,0,0,1,2-7.27,14.21,14.21,0,0,1,5.37-5.06,15.77,15.77,0,0,1,7.69-1.87,14.89,14.89,0,0,1,7.88,2.06,14.19,14.19,0,0,1,5.28,5.73,18.39,18.39,0,0,1,1.89,8.53v.9H217.73a6.82,6.82,0,0,0,1.41,2A6.68,6.68,0,0,0,221.4,122a8.68,8.68,0,0,0,3.16.53,12.76,12.76,0,0,0,7.53-2.54ZM217.25,114.3h9.85a5.23,5.23,0,0,0-.81-2.35,4.71,4.71,0,0,0-1.75-1.59,5,5,0,0,0-2.41-.58,4.5,4.5,0,0,0-2.37.62,5,5,0,0,0-1.65,1.64A6.43,6.43,0,0,0,217.25,114.3Z"/><path d="M251.28,130.1H240.87V101.88h9l.34,4.43a9.93,9.93,0,0,1,8.83-5,13.83,13.83,0,0,1,2,.16,14.49,14.49,0,0,1,2.06.47l-1.3,9.37a12.07,12.07,0,0,0-3.84-.68,7,7,0,0,0-3.57.86,5.88,5.88,0,0,0-2.33,2.41,7.92,7.92,0,0,0-.82,3.7Z"/><path d="M37.67,183.09V140.75H53.78q7.3,0,11.29,3a9.86,9.86,0,0,1,4,8.39,10.6,10.6,0,0,1-1.35,5.37A9.92,9.92,0,0,1,64,161.16a10.46,10.46,0,0,1,5.33,3.67,10.14,10.14,0,0,1,1.89,6.23,11.27,11.27,0,0,1-1.78,6.37,11.56,11.56,0,0,1-5,4.17,18.57,18.57,0,0,1-7.73,1.49Zm11.17-25.26H53a6.11,6.11,0,0,0,3.71-1A3.23,3.23,0,0,0,58,154.07a3.06,3.06,0,0,0-1.32-2.62,6.23,6.23,0,0,0-3.7-1H48.84Zm0,15.52h4.94a10.85,10.85,0,0,0,3.28-.44,4.35,4.35,0,0,0,2.06-1.27,3,3,0,0,0,.7-2,3.19,3.19,0,0,0-.62-2,3.75,3.75,0,0,0-1.82-1.21,9.17,9.17,0,0,0-2.92-.41H48.84Z"/><path d="M102.27,183.09H93.15L92.64,180a10.19,10.19,0,0,1-3.75,2.72,12.06,12.06,0,0,1-4.8,1,11.52,11.52,0,0,1-5.16-1.11,8.93,8.93,0,0,1-3.56-3.08,8,8,0,0,1-1.3-4.47,7.88,7.88,0,0,1,1.41-4.66,9.53,9.53,0,0,1,3.91-3.15A13.65,13.65,0,0,1,85.11,166a17.16,17.16,0,0,1,3.44.35,18.29,18.29,0,0,1,3.3,1V167a3.42,3.42,0,0,0-.83-2.29,5.63,5.63,0,0,0-2.31-1.55,9.62,9.62,0,0,0-3.38-.56,12.49,12.49,0,0,0-3.71.56,10.81,10.81,0,0,0-3.2,1.61l-2.65-7.65A34.1,34.1,0,0,1,81.92,155a25.89,25.89,0,0,1,5.84-.7A16.31,16.31,0,0,1,95.45,156a12.08,12.08,0,0,1,5,4.82,14.55,14.55,0,0,1,1.78,7.35Zm-15.78-7a5.88,5.88,0,0,0,2.5-.57,6,6,0,0,0,2-1.44,2.67,2.67,0,0,0,.79-1.77v0a8.93,8.93,0,0,0-2.26-.92,9.65,9.65,0,0,0-2.48-.32,5.15,5.15,0,0,0-2.81.66,2.05,2.05,0,0,0-1,1.82,2.26,2.26,0,0,0,.42,1.33,2.69,2.69,0,0,0,1.17.91A4.13,4.13,0,0,0,86.49,176.06Z"/><path d="M136.67,183.09H126.26V169.48a7.42,7.42,0,0,0-1.09-4.34,3.55,3.55,0,0,0-3.09-1.53,3.72,3.72,0,0,0-3.19,1.54,7.24,7.24,0,0,0-1.13,4.33v13.61H107.35V154.86h8.24l.34,4.49a10,10,0,0,1,3.91-3.77,11.94,11.94,0,0,1,5.66-1.28,10.51,10.51,0,0,1,8.21,3.26q3,3.25,3,9.07Z"/></svg>