<svg id="Calque_1" data-name="Calque 1" xmlns="http://www.w3.org/2000/svg" width="456.54" height="344.48" viewBox="0 0 456.54 344.48"><path d="M190.37,136a7.83,7.83,0,0,0,.75-3.5,7.48,7.48,0,0,0-.75-3.39,6,6,0,0,0-2.08-2.35,5.62,5.62,0,0,0-6,0,5.91,5.91,0,0,0-2.07,2.35,7.35,7.35,0,0,0-.76,3.39,7.7,7.7,0,0,0,.76,3.5,5.83,5.83,0,0,0,2.07,2.39,5.68,5.68,0,0,0,6,0A5.93,5.93,0,0,0,190.37,136Z" style="fill:#cd4c1d"/><path d="M113.13,183.46a4,4,0,0,0,1.63-3.46,3.83,3.83,0,0,0-1.65-3.27,7.8,7.8,0,0,0-4.61-1.19h-5.2v9.14h5.2A7.64,7.64,0,0,0,113.13,183.46Z" style="fill:#cd4c1d"/><path d="M113.13,117.46a4,4,0,0,0,1.63-3.46,3.83,3.83,0,0,0-1.65-3.27,7.8,7.8,0,0,0-4.61-1.19h-5.2v9.14h5.2A7.64,7.64,0,0,0,113.13,117.46Z" style="fill:#cd4c1d"/><path d="M278.64,61.54a5.73,5.73,0,0,0-2.18-2,6.27,6.27,0,0,0-3-.72,5.63,5.63,0,0,0-3,.77,6.34,6.34,0,0,0-2.05,2,7.76,7.76,0,0,0-1.07,2.82h12.27A6.52,6.52,0,0,0,278.64,61.54Z" style="fill:#cd4c1d"/><path d="M150.9,201.1a6.45,6.45,0,0,0-3.5.82,2.58,2.58,0,0,0-1.28,2.27,2.78,2.78,0,0,0,.53,1.65,3.43,3.43,0,0,0,1.46,1.14,5.2,5.2,0,0,0,2.09.41,7.88,7.88,0,0,0,5.62-2.5,3.28,3.28,0,0,0,1-2.21v0A11.18,11.18,0,0,0,154,201.5,12.27,12.27,0,0,0,150.9,201.1Z" style="fill:#cd4c1d"/><path d="M113.94,129.38a11.37,11.37,0,0,0-3.64-.51h-7V138h6.15a13.44,13.44,0,0,0,4.08-.54,5.46,5.46,0,0,0,2.57-1.58,3.79,3.79,0,0,0,.88-2.52,3.93,3.93,0,0,0-.78-2.48A4.71,4.71,0,0,0,113.94,129.38Z" style="fill:#cd4c1d"/><path d="M113.94,195.38a11.37,11.37,0,0,0-3.64-.51h-7V204h6.15a13.44,13.44,0,0,0,4.08-.54,5.46,5.46,0,0,0,2.57-1.58,3.79,3.79,0,0,0,.88-2.52,3.93,3.93,0,0,0-.78-2.48A4.71,4.71,0,0,0,113.94,195.38Z" style="fill:#cd4c1d"/><path d="M162.14,72.47a7,7,0,0,0,6.53-.09A6,6,0,0,0,171,70a7.56,7.56,0,0,0,0-6.89,6,6,0,0,0-2.29-2.37,6.88,6.88,0,0,0-6.53-.09,6,6,0,0,0-2.29,2.14,6.89,6.89,0,0,0-1,3.17v1.3a6.61,6.61,0,0,0,1,3.07A6,6,0,0,0,162.14,72.47Z" style="fill:#cd4c1d"/><polygon points="47.79 62.63 55.35 62.63 56.86 54.12 49.3 54.12 47.79 62.63" style="fill:#cd4c1d"/><path d="M446.69,0H9.85A9.85,9.85,0,0,0,0,9.85V334.63a9.85,9.85,0,0,0,9.85,9.85H446.69a9.85,9.85,0,0,0,9.85-9.85V9.85A9.85,9.85,0,0,0,446.69,0ZM256.51,56.91a17.69,17.69,0,0,1,6.7-6.31,19.68,19.68,0,0,1,9.58-2.32,18.5,18.5,0,0,1,9.81,2.57A17.58,17.58,0,0,1,289.17,58a22.82,22.82,0,0,1,2.36,10.61v1.13H268a8.64,8.64,0,0,0,1.76,2.48A8.23,8.23,0,0,0,272.54,74a10.59,10.59,0,0,0,3.94.67,15.88,15.88,0,0,0,9.39-3.16l3.37,9A25.17,25.17,0,0,1,275,84.85a22.66,22.66,0,0,1-10.67-2.48,19.54,19.54,0,0,1-7.49-6.77A17.42,17.42,0,0,1,254.05,66,16.91,16.91,0,0,1,256.51,56.91ZM234.86,30h13.92V84.14H234.86ZM190.35,49H201.7l.67,4.57a14.72,14.72,0,0,1,11.43-5.28A14.25,14.25,0,0,1,222,50.66a16.31,16.31,0,0,1,5.59,6.5,21,21,0,0,1,2,9.4,21,21,0,0,1-2,9.41,16.31,16.31,0,0,1-5.59,6.5,14.32,14.32,0,0,1-8.15,2.38,14.56,14.56,0,0,1-5.73-1.11,15.26,15.26,0,0,1-4.71-3.11v21.09h-13Zm-44.51,0H157.2l.66,4.57a14.72,14.72,0,0,1,11.43-5.28,14.3,14.3,0,0,1,8.16,2.38,16.39,16.39,0,0,1,5.59,6.5,21.08,21.08,0,0,1,2,9.4A21.12,21.12,0,0,1,183,76a16.39,16.39,0,0,1-5.59,6.5,14.38,14.38,0,0,1-8.16,2.38,14.63,14.63,0,0,1-5.73-1.11,15.26,15.26,0,0,1-4.71-3.11v21.09h-13Zm18.39,66.07-1.62,11.67a15.43,15.43,0,0,0-4.78-.85,8.78,8.78,0,0,0-4.45,1.08,7.29,7.29,0,0,0-2.9,3,9.77,9.77,0,0,0-1,4.61v15.57h-13V115h11.25l.42,5.52a12.73,12.73,0,0,1,4.57-4.59,12.58,12.58,0,0,1,6.43-1.64,16.4,16.4,0,0,1,2.5.2A19.27,19.27,0,0,1,164.23,115.06ZM74.4,54.12H67l-1.51,8.51h7.7l-1.34,8.43H64L62,82.74H51.8l2.07-11.68H46.31L44.24,82.74H34.12l2-11.68H30l1.3-8.43h6.37l1.47-8.51H32.5l1.37-8.44h6.78L43.43,30H53.56L50.78,45.68h7.56L61.12,30H71.28L68.5,45.68h7.24Zm32.42-22.71h14.59L142,84.14H127.38L124,74.76H104.22l-3.41,9.38H86.22ZM129,209.09a14.46,14.46,0,0,1-6.29,5.21,23.22,23.22,0,0,1-9.64,1.84H89.38V163.41h20.07q9.1,0,14.07,3.69a12.26,12.26,0,0,1,5,10.44,13.25,13.25,0,0,1-1.68,6.7,12.28,12.28,0,0,1-4.57,4.59,13.06,13.06,0,0,1,6.64,4.57,12.65,12.65,0,0,1,2.36,7.77A14,14,0,0,1,129,209.09Zm0-66a14.46,14.46,0,0,1-6.29,5.21,23.22,23.22,0,0,1-9.64,1.84H89.38V97.41h20.07q9.1,0,14.07,3.69a12.26,12.26,0,0,1,5,10.44,13.25,13.25,0,0,1-1.68,6.7,12.28,12.28,0,0,1-4.57,4.59,13.06,13.06,0,0,1,6.64,4.57,12.65,12.65,0,0,1,2.36,7.77A14,14,0,0,1,129,143.09Zm40.85,73H158.5l-.64-3.86a13,13,0,0,1-4.67,3.39,15.09,15.09,0,0,1-6,1.18,14.41,14.41,0,0,1-6.43-1.39,11.07,11.07,0,0,1-4.43-3.84,10.41,10.41,0,0,1,.14-11.37,11.79,11.79,0,0,1,4.87-3.92,16.92,16.92,0,0,1,7.12-1.42,20.55,20.55,0,0,1,4.29.44,22.46,22.46,0,0,1,4.11,1.28v-.56a4.3,4.3,0,0,0-1-2.85,6.87,6.87,0,0,0-2.88-1.93,11.7,11.7,0,0,0-4.2-.71,15.18,15.18,0,0,0-4.62.71,13.34,13.34,0,0,0-4,2l-3.31-9.53a43.29,43.29,0,0,1,7.66-2.6,32.7,32.7,0,0,1,7.28-.88,20.36,20.36,0,0,1,9.58,2.13,15.17,15.17,0,0,1,6.28,6,18.24,18.24,0,0,1,2.21,9.16ZM168.64,142a19.07,19.07,0,0,1,0-18.81,17.63,17.63,0,0,1,6.82-6.5,20.2,20.2,0,0,1,9.9-2.38,19.91,19.91,0,0,1,9.82,2.38,17.63,17.63,0,0,1,6.77,6.5A19.21,19.21,0,0,1,202,142a17.63,17.63,0,0,1-6.77,6.5,20,20,0,0,1-9.82,2.38,20.3,20.3,0,0,1-9.9-2.38A17.63,17.63,0,0,1,168.64,142Zm44.07,74.17h-13V199.2a9.27,9.27,0,0,0-1.35-5.42,4.45,4.45,0,0,0-3.85-1.9,4.63,4.63,0,0,0-4,1.92,9,9,0,0,0-1.41,5.4v16.94h-13V181h10.27l.42,5.59a12.41,12.41,0,0,1,4.87-4.7,14.85,14.85,0,0,1,7-1.6q6.54,0,10.23,4.06t3.69,11.31Zm28.16-66-4.08-18.24-4.08,18.24H218L206.52,115h13.71l4.89,22.11L231.23,115h11.11l6.12,22.25L253.35,115h13.71l-11.43,35.15Zm40.8-23.29a6.65,6.65,0,0,0,1.86,1.06c.79.31,1.65.65,2.58,1a49.75,49.75,0,0,1,4.86,2,12.52,12.52,0,0,1,4.23,3.24,8.3,8.3,0,0,1,1.74,5.54,9.64,9.64,0,0,1-1.88,5.92,11.88,11.88,0,0,1-5.31,3.88,21.59,21.59,0,0,1-8.1,1.38,30,30,0,0,1-14.59-3.7l2.67-10.68a10.35,10.35,0,0,0,2.83,2.18,19.51,19.51,0,0,0,4.1,1.7,14.25,14.25,0,0,0,4.07.65,4.42,4.42,0,0,0,2.15-.42,1.32,1.32,0,0,0,.74-1.2,1.74,1.74,0,0,0-.71-1.38,7.22,7.22,0,0,0-1.88-1.08c-.78-.32-1.68-.66-2.69-1a50.59,50.59,0,0,1-4.72-2,12.35,12.35,0,0,1-4.21-3.24,8.32,8.32,0,0,1-1.72-5.5,9.54,9.54,0,0,1,1.78-5.78,11.35,11.35,0,0,1,5-3.78,20.08,20.08,0,0,1,7.65-1.34,33.13,33.13,0,0,1,14.8,3.69l-3.62,9.88a13.42,13.42,0,0,0-2.95-1.86,23.75,23.75,0,0,0-3.75-1.44,11.79,11.79,0,0,0-3.32-.56,3.07,3.07,0,0,0-1.74.4,1.28,1.28,0,0,0-.58,1.11A1.73,1.73,0,0,0,281.67,126.85Zm55.56,8.88H313.68a8.42,8.42,0,0,0,1.75,2.48,8.18,8.18,0,0,0,2.82,1.77,10.5,10.5,0,0,0,3.93.67,15.86,15.86,0,0,0,9.39-3.16l3.38,9a25.2,25.2,0,0,1-14.28,4.4A22.66,22.66,0,0,1,310,148.37a19.54,19.54,0,0,1-7.49-6.77,17.42,17.42,0,0,1-2.76-9.63,16.83,16.83,0,0,1,2.47-9.06,17.73,17.73,0,0,1,6.69-6.31,19.71,19.71,0,0,1,9.58-2.32,18.5,18.5,0,0,1,9.81,2.57,17.61,17.61,0,0,1,6.58,7.14,22.94,22.94,0,0,1,2.35,10.61Zm31.4-9a15.54,15.54,0,0,0-4.79-.85A8.74,8.74,0,0,0,359.4,127a7.23,7.23,0,0,0-2.9,3,9.77,9.77,0,0,0-1,4.61v15.57h-13V115h11.25l.43,5.52a12.34,12.34,0,0,1,11-6.23,16.51,16.51,0,0,1,2.5.2,18.79,18.79,0,0,1,2.56.58Z" style="fill:#cd4c1d"/><polygon points="114.09 47.58 108.64 62.63 119.58 62.63 114.09 47.58" style="fill:#cd4c1d"/><path d="M322.17,125.55a6.34,6.34,0,0,0-3-.72,5.59,5.59,0,0,0-3,.77,6.28,6.28,0,0,0-2.06,2,7.94,7.94,0,0,0-1.07,2.82h12.27a6.51,6.51,0,0,0-1-2.92A5.8,5.8,0,0,0,322.17,125.55Z" style="fill:#cd4c1d"/><path d="M206.64,72.47a6.51,6.51,0,0,0,3.18.77,6.42,6.42,0,0,0,3.36-.86A6.07,6.07,0,0,0,215.47,70a7.65,7.65,0,0,0,0-6.89,6.07,6.07,0,0,0-2.29-2.37,6.42,6.42,0,0,0-3.36-.87,6.51,6.51,0,0,0-3.18.78,6,6,0,0,0-2.28,2.14,6.78,6.78,0,0,0-1,3.17v1.3a6.5,6.5,0,0,0,1,3.07A6,6,0,0,0,206.64,72.47Z" style="fill:#cd4c1d"/><g id="Layer_2" data-name="Layer 2"><g id="Layer_1-2" data-name="Layer 1-2"><path d="M367,314.73a7.31,7.31,0,0,1-3-.61,7.79,7.79,0,0,1-4.1-4.08,7.64,7.64,0,0,1,0-6A7.76,7.76,0,0,1,364,300a7.31,7.31,0,0,1,3-.61,7.39,7.39,0,0,1,3,.61,7.76,7.76,0,0,1,4.1,4.1,7.64,7.64,0,0,1-1.65,8.4A7.89,7.89,0,0,1,370,314.1,7.37,7.37,0,0,1,367,314.73Zm0-4a3.89,3.89,0,0,0,1.47-.29,4,4,0,0,0,1.22-.78,3.84,3.84,0,0,0,.87-1.17,3.36,3.36,0,0,0,0-2.84,4.2,4.2,0,0,0-.87-1.18,3.86,3.86,0,0,0-4.14-.79,3.94,3.94,0,0,0-1.22.79,4.26,4.26,0,0,0-.83,1.18,3.36,3.36,0,0,0,0,2.84,4.07,4.07,0,0,0,.83,1.17,3.82,3.82,0,0,0,2.67,1.05Z" style="fill:#fff"/><path d="M360.19,299a.49.49,0,0,1-.44,0,.33.33,0,0,1-.17-.32v-3.31a.58.58,0,0,1,.13-.38.59.59,0,0,1,.31-.25l6.76-2.31c.14,0,.21-.11.21-.22s-.07-.17-.21-.21l-6.73-2.22a.67.67,0,0,1-.46-.69V286.4a.72.72,0,0,1,.12-.4.67.67,0,0,1,.34-.24l6.78-2.24c.14,0,.2-.1.2-.21s-.06-.18-.2-.23L360,280.75a1,1,0,0,1-.31-.27.69.69,0,0,1-.13-.44v-3.23a.33.33,0,0,1,.17-.31.53.53,0,0,1,.35,0L374,281.42a.73.73,0,0,1,.34.26.76.76,0,0,1,.13.44v2.61a.76.76,0,0,1-.13.44.6.6,0,0,1-.34.24l-6.76,2.24q-.21.06-.21.21c0,.11.07.17.21.21l6.76,2.24a.6.6,0,0,1,.34.24.76.76,0,0,1,.13.44v2.62a.7.7,0,0,1-.47.62Z" style="fill:#fff"/><path d="M360.05,272.42a.74.74,0,0,1-.31-.27.69.69,0,0,1-.13-.44v-2.82a.73.73,0,0,1,.13-.4.76.76,0,0,1,.32-.27l13.8-5.93a.45.45,0,0,1,.39,0,.44.44,0,0,1,.2.44v3.49a.7.7,0,0,1-.14.44.83.83,0,0,1-.3.29l-1.24.54a.81.81,0,0,0-.31.3.68.68,0,0,0-.13.39v4.28a.69.69,0,0,0,.13.44.63.63,0,0,0,.31.27l1.22.57a.79.79,0,0,1,.32.28.76.76,0,0,1,.13.39v3.49a.54.54,0,0,1-.05.22.39.39,0,0,1-.11.17.41.41,0,0,1-.21.1.45.45,0,0,1-.28-.06Zm8.83-1.2v-1.8a.35.35,0,0,0-.14-.3.29.29,0,0,0-.31,0l-1.19.49-1.28.53q-.18.08-.18.18t.18.18l2.45,1a.36.36,0,0,0,.32,0A.36.36,0,0,0,368.88,271.22Z" style="fill:#fff"/><path d="M400.85,289.87h-5.23a.44.44,0,0,0-.44.44v.05a28.36,28.36,0,0,0,.84,5.49.43.43,0,0,0,.44.33h4.39a.43.43,0,0,0,.44-.43v-5.42a.44.44,0,0,0-.41-.46Z" style="fill:#fff"/><path d="M400.85,280.86h-4.36a.44.44,0,0,0-.43.34,28,28,0,0,0-.88,5.52.44.44,0,0,0,.39.48h5.28a.43.43,0,0,0,.44-.43v-5.45a.44.44,0,0,0-.44-.44Z" style="fill:#fff"/><path d="M400.61,273.48a9.17,9.17,0,0,0-3.05,3.64c-.07.13-.14.28-.21.43a.45.45,0,0,0,.15.6.58.58,0,0,0,.26.06h3.08a.44.44,0,0,0,.44-.44v-3.9a.43.43,0,0,0-.42-.45A.42.42,0,0,0,400.61,273.48Z" style="fill:#fff"/><path d="M400.85,298.84h-3.1a.42.42,0,0,0-.46.4.43.43,0,0,0,0,.25c.08.15.16.31.23.43a9.13,9.13,0,0,0,3.05,3.64.44.44,0,0,0,.61-.08.45.45,0,0,0,.1-.31v-3.92a.44.44,0,0,0-.44-.44Z" style="fill:#fff"/><path d="M391.49,278.19h2.4a.47.47,0,0,0,.44-.29,18.66,18.66,0,0,1,1.31-2.7.44.44,0,0,0-.61-.63h0a16.14,16.14,0,0,0-3.83,2.84.44.44,0,0,0-.07.62h0A.42.42,0,0,0,391.49,278.19Z" style="fill:#fff"/><path d="M387.1,287.2h5a.46.46,0,0,0,.44-.43,32.15,32.15,0,0,1,.72-5.35.45.45,0,0,0-.3-.54h-4.11a.46.46,0,0,0-.4.24,15.45,15.45,0,0,0-1.77,5.58.44.44,0,0,0,.35.51h.1Z" style="fill:#fff"/><path d="M394.3,299.14a.44.44,0,0,0-.43-.29h-2.42a.43.43,0,0,0-.48.38.42.42,0,0,0,.16.39A16,16,0,0,0,395,302.5a.43.43,0,0,0,.62,0h0a.43.43,0,0,0,0-.61h0A18.61,18.61,0,0,1,394.3,299.14Z" style="fill:#fff"/><path d="M411,277.9a.46.46,0,0,0,.44.29h2.42a.44.44,0,0,0,.49-.38.45.45,0,0,0-.17-.4,16.09,16.09,0,0,0-3.82-2.84.44.44,0,0,0-.62,0,.43.43,0,0,0,0,.62h0A20.64,20.64,0,0,1,411,277.9Z" style="fill:#fff"/><path d="M393.24,295.62a30.67,30.67,0,0,1-.71-5.31.47.47,0,0,0-.44-.44h-5a.46.46,0,0,0-.43.48v0a15.64,15.64,0,0,0,1.74,5.55.42.42,0,0,0,.4.24h4a.43.43,0,0,0,.43-.43A.49.49,0,0,0,393.24,295.62Z" style="fill:#fff"/><path d="M404.44,287.2h5.23a.43.43,0,0,0,.44-.43v0a27.7,27.7,0,0,0-.85-5.52.42.42,0,0,0-.43-.34h-4.39a.44.44,0,0,0-.44.44v5.42a.45.45,0,0,0,.4.48h0Z" style="fill:#fff"/><path d="M412.05,281.42a32.15,32.15,0,0,1,.72,5.35.43.43,0,0,0,.43.43h5a.44.44,0,0,0,.44-.43v-.09a15.59,15.59,0,0,0-1.75-5.59.44.44,0,0,0-.4-.24h-4a.44.44,0,0,0-.46.41h0A.43.43,0,0,0,412.05,281.42Z" style="fill:#fff"/><path d="M418.2,289.87h-5a.46.46,0,0,0-.44.44,31.64,31.64,0,0,1-.69,5.31.44.44,0,0,0,.3.54h4.13a.45.45,0,0,0,.4-.24,15.76,15.76,0,0,0,1.74-5.56.42.42,0,0,0-.35-.5h-.12Z" style="fill:#fff"/><path d="M413.84,298.84h-2.42a.43.43,0,0,0-.44.29,19,19,0,0,1-1.31,2.73.44.44,0,0,0,0,.62.45.45,0,0,0,.63,0h0a16.2,16.2,0,0,0,3.86-2.88.44.44,0,0,0,.06-.62h0A.41.41,0,0,0,413.84,298.84Z" style="fill:#fff"/><path d="M404.44,278.19h3.08a.44.44,0,0,0,.47-.4.36.36,0,0,0-.06-.25l-.21-.44a9,9,0,0,0-3.05-3.63.43.43,0,0,0-.61.07.44.44,0,0,0-.09.31v3.86a.44.44,0,0,0,.39.48Z" style="fill:#fff"/><path d="M407.54,298.84h-3.1a.44.44,0,0,0-.44.43v3.93a.44.44,0,0,0,.71.38,9.19,9.19,0,0,0,3.05-3.63l.23-.46a.44.44,0,0,0-.19-.59.43.43,0,0,0-.25,0Z" style="fill:#fff"/><path d="M409.66,289.87h-5.24a.44.44,0,0,0-.43.44v5.41a.43.43,0,0,0,.43.43h4.4a.43.43,0,0,0,.43-.33,28.36,28.36,0,0,0,.84-5.49.44.44,0,0,0-.41-.46h0Z" style="fill:#fff"/><path d="M420.24,262.26H385.07a6.31,6.31,0,0,0-6.31,6.3v39.93a6.32,6.32,0,0,0,6.31,6.31h35.17a6.31,6.31,0,0,0,6.3-6.31V268.56A6.3,6.3,0,0,0,420.24,262.26Zm-17.58,44.9a18.63,18.63,0,1,1,18.63-18.63,18.63,18.63,0,0,1-18.63,18.63Z" style="fill:#fff"/></g></g><path d="M367.36,253.74v-3.89a9.16,9.16,0,0,1,9.16-9.16h0a8.72,8.72,0,0,1,8.73,8.72v10.17a.94.94,0,0,0,.94.94h5.44a.94.94,0,0,0,.94-.93h0V249.45a16.05,16.05,0,0,0-16-16h0a16.92,16.92,0,0,0-16.92,16.92h0v3.42a1.55,1.55,0,0,0,1.54,1.55h4.67a1.54,1.54,0,0,0,1.54-1.55Z" style="fill:#fff"/></svg>