<svg id="Calque_1" data-name="Calque 1" xmlns="http://www.w3.org/2000/svg" width="688.76" height="643.06" viewBox="0 0 688.76 643.06"><path d="M162.4,111H144.06L170,44.67h18.34L214.13,111H195.8l-4.29-11.8H166.68Zm9.85-27H186L179.1,65Z" style="fill:#cd4c1d"/><path d="M235.34,133H219V66.76h14.28l.84,5.75a18.52,18.52,0,0,1,14.36-6.63,18,18,0,0,1,10.25,3,20.59,20.59,0,0,1,7,8.18,26.33,26.33,0,0,1,2.56,11.82,26.39,26.39,0,0,1-2.56,11.82,20.56,20.56,0,0,1-7,8.17,18,18,0,0,1-10.25,3,18.39,18.39,0,0,1-7.21-1.39,19.13,19.13,0,0,1-5.92-3.91Zm8.13-35.79a8.15,8.15,0,0,0,4.22-1.08,7.69,7.69,0,0,0,2.87-3,9.53,9.53,0,0,0,0-8.66,7.71,7.71,0,0,0-2.87-3,8.15,8.15,0,0,0-4.22-1.08,8.36,8.36,0,0,0-4,1,7.67,7.67,0,0,0-2.87,2.7,8.66,8.66,0,0,0-1.26,4v1.63a8.44,8.44,0,0,0,1.26,3.87,7.75,7.75,0,0,0,2.87,2.67A8.25,8.25,0,0,0,243.47,97.25Z" style="fill:#cd4c1d"/><path d="M291.28,133H274.93V66.76H289.2l.84,5.75a18.65,18.65,0,0,1,6.34-4.88,18.45,18.45,0,0,1,8-1.75,18,18,0,0,1,10.25,3,20.54,20.54,0,0,1,7,8.18,26.33,26.33,0,0,1,2.56,11.82,26.39,26.39,0,0,1-2.56,11.82,20.51,20.51,0,0,1-7,8.17,18,18,0,0,1-10.25,3,18.37,18.37,0,0,1-7.2-1.39,19.13,19.13,0,0,1-5.92-3.91Zm8.13-35.79a8.15,8.15,0,0,0,4.22-1.08,7.69,7.69,0,0,0,2.87-3,9.53,9.53,0,0,0,0-8.66,7.71,7.71,0,0,0-2.87-3,8.15,8.15,0,0,0-4.22-1.08,8.33,8.33,0,0,0-4,1,7.67,7.67,0,0,0-2.87,2.7,8.66,8.66,0,0,0-1.26,4v1.63a8.44,8.44,0,0,0,1.26,3.87,7.75,7.75,0,0,0,2.87,2.67A8.22,8.22,0,0,0,299.41,97.25Z" style="fill:#cd4c1d"/><path d="M348.37,111h-17.5V42.9h17.5Z" style="fill:#cd4c1d"/><path d="M399.22,106.31a31.67,31.67,0,0,1-17.94,5.52,28.51,28.51,0,0,1-13.41-3.11,24.43,24.43,0,0,1-9.41-8.51A21.9,21.9,0,0,1,355,88.11a21.15,21.15,0,0,1,3.1-11.38,22.21,22.21,0,0,1,8.41-7.93,24.61,24.61,0,0,1,12-2.92,23.23,23.23,0,0,1,12.33,3.23,22,22,0,0,1,8.26,9,28.6,28.6,0,0,1,3,13.34v1.41h-29.6A10.64,10.64,0,0,0,374.7,96a10.4,10.4,0,0,0,3.53,2.23,13.44,13.44,0,0,0,4.95.84A20,20,0,0,0,395,95Zm-27.48-20.1h15.42a8.23,8.23,0,0,0-1.26-3.67,7.41,7.41,0,0,0-2.74-2.5,7.93,7.93,0,0,0-3.78-.9,7,7,0,0,0-3.71,1,7.8,7.8,0,0,0-2.58,2.56A9.73,9.73,0,0,0,371.74,86.21Z" style="fill:#cd4c1d"/><path d="M148,201.44V135.16h25.22q11.44,0,17.68,4.64t6.23,13.12a16.61,16.61,0,0,1-2.12,8.42,15.39,15.39,0,0,1-5.75,5.77,16.35,16.35,0,0,1,8.35,5.74,15.85,15.85,0,0,1,3,9.76,17.65,17.65,0,0,1-2.78,10,18.22,18.22,0,0,1-7.91,6.54,29.25,29.25,0,0,1-12.1,2.32Zm17.49-39.55h6.54a9.66,9.66,0,0,0,5.81-1.52,5.1,5.1,0,0,0,2.06-4.35,4.81,4.81,0,0,0-2.08-4.11,9.74,9.74,0,0,0-5.79-1.51h-6.54Zm0,24.3h7.73a16.69,16.69,0,0,0,5.13-.68,7,7,0,0,0,3.23-2,4.75,4.75,0,0,0,1.1-3.16,4.91,4.91,0,0,0-1-3.11,5.84,5.84,0,0,0-2.85-1.9,14.21,14.21,0,0,0-4.58-.64h-8.79Z" style="fill:#cd4c1d"/><path d="M223.55,201.44H207.24V157.25h14.14l.53,6.94a16,16,0,0,1,5.74-5.77,15.82,15.82,0,0,1,8.09-2,21,21,0,0,1,3.14.24,24.34,24.34,0,0,1,3.22.73l-2,14.67a19.21,19.21,0,0,0-6-1.06,11.1,11.1,0,0,0-5.59,1.35,9.21,9.21,0,0,0-3.64,3.78,12.18,12.18,0,0,0-1.28,5.78Z" style="fill:#cd4c1d"/><path d="M268.66,202.32a25.49,25.49,0,0,1-12.44-3,22.12,22.12,0,0,1-8.57-8.18,23.93,23.93,0,0,1,0-23.63,22.19,22.19,0,0,1,8.57-8.18,25.49,25.49,0,0,1,12.44-3,25.16,25.16,0,0,1,12.35,3,22.14,22.14,0,0,1,8.5,8.18,24.07,24.07,0,0,1,0,23.63,22.07,22.07,0,0,1-8.5,8.18A25.16,25.16,0,0,1,268.66,202.32Zm-.09-14.58a6.79,6.79,0,0,0,3.78-1.08,7.44,7.44,0,0,0,2.6-3,9.67,9.67,0,0,0,.95-4.39A9.28,9.28,0,0,0,275,175a7.56,7.56,0,0,0-2.6-3,7.15,7.15,0,0,0-7.56,0,7.66,7.66,0,0,0-2.61,3,9.41,9.41,0,0,0-.95,4.27,9.81,9.81,0,0,0,.95,4.39,7.54,7.54,0,0,0,2.61,3A6.79,6.79,0,0,0,268.57,187.74Z" style="fill:#cd4c1d"/><path d="M357,201.44H338.42l-5.12-22.93-5.13,22.93H309.62l-14.36-44.19h17.23l6.14,27.8,7.69-27.8h14l7.69,28,6.14-28h17.23Z" style="fill:#cd4c1d"/><path d="M371.34,197.68l3.36-13.43a12.69,12.69,0,0,0,3.56,2.74,24.59,24.59,0,0,0,5.14,2.14,18.19,18.19,0,0,0,5.13.82,5.51,5.51,0,0,0,2.69-.53,1.64,1.64,0,0,0,.93-1.5,2.2,2.2,0,0,0-.88-1.75,9.89,9.89,0,0,0-2.37-1.35c-1-.41-2.11-.84-3.38-1.28-1.88-.67-3.86-1.51-5.94-2.49A15.57,15.57,0,0,1,374.3,177a10.43,10.43,0,0,1-2.16-6.91,12,12,0,0,1,2.23-7.27,14.25,14.25,0,0,1,6.32-4.75,25.13,25.13,0,0,1,9.61-1.68A41.7,41.7,0,0,1,408.9,161l-4.55,12.41a17,17,0,0,0-3.71-2.34,31.74,31.74,0,0,0-4.71-1.81,15.26,15.26,0,0,0-4.18-.71,3.79,3.79,0,0,0-2.18.51,1.61,1.61,0,0,0-.73,1.39,2.21,2.21,0,0,0,.86,1.71,8.7,8.7,0,0,0,2.34,1.32c1,.4,2.07.82,3.25,1.26a61,61,0,0,1,6.1,2.5,15.56,15.56,0,0,1,5.32,4.06,10.4,10.4,0,0,1,2.19,7,12.08,12.08,0,0,1-2.37,7.45,15.1,15.1,0,0,1-6.67,4.88,27.29,27.29,0,0,1-10.18,1.72A37.83,37.83,0,0,1,371.34,197.68Z" style="fill:#cd4c1d"/><path d="M456.66,196.8a31.67,31.67,0,0,1-17.94,5.52,28.51,28.51,0,0,1-13.41-3.11,24.51,24.51,0,0,1-9.41-8.51,21.91,21.91,0,0,1-3.47-12.11,21.14,21.14,0,0,1,3.1-11.37,22.13,22.13,0,0,1,8.41-7.93,24.61,24.61,0,0,1,12-2.92,23.23,23.23,0,0,1,12.33,3.23,22.08,22.08,0,0,1,8.26,9,28.67,28.67,0,0,1,3,13.35v1.41h-29.6a10.29,10.29,0,0,0,5.74,5.35,13.44,13.44,0,0,0,4.95.84,20,20,0,0,0,11.8-4Zm-27.48-20.11H444.6a8.23,8.23,0,0,0-1.26-3.66,7.33,7.33,0,0,0-2.74-2.5,7.94,7.94,0,0,0-3.78-.91,7,7,0,0,0-3.71,1,7.7,7.7,0,0,0-2.58,2.56A9.75,9.75,0,0,0,429.18,176.69Z" style="fill:#cd4c1d"/><path d="M482.47,201.44H466.16V157.25H480.3l.53,6.94a16,16,0,0,1,5.74-5.77,15.82,15.82,0,0,1,8.09-2,21,21,0,0,1,3.14.24,24.34,24.34,0,0,1,3.22.73L499,172a19.21,19.21,0,0,0-6-1.06,11.1,11.1,0,0,0-5.59,1.35,9.21,9.21,0,0,0-3.64,3.78,12.18,12.18,0,0,0-1.28,5.78Z" style="fill:#cd4c1d"/><path d="M148,291.93V225.65h25.22q11.44,0,17.68,4.64t6.23,13.12a16.64,16.64,0,0,1-2.12,8.42,15.39,15.39,0,0,1-5.75,5.77,16.35,16.35,0,0,1,8.35,5.74,15.85,15.85,0,0,1,3,9.76,17.68,17.68,0,0,1-2.78,10,18.22,18.22,0,0,1-7.91,6.54,29.25,29.25,0,0,1-12.1,2.32Zm17.49-39.55h6.54a9.66,9.66,0,0,0,5.81-1.52,5.1,5.1,0,0,0,2.06-4.35,4.81,4.81,0,0,0-2.08-4.11,9.67,9.67,0,0,0-5.79-1.51h-6.54Zm0,24.3h7.73a17,17,0,0,0,5.13-.68,7,7,0,0,0,3.23-2,4.75,4.75,0,0,0,1.1-3.16,4.91,4.91,0,0,0-1-3.11,5.84,5.84,0,0,0-2.85-1.9,14.21,14.21,0,0,0-4.58-.64h-8.79Z" style="fill:#cd4c1d"/><path d="M249.17,291.93H234.9l-.79-4.86a16.25,16.25,0,0,1-5.88,4.26,18.78,18.78,0,0,1-7.51,1.48,18,18,0,0,1-8.09-1.75,13.82,13.82,0,0,1-5.56-4.81,13.08,13.08,0,0,1,.17-14.29,14.71,14.71,0,0,1,6.12-4.93,21.34,21.34,0,0,1,8.95-1.79,26.29,26.29,0,0,1,5.39.55,28.66,28.66,0,0,1,5.17,1.61v-.7a5.42,5.42,0,0,0-1.3-3.58,8.66,8.66,0,0,0-3.63-2.43,14.68,14.68,0,0,0-5.28-.89,19.21,19.21,0,0,0-5.81.89,16.85,16.85,0,0,0-5,2.52l-4.16-12a53.5,53.5,0,0,1,9.64-3.27,40.89,40.89,0,0,1,9.14-1.1,25.61,25.61,0,0,1,12,2.67,19.05,19.05,0,0,1,7.89,7.56,22.89,22.89,0,0,1,2.78,11.51Zm-24.7-11a9.24,9.24,0,0,0,3.91-.88,9.49,9.49,0,0,0,3.16-2.25,4.15,4.15,0,0,0,1.24-2.79v0a14.06,14.06,0,0,0-3.53-1.44,15.79,15.79,0,0,0-3.89-.5,8.09,8.09,0,0,0-4.4,1,3.25,3.25,0,0,0-1.61,2.85A3.5,3.5,0,0,0,220,279a4.28,4.28,0,0,0,1.83,1.44A6.53,6.53,0,0,0,224.47,280.92Z" style="fill:#cd4c1d"/><path d="M303,291.93h-16.3v-21.3a11.61,11.61,0,0,0-1.7-6.8,5.58,5.58,0,0,0-4.84-2.39,5.81,5.81,0,0,0-5,2.41,11.26,11.26,0,0,0-1.77,6.78v21.3h-16.3V247.74H270l.53,7a15.67,15.67,0,0,1,6.12-5.9,18.6,18.6,0,0,1,8.86-2q8.2,0,12.85,5.1T303,266.17Z" style="fill:#cd4c1d"/><g id="Layer_2" data-name="Layer 2"><g id="Layer_1-2" data-name="Layer 1-2"><path d="M554.21,598a11,11,0,0,1-4.48-.92,11.56,11.56,0,0,1-6.14-6.1,11.44,11.44,0,0,1,0-8.93,11.67,11.67,0,0,1,6.14-6.14,11.48,11.48,0,0,1,9,0,11.65,11.65,0,0,1,6.13,6.14,11.42,11.42,0,0,1-2.47,12.57,11.56,11.56,0,0,1-3.66,2.44A11.14,11.14,0,0,1,554.21,598Zm0-6a5.69,5.69,0,0,0,2.19-.42,6,6,0,0,0,1.82-1.17,5.71,5.71,0,0,0,1.3-1.75,5,5,0,0,0,0-4.25,5.92,5.92,0,0,0-1.3-1.76,5.74,5.74,0,0,0-6.18-1.18,5.64,5.64,0,0,0-1.83,1.18,6.23,6.23,0,0,0-1.24,1.76,5,5,0,0,0,0,4.25,5.63,5.63,0,0,0,3.07,2.92,5.72,5.72,0,0,0,2.17.4Z" style="fill:#cd4c1d"/><path d="M544,574.45a.74.74,0,0,1-.65,0,.51.51,0,0,1-.26-.47v-5a1,1,0,0,1,.67-.94l10.11-3.47c.21-.06.31-.16.31-.32s-.1-.25-.31-.32l-10.06-3.33a.85.85,0,0,1-.51-.36,1,1,0,0,1-.19-.65v-4a1,1,0,0,1,.19-.6.91.91,0,0,1,.51-.37l10.14-3.34c.2-.06.3-.16.3-.32s-.1-.27-.3-.35l-10.19-3.49a1.29,1.29,0,0,1-.48-.39,1.09,1.09,0,0,1-.19-.66v-4.84a.49.49,0,0,1,.26-.46.8.8,0,0,1,.53,0l20.75,7.36a1.12,1.12,0,0,1,.5.39,1,1,0,0,1,.19.65v3.92a1,1,0,0,1-.19.65.92.92,0,0,1-.5.37l-10.12,3.34c-.2.07-.31.16-.31.32s.11.25.31.32l10.12,3.34a.92.92,0,0,1,.5.37,1,1,0,0,1,.19.65v3.92a1,1,0,0,1-.69.94Z" style="fill:#cd4c1d"/><path d="M543.78,534.69a1.11,1.11,0,0,1-.45-.41,1,1,0,0,1-.2-.65v-4.22a1,1,0,0,1,.2-.6,1.1,1.1,0,0,1,.47-.41l20.65-8.86a.66.66,0,0,1,.58,0,.67.67,0,0,1,.3.66v5.22a1,1,0,0,1-.2.65,1.3,1.3,0,0,1-.46.44l-1.85.81a1.41,1.41,0,0,0-.47.44,1,1,0,0,0-.19.59v6.41a1.08,1.08,0,0,0,.19.65,1.1,1.1,0,0,0,.47.41l1.83.85a1.16,1.16,0,0,1,.47.41,1,1,0,0,1,.19.59v5.23a.85.85,0,0,1-.06.31.64.64,0,0,1-.18.27.66.66,0,0,1-.3.15.72.72,0,0,1-.43-.1ZM557,532.9v-2.7a.51.51,0,0,0-.19-.45.46.46,0,0,0-.48,0l-1.77.73-1.92.79c-.18.08-.27.17-.27.28s.09.19.27.26l3.67,1.52a.51.51,0,0,0,.48,0A.48.48,0,0,0,557,532.9Z" style="fill:#cd4c1d"/><path d="M604.84,560.8H597a.66.66,0,0,0-.66.65v.08a42.23,42.23,0,0,0,1.26,8.21.65.65,0,0,0,.65.5h6.58a.65.65,0,0,0,.65-.65v-8.11a.65.65,0,0,0-.62-.68Z" style="fill:#cd4c1d"/><path d="M604.84,547.32h-6.53a.65.65,0,0,0-.65.5,42.16,42.16,0,0,0-1.31,8.27.66.66,0,0,0,.58.71h7.91a.65.65,0,0,0,.65-.65V548a.65.65,0,0,0-.65-.65Z" style="fill:#cd4c1d"/><path d="M604.47,536.28a13.77,13.77,0,0,0-4.56,5.43c-.11.21-.21.43-.32.66a.65.65,0,0,0,.24.89.62.62,0,0,0,.38.09h4.61a.66.66,0,0,0,.65-.66v-5.84a.65.65,0,0,0-.63-.67A.61.61,0,0,0,604.47,536.28Z" style="fill:#cd4c1d"/><path d="M604.84,574.21H600.2a.67.67,0,0,0-.7.61.59.59,0,0,0,.09.36c.11.24.22.47.33.66a13.68,13.68,0,0,0,4.57,5.43.66.66,0,0,0,.92-.11.64.64,0,0,0,.13-.46v-5.88a.65.65,0,0,0-.65-.65Z" style="fill:#cd4c1d"/><path d="M590.83,543.32h3.59a.69.69,0,0,0,.66-.44,28.77,28.77,0,0,1,1.95-4,.66.66,0,0,0-.91-1h0a24.15,24.15,0,0,0-5.72,4.26.65.65,0,0,0-.11.92h0A.65.65,0,0,0,590.83,543.32Z" style="fill:#cd4c1d"/><path d="M584.27,556.8h7.43a.68.68,0,0,0,.65-.65,46.91,46.91,0,0,1,1.08-8,.64.64,0,0,0-.45-.8h-6.14a.65.65,0,0,0-.6.35,23.25,23.25,0,0,0-2.65,8.35.64.64,0,0,0,.52.76h.07Z" style="fill:#cd4c1d"/><path d="M595,574.67a.69.69,0,0,0-.66-.44h-3.61a.65.65,0,0,0-.72.57.67.67,0,0,0,.23.59,24.66,24.66,0,0,0,5.79,4.31.64.64,0,0,0,.92,0h0a.64.64,0,0,0,0-.92h0A28.48,28.48,0,0,1,595,574.67Z" style="fill:#cd4c1d"/><path d="M620,542.88a.67.67,0,0,0,.65.44h3.63a.66.66,0,0,0,.73-.57.65.65,0,0,0-.25-.59A24.56,24.56,0,0,0,619,537.9a.66.66,0,0,0-.92,1h0A28.38,28.38,0,0,1,620,542.88Z" style="fill:#cd4c1d"/><path d="M593.44,569.4a47.18,47.18,0,0,1-1.06-7.95.69.69,0,0,0-.65-.65h-7.46a.69.69,0,0,0-.66.71v0a23.4,23.4,0,0,0,2.62,8.31.63.63,0,0,0,.6.36h5.95a.65.65,0,0,0,.66-.65A.54.54,0,0,0,593.44,569.4Z" style="fill:#cd4c1d"/><path d="M610.2,556.8H618a.65.65,0,0,0,.65-.65v-.07a41.88,41.88,0,0,0-1.27-8.26.66.66,0,0,0-.65-.51H610.2a.66.66,0,0,0-.65.66v8.12a.66.66,0,0,0,.59.71h.06Z" style="fill:#cd4c1d"/><path d="M621.59,548.15a47.92,47.92,0,0,1,1.07,8,.66.66,0,0,0,.66.65h7.48a.65.65,0,0,0,.65-.65V556a23.29,23.29,0,0,0-2.61-8.37.66.66,0,0,0-.6-.35h-6a.65.65,0,0,0-.69.61h0A.59.59,0,0,0,621.59,548.15Z" style="fill:#cd4c1d"/><path d="M630.8,560.8h-7.45a.68.68,0,0,0-.65.65,47.29,47.29,0,0,1-1,7.95.64.64,0,0,0,.45.8h6.18a.64.64,0,0,0,.6-.36,23.39,23.39,0,0,0,2.61-8.3.65.65,0,0,0-.53-.76h0Z" style="fill:#cd4c1d"/><path d="M624.27,574.21h-3.62a.66.66,0,0,0-.66.44,27.76,27.76,0,0,1-2,4.08.66.66,0,0,0,.91.95h0a24.4,24.4,0,0,0,5.78-4.31.66.66,0,0,0,.1-.92h0A.62.62,0,0,0,624.27,574.21Z" style="fill:#cd4c1d"/><path d="M610.2,543.32h4.62a.65.65,0,0,0,.61-1l-.31-.65a13.63,13.63,0,0,0-4.57-5.44.66.66,0,0,0-.92.12.63.63,0,0,0-.13.46v5.78a.65.65,0,0,0,.59.71Z" style="fill:#cd4c1d"/><path d="M614.84,574.21H610.2a.65.65,0,0,0-.65.65v5.88a.66.66,0,0,0,.59.71.68.68,0,0,0,.46-.14,13.75,13.75,0,0,0,4.57-5.43c.12-.23.23-.46.34-.69a.66.66,0,0,0-.28-.88.7.7,0,0,0-.37-.07Z" style="fill:#cd4c1d"/><path d="M618,560.8h-7.83a.65.65,0,0,0-.65.65v8.09a.66.66,0,0,0,.65.66h6.57a.64.64,0,0,0,.65-.51,42,42,0,0,0,1.26-8.2.66.66,0,0,0-.61-.69h0Z" style="fill:#cd4c1d"/><path d="M633.84,519.48H581.23a9.44,9.44,0,0,0-9.44,9.44v59.74a9.44,9.44,0,0,0,9.44,9.43h52.61a9.43,9.43,0,0,0,9.43-9.43V528.92A9.44,9.44,0,0,0,633.84,519.48Zm-26.31,67.18a27.88,27.88,0,1,1,27.88-27.87,27.87,27.87,0,0,1-27.88,27.87Z" style="fill:#cd4c1d"/></g></g><path d="M554.73,506.74v-5.82a13.7,13.7,0,0,1,13.7-13.71h0a13.06,13.06,0,0,1,13.06,13.05v15.21a1.41,1.41,0,0,0,1.41,1.41H591a1.41,1.41,0,0,0,1.41-1.4h0V500.32a24,24,0,0,0-24-24h0a25.31,25.31,0,0,0-25.31,25.31h0v5.11a2.31,2.31,0,0,0,2.3,2.32h7a2.32,2.32,0,0,0,2.31-2.32Z" style="fill:#cd4c1d"/><path d="M101.15,0V53.84H90.06l6.5-36.68H72.79l-6.5,36.68H48.61L55.1,17.16H31.42l-6.5,36.68H9.05L5.84,73.58H21.38L17.93,93.49H3L0,113.22H14.39L9.62,140.53H33.31l4.85-27.31H55.84L51,140.53H74.76l4.85-27.31h21.54V643.06H688.76V0ZM59.3,93.49H41.62l3.53-19.91H62.84Zm41.85,0H83.07L86.6,73.58h14.55ZM687.33,641.63H102.58V1.43H687.33Z" style="fill:#cd4c1d"/></svg>