<svg id="Calque_1" data-name="Calque 1" xmlns="http://www.w3.org/2000/svg" width="735.33" height="372.11" viewBox="0 0 735.33 372.11"><g id="Layer_2" data-name="Layer 2"><g id="Layer_1-2" data-name="Layer 1-2"><path d="M35.21,371.79A33.73,33.73,0,0,1,21.53,369,35.53,35.53,0,0,1,2.77,350.35a35,35,0,0,1,0-27.28A35.68,35.68,0,0,1,21.53,304.3a34,34,0,0,1,13.68-2.77,34.11,34.11,0,0,1,13.7,2.77,35.56,35.56,0,0,1,18.73,18.77,34.9,34.9,0,0,1-7.54,38.41,35.78,35.78,0,0,1-11.19,7.46A33.78,33.78,0,0,1,35.21,371.79Zm0-18.39a17.26,17.26,0,0,0,6.7-1.29,18,18,0,0,0,5.57-3.57,17.35,17.35,0,0,0,4-5.35,15.42,15.42,0,0,0,0-13,18.09,18.09,0,0,0-4-5.39,17.59,17.59,0,0,0-18.89-3.61A17.28,17.28,0,0,0,23,324.82a18.45,18.45,0,0,0-3.79,5.39,15.27,15.27,0,0,0,0,13A18,18,0,0,0,23,348.54a17.45,17.45,0,0,0,5.58,3.57,17.67,17.67,0,0,0,6.62,1.23Z" style="fill:#cd4c1d"/><path d="M4,299.88a2.25,2.25,0,0,1-2,0,1.51,1.51,0,0,1-.78-1.46V283.3a2.9,2.9,0,0,1,.58-1.75,2.91,2.91,0,0,1,1.46-1.12l30.89-10.59c.64-.18.93-.5.93-1s-.29-.78-.93-1L3.41,257.72a2.82,2.82,0,0,1-1.56-1.12,3.09,3.09,0,0,1-.58-2V242.3a3.13,3.13,0,0,1,.58-1.83,2.82,2.82,0,0,1,1.56-1.12l31-10.21c.61-.18.91-.5.91-1s-.3-.82-.91-1.07L3.27,216.44a4,4,0,0,1-1.46-1.22,3.21,3.21,0,0,1-.58-2v-14.8A1.43,1.43,0,0,1,2,197a2.26,2.26,0,0,1,1.62,0L67,219.51a3.29,3.29,0,0,1,1.54,1.19,3.17,3.17,0,0,1,.6,2v12a3.17,3.17,0,0,1-.6,2A2.79,2.79,0,0,1,67,237.77L36.11,248c-.62.19-.94.49-.94,1s.32.78.94,1L67,260.15a2.81,2.81,0,0,1,1.54,1.12,3.14,3.14,0,0,1,.6,2v12A3.2,3.2,0,0,1,67,278.1Z" style="fill:#cd4c1d"/><path d="M3.37,178.37A3.36,3.36,0,0,1,2,177.13a3.29,3.29,0,0,1-.6-2V162.23a3.19,3.19,0,0,1,.6-1.81,3.5,3.5,0,0,1,1.46-1.26l63.09-27.08a2,2,0,0,1,2.7,2.13v16a3.31,3.31,0,0,1-.62,2,4,4,0,0,1-1.42,1.34L61.54,156a4,4,0,0,0-1.44,1.34,3.35,3.35,0,0,0-.6,1.81V178.7a3.46,3.46,0,0,0,.6,2A3.27,3.27,0,0,0,61.54,182l5.58,2.59a3.7,3.7,0,0,1,1.44,1.25,3.22,3.22,0,0,1,.6,1.82v15.95a3,3,0,0,1-.2,1,2.13,2.13,0,0,1-.54.82,2.07,2.07,0,0,1-.92.44,2.26,2.26,0,0,1-1.32-.3Zm40.36-5.47v-8.25a1.55,1.55,0,0,0-.6-1.36,1.36,1.36,0,0,0-1.45,0q-2.31.93-5.43,2.23l-5.86,2.42c-.54.24-.82.51-.82.83s.28.58.82.82l11.23,4.65a1.55,1.55,0,0,0,1.45,0A1.48,1.48,0,0,0,43.73,172.9Z" style="fill:#cd4c1d"/><path d="M189.93,258.16H166a2,2,0,0,0-2,2v.24a127.48,127.48,0,0,0,3.83,25.09,2,2,0,0,0,2,1.53h20.1a2,2,0,0,0,2-2V260.25a2,2,0,0,0-1.89-2.09Z" style="fill:#cd4c1d"/><path d="M189.93,217H170a2,2,0,0,0-2,1.54,127.6,127.6,0,0,0-4,25.25,2,2,0,0,0,1.78,2.19h24.15a2,2,0,0,0,2-2V219.05a2,2,0,0,0-2-2Z" style="fill:#cd4c1d"/><path d="M188.81,183.23c-5.06,3.19-10,8.86-14,16.61-.32.62-.64,1.3-1,2a2,2,0,0,0,.73,2.72,1.93,1.93,0,0,0,1.15.27h14.1a2,2,0,0,0,2-2V185a2,2,0,0,0-1.93-2.06A2,2,0,0,0,188.81,183.23Z" style="fill:#cd4c1d"/><path d="M189.93,299.14H175.75a2,2,0,0,0-1.88,3c.34.72.7,1.42,1,2a41.62,41.62,0,0,0,14,16.62,2,2,0,0,0,2.79-.34,2,2,0,0,0,.42-1.42V301a2,2,0,0,0-2-2Z" style="fill:#cd4c1d"/><path d="M147.11,204.75h11a2.08,2.08,0,0,0,2-1.34,89.78,89.78,0,0,1,6-12.32,2,2,0,1,0-2.79-2.89h0a74,74,0,0,0-17.49,13,2,2,0,0,0-.33,2.8h0A2,2,0,0,0,147.11,204.75Z" style="fill:#cd4c1d"/><path d="M127.07,246h22.71a2.09,2.09,0,0,0,2-2,143.86,143.86,0,0,1,3.29-24.45,2,2,0,0,0-1.38-2.46,3.21,3.21,0,0,0-.62,0H134.93a2,2,0,0,0-1.84,1.08A71.15,71.15,0,0,0,125,243.66a2,2,0,0,0,1.59,2.32.69.69,0,0,0,.2,0Z" style="fill:#cd4c1d"/><path d="M160,300.53a2.07,2.07,0,0,0-2-1.33H147a2,2,0,0,0-1.49,3.53,74,74,0,0,0,17.67,13.18,2,2,0,0,0,2.82,0h0a2,2,0,0,0,0-2.82l0,0h0A85.69,85.69,0,0,1,160,300.53Z" style="fill:#cd4c1d"/><path d="M236.21,203.41a2.1,2.1,0,0,0,2,1.34H249.3a2,2,0,0,0,1.47-3.55,74.24,74.24,0,0,0-17.49-13,2,2,0,0,0-2.79,2.89h0A87.14,87.14,0,0,1,236.21,203.41Z" style="fill:#cd4c1d"/><path d="M155.11,284.44a144.11,144.11,0,0,1-3.25-24.29,2.11,2.11,0,0,0-2-2H127.07a2.08,2.08,0,0,0-2,2.17v.16a71.24,71.24,0,0,0,8,25.39,2,2,0,0,0,1.84,1.09h18.2a2,2,0,0,0,2-2A2.44,2.44,0,0,0,155.11,284.44Z" style="fill:#cd4c1d"/><path d="M206.32,246h23.93a2,2,0,0,0,2-2v-.22a127.53,127.53,0,0,0-3.87-25.25,2,2,0,0,0-2-1.54H206.32a2,2,0,0,0-2,2v24.81a2,2,0,0,0,1.8,2.17h0Z" style="fill:#cd4c1d"/><path d="M241.1,219.51A143.86,143.86,0,0,1,244.39,244a2,2,0,0,0,2,2h22.85a2,2,0,0,0,2-2,2.41,2.41,0,0,0,0-.38,71.09,71.09,0,0,0-8-25.57,2,2,0,0,0-1.84-1.08H243.21a2,2,0,0,0-2.11,1.87h0A2.35,2.35,0,0,0,241.1,219.51Z" style="fill:#cd4c1d"/><path d="M269.24,258.16H246.49a2.09,2.09,0,0,0-2,2,145,145,0,0,1-3.17,24.29,2,2,0,0,0,1.38,2.45,2.08,2.08,0,0,0,.61,0h18.27a2,2,0,0,0,1.84-1.09,71.64,71.64,0,0,0,8-25.39,2,2,0,0,0-1.61-2.31h0A2.48,2.48,0,0,0,269.24,258.16Z" style="fill:#cd4c1d"/><path d="M249.3,299.14H238.23a2,2,0,0,0-2,1.33,87.28,87.28,0,0,1-6,12.49,2,2,0,0,0,2.79,2.89h0a74,74,0,0,0,17.67-13.18,2,2,0,0,0,.29-2.81h0A2,2,0,0,0,249.3,299.14Z" style="fill:#cd4c1d"/><path d="M206.32,204.75h14.1a2,2,0,0,0,2.14-1.84,1.94,1.94,0,0,0-.27-1.15l-.95-2a41.65,41.65,0,0,0-14-16.61,2,2,0,0,0-2.8.35,2,2,0,0,0-.41,1.41v17.67a2,2,0,0,0,1.79,2.17A1.09,1.09,0,0,0,206.32,204.75Z" style="fill:#cd4c1d"/><path d="M220.5,299.14H206.32a2,2,0,0,0-2,2v17.95a2,2,0,0,0,1.8,2.17,2,2,0,0,0,1.41-.41,42.08,42.08,0,0,0,14-16.62c.36-.67.7-1.37,1-2.09a2,2,0,0,0-2-2.89Z" style="fill:#cd4c1d"/><path d="M230.17,258.16H206.24a2,2,0,0,0-2,2v24.73a2,2,0,0,0,2,2h20.08a2,2,0,0,0,2-1.53,128.78,128.78,0,0,0,3.83-25.07,2,2,0,0,0-1.87-2.11h-.11Z" style="fill:#cd4c1d"/><path d="M278.55,131.92H117.78a28.84,28.84,0,0,0-28.84,28.82V343.29a28.84,28.84,0,0,0,28.84,28.82H278.55a28.82,28.82,0,0,0,28.82-28.82V160.74A28.82,28.82,0,0,0,278.55,131.92ZM198.16,337.19A85.18,85.18,0,1,1,283.34,252a85.18,85.18,0,0,1-85.18,85.18Z" style="fill:#cd4c1d"/></g></g><path d="M36.81,93V75.18A41.88,41.88,0,0,1,78.69,33.3h0a39.88,39.88,0,0,1,39.88,39.89v46.47a4.31,4.31,0,0,0,4.31,4.3h24.87a4.29,4.29,0,0,0,4.31-4.26V73.37A73.35,73.35,0,0,0,78.73,0h0A77.34,77.34,0,0,0,1.37,77.34V93a7,7,0,0,0,7,7.06H29.75A7.06,7.06,0,0,0,36.81,93Z" style="fill:#cd4c1d"/><path d="M375,233.62a25.85,25.85,0,0,1-12.59-3,22.47,22.47,0,0,1-8.67-8.27,24.28,24.28,0,0,1,0-23.92,22.5,22.5,0,0,1,8.67-8.28,25.84,25.84,0,0,1,12.59-3,25.49,25.49,0,0,1,12.5,3,22.47,22.47,0,0,1,8.61,8.28,24.42,24.42,0,0,1,0,23.92,22.45,22.45,0,0,1-8.61,8.27A25.49,25.49,0,0,1,375,233.62Zm-.09-14.76a6.81,6.81,0,0,0,3.82-1.09,7.54,7.54,0,0,0,2.64-3,9.94,9.94,0,0,0,1-4.45,9.47,9.47,0,0,0-1-4.32,7.59,7.59,0,0,0-2.64-3,7.18,7.18,0,0,0-7.64,0,7.59,7.59,0,0,0-2.64,3,9.47,9.47,0,0,0-1,4.32,9.94,9.94,0,0,0,1,4.45,7.54,7.54,0,0,0,2.64,3A6.83,6.83,0,0,0,374.87,218.86Z" style="fill:#cd4c1d"/><path d="M417.87,255.08H401.33V188h14.44l.85,5.81a19.07,19.07,0,0,1,6.41-4.94,18.72,18.72,0,0,1,8.12-1.76,18.22,18.22,0,0,1,10.37,3,20.65,20.65,0,0,1,7.11,8.28,28.81,28.81,0,0,1,0,23.92,20.62,20.62,0,0,1-7.11,8.27,18.23,18.23,0,0,1-10.37,3,18.65,18.65,0,0,1-7.29-1.41,19.41,19.41,0,0,1-6-4Zm8.23-36.22a8.25,8.25,0,0,0,4.27-1.09,7.8,7.8,0,0,0,2.9-3,9.58,9.58,0,0,0,0-8.76,7.73,7.73,0,0,0-2.9-3,8.81,8.81,0,0,0-8.32-.11,7.68,7.68,0,0,0-2.91,2.72,8.79,8.79,0,0,0-1.27,4v1.65a8.42,8.42,0,0,0,1.27,3.91,7.82,7.82,0,0,0,2.91,2.71A8.31,8.31,0,0,0,426.1,218.86Z" style="fill:#cd4c1d"/><path d="M495.88,228a32,32,0,0,1-18.15,5.59,28.77,28.77,0,0,1-13.57-3.15,24.73,24.73,0,0,1-9.53-8.61,22.16,22.16,0,0,1-3.51-12.25,21.48,21.48,0,0,1,3.13-11.52,22.52,22.52,0,0,1,8.52-8A24.89,24.89,0,0,1,475,187.12a23.51,23.51,0,0,1,12.48,3.26,22.38,22.38,0,0,1,8.36,9.08,29,29,0,0,1,3,13.5v1.43h-30a10.4,10.4,0,0,0,5.81,5.41,13.48,13.48,0,0,0,5,.85,20.23,20.23,0,0,0,11.94-4Zm-27.81-20.35h15.6A8.33,8.33,0,0,0,482.4,204a7.46,7.46,0,0,0-2.77-2.52,8.06,8.06,0,0,0-3.83-.92,7.08,7.08,0,0,0-3.75,1,7.85,7.85,0,0,0-2.62,2.6A10.07,10.07,0,0,0,468.07,207.68Z" style="fill:#cd4c1d"/><path d="M547.38,232.73h-16.5V211.17a11.71,11.71,0,0,0-1.73-6.88,5.65,5.65,0,0,0-4.89-2.42,5.91,5.91,0,0,0-5.06,2.44,11.43,11.43,0,0,0-1.78,6.86v21.56h-16.5V188H514l.54,7.11a15.89,15.89,0,0,1,6.19-6,18.79,18.79,0,0,1,9-2q8.31,0,13,5.16t4.7,14.38Z" style="fill:#cd4c1d"/><path d="M624.38,232.73H605.6l-5.18-23.21-5.19,23.21H576.45L561.92,188h17.44l6.21,28.13L593.35,188h14.13l7.78,28.3,6.22-28.3h17.44Z" style="fill:#cd4c1d"/><path d="M680.44,228a32,32,0,0,1-18.15,5.59,28.84,28.84,0,0,1-13.58-3.15,24.7,24.7,0,0,1-9.52-8.61,22.16,22.16,0,0,1-3.51-12.25,21.48,21.48,0,0,1,3.13-11.52,22.52,22.52,0,0,1,8.52-8,24.89,24.89,0,0,1,12.18-2.95A23.51,23.51,0,0,1,672,190.38a22.38,22.38,0,0,1,8.36,9.08,29,29,0,0,1,3,13.5v1.43h-30a10.4,10.4,0,0,0,5.81,5.41,13.48,13.48,0,0,0,5,.85,20.23,20.23,0,0,0,11.94-4Zm-27.81-20.35h15.6A8.33,8.33,0,0,0,667,204a7.46,7.46,0,0,0-2.77-2.52,8.06,8.06,0,0,0-3.83-.92,7.08,7.08,0,0,0-3.75,1,7.85,7.85,0,0,0-2.62,2.6A10.07,10.07,0,0,0,652.63,207.68Z" style="fill:#cd4c1d"/><path d="M699.92,232.73H685.48V165.65H702v26.83a19.18,19.18,0,0,1,6-4,18.57,18.57,0,0,1,7.29-1.4,18.24,18.24,0,0,1,10.37,3,20.8,20.8,0,0,1,7.11,8.28,28.91,28.91,0,0,1,0,23.92,20.77,20.77,0,0,1-7.11,8.27,18.25,18.25,0,0,1-10.37,3,18.7,18.7,0,0,1-8.12-1.77,19.12,19.12,0,0,1-6.42-4.89Zm10.28-13.87a8.22,8.22,0,0,0,4.27-1.09,7.74,7.74,0,0,0,2.91-3,9.23,9.23,0,0,0,1-4.45,8.8,8.8,0,0,0-1-4.32,7.81,7.81,0,0,0-2.91-3,8.79,8.79,0,0,0-8.31-.11,7.82,7.82,0,0,0-2.91,2.68,8.24,8.24,0,0,0-1.27,3.93v1.66a8.59,8.59,0,0,0,1.27,4,7.79,7.79,0,0,0,2.91,2.73A8.25,8.25,0,0,0,710.2,218.86Z" style="fill:#cd4c1d"/><path d="M395.22,324.3H380.77l-.8-4.92a16.34,16.34,0,0,1-6,4.32,19,19,0,0,1-7.6,1.5,18.19,18.19,0,0,1-8.18-1.77,14.06,14.06,0,0,1-5.64-4.87,13.31,13.31,0,0,1,.18-14.47,15,15,0,0,1,6.19-5,21.52,21.52,0,0,1,9.06-1.82,26.91,26.91,0,0,1,5.46.56,29.58,29.58,0,0,1,5.23,1.63v-.71a5.44,5.44,0,0,0-1.32-3.62,8.7,8.7,0,0,0-3.67-2.46,14.84,14.84,0,0,0-5.34-.9,19.32,19.32,0,0,0-5.88.9,16.72,16.72,0,0,0-5.08,2.55l-4.2-12.12a54.22,54.22,0,0,1,9.75-3.31,41.31,41.31,0,0,1,9.25-1.12,25.88,25.88,0,0,1,12.19,2.71,19.28,19.28,0,0,1,8,7.64,23.13,23.13,0,0,1,2.82,11.65Zm-25-11.13a9.36,9.36,0,0,0,4-.9,9.66,9.66,0,0,0,3.2-2.28,4.21,4.21,0,0,0,1.25-2.81v-.05a14.44,14.44,0,0,0-3.58-1.45,15.6,15.6,0,0,0-3.93-.52,8.23,8.23,0,0,0-4.45,1A3.29,3.29,0,0,0,365,309.1a3.59,3.59,0,0,0,.67,2.1,4.31,4.31,0,0,0,1.86,1.45A6.51,6.51,0,0,0,370.22,313.17Z" style="fill:#cd4c1d"/><path d="M446.35,324.3H431.91l-.85-5.81a19.34,19.34,0,0,1-6.42,4.92,18.52,18.52,0,0,1-8.11,1.79,18.25,18.25,0,0,1-10.35-3,20.69,20.69,0,0,1-7.14-8.27A28.93,28.93,0,0,1,399,290a20.69,20.69,0,0,1,7.14-8.27,18.25,18.25,0,0,1,10.35-3,18.92,18.92,0,0,1,7.33,1.41,18.62,18.62,0,0,1,6,4V257.23h16.5Zm-24.72-13.86a8.71,8.71,0,0,0,4.13-1,7.91,7.91,0,0,0,3-2.73,7.32,7.32,0,0,0,1.11-4v-1.65a7.07,7.07,0,0,0-1.11-3.94,8,8,0,0,0-3-2.68,8.71,8.71,0,0,0-4.13-1,8.28,8.28,0,0,0-4.25,1.09,7.92,7.92,0,0,0-2.95,3,9.44,9.44,0,0,0,0,8.77,7.92,7.92,0,0,0,2.95,3A8.28,8.28,0,0,0,421.63,310.44Z" style="fill:#cd4c1d"/><path d="M498.88,279.59,481,324.3H465l-17.89-44.71h17.62L473,307.85l8.27-28.26Z" style="fill:#cd4c1d"/><path d="M520.5,325.2a25.87,25.87,0,0,1-12.59-3,22.47,22.47,0,0,1-8.67-8.27,24.3,24.3,0,0,1,0-23.93,22.47,22.47,0,0,1,8.67-8.27,25.87,25.87,0,0,1,12.59-3,25.49,25.49,0,0,1,12.5,3,22.45,22.45,0,0,1,8.61,8.27,24.43,24.43,0,0,1,0,23.93,22.45,22.45,0,0,1-8.61,8.27A25.49,25.49,0,0,1,520.5,325.2Zm-.09-14.76a6.86,6.86,0,0,0,3.83-1.09,7.62,7.62,0,0,0,2.63-3.05,9.86,9.86,0,0,0,1-4.44,9.47,9.47,0,0,0-1-4.32,7.68,7.68,0,0,0-2.63-3,7.26,7.26,0,0,0-7.65,0,7.62,7.62,0,0,0-2.64,3,9.47,9.47,0,0,0-1,4.32,9.86,9.86,0,0,0,1,4.44,7.57,7.57,0,0,0,2.64,3.05A6.83,6.83,0,0,0,520.41,310.44Z" style="fill:#cd4c1d"/><path d="M588.14,316.75a23,23,0,0,1-8.19,6.19,26,26,0,0,1-11,2.26,25.73,25.73,0,0,1-12.54-3,22.43,22.43,0,0,1-8.68-8.27,24.3,24.3,0,0,1,0-23.93,22.43,22.43,0,0,1,8.68-8.27,27.57,27.57,0,0,1,23.43-.78,23.24,23.24,0,0,1,8.16,6.08l-9.62,10.15a9.89,9.89,0,0,0-3.59-2.71,11.09,11.09,0,0,0-4.63-1,9.23,9.23,0,0,0-4.47,1.07,7.84,7.84,0,0,0-3.09,3,8.37,8.37,0,0,0-1.12,4.36,8.67,8.67,0,0,0,1.12,4.44,8,8,0,0,0,3.09,3.05,9,9,0,0,0,4.47,1.09,11.07,11.07,0,0,0,4.65-1,9.29,9.29,0,0,0,3.57-2.7Z" style="fill:#cd4c1d"/><path d="M632.25,324.3H617.81l-.8-4.92a16.42,16.42,0,0,1-6,4.32,19.05,19.05,0,0,1-7.6,1.5,18.26,18.26,0,0,1-8.19-1.77,14.09,14.09,0,0,1-5.63-4.87,13.25,13.25,0,0,1,.18-14.47,14.89,14.89,0,0,1,6.19-5,21.52,21.52,0,0,1,9.06-1.82,26.81,26.81,0,0,1,5.45.56,29.08,29.08,0,0,1,5.23,1.63v-.71a5.48,5.48,0,0,0-1.31-3.62,8.77,8.77,0,0,0-3.67-2.46,14.87,14.87,0,0,0-5.34-.9,19.32,19.32,0,0,0-5.88.9,16.72,16.72,0,0,0-5.08,2.55l-4.2-12.12a54.39,54.39,0,0,1,9.74-3.31,41.4,41.4,0,0,1,9.26-1.12,25.88,25.88,0,0,1,12.19,2.71,19.28,19.28,0,0,1,8,7.64,23.13,23.13,0,0,1,2.81,11.65Zm-25-11.13a9.36,9.36,0,0,0,4-.9,9.51,9.51,0,0,0,3.19-2.28,4.18,4.18,0,0,0,1.26-2.81v-.05a14.44,14.44,0,0,0-3.58-1.45,15.68,15.68,0,0,0-3.94-.52,8.25,8.25,0,0,0-4.45,1,3.3,3.3,0,0,0-1.63,2.89,3.59,3.59,0,0,0,.67,2.1,4.31,4.31,0,0,0,1.86,1.45A6.48,6.48,0,0,0,607.26,313.17Z" style="fill:#cd4c1d"/><path d="M677,316.75a23,23,0,0,1-8.19,6.19,26,26,0,0,1-10.95,2.26,25.73,25.73,0,0,1-12.54-3,22.43,22.43,0,0,1-8.68-8.27,24.3,24.3,0,0,1,0-23.93,22.43,22.43,0,0,1,8.68-8.27,27.57,27.57,0,0,1,23.43-.78,23.24,23.24,0,0,1,8.16,6.08l-9.62,10.15a9.84,9.84,0,0,0-3.6-2.71,11,11,0,0,0-4.62-1,9.3,9.3,0,0,0-4.48,1.07,7.88,7.88,0,0,0-3.08,3,8.37,8.37,0,0,0-1.12,4.36,8.67,8.67,0,0,0,1.12,4.44,8,8,0,0,0,3.08,3.05,9.09,9.09,0,0,0,4.48,1.09,11.07,11.07,0,0,0,4.65-1,9.29,9.29,0,0,0,3.57-2.7Z" style="fill:#cd4c1d"/><path d="M707.16,346.66H689.72l9.21-22.22-23.38-44.85h18.78l12.38,26.11,10.83-26.11H735Z" style="fill:#cd4c1d"/></svg>