<svg id="Calque_1" data-name="Calque 1" xmlns="http://www.w3.org/2000/svg" width="753.54" height="484.52" viewBox="0 0 753.54 484.52">
  <defs>
    <style>
      .cls-1 {
        fill: #cd4c1d;
      }
    </style>
  </defs>
  <g>
    <path d="M139.62,302.38H113.47l-1.08-14.25a30.93,30.93,0,0,1-12.36,12,37.88,37.88,0,0,1-18,4.08q-16.66,0-26.07-10.39T46.56,265V212.81H79.61V256q0,9,3.45,13.79a11.32,11.32,0,0,0,9.81,4.84A11.83,11.83,0,0,0,103,269.73q3.58-4.89,3.58-13.75V212.81h33.05Z"/>
    <path d="M250.6,302.38h-33V259.2q0-9-3.45-13.79a11.32,11.32,0,0,0-9.8-4.84,11.84,11.84,0,0,0-10.13,4.88q-3.58,4.89-3.58,13.75v43.18H157.54V212.81h26.15l1.08,14.24a31.75,31.75,0,0,1,12.4-12,37.69,37.69,0,0,1,18-4.08q16.67,0,26.07,10.35t9.4,28.8Z"/>
    <path d="M302.2,302.38H266.73V164.44H302.2Z"/>
    <path d="M364.54,304.17a51.74,51.74,0,0,1-25.22-6.05A45,45,0,0,1,322,281.55a48.58,48.58,0,0,1,0-47.92,45,45,0,0,1,17.37-16.57A51.74,51.74,0,0,1,364.54,211a51,51,0,0,1,25,6.05,44.84,44.84,0,0,1,17.25,16.57,48.92,48.92,0,0,1,0,47.92,44.84,44.84,0,0,1-17.25,16.57A51,51,0,0,1,364.54,304.17Zm-.18-29.56a13.64,13.64,0,0,0,7.66-2.2,15,15,0,0,0,5.28-6.09,19.73,19.73,0,0,0,1.93-8.91,18.81,18.81,0,0,0-1.93-8.64,15.11,15.11,0,0,0-5.28-6,14.44,14.44,0,0,0-15.32,0,15.11,15.11,0,0,0-5.28,6,18.81,18.81,0,0,0-1.93,8.64,19.73,19.73,0,0,0,1.93,8.91,15,15,0,0,0,5.28,6.09A13.64,13.64,0,0,0,364.36,274.61Z"/>
    <path d="M509.2,287.24a45.93,45.93,0,0,1-16.39,12.41,52.1,52.1,0,0,1-21.95,4.52,51.52,51.52,0,0,1-25.12-6.05,45,45,0,0,1-17.38-16.57,48.58,48.58,0,0,1,0-47.92,45,45,0,0,1,17.38-16.57,55.25,55.25,0,0,1,46.93-1.57A46.46,46.46,0,0,1,509,227.67L489.76,248a19.48,19.48,0,0,0-7.21-5.42,22.09,22.09,0,0,0-9.27-2,18.44,18.44,0,0,0-9,2.15,15.82,15.82,0,0,0-6.18,6,16.93,16.93,0,0,0-2.24,8.73,17.55,17.55,0,0,0,2.24,8.91,15.87,15.87,0,0,0,6.18,6.09,18,18,0,0,0,9,2.2,22.34,22.34,0,0,0,9.31-2,18.61,18.61,0,0,0,7.17-5.41Z"/>
    <path d="M554.79,302.38h-33V168h33v74.61l9.94-12,17-17.82h41.38l-38.78,40.57,42.37,49H584.17L561.69,273l-6.9,4.57Z"/>
  </g>
  <g>
    <path class="cls-1" d="M502.81,420.7H463.6l-10.83-48.45L441.94,420.7h-39.2L372.4,327.35h36.4l13,58.72L438,327.35h29.5l16.24,59.09,13-59.09h36.41Z"/>
    <path class="cls-1" d="M629.39,410.9a66.85,66.85,0,0,1-37.9,11.67A60.17,60.17,0,0,1,563.16,416a51.76,51.76,0,0,1-19.89-18A46.32,46.32,0,0,1,536,372.44a44.85,44.85,0,0,1,6.53-24,47,47,0,0,1,17.78-16.75,52.06,52.06,0,0,1,25.44-6.17q14.85,0,26,6.82a46.74,46.74,0,0,1,17.45,18.95q6.25,12.13,6.26,28.19v3H572.91a22.42,22.42,0,0,0,4.67,6.58,22,22,0,0,0,7.47,4.71,28.14,28.14,0,0,0,10.45,1.78q13.17,0,24.93-8.41Zm-58.06-42.48H603.9a17.3,17.3,0,0,0-2.66-7.74,15.54,15.54,0,0,0-5.78-5.28,16.81,16.81,0,0,0-8-1.91,14.74,14.74,0,0,0-7.84,2.05,16.54,16.54,0,0,0-5.46,5.42A20.91,20.91,0,0,0,571.33,368.42Z"/>
    <path class="cls-1" d="M679.61,420.7H649.46v-140h34.45v56a40.52,40.52,0,0,1,12.5-8.27,38.92,38.92,0,0,1,15.22-2.94,38,38,0,0,1,21.66,6.31,43.37,43.37,0,0,1,14.84,17.26,60.35,60.35,0,0,1,0,49.95,43.4,43.4,0,0,1-14.84,17.27,38.1,38.1,0,0,1-21.66,6.3,39.05,39.05,0,0,1-16.94-3.69,40,40,0,0,1-13.4-10.22Zm21.47-28.94a17.28,17.28,0,0,0,8.92-2.28,16.18,16.18,0,0,0,6.06-6.35,19.15,19.15,0,0,0,2.2-9.29,18.25,18.25,0,0,0-2.2-9,16.25,16.25,0,0,0-6.06-6.25,17.19,17.19,0,0,0-8.92-2.29,17.52,17.52,0,0,0-8.45,2,16.41,16.41,0,0,0-6.06,5.6,17.36,17.36,0,0,0-2.66,8.22v3.45a18,18,0,0,0,2.66,8.4,16.11,16.11,0,0,0,6.06,5.7A17.41,17.41,0,0,0,701.08,391.76Z"/>
  </g>
  <g>
    <path d="M289.12,370.16a18.62,18.62,0,0,1-6.58,1.3,12.41,12.41,0,0,1-6.07-1.44,10.35,10.35,0,0,1-4.1-4,11.59,11.59,0,0,1-1.48-5.92v-7.36h-4.73v-8.91h5.27v-6.77h9.45v6.77H288v8.91h-7.12v5.55a4,4,0,0,0,1.17,3.15,3.92,3.92,0,0,0,2.73,1.07,5.32,5.32,0,0,0,3.09-1Z"/>
    <path d="M292.63,370.91V330.3h10v16.14a11,11,0,0,1,15.36,0q2.77,3.13,2.78,8.71v15.78h-10V357.86a7,7,0,0,0-1-4.16,3.41,3.41,0,0,0-3-1.47,3.56,3.56,0,0,0-3.06,1.48,6.92,6.92,0,0,0-1.08,4.15v13.05Z"/>
    <path d="M351.39,368.07a19.38,19.38,0,0,1-11,3.39,17.48,17.48,0,0,1-8.22-1.91,15,15,0,0,1-5.77-5.21,13.42,13.42,0,0,1-2.12-7.42,13,13,0,0,1,1.89-7,13.66,13.66,0,0,1,5.16-4.87,15.09,15.09,0,0,1,7.38-1.78,14.28,14.28,0,0,1,7.55,2,13.46,13.46,0,0,1,5.06,5.5,17.61,17.61,0,0,1,1.82,8.18v.86H335a6.28,6.28,0,0,0,1.35,1.91,6.34,6.34,0,0,0,2.17,1.37,8.25,8.25,0,0,0,3,.51,12.23,12.23,0,0,0,7.23-2.43Zm-16.84-12.32H344a5,5,0,0,0-.77-2.24,4.58,4.58,0,0,0-1.68-1.53,4.88,4.88,0,0,0-2.32-.56,4.25,4.25,0,0,0-2.27.6,4.77,4.77,0,0,0-1.59,1.57A6.13,6.13,0,0,0,334.55,355.75Z"/>
  </g>
  <g>
    <g id="Layer_2" data-name="Layer 2">
      <g id="Layer_1-2" data-name="Layer 1-2">
        <path class="cls-1" d="M17.6,185.82a16.79,16.79,0,0,1-6.84-1.4,17.74,17.74,0,0,1-9.38-9.32,17.52,17.52,0,0,1,0-13.63,17.85,17.85,0,0,1,9.38-9.38,17.55,17.55,0,0,1,13.69,0,17.78,17.78,0,0,1,9.36,9.38A17.45,17.45,0,0,1,30,180.67a18,18,0,0,1-5.59,3.72A16.83,16.83,0,0,1,17.6,185.82Zm0-9.19A8.54,8.54,0,0,0,21,176a8.86,8.86,0,0,0,2.78-1.78,8.56,8.56,0,0,0,2-2.67,7.67,7.67,0,0,0,0-6.49,9.06,9.06,0,0,0-11.43-4.5,8.6,8.6,0,0,0-2.79,1.81A8.91,8.91,0,0,0,9.61,165a7.6,7.6,0,0,0,0,6.49,8.94,8.94,0,0,0,1.89,2.67A8.63,8.63,0,0,0,14.29,176a8.72,8.72,0,0,0,3.31.62Z"/>
        <path class="cls-1" d="M2,149.88a1.17,1.17,0,0,1-1,0,.75.75,0,0,1-.38-.73v-7.56a1.43,1.43,0,0,1,.28-.87,1.49,1.49,0,0,1,.73-.56l15.44-5.29c.32-.09.47-.25.47-.49s-.15-.39-.47-.49L1.7,128.81a1.46,1.46,0,0,1-.78-.56,1.54,1.54,0,0,1-.28-1V121.1a1.58,1.58,0,0,1,.28-.92,1.44,1.44,0,0,1,.78-.55l15.49-5.11c.31-.09.46-.25.46-.48s-.15-.41-.46-.54L1.63,108.17a2,2,0,0,1-.73-.6,1.64,1.64,0,0,1-.28-1v-7.4A.69.69,0,0,1,1,98.48a1.13,1.13,0,0,1,.81,0L33.5,109.71a1.63,1.63,0,0,1,.77.6,1.54,1.54,0,0,1,.29,1v6a1.55,1.55,0,0,1-.29,1,1.44,1.44,0,0,1-.77.56l-15.45,5.1c-.31.1-.47.25-.47.49s.16.39.47.49L33.5,130a1.44,1.44,0,0,1,.77.56,1.55,1.55,0,0,1,.29,1v6A1.57,1.57,0,0,1,33.5,139Z"/>
        <path class="cls-1" d="M1.68,89.15a1.74,1.74,0,0,1-.7-.62,1.61,1.61,0,0,1-.29-1V81.08a1.53,1.53,0,0,1,.29-.9,1.84,1.84,0,0,1,.73-.63L33.25,66a1,1,0,0,1,.89.07,1,1,0,0,1,.45,1v8a1.68,1.68,0,0,1-.3,1,2.07,2.07,0,0,1-.71.67L30.76,78a2,2,0,0,0-.72.67,1.65,1.65,0,0,0-.3.91v9.78a1.67,1.67,0,0,0,.3,1,1.57,1.57,0,0,0,.72.63l2.79,1.3a1.88,1.88,0,0,1,.72.62,1.59,1.59,0,0,1,.29.91v8a1.15,1.15,0,0,1-.1.48.93.93,0,0,1-.26.41,1,1,0,0,1-.46.22,1.09,1.09,0,0,1-.66-.15Zm20.18-2.73V82.29a.81.81,0,0,0-.3-.68.69.69,0,0,0-.73,0c-.77.31-1.68.68-2.71,1.12l-2.93,1.2c-.27.12-.41.26-.41.42s.14.29.41.41l5.61,2.32a.79.79,0,0,0,.73,0A.75.75,0,0,0,21.86,86.42Z"/>
        <path class="cls-1" d="M94.93,129H83a1,1,0,0,0-1,1v.12a63.88,63.88,0,0,0,1.91,12.54,1,1,0,0,0,1,.77H94.93a1,1,0,0,0,1-1V130.07a1,1,0,0,0-.94-1Z"/>
        <path class="cls-1" d="M94.93,108.44H85a1,1,0,0,0-1,.77,63.44,63.44,0,0,0-2,12.62,1,1,0,0,0,.88,1.1H94.93a1,1,0,0,0,1-1V109.48a1,1,0,0,0-1-1Z"/>
        <path class="cls-1" d="M94.37,91.58a20.94,20.94,0,0,0-7,8.3c-.16.31-.32.65-.48,1a1,1,0,0,0,.36,1.36,1,1,0,0,0,.58.13H94.9a1,1,0,0,0,1-1V92.46a1,1,0,0,0-1-1A.93.93,0,0,0,94.37,91.58Z"/>
        <path class="cls-1" d="M94.93,149.51H87.84A1,1,0,0,0,86.9,151c.17.36.35.71.52,1a20.75,20.75,0,0,0,7,8.3,1,1,0,0,0,1.39-.17.94.94,0,0,0,.21-.7v-9a1,1,0,0,0-1-1Z"/>
        <path class="cls-1" d="M73.53,102.33H79a1,1,0,0,0,1-.66,44.88,44.88,0,0,1,3-6.16,1,1,0,1,0-1.39-1.45h0a36.82,36.82,0,0,0-8.74,6.5,1,1,0,0,0-.17,1.4h0A1,1,0,0,0,73.53,102.33Z"/>
        <path class="cls-1" d="M63.51,122.93H74.86a1.06,1.06,0,0,0,1-1,73,73,0,0,1,1.64-12.22,1,1,0,0,0-.68-1.23,1.6,1.6,0,0,0-.31,0H67.44a1,1,0,0,0-.92.54,35.69,35.69,0,0,0-4,12.76,1,1,0,0,0,.8,1.16l.1,0Z"/>
        <path class="cls-1" d="M80,150.21a1,1,0,0,0-1-.67H73.45a1,1,0,0,0-1.11.87,1,1,0,0,0,.36.89,36.73,36.73,0,0,0,8.83,6.59,1,1,0,0,0,1.41,0h0a1,1,0,0,0,0-1.41h0A43.31,43.31,0,0,1,80,150.21Z"/>
        <path class="cls-1" d="M118.06,101.67a1,1,0,0,0,1,.66h5.54a1,1,0,0,0,1.11-.86,1,1,0,0,0-.37-.91,37.42,37.42,0,0,0-8.75-6.5,1,1,0,0,0-1.39,1.45h0A43.06,43.06,0,0,1,118.06,101.67Z"/>
        <path class="cls-1" d="M77.52,142.16A72.88,72.88,0,0,1,75.9,130a1.05,1.05,0,0,0-1-1H63.51a1,1,0,0,0-1,1.08v.08a35.5,35.5,0,0,0,4,12.69,1,1,0,0,0,.92.55h9.1a1,1,0,0,0,1-1A.82.82,0,0,0,77.52,142.16Z"/>
        <path class="cls-1" d="M103.12,122.93h12a1,1,0,0,0,1-1v-.11a63.36,63.36,0,0,0-1.94-12.62,1,1,0,0,0-1-.77h-10a1,1,0,0,0-1,1v12.4a1,1,0,0,0,.9,1.09h.1Z"/>
        <path class="cls-1" d="M120.5,109.71a72,72,0,0,1,1.65,12.22,1,1,0,0,0,1,1h11.43a1,1,0,0,0,1-1,.61.61,0,0,0,0-.19,35.74,35.74,0,0,0-4-12.78,1,1,0,0,0-.92-.54h-9.1a1,1,0,0,0-1.06.94h0A1.37,1.37,0,0,0,120.5,109.71Z"/>
        <path class="cls-1" d="M134.57,129H123.19a1,1,0,0,0-1,1,72.84,72.84,0,0,1-1.59,12.14,1,1,0,0,0,.69,1.23,1.61,1.61,0,0,0,.31,0h9.13a1,1,0,0,0,.91-.55,35.7,35.7,0,0,0,4-12.69,1,1,0,0,0-.8-1.15h0A1.09,1.09,0,0,0,134.57,129Z"/>
        <path class="cls-1" d="M124.6,149.51h-5.53a1,1,0,0,0-1,.67,44.1,44.1,0,0,1-3,6.24,1,1,0,1,0,1.39,1.44h0a36.78,36.78,0,0,0,8.84-6.59,1,1,0,0,0,.14-1.4h0A1,1,0,0,0,124.6,149.51Z"/>
        <path class="cls-1" d="M103.12,102.33h7a1,1,0,0,0,1.06-.91,1,1,0,0,0-.13-.58l-.48-1a20.79,20.79,0,0,0-7-8.3,1,1,0,0,0-1.61.88v8.83a1,1,0,0,0,.9,1.08A.54.54,0,0,0,103.12,102.33Z"/>
        <path class="cls-1" d="M110.21,149.51h-7.09a1,1,0,0,0-1,1v9a1,1,0,0,0,1.61.87,21,21,0,0,0,7-8.3c.18-.34.35-.69.52-1.05a1,1,0,0,0-1-1.44Z"/>
        <path class="cls-1" d="M115,129h-12a1,1,0,0,0-1,1v12.36a1,1,0,0,0,1,1h10a1,1,0,0,0,1-.77A64.67,64.67,0,0,0,116,130.08a1,1,0,0,0-.94-1.05h0Z"/>
        <path class="cls-1" d="M139.22,65.93H58.86A14.42,14.42,0,0,0,44.45,80.34v91.24A14.42,14.42,0,0,0,58.86,186h80.36a14.4,14.4,0,0,0,14.4-14.4V80.34A14.41,14.41,0,0,0,139.22,65.93ZM99,168.53A42.57,42.57,0,1,1,141.61,126,42.57,42.57,0,0,1,99,168.53Z"/>
      </g>
    </g>
    <path class="cls-1" d="M18.4,46.48v-8.9A20.93,20.93,0,0,1,39.33,16.65h0A19.93,19.93,0,0,1,59.26,36.58V59.8A2.16,2.16,0,0,0,61.42,62H73.84A2.15,2.15,0,0,0,76,59.82V36.67A36.67,36.67,0,0,0,39.35,0h0A38.65,38.65,0,0,0,.69,38.65h0v7.82A3.52,3.52,0,0,0,4.19,50H14.87a3.53,3.53,0,0,0,3.53-3.53Z"/>
  </g>
  <g>
    <path d="M337.83,475.73a10.18,10.18,0,0,1-4.95-1.19,8.88,8.88,0,0,1-3.41-3.25,9.07,9.07,0,0,1,3.41-12.66,10.18,10.18,0,0,1,4.95-1.18,10,10,0,0,1,4.91,1.18,8.86,8.86,0,0,1,3.39,3.26,9.59,9.59,0,0,1,0,9.4,8.76,8.76,0,0,1-3.39,3.25A10,10,0,0,1,337.83,475.73Zm0-5.8a2.66,2.66,0,0,0,1.5-.43,3.05,3.05,0,0,0,1-1.2,3.92,3.92,0,0,0,.37-1.75,3.72,3.72,0,0,0-.37-1.69,3.06,3.06,0,0,0-1-1.18,2.85,2.85,0,0,0-3,0,3,3,0,0,0-1,1.18,3.59,3.59,0,0,0-.38,1.69,3.79,3.79,0,0,0,.38,1.75,3,3,0,0,0,1,1.2A2.67,2.67,0,0,0,337.8,469.93Z"/>
    <path d="M356.5,484.17H350V457.8h5.67l.34,2.28a7.48,7.48,0,0,1,2.52-1.94,7.4,7.4,0,0,1,3.19-.69,7.18,7.18,0,0,1,4.08,1.18,8.25,8.25,0,0,1,2.79,3.26,11.34,11.34,0,0,1,0,9.4,8.15,8.15,0,0,1-2.79,3.25,7.19,7.19,0,0,1-4.08,1.19,7.52,7.52,0,0,1-2.87-.55,7.65,7.65,0,0,1-2.35-1.56Zm3.23-14.24a3.18,3.18,0,0,0,1.68-.43,3.06,3.06,0,0,0,1.15-1.19,3.81,3.81,0,0,0,0-3.44,3.06,3.06,0,0,0-1.15-1.19,3.18,3.18,0,0,0-1.68-.43,3.28,3.28,0,0,0-1.59.39,3,3,0,0,0-1.14,1.07,3.39,3.39,0,0,0-.5,1.58v.65a3.34,3.34,0,0,0,.5,1.54,3.14,3.14,0,0,0,1.14,1.06A3.28,3.28,0,0,0,359.73,469.93Z"/>
    <path d="M389,473.53a12.57,12.57,0,0,1-7.14,2.2,11.3,11.3,0,0,1-5.34-1.24,9.78,9.78,0,0,1-3.74-3.38,8.73,8.73,0,0,1-1.38-4.82,8.46,8.46,0,0,1,1.23-4.53,8.83,8.83,0,0,1,3.35-3.15,9.73,9.73,0,0,1,4.79-1.16,9.27,9.27,0,0,1,4.9,1.28,8.8,8.8,0,0,1,3.29,3.57,11.36,11.36,0,0,1,1.18,5.31v.56H378.33a4.26,4.26,0,0,0,.88,1.24,4.1,4.1,0,0,0,1.41.89,5.38,5.38,0,0,0,2,.33,8,8,0,0,0,4.69-1.58Zm-10.94-8h6.14a3.3,3.3,0,0,0-.5-1.45,2.91,2.91,0,0,0-1.09-1,3.18,3.18,0,0,0-1.51-.36,2.74,2.74,0,0,0-1.47.39,3.14,3.14,0,0,0-1,1A4.16,4.16,0,0,0,378,465.53Z"/>
    <path d="M411,475.38h-6.49v-8.47a4.62,4.62,0,0,0-.67-2.71,2.25,2.25,0,0,0-1.93-.95,2.33,2.33,0,0,0-2,1,4.54,4.54,0,0,0-.7,2.7v8.47h-6.48V457.8h5.13l.21,2.79a6.2,6.2,0,0,1,2.43-2.34,7.36,7.36,0,0,1,3.53-.8,6.53,6.53,0,0,1,5.11,2,8.1,8.1,0,0,1,1.85,5.65Z"/>
    <path d="M428.24,469.05H414.17v-4.92h14.07Z"/>
    <path d="M454.73,475.38h-7.39l-2-9.13-2,9.13h-7.38l-5.71-17.58H437l2.45,11.06,3.06-11.06h5.55l3.06,11.13,2.44-11.13h6.86Z"/>
    <path d="M478.56,473.53a12.55,12.55,0,0,1-7.14,2.2,11.26,11.26,0,0,1-5.33-1.24,9.71,9.71,0,0,1-3.74-3.38,8.73,8.73,0,0,1-1.38-4.82,8.46,8.46,0,0,1,1.23-4.53,8.8,8.8,0,0,1,3.34-3.15,9.76,9.76,0,0,1,4.79-1.16,9.31,9.31,0,0,1,4.91,1.28,8.87,8.87,0,0,1,3.29,3.57,11.48,11.48,0,0,1,1.17,5.31v.56H467.93a4.13,4.13,0,0,0,2.28,2.13,5.38,5.38,0,0,0,2,.33,8,8,0,0,0,4.69-1.58Zm-10.93-8h6.13a3.18,3.18,0,0,0-.5-1.45,2.84,2.84,0,0,0-1.09-1,3.14,3.14,0,0,0-1.5-.36,2.77,2.77,0,0,0-1.48.39,3.24,3.24,0,0,0-1,1A4,4,0,0,0,467.63,465.53Z"/>
    <path d="M488,475.38h-5.68V449h6.49v10.55a7.54,7.54,0,0,1,2.35-1.56,7.34,7.34,0,0,1,2.87-.55,7.2,7.2,0,0,1,4.08,1.18,8.25,8.25,0,0,1,2.79,3.26,11.34,11.34,0,0,1,0,9.4,8.15,8.15,0,0,1-2.79,3.25,7.21,7.21,0,0,1-4.08,1.19,7.4,7.4,0,0,1-3.19-.69,7.72,7.72,0,0,1-2.53-1.93Zm4-5.45a3.23,3.23,0,0,0,1.68-.43,3,3,0,0,0,1.14-1.2,3.57,3.57,0,0,0,.42-1.75,3.39,3.39,0,0,0-.42-1.69,3,3,0,0,0-1.14-1.18,3.23,3.23,0,0,0-1.68-.43,3.28,3.28,0,0,0-1.59.39,3,3,0,0,0-1.14,1.05,3.2,3.2,0,0,0-.5,1.55v.65a3.31,3.31,0,0,0,.5,1.58,3.08,3.08,0,0,0,1.14,1.07A3.28,3.28,0,0,0,492.06,469.93Z"/>
    <path d="M518.64,469.05H504.58v-4.92h14.06Z"/>
    <path d="M538.84,475.38h-5.68l-.32-1.94a6.31,6.31,0,0,1-2.34,1.7,7.51,7.51,0,0,1-3,.59,7.22,7.22,0,0,1-3.22-.69,5.63,5.63,0,0,1-2.22-1.92,5,5,0,0,1-.8-2.79,4.88,4.88,0,0,1,.88-2.9,5.89,5.89,0,0,1,2.43-2,8.54,8.54,0,0,1,3.56-.71,10.16,10.16,0,0,1,2.14.22,11.43,11.43,0,0,1,2.06.64v-.28a2.11,2.11,0,0,0-.52-1.42,3.33,3.33,0,0,0-1.44-1,5.93,5.93,0,0,0-2.1-.35A7.74,7.74,0,0,0,526,463a6.7,6.7,0,0,0-2,1l-1.65-4.76a20.62,20.62,0,0,1,3.83-1.3,15.78,15.78,0,0,1,3.64-.44,10.17,10.17,0,0,1,4.79,1.06,7.54,7.54,0,0,1,3.14,3,9.06,9.06,0,0,1,1.11,4.58ZM529,471a3.77,3.77,0,0,0,1.56-.35,3.69,3.69,0,0,0,1.25-.9,1.65,1.65,0,0,0,.5-1.1v0a5.48,5.48,0,0,0-1.41-.57,5.9,5.9,0,0,0-1.55-.21,3.17,3.17,0,0,0-1.75.42,1.29,1.29,0,0,0-.64,1.13,1.37,1.37,0,0,0,.27.83,1.73,1.73,0,0,0,.72.57A2.73,2.73,0,0,0,529,471Z"/>
    <path d="M560.74,475.38h-5.68l-.33-2.29A7.75,7.75,0,0,1,552.2,475a7.38,7.38,0,0,1-3.19.7,7.15,7.15,0,0,1-4.06-1.19,8.12,8.12,0,0,1-2.81-3.25,11.34,11.34,0,0,1,0-9.4,8.21,8.21,0,0,1,2.81-3.26,7.14,7.14,0,0,1,4.06-1.18,7.44,7.44,0,0,1,2.89.55,7.31,7.31,0,0,1,2.35,1.56V449h6.49ZM551,469.93a3.35,3.35,0,0,0,1.62-.39,3,3,0,0,0,1.17-1.07,2.81,2.81,0,0,0,.44-1.58v-.65a2.71,2.71,0,0,0-.44-1.55,3,3,0,0,0-1.17-1.05,3.35,3.35,0,0,0-1.62-.39,3.22,3.22,0,0,0-1.67.43,3.09,3.09,0,0,0-1.16,1.19,3.73,3.73,0,0,0,0,3.44,3.09,3.09,0,0,0,1.16,1.19A3.22,3.22,0,0,0,551,469.93Z"/>
    <path d="M583.19,457.8l-7,17.58h-6.28l-7-17.58h6.92L573,468.91l3.25-11.11Z"/>
    <path d="M593.49,475.73a10.18,10.18,0,0,1-5-1.19,8.74,8.74,0,0,1-3.41-3.25,9.07,9.07,0,0,1,3.41-12.66,10.18,10.18,0,0,1,5-1.18,10,10,0,0,1,4.91,1.18,8.83,8.83,0,0,1,3.38,3.26,9.59,9.59,0,0,1,0,9.4,8.73,8.73,0,0,1-3.38,3.25A10,10,0,0,1,593.49,475.73Zm0-5.8a2.64,2.64,0,0,0,1.5-.43,3,3,0,0,0,1-1.2,3.92,3.92,0,0,0,.38-1.75,3.72,3.72,0,0,0-.38-1.69,3,3,0,0,0-1-1.18,2.83,2.83,0,0,0-3,0,3,3,0,0,0-1,1.18,3.72,3.72,0,0,0-.38,1.69,3.92,3.92,0,0,0,.38,1.75,3,3,0,0,0,1,1.2A2.66,2.66,0,0,0,593.45,469.93Z"/>
    <path d="M621.88,472.41a9,9,0,0,1-3.22,2.43,10.26,10.26,0,0,1-4.31.89,10.13,10.13,0,0,1-4.93-1.19,8.81,8.81,0,0,1-3.41-3.25,9.53,9.53,0,0,1,0-9.4,8.91,8.91,0,0,1,3.41-3.26,10.87,10.87,0,0,1,9.21-.3,8.9,8.9,0,0,1,3.21,2.39l-3.78,4a3.83,3.83,0,0,0-1.41-1.07,4.41,4.41,0,0,0-1.82-.39,3.61,3.61,0,0,0-1.76.42,3,3,0,0,0-1.21,1.17,3.25,3.25,0,0,0-.44,1.71,3.37,3.37,0,0,0,.44,1.75,3.1,3.1,0,0,0,1.21,1.2,3.5,3.5,0,0,0,1.76.43,4.35,4.35,0,0,0,1.83-.4,3.69,3.69,0,0,0,1.4-1.06Z"/>
    <path d="M641,475.38h-5.68l-.32-1.94a6.36,6.36,0,0,1-2.33,1.7,7.56,7.56,0,0,1-3,.59,7.22,7.22,0,0,1-3.22-.69,5.6,5.6,0,0,1-2.21-1.92,4.94,4.94,0,0,1-.81-2.79,4.88,4.88,0,0,1,.88-2.9,5.89,5.89,0,0,1,2.43-2,8.57,8.57,0,0,1,3.56-.71,10.32,10.32,0,0,1,2.15.22,11.58,11.58,0,0,1,2,.64v-.28a2.11,2.11,0,0,0-.52-1.42,3.33,3.33,0,0,0-1.44-1,5.93,5.93,0,0,0-2.1-.35,7.74,7.74,0,0,0-2.31.35,6.82,6.82,0,0,0-2,1l-1.65-4.76a20.62,20.62,0,0,1,3.83-1.3,15.78,15.78,0,0,1,3.64-.44,10.17,10.17,0,0,1,4.79,1.06,7.54,7.54,0,0,1,3.14,3A9.06,9.06,0,0,1,641,466.1ZM631.19,471a3.77,3.77,0,0,0,1.56-.35,3.69,3.69,0,0,0,1.25-.9,1.65,1.65,0,0,0,.5-1.1v0a5.21,5.21,0,0,0-1.41-.57,5.85,5.85,0,0,0-1.55-.21,3.19,3.19,0,0,0-1.75.42,1.29,1.29,0,0,0-.64,1.13,1.37,1.37,0,0,0,.27.83,1.76,1.76,0,0,0,.73.57A2.68,2.68,0,0,0,631.19,471Z"/>
    <path d="M660.41,472.41a9,9,0,0,1-3.22,2.43,10.84,10.84,0,0,1-9.24-.3,8.88,8.88,0,0,1-3.41-3.25A9.07,9.07,0,0,1,648,458.63a10.87,10.87,0,0,1,9.21-.3,8.9,8.9,0,0,1,3.21,2.39l-3.78,4a3.83,3.83,0,0,0-1.41-1.07,4.41,4.41,0,0,0-1.82-.39,3.63,3.63,0,0,0-1.76.42,3,3,0,0,0-1.21,1.17,3.25,3.25,0,0,0-.44,1.71,3.37,3.37,0,0,0,.44,1.75,3.1,3.1,0,0,0,1.21,1.2,3.53,3.53,0,0,0,1.76.43,4.35,4.35,0,0,0,1.83-.4,3.69,3.69,0,0,0,1.4-1.06Z"/>
    <path d="M674.07,484.17h-6.86l3.62-8.74-9.19-17.63H669l4.87,10.27,4.25-10.27H685Z"/>
    <path d="M688.51,475.73a2.88,2.88,0,0,1-2-4.85,2.82,2.82,0,0,1,4.85,2,2.66,2.66,0,0,1-2.82,2.81Z"/>
    <path d="M702.86,475.73a10.18,10.18,0,0,1-5-1.19,8.81,8.81,0,0,1-3.41-3.25,9.07,9.07,0,0,1,3.41-12.66,10.18,10.18,0,0,1,5-1.18,10,10,0,0,1,4.91,1.18,9.3,9.3,0,0,1,3.39,12.66,8.83,8.83,0,0,1-3.39,3.25A10,10,0,0,1,702.86,475.73Zm0-5.8a2.67,2.67,0,0,0,1.51-.43,3,3,0,0,0,1-1.2,3.79,3.79,0,0,0,.38-1.75,3.59,3.59,0,0,0-.38-1.69,3,3,0,0,0-1-1.18,2.85,2.85,0,0,0-3,0,3.06,3.06,0,0,0-1,1.18,3.72,3.72,0,0,0-.37,1.69,3.92,3.92,0,0,0,.37,1.75,3.05,3.05,0,0,0,1,1.2A2.66,2.66,0,0,0,702.82,469.93Z"/>
    <path d="M721.51,475.38H715V457.8h5.63l.21,2.76a6.34,6.34,0,0,1,2.28-2.29,6.25,6.25,0,0,1,3.22-.82,8.86,8.86,0,0,1,1.25.09,12.34,12.34,0,0,1,1.28.29l-.81,5.84a7.68,7.68,0,0,0-2.39-.42,4.4,4.4,0,0,0-2.22.54,3.56,3.56,0,0,0-1.45,1.5,4.85,4.85,0,0,0-.51,2.3Z"/>
    <path d="M737.58,475.73a7.18,7.18,0,0,1-4.07-1.19,8.12,8.12,0,0,1-2.81-3.25,11.36,11.36,0,0,1,0-9.41,8.25,8.25,0,0,1,2.81-3.25,7.17,7.17,0,0,1,4.07-1.18,7.28,7.28,0,0,1,3.2.7,7.64,7.64,0,0,1,2.53,2l.29-2.3h5.68v17.07a9.4,9.4,0,0,1-1.35,5.06,9.07,9.07,0,0,1-3.78,3.38,12.48,12.48,0,0,1-5.66,1.21,14.05,14.05,0,0,1-8.21-2.66l2.55-5.32a7.28,7.28,0,0,0,5.15,2.18,5.63,5.63,0,0,0,2.49-.53,4.14,4.14,0,0,0,1.7-1.47,3.73,3.73,0,0,0,.63-2.13v-1a7.42,7.42,0,0,1-2.35,1.56A7.56,7.56,0,0,1,737.58,475.73Zm2-5.8a3.46,3.46,0,0,0,1.62-.38,3,3,0,0,0,1.17-1.06,3,3,0,0,0,.43-1.57v-.72a2.77,2.77,0,0,0-.44-1.53,3.17,3.17,0,0,0-1.17-1,3.38,3.38,0,0,0-1.61-.38,3.22,3.22,0,0,0-1.67.43,3.09,3.09,0,0,0-1.16,1.19,3.73,3.73,0,0,0,0,3.44,3.09,3.09,0,0,0,1.16,1.19A3.22,3.22,0,0,0,739.58,469.93Z"/>
  </g>
</svg>
