<svg id="Calque_1" data-name="Calque 1" xmlns="http://www.w3.org/2000/svg" width="665.86" height="458.04" viewBox="0 0 665.86 458.04"><rect width="665.86" height="458.04" style="fill:#fff;opacity:0"/><g id="Layer_2" data-name="Layer 2"><g id="Layer_1-2" data-name="Layer 1-2"><path d="M552.91,411a6,6,0,0,1-2.52-.51,6.54,6.54,0,0,1-3.46-3.44,6.46,6.46,0,0,1,0-5,6.58,6.58,0,0,1,3.46-3.46,6.21,6.21,0,0,1,2.52-.51,6.29,6.29,0,0,1,2.53.51,6.59,6.59,0,0,1,3.45,3.46,6.43,6.43,0,0,1-1.39,7.08,6.77,6.77,0,0,1-2.06,1.38A6.13,6.13,0,0,1,552.91,411Zm0-3.39a2.9,2.9,0,0,0,1.23-.24,3.37,3.37,0,0,0,1.77-1.64,2.85,2.85,0,0,0,0-2.39,3.29,3.29,0,0,0-.74-1,3.24,3.24,0,0,0-3.48-.66,3.3,3.3,0,0,0-1,.66,3.47,3.47,0,0,0-.7,1,2.78,2.78,0,0,0,0,2.39,3.43,3.43,0,0,0,.7,1,3.27,3.27,0,0,0,1,.65,3,3,0,0,0,1.22.23Z" style="fill:#cd4c1d"/><path d="M547.16,397.74a.47.47,0,0,1-.37,0,.29.29,0,0,1-.15-.27v-2.79a.52.52,0,0,1,.11-.32.56.56,0,0,1,.27-.21l5.69-1.95c.12,0,.18-.09.18-.18s-.06-.15-.18-.18L547,390a.51.51,0,0,1-.28-.2.56.56,0,0,1-.11-.37v-2.27a.6.6,0,0,1,.11-.34.51.51,0,0,1,.28-.2l5.72-1.89c.11,0,.17-.09.17-.18s-.06-.15-.17-.2l-5.74-2a.73.73,0,0,1-.27-.22.7.7,0,0,1-.11-.37V379a.26.26,0,0,1,.15-.26.51.51,0,0,1,.3,0l11.68,4.15a.58.58,0,0,1,.29.22.65.65,0,0,1,.11.37v2.2a.7.7,0,0,1-.11.37.56.56,0,0,1-.29.21l-5.7,1.88c-.11,0-.17.09-.17.18s.06.14.17.18l5.7,1.88a.51.51,0,0,1,.29.21.64.64,0,0,1,.11.36v2.21a.59.59,0,0,1-.4.53Z" style="fill:#cd4c1d"/><path d="M547,375.33a.58.58,0,0,1-.26-.23.57.57,0,0,1-.11-.36v-2.38a.6.6,0,0,1,.11-.34.67.67,0,0,1,.27-.23l11.63-5a.38.38,0,0,1,.33,0,.39.39,0,0,1,.17.37v2.94a.61.61,0,0,1-.12.37.69.69,0,0,1-.26.25l-1,.46a.75.75,0,0,0-.26.24.6.6,0,0,0-.11.34v3.6a.6.6,0,0,0,.11.37.53.53,0,0,0,.26.23l1,.48a.67.67,0,0,1,.27.23.6.6,0,0,1,.11.34V380a.58.58,0,0,1,0,.18.31.31,0,0,1-.1.15.38.38,0,0,1-.17.08.4.4,0,0,1-.24-.05Zm7.44-1V372.8a.28.28,0,0,0-.11-.25.26.26,0,0,0-.27,0l-1,.41-1.08.45q-.15.06-.15.15t.15.15l2.07.86a.26.26,0,0,0,.27,0A.27.27,0,0,0,554.48,374.32Z" style="fill:#cd4c1d"/><path d="M581.43,390H577a.38.38,0,0,0-.37.37v0a23.25,23.25,0,0,0,.71,4.62.36.36,0,0,0,.37.28h3.7a.36.36,0,0,0,.37-.36v-4.57a.37.37,0,0,0-.35-.39Z" style="fill:#cd4c1d"/><path d="M581.43,382.45h-3.67a.37.37,0,0,0-.37.28,23.81,23.81,0,0,0-.74,4.66.37.37,0,0,0,.33.4h4.45a.36.36,0,0,0,.37-.36v-4.6a.36.36,0,0,0-.37-.36Z" style="fill:#cd4c1d"/><path d="M581.23,376.23a7.75,7.75,0,0,0-2.58,3.06c0,.12-.11.24-.17.37a.37.37,0,0,0,.13.5.33.33,0,0,0,.21,0h2.6a.36.36,0,0,0,.37-.37v-3.29a.36.36,0,0,0-.56-.32Z" style="fill:#cd4c1d"/><path d="M581.43,397.6h-2.61a.36.36,0,0,0-.39.34.39.39,0,0,0,0,.21,3.87,3.87,0,0,0,.2.36,7.67,7.67,0,0,0,2.57,3.07.37.37,0,0,0,.51-.07.34.34,0,0,0,.08-.26v-3.31a.36.36,0,0,0-.37-.36Z" style="fill:#cd4c1d"/><path d="M573.54,380.2h2a.39.39,0,0,0,.36-.25,16.43,16.43,0,0,1,1.11-2.27.37.37,0,0,0-.52-.54h0a13.79,13.79,0,0,0-3.22,2.4.37.37,0,0,0-.06.52h0A.37.37,0,0,0,573.54,380.2Z" style="fill:#cd4c1d"/><path d="M569.84,387.79H574a.39.39,0,0,0,.37-.36,26.3,26.3,0,0,1,.61-4.51.36.36,0,0,0-.26-.45.2.2,0,0,0-.11,0h-3.35a.35.35,0,0,0-.33.19,13.06,13.06,0,0,0-1.5,4.71.38.38,0,0,0,.3.43h.08Z" style="fill:#cd4c1d"/><path d="M575.91,397.86a.39.39,0,0,0-.37-.25h-2a.38.38,0,0,0-.41.32.4.4,0,0,0,.13.33,13.58,13.58,0,0,0,3.26,2.43.36.36,0,0,0,.52,0h0a.37.37,0,0,0,0-.52h0A16.83,16.83,0,0,1,575.91,397.86Z" style="fill:#cd4c1d"/><path d="M590,380a.39.39,0,0,0,.37.25h2a.37.37,0,0,0,.27-.66,14,14,0,0,0-3.22-2.4.37.37,0,0,0-.52.54h0A16.13,16.13,0,0,1,590,380Z" style="fill:#cd4c1d"/><path d="M575,394.89a26.94,26.94,0,0,1-.59-4.48.4.4,0,0,0-.37-.37h-4.21a.38.38,0,0,0-.36.4v0a13.06,13.06,0,0,0,1.47,4.68.37.37,0,0,0,.34.21h3.35A.37.37,0,0,0,575,395,.17.17,0,0,0,575,394.89Z" style="fill:#cd4c1d"/><path d="M584.46,387.79h4.41a.37.37,0,0,0,.37-.36v-.05a22.85,22.85,0,0,0-.72-4.65.35.35,0,0,0-.36-.28h-3.7a.36.36,0,0,0-.37.36v4.58a.37.37,0,0,0,.33.4h0Z" style="fill:#cd4c1d"/><path d="M590.87,382.92a27.32,27.32,0,0,1,.61,4.51.36.36,0,0,0,.36.36h4.22a.36.36,0,0,0,.36-.36.08.08,0,0,0,0-.07,12.93,12.93,0,0,0-1.47-4.72.37.37,0,0,0-.33-.2h-3.36a.37.37,0,0,0-.39.35h0A.28.28,0,0,0,590.87,382.92Z" style="fill:#cd4c1d"/><path d="M596.06,390h-4.2a.39.39,0,0,0-.37.37,25.92,25.92,0,0,1-.58,4.48.37.37,0,0,0,.25.45.24.24,0,0,0,.12,0h3.36a.34.34,0,0,0,.34-.2,13.12,13.12,0,0,0,1.47-4.68.36.36,0,0,0-.29-.43h-.1Z" style="fill:#cd4c1d"/><path d="M592.38,397.6h-2a.37.37,0,0,0-.37.25,15.63,15.63,0,0,1-1.1,2.3.37.37,0,0,0,.51.53h0a13.58,13.58,0,0,0,3.26-2.43.37.37,0,0,0,.05-.52h0A.36.36,0,0,0,592.38,397.6Z" style="fill:#cd4c1d"/><path d="M584.46,380.2h2.6a.37.37,0,0,0,.39-.34.3.3,0,0,0-.05-.21l-.17-.37a7.76,7.76,0,0,0-2.58-3.07.37.37,0,0,0-.51.07.35.35,0,0,0-.08.26v3.26a.37.37,0,0,0,.33.4Z" style="fill:#cd4c1d"/><path d="M587.07,397.6h-2.61a.36.36,0,0,0-.37.37v3.31a.37.37,0,0,0,.33.4.4.4,0,0,0,.26-.08,7.7,7.7,0,0,0,2.57-3.06l.2-.39a.36.36,0,0,0-.16-.49.32.32,0,0,0-.21,0Z" style="fill:#cd4c1d"/><path d="M588.85,390h-4.41a.38.38,0,0,0-.37.37V395a.38.38,0,0,0,.37.37h3.7a.38.38,0,0,0,.37-.29,23.25,23.25,0,0,0,.71-4.62.38.38,0,0,0-.35-.39h0Z" style="fill:#cd4c1d"/><path d="M597.77,366.77H568.13a5.33,5.33,0,0,0-5.32,5.31v33.66a5.33,5.33,0,0,0,5.32,5.31h29.64a5.32,5.32,0,0,0,5.32-5.31V372.08A5.32,5.32,0,0,0,597.77,366.77ZM583,404.61a15.7,15.7,0,1,1,15.71-15.7A15.7,15.7,0,0,1,583,404.61Z" style="fill:#cd4c1d"/></g></g><path d="M553.2,359.59v-3.28a7.72,7.72,0,0,1,7.72-7.72h0a7.35,7.35,0,0,1,7.36,7.35v8.57a.79.79,0,0,0,.79.79h4.59a.79.79,0,0,0,.79-.78h0V356a13.52,13.52,0,0,0-13.52-13.52h0a14.25,14.25,0,0,0-14.26,14.26h0v2.88a1.3,1.3,0,0,0,1.29,1.3h3.94a1.3,1.3,0,0,0,1.3-1.3Z" style="fill:#cd4c1d"/><path d="M145.59,135.92h-24.9l-6.88-30.77-6.87,30.77H82L62.77,76.63H85.89l8.24,37.29,10.32-37.29h18.73l10.31,37.53,8.25-37.53h23.12Z" style="fill:#cd4c1d"/><path d="M226,129.69a42.47,42.47,0,0,1-24.07,7.41,38.09,38.09,0,0,1-18-4.18,32.73,32.73,0,0,1-12.63-11.41,29.4,29.4,0,0,1-4.66-16.24A28.57,28.57,0,0,1,170.78,90a29.9,29.9,0,0,1,11.3-10.64,33,33,0,0,1,16.15-3.91,31.21,31.21,0,0,1,16.54,4.32,29.68,29.68,0,0,1,11.09,12,38.54,38.54,0,0,1,4,17.9v1.9H190.11a14.15,14.15,0,0,0,3,4.18,14,14,0,0,0,4.74,3,18,18,0,0,0,6.64,1.13,26.77,26.77,0,0,0,15.83-5.34Zm-36.88-27h20.69a10.85,10.85,0,0,0-1.69-4.92,9.71,9.71,0,0,0-3.67-3.35,10.61,10.61,0,0,0-5.07-1.22,9.34,9.34,0,0,0-5,1.31A10.53,10.53,0,0,0,190.91,98,13.51,13.51,0,0,0,189.1,102.72Z" style="fill:#cd4c1d"/><path d="M257.87,135.92H238.72V47H260.6V82.56a25.78,25.78,0,0,1,7.94-5.25,24.84,24.84,0,0,1,9.67-1.86,24.14,24.14,0,0,1,13.75,4,27.51,27.51,0,0,1,9.43,11,35.37,35.37,0,0,1,3.44,15.85,35.38,35.38,0,0,1-3.44,15.86,27.51,27.51,0,0,1-9.43,11,24.14,24.14,0,0,1-13.75,4,24.83,24.83,0,0,1-10.76-2.34,25.3,25.3,0,0,1-8.51-6.49Zm13.64-18.38a10.91,10.91,0,0,0,5.66-1.45,10.26,10.26,0,0,0,3.85-4,12.15,12.15,0,0,0,1.4-5.89,11.66,11.66,0,0,0-1.4-5.73,10.41,10.41,0,0,0-3.85-4A10.91,10.91,0,0,0,271.51,95a11.17,11.17,0,0,0-5.37,1.3,10.46,10.46,0,0,0-3.85,3.56,11.09,11.09,0,0,0-1.69,5.22v2.19a11.57,11.57,0,0,0,1.69,5.34,10.19,10.19,0,0,0,3.85,3.61A11.06,11.06,0,0,0,271.51,117.54Z" style="fill:#cd4c1d"/><path d="M396.07,135.92H376.92l-1.07-6.52a21.68,21.68,0,0,1-7.89,5.72,25.31,25.31,0,0,1-10.07,2A24.21,24.21,0,0,1,347,134.76a18.49,18.49,0,0,1-7.47-6.46,17.59,17.59,0,0,1,.23-19.18,19.9,19.9,0,0,1,8.22-6.61,28.5,28.5,0,0,1,12-2.4,35.62,35.62,0,0,1,7.23.74,37.69,37.69,0,0,1,6.94,2.16v-.94a7.24,7.24,0,0,0-1.75-4.81A11.6,11.6,0,0,0,367.58,94a19.85,19.85,0,0,0-7.09-1.18A25.81,25.81,0,0,0,352.7,94,22.75,22.75,0,0,0,346,97.38L340.4,81.32a70.91,70.91,0,0,1,12.92-4.39,54.31,54.31,0,0,1,12.27-1.48A34.4,34.4,0,0,1,381.75,79a25.61,25.61,0,0,1,10.58,10.14,30.68,30.68,0,0,1,3.74,15.44Zm-33.14-14.77a12.45,12.45,0,0,0,5.24-1.18,12.94,12.94,0,0,0,4.24-3,5.58,5.58,0,0,0,1.66-3.74v-.06a18.92,18.92,0,0,0-4.74-1.93,20.78,20.78,0,0,0-5.22-.68,10.8,10.8,0,0,0-5.9,1.4,4.32,4.32,0,0,0-2.16,3.82,4.64,4.64,0,0,0,.89,2.79,5.68,5.68,0,0,0,2.46,1.92A8.65,8.65,0,0,0,362.93,121.15Z" style="fill:#cd4c1d"/><path d="M428.67,165.56H406.74V76.63h19.15L427,84.34a24.81,24.81,0,0,1,19.27-8.89,24.14,24.14,0,0,1,13.75,4,27.43,27.43,0,0,1,9.43,11,35.37,35.37,0,0,1,3.44,15.85,35.38,35.38,0,0,1-3.44,15.86,27.43,27.43,0,0,1-9.43,11,24.14,24.14,0,0,1-13.75,4,24.57,24.57,0,0,1-9.66-1.87,25.5,25.5,0,0,1-7.95-5.24Zm10.91-48a10.91,10.91,0,0,0,5.66-1.45,10.34,10.34,0,0,0,3.86-4,12.84,12.84,0,0,0,0-11.62,10.38,10.38,0,0,0-3.86-4A10.91,10.91,0,0,0,439.58,95a11.13,11.13,0,0,0-5.36,1.3,10.25,10.25,0,0,0-3.86,3.62,11.57,11.57,0,0,0-1.69,5.34v2.19a11.2,11.2,0,0,0,1.69,5.19,10.22,10.22,0,0,0,3.86,3.58A11,11,0,0,0,439.58,117.54Z" style="fill:#cd4c1d"/><path d="M503.73,165.56H481.79V76.63h19.15l1.13,7.71a24.77,24.77,0,0,1,19.26-8.89,24.17,24.17,0,0,1,13.76,4,27.49,27.49,0,0,1,9.42,11A35.24,35.24,0,0,1,548,106.27a35.25,35.25,0,0,1-3.44,15.86,27.49,27.49,0,0,1-9.42,11,24.17,24.17,0,0,1-13.76,4,24.61,24.61,0,0,1-9.66-1.87,25.57,25.57,0,0,1-7.94-5.24Zm10.9-48a10.92,10.92,0,0,0,5.67-1.45,10.31,10.31,0,0,0,3.85-4,12.84,12.84,0,0,0,0-11.62,10.35,10.35,0,0,0-3.85-4A10.92,10.92,0,0,0,514.63,95a11.15,11.15,0,0,0-5.36,1.3,10.22,10.22,0,0,0-3.85,3.62,11.45,11.45,0,0,0-1.69,5.34v2.19a11.08,11.08,0,0,0,1.69,5.19,10.2,10.2,0,0,0,3.85,3.58A11,11,0,0,0,514.63,117.54Z" style="fill:#cd4c1d"/><path d="M552.7,130.88l4.5-18a17.29,17.29,0,0,0,4.77,3.68,33.59,33.59,0,0,0,6.91,2.88,24.56,24.56,0,0,0,6.88,1.09,7.32,7.32,0,0,0,3.61-.71,2.22,2.22,0,0,0,1.25-2,3,3,0,0,0-1.19-2.35,12.68,12.68,0,0,0-3.17-1.8c-1.32-.56-2.84-1.13-4.53-1.72q-3.79-1.36-8-3.35a20.82,20.82,0,0,1-7.08-5.46q-2.91-3.46-2.91-9.28a16.13,16.13,0,0,1,3-9.75,19.17,19.17,0,0,1,8.47-6.37,33.88,33.88,0,0,1,12.9-2.25,55.86,55.86,0,0,1,25,6.22L597,98.33a21.84,21.84,0,0,0-5-3.14,41.05,41.05,0,0,0-6.31-2.43,20.46,20.46,0,0,0-5.61-1,5.18,5.18,0,0,0-2.93.68,2.17,2.17,0,0,0-1,1.87,2.92,2.92,0,0,0,1.16,2.28,11.54,11.54,0,0,0,3.14,1.78c1.32.53,2.78,1.1,4.36,1.69a79.41,79.41,0,0,1,8.18,3.35,20.89,20.89,0,0,1,7.14,5.45q2.94,3.47,2.94,9.34a16.25,16.25,0,0,1-3.17,10,20.2,20.2,0,0,1-9,6.55,36.72,36.72,0,0,1-13.66,2.31A50.63,50.63,0,0,1,552.7,130.88Z" style="fill:#cd4c1d"/><path d="M271.7,219.81H252.55l-1.07-6.52A21.61,21.61,0,0,1,243.6,219a25.32,25.32,0,0,1-10.08,2,24.08,24.08,0,0,1-10.85-2.35,18.63,18.63,0,0,1-7.47-6.46,17.62,17.62,0,0,1,.24-19.18,20,20,0,0,1,8.21-6.61,28.58,28.58,0,0,1,12-2.4,35.62,35.62,0,0,1,7.23.74,37.86,37.86,0,0,1,6.93,2.17V186a7.24,7.24,0,0,0-1.74-4.8,11.55,11.55,0,0,0-4.87-3.26,19.75,19.75,0,0,0-7.08-1.19,25.83,25.83,0,0,0-7.8,1.19,22.34,22.34,0,0,0-6.72,3.38L216,165.21A71.26,71.26,0,0,1,229,160.82a54.82,54.82,0,0,1,12.27-1.48,34.36,34.36,0,0,1,16.15,3.59A25.55,25.55,0,0,1,268,173.06a30.68,30.68,0,0,1,3.73,15.45Zm-33.14-14.76a12.47,12.47,0,0,0,5.25-1.19,12.94,12.94,0,0,0,4.24-3,5.61,5.61,0,0,0,1.66-3.74v0a18.77,18.77,0,0,0-4.75-1.93,20.26,20.26,0,0,0-5.21-.68,10.8,10.8,0,0,0-5.9,1.39,4.32,4.32,0,0,0-2.17,3.82,4.71,4.71,0,0,0,.89,2.79,5.89,5.89,0,0,0,2.46,1.93A8.89,8.89,0,0,0,238.56,205.05Z" style="fill:#cd4c1d"/><path d="M304.25,219.81H282.37V160.53h19l.71,9.3a21.4,21.4,0,0,1,7.71-7.73,21.17,21.17,0,0,1,10.85-2.76,27.53,27.53,0,0,1,4.21.33,32.24,32.24,0,0,1,4.33,1l-2.73,19.69a25.9,25.9,0,0,0-8.06-1.43,14.93,14.93,0,0,0-7.5,1.81,12.31,12.31,0,0,0-4.89,5.07,16.38,16.38,0,0,0-1.72,7.77Z" style="fill:#cd4c1d"/><path d="M391.75,213.59A42.45,42.45,0,0,1,367.68,221a38.21,38.21,0,0,1-18-4.18,32.75,32.75,0,0,1-12.63-11.42,29.37,29.37,0,0,1-4.65-16.24,28.48,28.48,0,0,1,4.15-15.27,29.87,29.87,0,0,1,11.29-10.64A33.06,33.06,0,0,1,364,159.34a31.18,31.18,0,0,1,16.54,4.33,29.63,29.63,0,0,1,11.08,12,38.56,38.56,0,0,1,4,17.91v1.89H355.88a14.07,14.07,0,0,0,3,4.18,13.84,13.84,0,0,0,4.74,3,18,18,0,0,0,6.64,1.12,26.76,26.76,0,0,0,15.83-5.33Zm-36.87-27h20.69a11,11,0,0,0-1.69-4.92,9.89,9.89,0,0,0-3.68-3.35,10.61,10.61,0,0,0-5.07-1.21,9.39,9.39,0,0,0-5,1.3,10.56,10.56,0,0,0-3.47,3.44A13.37,13.37,0,0,0,354.88,186.61Z" style="fill:#cd4c1d"/><path d="M338.42,302.52H319.28L318.21,296a21.65,21.65,0,0,1-7.89,5.72,25.14,25.14,0,0,1-10.07,2,24.18,24.18,0,0,1-10.85-2.34,18.57,18.57,0,0,1-7.47-6.46,17.59,17.59,0,0,1,.23-19.18,19.94,19.94,0,0,1,8.21-6.61,28.58,28.58,0,0,1,12-2.4,34.92,34.92,0,0,1,7.23.74,37.17,37.17,0,0,1,6.94,2.16v-.95a7.21,7.21,0,0,0-1.75-4.8,11.67,11.67,0,0,0-4.86-3.26,19.85,19.85,0,0,0-7.09-1.19,25.81,25.81,0,0,0-7.79,1.19,22.75,22.75,0,0,0-6.73,3.38l-5.57-16.07a70.85,70.85,0,0,1,12.92-4.38A54.34,54.34,0,0,1,308,242.05a34.4,34.4,0,0,1,16.16,3.59,25.55,25.55,0,0,1,10.58,10.14,30.65,30.65,0,0,1,3.73,15.44Zm-33.14-14.76a12.46,12.46,0,0,0,5.25-1.18,12.82,12.82,0,0,0,4.24-3,5.56,5.56,0,0,0,1.66-3.73v-.06a18.92,18.92,0,0,0-4.74-1.93,20.78,20.78,0,0,0-5.22-.68,10.89,10.89,0,0,0-5.9,1.39,4.34,4.34,0,0,0-2.16,3.83,4.61,4.61,0,0,0,.89,2.78,5.69,5.69,0,0,0,2.46,1.93A8.8,8.8,0,0,0,305.28,287.76Z" style="fill:#cd4c1d"/><path d="M371,332.17H349.1V243.24h19.14l1.13,7.71a25,25,0,0,1,8.51-6.55,24.7,24.7,0,0,1,10.76-2.35,24.14,24.14,0,0,1,13.75,4,27.48,27.48,0,0,1,9.43,11,38.28,38.28,0,0,1,0,31.72,27.58,27.58,0,0,1-9.43,11,24.14,24.14,0,0,1-13.75,4,24.66,24.66,0,0,1-9.67-1.87A25.57,25.57,0,0,1,371,296.6Zm10.91-48a10.92,10.92,0,0,0,5.66-1.46,10.22,10.22,0,0,0,3.85-4,12.76,12.76,0,0,0,0-11.62,10.22,10.22,0,0,0-3.85-4,10.91,10.91,0,0,0-5.66-1.45,11.05,11.05,0,0,0-5.37,1.3,10.29,10.29,0,0,0-3.85,3.62,11.56,11.56,0,0,0-1.69,5.33v2.2a11.19,11.19,0,0,0,1.69,5.18,10.3,10.3,0,0,0,3.85,3.59A11.06,11.06,0,0,0,381.94,284.15Z" style="fill:#cd4c1d"/><path d="M446.08,332.17H424.15V243.24H443.3l1.12,7.71a25.06,25.06,0,0,1,8.51-6.55,24.73,24.73,0,0,1,10.76-2.35,24.2,24.2,0,0,1,13.76,4,27.46,27.46,0,0,1,9.42,11,38.28,38.28,0,0,1,0,31.72,27.56,27.56,0,0,1-9.42,11,24.19,24.19,0,0,1-13.76,4,24.57,24.57,0,0,1-9.66-1.87,25.62,25.62,0,0,1-7.95-5.24Zm10.91-48a10.89,10.89,0,0,0,5.66-1.46,10.31,10.31,0,0,0,3.86-4,12.84,12.84,0,0,0,0-11.62,10.31,10.31,0,0,0-3.86-4,10.89,10.89,0,0,0-5.66-1.45,11,11,0,0,0-5.36,1.3,10.32,10.32,0,0,0-3.86,3.62,11.68,11.68,0,0,0-1.69,5.33v2.2a11.31,11.31,0,0,0,1.69,5.18,10.32,10.32,0,0,0,3.86,3.59A11,11,0,0,0,457,284.15Z" style="fill:#cd4c1d"/><path d="M495.05,297.48l4.51-18a17.29,17.29,0,0,0,4.77,3.68,33.57,33.57,0,0,0,6.91,2.87,24.6,24.6,0,0,0,6.88,1.1,7.44,7.44,0,0,0,3.61-.71,2.23,2.23,0,0,0,1.25-2,3,3,0,0,0-1.19-2.34,13,13,0,0,0-3.17-1.81q-2-.83-4.54-1.72c-2.53-.91-5.18-2-8-3.35a20.57,20.57,0,0,1-7.08-5.45q-2.91-3.46-2.91-9.28a16.19,16.19,0,0,1,3-9.75,19.18,19.18,0,0,1,8.48-6.37,33.68,33.68,0,0,1,12.9-2.26,55.88,55.88,0,0,1,25,6.23l-6.11,16.66a21.72,21.72,0,0,0-5-3.14,42.58,42.58,0,0,0-6.31-2.44,20.46,20.46,0,0,0-5.61-.94,5.1,5.1,0,0,0-2.93.68,2.15,2.15,0,0,0-1,1.87,2.93,2.93,0,0,0,1.16,2.28,11.65,11.65,0,0,0,3.14,1.78c1.32.53,2.78,1.09,4.36,1.69a80.33,80.33,0,0,1,8.18,3.35,20.89,20.89,0,0,1,7.14,5.45q2.94,3.47,2.94,9.34a16.2,16.2,0,0,1-3.18,10,20.19,20.19,0,0,1-8.95,6.55,36.72,36.72,0,0,1-13.66,2.31A50.7,50.7,0,0,1,495.05,297.48Z" style="fill:#cd4c1d"/></svg>